G04*
G04 #@! TF.GenerationSoftware,Altium Limited,Altium Designer,24.2.2 (26)*
G04*
G04 Layer_Color=32768*
%FSLAX25Y25*%
%MOIN*%
G70*
G04*
G04 #@! TF.SameCoordinates,57EBE310-F326-475D-97A3-4CF97A274748*
G04*
G04*
G04 #@! TF.FilePolarity,Positive*
G04*
G01*
G75*
%ADD10C,0.00394*%
%ADD14C,0.00600*%
%ADD82C,0.00197*%
G36*
X198683Y396945D02*
Y386659D01*
Y385702D01*
X188383D01*
Y386659D01*
Y396945D01*
Y397902D01*
X198683D01*
Y396945D01*
D02*
G37*
G36*
X176588Y315929D02*
X177781D01*
Y307024D01*
X176588D01*
Y306526D01*
X166688D01*
Y307024D01*
X165494D01*
Y315929D01*
X166688D01*
Y316426D01*
X176588D01*
Y315929D01*
D02*
G37*
G36*
X184438Y289300D02*
X185200D01*
Y277100D01*
X184438D01*
Y275900D01*
X173762D01*
Y277100D01*
X173000D01*
Y289300D01*
X173762D01*
Y290500D01*
X184438D01*
Y289300D01*
D02*
G37*
G36*
X145936Y282334D02*
X151186D01*
Y270957D01*
X145936D01*
Y269546D01*
X131736D01*
Y270957D01*
X126486D01*
Y282334D01*
X131736D01*
Y283746D01*
X145936D01*
Y282334D01*
D02*
G37*
G36*
X220350Y249657D02*
X225900D01*
Y228343D01*
X220350D01*
Y227950D01*
X200650D01*
Y228343D01*
X195100D01*
Y249657D01*
X200650D01*
Y250050D01*
X220350D01*
Y249657D01*
D02*
G37*
D10*
X298500Y332832D02*
Y336769D01*
X296532Y334800D02*
X300468D01*
X209500Y308032D02*
Y311968D01*
X207531Y310000D02*
X211469D01*
X313928Y285000D02*
X317471D01*
X315699Y283228D02*
Y286772D01*
X313928Y305000D02*
X317471D01*
X315699Y303228D02*
Y306772D01*
X313928Y325000D02*
X317471D01*
X315699Y323228D02*
Y326772D01*
X313928Y345000D02*
X317471D01*
X315699Y343228D02*
Y346772D01*
X313928Y335000D02*
X317471D01*
X315699Y333228D02*
Y336772D01*
X230362Y242303D02*
X233905D01*
X232133Y240532D02*
Y244075D01*
X141500Y312996D02*
X145437D01*
X143468Y311028D02*
Y314965D01*
X228063Y392800D02*
X232000D01*
X230031Y390831D02*
Y394768D01*
X195263Y377891D02*
X199003D01*
X197133Y376021D02*
Y379761D01*
X232133Y246060D02*
Y249604D01*
X230362Y247832D02*
X233905D01*
X131368Y236723D02*
X135305D01*
X133336Y234755D02*
Y238692D01*
D14*
X126486Y270957D02*
X131736D01*
Y269546D02*
Y270957D01*
Y269546D02*
X145936D01*
Y270957D01*
X151186D01*
Y282334D01*
X145936D02*
X151186D01*
X145936D02*
Y283746D01*
X131736D02*
X145936D01*
X131736Y282334D02*
Y283746D01*
X126486Y282334D02*
X131736D01*
X126486Y270957D02*
Y282334D01*
X185200Y277100D02*
Y289300D01*
X184438D02*
X185200D01*
X173000D02*
X173762D01*
X173000Y277100D02*
Y289300D01*
Y277100D02*
X173762D01*
X184438D02*
X185200D01*
X184438Y275900D02*
Y277100D01*
Y289300D02*
Y290500D01*
X173762D02*
X184438D01*
X173762Y289300D02*
Y290500D01*
Y275900D02*
Y277100D01*
Y275900D02*
X184438D01*
X166688Y306526D02*
X176588D01*
Y307024D01*
Y315929D02*
Y316426D01*
X166688D02*
X176588D01*
X166688Y315929D02*
Y316426D01*
Y306526D02*
Y307024D01*
X165494D02*
X166688D01*
X176588D02*
X177781D01*
Y315929D01*
X176588D02*
X177781D01*
X165494D02*
X166688D01*
X165494Y307024D02*
Y315929D01*
X195100Y228343D02*
X200650D01*
Y227950D02*
Y228343D01*
Y227950D02*
X220350D01*
Y228343D01*
X225900D01*
Y249657D01*
X220350D02*
X225900D01*
X220350D02*
Y250050D01*
X200650D02*
X220350D01*
X200650Y249657D02*
Y250050D01*
X195100Y249657D02*
X200650D01*
X195100Y228343D02*
Y249657D01*
X188383Y385702D02*
X198683D01*
Y386659D01*
Y396945D02*
Y397902D01*
X188383D02*
X198683D01*
X188383Y396945D02*
Y397902D01*
Y385702D02*
Y386659D01*
X198683D02*
Y396945D01*
X188383Y386659D02*
Y396945D01*
D82*
X260665Y267871D02*
X336335D01*
X260665Y401729D02*
X336335D01*
Y267871D02*
Y401729D01*
X260665Y267871D02*
Y401729D01*
X195031Y299567D02*
X223969D01*
X195031D02*
Y320433D01*
X223969D01*
Y299567D02*
Y320433D01*
X319833Y282835D02*
Y287165D01*
X311565Y282835D02*
Y287165D01*
X319833D01*
X311565Y282835D02*
X319833D01*
Y302835D02*
Y307165D01*
X311565Y302835D02*
Y307165D01*
X319833D01*
X311565Y302835D02*
X319833D01*
Y322835D02*
Y327165D01*
X311565Y322835D02*
Y327165D01*
X319833D01*
X311565Y322835D02*
X319833D01*
Y342835D02*
Y347165D01*
X311565Y342835D02*
Y347165D01*
X319833D01*
X311565Y342835D02*
X319833D01*
Y332835D02*
Y337165D01*
X311565Y332835D02*
Y337165D01*
X319833D01*
X311565Y332835D02*
X319833D01*
X227999Y240138D02*
Y244469D01*
X236267Y240138D02*
Y244469D01*
X227999D02*
X236267D01*
X227999Y240138D02*
X236267D01*
X152524Y304532D02*
Y321461D01*
X134413Y304532D02*
Y321461D01*
Y304532D02*
X152524D01*
X134413Y321461D02*
X152524D01*
X137766Y241270D02*
Y247176D01*
X149577Y241270D02*
Y247176D01*
X137766Y241270D02*
X149577D01*
X137766Y247176D02*
X149577D01*
X141801Y244223D02*
X145541D01*
X143671Y242353D02*
Y246093D01*
X218023Y383548D02*
X242039D01*
Y402052D01*
X218023Y383548D02*
Y402052D01*
X242039D01*
X200086Y372773D02*
Y383009D01*
X194180Y372773D02*
Y383009D01*
X200086D01*
X194180Y372773D02*
X200086D01*
X227999Y245667D02*
X236267D01*
X227999Y249997D02*
X236267D01*
Y245667D02*
Y249997D01*
X227999Y245667D02*
Y249997D01*
X120147Y226487D02*
Y246959D01*
X146525Y226487D02*
Y246959D01*
X120147D02*
X146525D01*
X120147Y226487D02*
X146525D01*
M02*
