G04*
G04 #@! TF.GenerationSoftware,Altium Limited,Altium Designer,24.2.2 (26)*
G04*
G04 Layer_Color=16711935*
%FSLAX25Y25*%
%MOIN*%
G70*
G04*
G04 #@! TF.SameCoordinates,57EBE310-F326-475D-97A3-4CF97A274748*
G04*
G04*
G04 #@! TF.FilePolarity,Positive*
G04*
G01*
G75*
%ADD15C,0.00787*%
D15*
X322331Y382736D02*
Y387264D01*
X313669Y382736D02*
X322331D01*
X313669D02*
Y387264D01*
X322331D01*
X140612Y302582D02*
Y311661D01*
X136282D02*
X140612D01*
X136282Y302582D02*
Y311661D01*
Y302582D02*
X140612D01*
X146409Y314768D02*
Y319098D01*
X155489D01*
Y314768D02*
Y319098D01*
X146409Y314768D02*
X155489D01*
X172997Y275110D02*
Y284190D01*
Y275110D02*
X177327D01*
Y284190D01*
X172997D02*
X177327D01*
X143021Y278319D02*
Y282649D01*
X152101D01*
Y278319D02*
Y282649D01*
X143021Y278319D02*
X152101D01*
X172540Y321635D02*
Y325965D01*
X163460Y321635D02*
X172540D01*
X163460D02*
Y325965D01*
X172540D01*
X192449Y299543D02*
X203914D01*
Y305103D01*
X192449D02*
X203914D01*
X192449Y299543D02*
Y305103D01*
X275985Y244640D02*
Y250200D01*
X287450D01*
Y244640D02*
Y250200D01*
X275985Y244640D02*
X287450D01*
X277177Y258655D02*
X286257D01*
X277177Y254324D02*
Y258655D01*
Y254324D02*
X286257D01*
Y258655D01*
X192892Y236450D02*
X203546D01*
X192892Y229954D02*
Y236450D01*
Y229954D02*
X203546D01*
Y236450D01*
X192892Y248046D02*
X203546D01*
X192892Y241550D02*
Y248046D01*
Y241550D02*
X203546D01*
Y248046D01*
X193641Y319843D02*
X202721D01*
X193641Y315512D02*
Y319843D01*
Y315512D02*
X202721D01*
Y319843D01*
X193195Y297800D02*
X202275D01*
X193195Y293469D02*
Y297800D01*
Y293469D02*
X202275D01*
Y297800D01*
X226546Y226697D02*
Y233193D01*
X215892Y226697D02*
X226546D01*
X215892D02*
Y233193D01*
X226546D01*
Y244610D02*
Y251106D01*
X215892Y244610D02*
X226546D01*
X215892D02*
Y251106D01*
X226546D01*
X110750Y247235D02*
X115080D01*
Y236211D02*
Y247235D01*
X110750Y236211D02*
X115080D01*
X110750D02*
Y247235D01*
X152171Y242235D02*
X156502D01*
Y231211D02*
Y242235D01*
X152171Y231211D02*
X156502D01*
X152171D02*
Y242235D01*
X139131Y249850D02*
Y254181D01*
X148211D01*
Y249850D02*
Y254181D01*
X139131Y249850D02*
X148211D01*
M02*
