M48
;Layer_Color=9474304
;FILE_FORMAT=2:5
INCH,TZ
;TYPE=PLATED
T01F00S00C0.01181
T02F00S00C0.03504
T03F00S00C0.03937
%
T01
X329996Y285000
Y305000
X286900Y289800
X281500Y293100
X276430Y296300
X285654Y264586
X272802Y256446
Y244538
Y239713
X248000Y239800
X252400Y244600
X244000Y232602
X239700Y235161
X236200Y237800
X229093Y230043
X210500Y227275
Y237720
X206933Y246098
X197437Y253000
X217285
X224912
X230808Y308130
X205900Y295635
X190000Y300350
Y304882
X180669Y305258
X184500Y309311
Y298229
X175116Y292331
X170949Y300000
X160927Y302037
X161000Y305498
Y309024
X170949Y282083
X171710Y274439
X170949Y269546
X178700Y274439
X184898
X177257Y238692
X167500
X154336Y233377
X146821Y248669
X137000Y250223
X134500Y254404
X125268
X130587Y265803
X151000Y265500
X154330Y269546
X156230Y285096
X150186Y285844
X144350
X144424Y303649
X143468Y308272
X150186Y302975
X112915Y238377
X116500Y227500
X130395Y314000
X139532Y312996
X147406
X143468Y317721
X148486Y321336
X136848Y321461
X156900Y318902
X165145Y319098
X170653
X162706Y312504
X191775Y312559
X190000Y317677
X207100Y318900
X226600Y312529
X230971Y316161
X252000Y325400
X267004Y325000
X309100
Y335000
Y345000
X310047Y385000
X212884Y390420
X201181Y390551
X203400Y375431
X176495Y369096
X168800Y374603
X167007Y386466
X179100Y327900
X329996Y325000
X330000Y315100
X329996Y335000
Y345000
Y355000
Y374800
Y385000
T02
X114000Y269626
Y277500
Y285374
X114500Y306126
Y314000
Y321874
T03
X161206Y296000
X197735Y285000
Y275000
X151206Y296000
X162457Y333000
X172457
X226094Y390634
X233968
M30
