G04*
G04 #@! TF.GenerationSoftware,Altium Limited,Altium Designer,24.2.2 (26)*
G04*
G04 Layer_Physical_Order=4*
G04 Layer_Color=16711680*
%FSLAX25Y25*%
%MOIN*%
G70*
G04*
G04 #@! TF.SameCoordinates,57EBE310-F326-475D-97A3-4CF97A274748*
G04*
G04*
G04 #@! TF.FilePolarity,Positive*
G04*
G01*
G75*
%ADD18C,0.01000*%
%ADD24R,0.03150X0.03543*%
%ADD31R,0.02362X0.03150*%
%ADD52R,0.05472X0.05472*%
%ADD53C,0.05472*%
%ADD56C,0.01500*%
%ADD57C,0.01400*%
%ADD60C,0.02000*%
%ADD61C,0.03000*%
G04:AMPARAMS|DCode=62|XSize=80mil|YSize=60mil|CornerRadius=0mil|HoleSize=0mil|Usage=FLASHONLY|Rotation=90.000|XOffset=0mil|YOffset=0mil|HoleType=Round|Shape=Octagon|*
%AMOCTAGOND62*
4,1,8,0.01500,0.04000,-0.01500,0.04000,-0.03000,0.02500,-0.03000,-0.02500,-0.01500,-0.04000,0.01500,-0.04000,0.03000,-0.02500,0.03000,0.02500,0.01500,0.04000,0.0*
%
%ADD62OCTAGOND62*%

G04:AMPARAMS|DCode=63|XSize=80mil|YSize=60mil|CornerRadius=0mil|HoleSize=0mil|Usage=FLASHONLY|Rotation=180.000|XOffset=0mil|YOffset=0mil|HoleType=Round|Shape=Octagon|*
%AMOCTAGOND63*
4,1,8,-0.04000,0.01500,-0.04000,-0.01500,-0.02500,-0.03000,0.02500,-0.03000,0.04000,-0.01500,0.04000,0.01500,0.02500,0.03000,-0.02500,0.03000,-0.04000,0.01500,0.0*
%
%ADD63OCTAGOND63*%

%ADD64C,0.05906*%
%ADD65R,0.05906X0.05906*%
%ADD66C,0.02362*%
%ADD73R,0.01968X0.03543*%
%ADD74R,0.03197X0.03367*%
%ADD75R,0.03367X0.03197*%
%ADD76R,0.03775X0.03591*%
%ADD77R,0.04152X0.05339*%
%ADD78R,0.03543X0.03937*%
G36*
X345500Y372223D02*
X344915Y372107D01*
X344419Y371775D01*
X344087Y371279D01*
X343971Y370694D01*
Y307444D01*
Y271452D01*
X325765Y253247D01*
X299537D01*
X299154Y253089D01*
X298996Y252706D01*
Y226478D01*
X288866Y216348D01*
X88529D01*
X88529Y335819D01*
X88413Y336404D01*
X88081Y336900D01*
X163500Y412319D01*
X345500D01*
Y372223D01*
D02*
G37*
%LPC*%
G36*
X225594Y394587D02*
X225574D01*
X224569Y394318D01*
X223667Y393797D01*
X222931Y393061D01*
X222411Y392160D01*
X222142Y391155D01*
Y391134D01*
X225594D01*
Y394587D01*
D02*
G37*
G36*
X201681Y392705D02*
Y391051D01*
X203335D01*
X203030Y391787D01*
X202417Y392400D01*
X201681Y392705D01*
D02*
G37*
G36*
X200681D02*
X199946Y392400D01*
X199332Y391787D01*
X199027Y391051D01*
X200681D01*
Y392705D01*
D02*
G37*
G36*
X213384Y392574D02*
Y390920D01*
X215038D01*
X214733Y391656D01*
X214120Y392269D01*
X213384Y392574D01*
D02*
G37*
G36*
X212384D02*
X211649Y392269D01*
X211035Y391656D01*
X210730Y390920D01*
X212384D01*
Y392574D01*
D02*
G37*
G36*
X203335Y390051D02*
X201681D01*
Y388398D01*
X202417Y388702D01*
X203030Y389316D01*
X203335Y390051D01*
D02*
G37*
G36*
X200681D02*
X199027D01*
X199332Y389316D01*
X199946Y388702D01*
X200681Y388398D01*
Y390051D01*
D02*
G37*
G36*
X215038Y389920D02*
X213384D01*
Y388267D01*
X214120Y388571D01*
X214733Y389185D01*
X215038Y389920D01*
D02*
G37*
G36*
X212384D02*
X210730D01*
X211035Y389185D01*
X211649Y388571D01*
X212384Y388267D01*
Y389920D01*
D02*
G37*
G36*
X226615Y394587D02*
X226594D01*
Y390634D01*
Y386682D01*
X226615D01*
X227620Y386951D01*
X228521Y387471D01*
X229257Y388207D01*
X229778Y389109D01*
X230016Y389997D01*
X230516Y389931D01*
Y387182D01*
X237421D01*
Y394087D01*
X230516D01*
Y391338D01*
X230016Y391272D01*
X229778Y392160D01*
X229257Y393061D01*
X228521Y393797D01*
X227620Y394318D01*
X226615Y394587D01*
D02*
G37*
G36*
X167507Y388620D02*
Y386966D01*
X169160D01*
X168856Y387702D01*
X168242Y388316D01*
X167507Y388620D01*
D02*
G37*
G36*
X166507D02*
X165771Y388316D01*
X165158Y387702D01*
X164853Y386966D01*
X166507D01*
Y388620D01*
D02*
G37*
G36*
X225594Y390134D02*
X222142D01*
Y390114D01*
X222411Y389109D01*
X222931Y388207D01*
X223667Y387471D01*
X224569Y386951D01*
X225574Y386682D01*
X225594D01*
Y390134D01*
D02*
G37*
G36*
X169160Y385966D02*
X167507D01*
Y384313D01*
X168242Y384617D01*
X168856Y385231D01*
X169160Y385966D01*
D02*
G37*
G36*
X166507D02*
X164853D01*
X165158Y385231D01*
X165771Y384617D01*
X166507Y384313D01*
Y385966D01*
D02*
G37*
G36*
X322437Y387272D02*
X319468D01*
Y386379D01*
X319069Y385780D01*
X318914Y385000D01*
X319069Y384220D01*
X319468Y383621D01*
Y382728D01*
X322437D01*
Y382961D01*
X329996D01*
X330776Y383116D01*
X331438Y383558D01*
X331880Y384220D01*
X332035Y385000D01*
X331880Y385780D01*
X331438Y386442D01*
X330776Y386884D01*
X329996Y387039D01*
X322437D01*
Y387272D01*
D02*
G37*
G36*
X316531D02*
X313563D01*
Y387039D01*
X310047D01*
X309267Y386884D01*
X308605Y386442D01*
X308163Y385780D01*
X308008Y385000D01*
X308163Y384220D01*
X308605Y383558D01*
X309267Y383116D01*
X310047Y382961D01*
X313563D01*
Y382728D01*
X316531D01*
Y383621D01*
X316931Y384220D01*
X317086Y385000D01*
X316931Y385780D01*
X316531Y386379D01*
Y387272D01*
D02*
G37*
G36*
X203900Y377584D02*
Y375931D01*
X205554D01*
X205249Y376666D01*
X204636Y377280D01*
X203900Y377584D01*
D02*
G37*
G36*
X202900D02*
X202165Y377280D01*
X201551Y376666D01*
X201246Y375931D01*
X202900D01*
Y377584D01*
D02*
G37*
G36*
X330496Y376954D02*
Y375300D01*
X332150D01*
X331845Y376035D01*
X331232Y376649D01*
X330496Y376954D01*
D02*
G37*
G36*
X329496D02*
X328761Y376649D01*
X328147Y376035D01*
X327842Y375300D01*
X329496D01*
Y376954D01*
D02*
G37*
G36*
X205554Y374931D02*
X203900D01*
Y373277D01*
X204636Y373582D01*
X205249Y374195D01*
X205554Y374931D01*
D02*
G37*
G36*
X202900D02*
X201246D01*
X201551Y374195D01*
X202165Y373582D01*
X202900Y373277D01*
Y374931D01*
D02*
G37*
G36*
X169134Y376284D02*
X168466D01*
X167848Y376028D01*
X167375Y375555D01*
X167119Y374937D01*
Y374268D01*
X167375Y373651D01*
X167848Y373178D01*
X168466Y372922D01*
X169134D01*
X169752Y373178D01*
X170225Y373651D01*
X170481Y374268D01*
Y374937D01*
X170225Y375555D01*
X169752Y376028D01*
X169134Y376284D01*
D02*
G37*
G36*
X332150Y374300D02*
X330496D01*
Y372646D01*
X331232Y372951D01*
X331845Y373565D01*
X332150Y374300D01*
D02*
G37*
G36*
X329496D02*
X327842D01*
X328147Y373565D01*
X328761Y372951D01*
X329496Y372646D01*
Y374300D01*
D02*
G37*
G36*
X176829Y370777D02*
X176161D01*
X175543Y370521D01*
X175070Y370048D01*
X174814Y369430D01*
Y368762D01*
X175070Y368144D01*
X175543Y367671D01*
X176161Y367415D01*
X176829D01*
X177447Y367671D01*
X177920Y368144D01*
X178176Y368762D01*
Y369430D01*
X177920Y370048D01*
X177447Y370521D01*
X176829Y370777D01*
D02*
G37*
G36*
X319939Y347075D02*
X316577D01*
Y345519D01*
X316474Y345000D01*
X316577Y344481D01*
Y342925D01*
X319939D01*
Y343216D01*
X329996D01*
X330679Y343352D01*
X331258Y343738D01*
X331645Y344317D01*
X331780Y345000D01*
X331645Y345683D01*
X331258Y346262D01*
X330679Y346649D01*
X329996Y346784D01*
X319939D01*
Y347075D01*
D02*
G37*
G36*
X314821D02*
X311459D01*
Y346784D01*
X309100D01*
X308417Y346649D01*
X307838Y346262D01*
X307452Y345683D01*
X307316Y345000D01*
X307452Y344317D01*
X307838Y343738D01*
X308417Y343352D01*
X309100Y343216D01*
X311459D01*
Y342925D01*
X314821D01*
Y344481D01*
X314924Y345000D01*
X314821Y345519D01*
Y347075D01*
D02*
G37*
G36*
X319939Y337075D02*
X316577D01*
Y335519D01*
X316474Y335000D01*
X316577Y334481D01*
Y332925D01*
X319939D01*
Y333216D01*
X329996D01*
X330679Y333351D01*
X331258Y333738D01*
X331645Y334317D01*
X331780Y335000D01*
X331645Y335683D01*
X331258Y336262D01*
X330679Y336649D01*
X329996Y336784D01*
X319939D01*
Y337075D01*
D02*
G37*
G36*
X314821D02*
X311459D01*
Y336784D01*
X309100D01*
X308417Y336649D01*
X307838Y336262D01*
X307452Y335683D01*
X307316Y335000D01*
X307452Y334317D01*
X307838Y333738D01*
X308417Y333351D01*
X309100Y333216D01*
X311459D01*
Y332925D01*
X314821D01*
Y334481D01*
X314924Y335000D01*
X314821Y335519D01*
Y337075D01*
D02*
G37*
G36*
X319939Y327075D02*
X316577D01*
Y325519D01*
X316474Y325000D01*
X316577Y324481D01*
Y322925D01*
X319939D01*
Y323216D01*
X329996D01*
X330679Y323352D01*
X331258Y323738D01*
X331645Y324317D01*
X331780Y325000D01*
X331645Y325683D01*
X331258Y326262D01*
X330679Y326648D01*
X329996Y326784D01*
X319939D01*
Y327075D01*
D02*
G37*
G36*
X314821D02*
X311459D01*
Y326784D01*
X309100D01*
X308417Y326648D01*
X307838Y326262D01*
X307452Y325683D01*
X307316Y325000D01*
X307452Y324317D01*
X307838Y323738D01*
X308417Y323352D01*
X309100Y323216D01*
X311459D01*
Y322925D01*
X314821D01*
Y324481D01*
X314924Y325000D01*
X314821Y325519D01*
Y327075D01*
D02*
G37*
G36*
X329996Y357549D02*
X130800D01*
X129824Y357355D01*
X128998Y356802D01*
X93798Y321602D01*
X93245Y320776D01*
X93051Y319800D01*
Y233900D01*
X93245Y232925D01*
X93798Y232098D01*
X107298Y218598D01*
X108125Y218045D01*
X109100Y217851D01*
X266316D01*
X267291Y218045D01*
X268118Y218598D01*
X280658Y231138D01*
X281211Y231965D01*
X281405Y232940D01*
Y244243D01*
X281691Y244624D01*
X284078D01*
Y247420D01*
X284578D01*
Y247920D01*
X287465D01*
Y250215D01*
X286617D01*
Y253890D01*
X286863D01*
Y255989D01*
X284179D01*
Y256989D01*
X286863D01*
Y259088D01*
X286451D01*
Y262401D01*
X286714Y262664D01*
X286890Y262737D01*
X287503Y263351D01*
X287808Y264086D01*
X285654D01*
Y264586D01*
X285154D01*
Y266740D01*
X284419Y266435D01*
X283805Y265822D01*
X283594Y265312D01*
X282970Y264688D01*
X282528Y264026D01*
X282373Y263246D01*
Y259088D01*
X281496D01*
Y259064D01*
X281438Y258588D01*
X280613D01*
X280230Y258844D01*
X279255Y259038D01*
X273590D01*
X272802Y259195D01*
X271826Y259001D01*
X270999Y258448D01*
X270447Y257622D01*
X270253Y256646D01*
X270447Y255671D01*
X270999Y254844D01*
X271156Y254687D01*
X271983Y254134D01*
X272958Y253940D01*
X276307D01*
Y247420D01*
Y233996D01*
X265260Y222949D01*
X226459D01*
X226223Y223390D01*
X226431Y223701D01*
X226625Y224676D01*
Y226775D01*
X226652D01*
Y228259D01*
X229093D01*
X229776Y228395D01*
X230355Y228782D01*
X230742Y229361D01*
X230877Y230043D01*
X230742Y230726D01*
X230355Y231305D01*
X229776Y231692D01*
X229093Y231828D01*
X226652D01*
Y233115D01*
X221500Y233115D01*
X221437Y233589D01*
Y233615D01*
X218861D01*
Y229945D01*
Y226275D01*
X221437Y226275D01*
X221527Y225812D01*
Y225732D01*
X218744Y222949D01*
X110156D01*
X98149Y234956D01*
Y318744D01*
X130800Y351395D01*
X150862Y331333D01*
Y324876D01*
X150880Y324789D01*
Y322623D01*
X150416Y322477D01*
X150374Y322479D01*
X150335Y322571D01*
X149722Y323185D01*
X148986Y323489D01*
Y321336D01*
X148486D01*
Y320836D01*
X146333D01*
X146637Y320100D01*
X146706Y320032D01*
X146499Y319532D01*
X145803D01*
Y319091D01*
X145383Y318974D01*
X145303Y318971D01*
X144704Y319569D01*
X143968Y319874D01*
Y317721D01*
Y315567D01*
X144704Y315871D01*
X145303Y316470D01*
X145383Y316467D01*
X145803Y316350D01*
Y314478D01*
X145556Y314232D01*
X145252Y313496D01*
X147406D01*
Y312496D01*
X145180D01*
X145047Y312297D01*
X141890D01*
X141757Y312496D01*
X139532D01*
Y312996D01*
X139032D01*
Y315150D01*
X138296Y314845D01*
X137682Y314232D01*
X137386Y313515D01*
X136889Y313305D01*
X135112Y315081D01*
X134616Y315413D01*
X134031Y315529D01*
X131096D01*
X131000Y315569D01*
X130867Y316143D01*
X134400Y319676D01*
X136848D01*
X137531Y319812D01*
X138110Y320199D01*
X138497Y320778D01*
X138633Y321461D01*
X138497Y322143D01*
X138110Y322722D01*
X137531Y323109D01*
X136848Y323245D01*
X133661D01*
X132979Y323109D01*
X132400Y322722D01*
X132400Y322722D01*
X126691Y317014D01*
X126304Y316435D01*
X126169Y315752D01*
Y306972D01*
X126304Y306289D01*
X126691Y305711D01*
X131741Y300660D01*
Y277971D01*
X111653Y257883D01*
X111267Y257305D01*
X111131Y256622D01*
Y247341D01*
X110840D01*
Y242798D01*
X114990D01*
Y247341D01*
X114699D01*
Y255883D01*
X134787Y275971D01*
X134787Y275971D01*
X135174Y276549D01*
X135310Y277232D01*
X135310Y277232D01*
Y296438D01*
X135772Y296630D01*
X137663Y294738D01*
X138242Y294352D01*
X138925Y294216D01*
X138925Y294216D01*
X147706D01*
Y293250D01*
X149456Y291500D01*
X152956D01*
X154706Y293250D01*
Y298750D01*
X152956Y300500D01*
X151216D01*
X151117Y301000D01*
X151421Y301126D01*
X152035Y301740D01*
X152340Y302475D01*
X148032D01*
X148337Y301740D01*
X148951Y301126D01*
X149356Y300958D01*
X149368Y300412D01*
X147706Y298750D01*
Y297784D01*
X139664D01*
X135973Y301475D01*
X136180Y301975D01*
X137947D01*
Y304159D01*
X135848D01*
Y302307D01*
X135348Y302100D01*
X129737Y307711D01*
Y312102D01*
X130061Y312319D01*
X130730D01*
X131096Y312471D01*
X133397D01*
X136182Y309686D01*
X136348Y309575D01*
Y307400D01*
X135872Y307342D01*
X135848D01*
Y305159D01*
X138447D01*
Y304659D01*
X138947D01*
Y301975D01*
X141046D01*
Y302620D01*
X142490D01*
X142576Y302414D01*
X143189Y301800D01*
X143924Y301496D01*
Y303649D01*
X144424D01*
Y304149D01*
X146578D01*
X146274Y304885D01*
X145660Y305498D01*
X145317Y305640D01*
X144946Y306012D01*
X144937Y306027D01*
X144897Y306392D01*
X144933Y306651D01*
X145318Y307036D01*
X145622Y307772D01*
X143468D01*
Y308772D01*
X145622D01*
X145601Y308822D01*
X145879Y309238D01*
X149401D01*
X149986Y309354D01*
X150483Y309686D01*
X151771Y310975D01*
X159870D01*
X160021Y310474D01*
X159738Y310285D01*
X159352Y309706D01*
X159216Y309024D01*
X159352Y308341D01*
X159738Y307762D01*
X160038Y307562D01*
Y306960D01*
X159738Y306760D01*
X159352Y306181D01*
X159216Y305498D01*
X159352Y304816D01*
X159738Y304237D01*
X159954Y304093D01*
Y303491D01*
X159665Y303299D01*
X159278Y302720D01*
X159142Y302037D01*
X159278Y301354D01*
X159515Y301000D01*
X159459Y300525D01*
X159359Y300402D01*
X157706Y298750D01*
Y293250D01*
X159422Y291534D01*
Y290811D01*
X154968Y286358D01*
X154581Y285779D01*
X154446Y285096D01*
Y279365D01*
X145520Y270440D01*
X145133Y269861D01*
X144998Y269178D01*
Y260218D01*
X145133Y259535D01*
X145520Y258956D01*
X152552Y251924D01*
Y242341D01*
X152262D01*
Y237798D01*
X156411D01*
Y242341D01*
X156121D01*
Y252663D01*
X156121Y252664D01*
X155985Y253346D01*
X155598Y253925D01*
X155598Y253925D01*
X148566Y260957D01*
Y268439D01*
X157492Y277364D01*
X157492Y277364D01*
X157878Y277943D01*
X158014Y278626D01*
Y284357D01*
X162468Y288811D01*
X162468Y288811D01*
X162855Y289390D01*
X162991Y290072D01*
X162991Y290072D01*
Y291534D01*
X164706Y293250D01*
Y298750D01*
X163666Y299791D01*
X163857Y300253D01*
X168768D01*
Y299566D01*
X169100Y298764D01*
X169713Y298151D01*
X170449Y297846D01*
Y300000D01*
X170949D01*
Y300500D01*
X173103D01*
X172798Y301236D01*
X172185Y301849D01*
X171970Y301938D01*
X171873Y302428D01*
X178640Y309195D01*
X179140Y308988D01*
Y306119D01*
X179021Y305941D01*
X178885Y305258D01*
X179021Y304575D01*
X179192Y304319D01*
Y302008D01*
X179308Y301423D01*
X179640Y300927D01*
X182923Y297643D01*
X183075Y297277D01*
X183548Y296804D01*
X184166Y296548D01*
X184834D01*
X185452Y296804D01*
X185925Y297277D01*
X186181Y297895D01*
Y298564D01*
X185925Y299182D01*
X185452Y299655D01*
X185086Y299806D01*
X182251Y302642D01*
Y304345D01*
X182370Y304523D01*
X182506Y305206D01*
X182370Y305889D01*
X182198Y306145D01*
Y308586D01*
X182404Y308732D01*
X182994Y308554D01*
X183075Y308359D01*
X183548Y307886D01*
X183914Y307734D01*
X185541Y306107D01*
X185541Y306107D01*
X187587Y304061D01*
X188083Y303730D01*
X188669Y303613D01*
X188891D01*
X189048Y303457D01*
X189448Y303291D01*
X189598Y302756D01*
X189594Y302730D01*
X188854Y301989D01*
X188558Y301792D01*
X188116Y301130D01*
X187961Y300350D01*
X188116Y299570D01*
X188558Y298908D01*
X189220Y298466D01*
X190000Y298311D01*
X190098D01*
X190878Y298466D01*
X191540Y298908D01*
X192120Y299488D01*
X193257D01*
Y297733D01*
X193089D01*
Y293536D01*
X197456Y293536D01*
X197514Y293060D01*
Y293036D01*
X199697D01*
Y295635D01*
X200697D01*
Y293036D01*
X202881D01*
Y293596D01*
X205123D01*
X205400Y293481D01*
Y295635D01*
Y297788D01*
X205123Y297674D01*
X202881D01*
Y298233D01*
X202237D01*
Y299527D01*
X203929D01*
Y301823D01*
X201042D01*
Y302323D01*
X200542D01*
Y305118D01*
X198155D01*
Y304745D01*
X197707Y304618D01*
X197655Y304618D01*
X192933D01*
Y303567D01*
X191769D01*
X191663Y303679D01*
X191482Y304066D01*
X191681Y304548D01*
Y305216D01*
X191425Y305834D01*
X190952Y306307D01*
X190334Y306563D01*
X190287D01*
X189739Y306672D01*
X189302D01*
X187704Y308270D01*
X186077Y309897D01*
X185925Y310263D01*
X185452Y310736D01*
X184948Y310945D01*
X184750Y311454D01*
X185153Y311856D01*
X190082D01*
X190461Y311478D01*
X190517Y311440D01*
X190823Y311134D01*
X191441Y310878D01*
X192110D01*
X192728Y311134D01*
X193201Y311607D01*
X193456Y312225D01*
Y312893D01*
X193201Y313511D01*
X192728Y313984D01*
X192110Y314240D01*
X192024D01*
X191797Y314467D01*
X191301Y314799D01*
X190715Y314915D01*
X185067D01*
X184860Y315415D01*
X187533Y318089D01*
X187994Y317842D01*
X187961Y317677D01*
X188116Y316897D01*
X188558Y316235D01*
X189220Y315793D01*
X190000Y315638D01*
X190000Y315638D01*
X193535D01*
Y315579D01*
X197902D01*
X197960Y315103D01*
Y315078D01*
X200144D01*
Y317677D01*
X201144D01*
Y315078D01*
X203327D01*
Y315638D01*
X205877D01*
X206658Y315793D01*
X207319Y316235D01*
X207993Y316909D01*
X208335Y317051D01*
X208949Y317665D01*
X209254Y318400D01*
X207100D01*
Y319400D01*
X209254D01*
X209204Y319520D01*
X209482Y319935D01*
X304641D01*
X310738Y313838D01*
X310738Y313838D01*
X311317Y313452D01*
X312000Y313316D01*
X330000D01*
X330683Y313452D01*
X331262Y313838D01*
X331648Y314417D01*
X331784Y315100D01*
X331648Y315783D01*
X331262Y316362D01*
X330683Y316748D01*
X330000Y316884D01*
X312739D01*
X306642Y322982D01*
X306063Y323368D01*
X305380Y323504D01*
X268710D01*
X268443Y324004D01*
X268652Y324317D01*
X268788Y325000D01*
X268652Y325683D01*
X268266Y326262D01*
X264266Y330262D01*
X263687Y330648D01*
X263004Y330784D01*
X186530D01*
X186530Y330784D01*
X186363Y330751D01*
X186117Y331212D01*
X207356Y352451D01*
X329996D01*
X330972Y352645D01*
X331799Y353198D01*
X332351Y354025D01*
X332545Y355000D01*
X332351Y355976D01*
X331799Y356802D01*
X330972Y357355D01*
X329996Y357549D01*
D02*
G37*
G36*
X147986Y323489D02*
X147251Y323185D01*
X146637Y322571D01*
X146333Y321836D01*
X147986D01*
Y323489D01*
D02*
G37*
G36*
X114926Y325110D02*
X114074D01*
X113251Y324890D01*
X112513Y324464D01*
X111910Y323861D01*
X111484Y323123D01*
X111264Y322300D01*
Y321448D01*
X111484Y320625D01*
X111910Y319887D01*
X112513Y319284D01*
X113251Y318858D01*
X114074Y318638D01*
X114926D01*
X115749Y318858D01*
X116487Y319284D01*
X117090Y319887D01*
X117516Y320625D01*
X117736Y321448D01*
Y322300D01*
X117516Y323123D01*
X117090Y323861D01*
X116487Y324464D01*
X115749Y324890D01*
X114926Y325110D01*
D02*
G37*
G36*
X142968Y319874D02*
X142233Y319569D01*
X141620Y318956D01*
X141315Y318220D01*
X142968D01*
Y319874D01*
D02*
G37*
G36*
X231470Y318314D02*
Y316661D01*
X233124D01*
X232820Y317396D01*
X232206Y318010D01*
X231470Y318314D01*
D02*
G37*
G36*
X230470D02*
X229735Y318010D01*
X229121Y317396D01*
X228817Y316661D01*
X230470D01*
Y318314D01*
D02*
G37*
G36*
X142968Y317220D02*
X141315D01*
X141620Y316485D01*
X142233Y315871D01*
X142968Y315567D01*
Y317220D01*
D02*
G37*
G36*
X140032Y315150D02*
Y313496D01*
X141685D01*
X141381Y314232D01*
X140767Y314845D01*
X140032Y315150D01*
D02*
G37*
G36*
X114926Y317236D02*
X114074D01*
X113251Y317016D01*
X112513Y316590D01*
X111910Y315987D01*
X111484Y315249D01*
X111264Y314426D01*
Y313574D01*
X111484Y312751D01*
X111910Y312013D01*
X112513Y311410D01*
X113251Y310984D01*
X114074Y310764D01*
X114926D01*
X115749Y310984D01*
X116487Y311410D01*
X117090Y312013D01*
X117516Y312751D01*
X117736Y313574D01*
Y314426D01*
X117516Y315249D01*
X117090Y315987D01*
X116487Y316590D01*
X115749Y317016D01*
X114926Y317236D01*
D02*
G37*
G36*
X150686Y305129D02*
Y303475D01*
X152340D01*
X152035Y304211D01*
X151421Y304824D01*
X150686Y305129D01*
D02*
G37*
G36*
X149686D02*
X148951Y304824D01*
X148337Y304211D01*
X148032Y303475D01*
X149686D01*
Y305129D01*
D02*
G37*
G36*
X319939Y307075D02*
X316577D01*
Y305519D01*
X316474Y305000D01*
X316577Y304481D01*
Y302925D01*
X319939D01*
Y303216D01*
X329996D01*
X330679Y303351D01*
X331258Y303738D01*
X331645Y304317D01*
X331780Y305000D01*
X331645Y305683D01*
X331258Y306262D01*
X330679Y306648D01*
X329996Y306784D01*
X319939D01*
Y307075D01*
D02*
G37*
G36*
X233124Y315661D02*
X228817D01*
X229121Y314925D01*
X229271Y314776D01*
X229080Y314314D01*
X226600D01*
X225917Y314178D01*
X225338Y313791D01*
X224952Y313212D01*
X224816Y312529D01*
X224952Y311847D01*
X225338Y311268D01*
X225917Y310881D01*
X226600Y310745D01*
X304872D01*
X311054Y304563D01*
X311054Y304563D01*
X311459Y304292D01*
Y302925D01*
X314821D01*
Y304481D01*
X314924Y305000D01*
Y305394D01*
X314924Y305394D01*
X314821Y305912D01*
Y307075D01*
X313982D01*
X313971Y307086D01*
X313392Y307473D01*
X313140Y307523D01*
X306872Y313791D01*
X306293Y314178D01*
X305611Y314314D01*
X232861D01*
X232670Y314776D01*
X232820Y314925D01*
X233124Y315661D01*
D02*
G37*
G36*
X117736Y309362D02*
X111264D01*
Y302890D01*
X117736D01*
Y309362D01*
D02*
G37*
G36*
X203929Y305118D02*
X201542D01*
Y302823D01*
X203929D01*
Y305118D01*
D02*
G37*
G36*
X146578Y303149D02*
X144924D01*
Y301496D01*
X145660Y301800D01*
X146274Y302414D01*
X146578Y303149D01*
D02*
G37*
G36*
X173103Y299500D02*
X171449D01*
Y297846D01*
X172185Y298151D01*
X172798Y298764D01*
X173103Y299500D01*
D02*
G37*
G36*
X206400Y297788D02*
Y296135D01*
X208054D01*
X207749Y296870D01*
X207136Y297484D01*
X206400Y297788D01*
D02*
G37*
G36*
X208054Y295135D02*
X206400D01*
Y293481D01*
X207136Y293786D01*
X207749Y294399D01*
X208054Y295135D01*
D02*
G37*
G36*
X143850Y287998D02*
X143115Y287693D01*
X142501Y287080D01*
X142197Y286344D01*
X143850D01*
Y287998D01*
D02*
G37*
G36*
X174662Y284796D02*
X172563D01*
Y284260D01*
X172435Y284148D01*
X172063Y283982D01*
X171449Y284236D01*
Y282083D01*
Y279929D01*
X172063Y280183D01*
X172435Y280017D01*
X172563Y279905D01*
Y279429D01*
X172587D01*
X173063Y279371D01*
X173063Y278929D01*
Y277888D01*
X171709Y276533D01*
X170999Y276392D01*
X170338Y275950D01*
X170337Y275950D01*
X170268Y275881D01*
X169826Y275219D01*
X169671Y274439D01*
X169826Y273658D01*
X170268Y272997D01*
X170930Y272555D01*
X171710Y272400D01*
X172059Y272469D01*
X172567D01*
X173348Y272624D01*
X174009Y273066D01*
X175947Y275004D01*
X176865D01*
X177019Y274773D01*
Y274104D01*
X177275Y273487D01*
X177389Y273372D01*
Y271758D01*
X177505Y271172D01*
X177837Y270676D01*
X178513Y270000D01*
X175544Y267031D01*
X151698D01*
X151334Y267181D01*
X150666D01*
X150048Y266925D01*
X149575Y266452D01*
X149319Y265834D01*
Y265166D01*
X149575Y264548D01*
X150048Y264075D01*
X150666Y263819D01*
X151334D01*
X151703Y263972D01*
X176177D01*
X176762Y264088D01*
X177259Y264420D01*
X181310Y268471D01*
X190928D01*
X191513Y268587D01*
X192009Y268919D01*
X194788Y271697D01*
X194985Y271500D01*
X200485D01*
X202235Y273250D01*
Y276750D01*
X200485Y278500D01*
X194985D01*
X193235Y276750D01*
Y274470D01*
X190294Y271529D01*
X181310D01*
X180448Y272391D01*
Y274220D01*
X180381Y274556D01*
Y274773D01*
X180125Y275391D01*
X179652Y275864D01*
X179034Y276120D01*
X178366D01*
X177748Y275864D01*
X177261Y276084D01*
X177261Y279371D01*
X177737Y279429D01*
X177761D01*
Y281612D01*
X175162D01*
Y282113D01*
X174662D01*
Y284796D01*
D02*
G37*
G36*
X319939Y287075D02*
X316577D01*
Y285519D01*
X316474Y285000D01*
X316577Y284481D01*
Y282925D01*
X319939D01*
Y283216D01*
X329996D01*
X330679Y283351D01*
X331258Y283738D01*
X331645Y284317D01*
X331780Y285000D01*
X331645Y285683D01*
X331258Y286262D01*
X330679Y286649D01*
X329996Y286784D01*
X319939D01*
Y287075D01*
D02*
G37*
G36*
X230808Y309863D02*
X230546Y309811D01*
X230474D01*
X230407Y309784D01*
X230145Y309731D01*
X229922Y309583D01*
X229856Y309555D01*
X229805Y309504D01*
X229583Y309355D01*
X229434Y309133D01*
X229383Y309082D01*
X229355Y309016D01*
X229207Y308793D01*
X229155Y308531D01*
X229127Y308464D01*
Y308392D01*
X229075Y308130D01*
X229127Y307868D01*
Y307796D01*
X229155Y307729D01*
X229207Y307467D01*
X229355Y307244D01*
X229383Y307178D01*
X229434Y307127D01*
X229583Y306904D01*
X234812Y301674D01*
X235375Y301299D01*
X236038Y301167D01*
X291382D01*
X308774Y283774D01*
X309337Y283399D01*
X310000Y283267D01*
X311459D01*
Y282925D01*
X314821D01*
Y284738D01*
X314874Y285000D01*
X314821Y285262D01*
Y287075D01*
X311459D01*
Y286733D01*
X310718D01*
X293326Y304126D01*
X292763Y304501D01*
X292100Y304633D01*
X236756D01*
X232034Y309355D01*
X231811Y309504D01*
X231760Y309555D01*
X231694Y309583D01*
X231471Y309731D01*
X231209Y309784D01*
X231142Y309811D01*
X231070D01*
X230808Y309863D01*
D02*
G37*
G36*
X177761Y284796D02*
X175662D01*
Y282612D01*
X177761D01*
Y284796D01*
D02*
G37*
G36*
X170449Y284236D02*
X169713Y283932D01*
X169100Y283318D01*
X168795Y282583D01*
X170449D01*
Y284236D01*
D02*
G37*
G36*
X117236Y288610D02*
X110764D01*
Y282138D01*
X117236D01*
Y288610D01*
D02*
G37*
G36*
X200485Y288500D02*
X194985D01*
X193235Y286750D01*
Y283250D01*
X194985Y281500D01*
X200485D01*
X202235Y283250D01*
Y286750D01*
X200485Y288500D01*
D02*
G37*
G36*
X170449Y281583D02*
X168795D01*
X169100Y280847D01*
X169713Y280234D01*
X170449Y279929D01*
Y281583D01*
D02*
G37*
G36*
X144850Y287998D02*
Y285844D01*
X144350D01*
Y285344D01*
X142197D01*
X142501Y284609D01*
X143059Y284051D01*
Y283083D01*
X142415D01*
Y280984D01*
X145098D01*
Y280484D01*
X145598D01*
Y277885D01*
X147782D01*
Y277909D01*
X147840Y278385D01*
X148282Y278385D01*
X152207D01*
Y282583D01*
X152063D01*
Y285053D01*
X152070Y285064D01*
X152225Y285844D01*
X152070Y286625D01*
X151628Y287286D01*
X150966Y287728D01*
X150186Y287883D01*
X149406Y287728D01*
X148744Y287286D01*
X148582Y287124D01*
X148140Y286462D01*
X147984Y285682D01*
Y283499D01*
X147895Y283315D01*
X147329Y283245D01*
X147138Y283436D01*
Y285096D01*
X146982Y285876D01*
X146540Y286538D01*
X146341Y286737D01*
X146200Y287080D01*
X145586Y287693D01*
X144850Y287998D01*
D02*
G37*
G36*
X144598Y279984D02*
X142415D01*
Y277885D01*
X144598D01*
Y279984D01*
D02*
G37*
G36*
X185398Y276592D02*
Y274939D01*
X187051D01*
X186747Y275674D01*
X186133Y276288D01*
X185398Y276592D01*
D02*
G37*
G36*
X184398D02*
X183662Y276288D01*
X183049Y275674D01*
X182744Y274939D01*
X184398D01*
Y276592D01*
D02*
G37*
G36*
X114426Y280736D02*
X113574D01*
X112751Y280516D01*
X112013Y280090D01*
X111410Y279487D01*
X110984Y278749D01*
X110764Y277926D01*
Y277074D01*
X110984Y276251D01*
X111410Y275513D01*
X112013Y274910D01*
X112751Y274484D01*
X113574Y274264D01*
X114426D01*
X115249Y274484D01*
X115987Y274910D01*
X116590Y275513D01*
X117016Y276251D01*
X117236Y277074D01*
Y277926D01*
X117016Y278749D01*
X116590Y279487D01*
X115987Y280090D01*
X115249Y280516D01*
X114426Y280736D01*
D02*
G37*
G36*
X187051Y273939D02*
X185398D01*
Y272285D01*
X186133Y272590D01*
X186747Y273203D01*
X187051Y273939D01*
D02*
G37*
G36*
X184398D02*
X182744D01*
X183049Y273203D01*
X183662Y272590D01*
X184398Y272285D01*
Y273939D01*
D02*
G37*
G36*
X175451Y294012D02*
X174782D01*
X174164Y293756D01*
X174077Y293669D01*
X173027D01*
X172441Y293552D01*
X171945Y293221D01*
X162375Y283650D01*
X162043Y283154D01*
X161927Y282569D01*
Y274507D01*
X158494Y271075D01*
X155031D01*
X154664Y271227D01*
X153996D01*
X153378Y270971D01*
X152905Y270498D01*
X152649Y269880D01*
Y269211D01*
X152905Y268593D01*
X153378Y268120D01*
X153996Y267864D01*
X154664D01*
X155031Y268016D01*
X159128D01*
X159713Y268132D01*
X160209Y268464D01*
X163456Y271711D01*
X166703Y268464D01*
X167200Y268132D01*
X167785Y268016D01*
X170248D01*
X170615Y267864D01*
X171283D01*
X171901Y268120D01*
X172374Y268593D01*
X172630Y269211D01*
Y269880D01*
X172374Y270498D01*
X171901Y270971D01*
X171283Y271227D01*
X170615D01*
X170248Y271075D01*
X168418D01*
X164986Y274507D01*
Y281935D01*
X173660Y290610D01*
X174925D01*
X175124Y290650D01*
X175451D01*
X176068Y290905D01*
X176541Y291378D01*
X176797Y291996D01*
Y292665D01*
X176541Y293283D01*
X176068Y293756D01*
X175451Y294012D01*
D02*
G37*
G36*
X114426Y272862D02*
X113574D01*
X112751Y272642D01*
X112013Y272216D01*
X111410Y271613D01*
X110984Y270875D01*
X110764Y270052D01*
Y269200D01*
X110984Y268377D01*
X111410Y267639D01*
X112013Y267036D01*
X112751Y266610D01*
X113574Y266390D01*
X114426D01*
X115249Y266610D01*
X115987Y267036D01*
X116590Y267639D01*
X117016Y268377D01*
X117236Y269200D01*
Y270052D01*
X117016Y270875D01*
X116590Y271613D01*
X115987Y272216D01*
X115249Y272642D01*
X114426Y272862D01*
D02*
G37*
G36*
X131087Y267957D02*
Y266303D01*
X132741D01*
X132436Y267039D01*
X131823Y267652D01*
X131087Y267957D01*
D02*
G37*
G36*
X130087D02*
X129352Y267652D01*
X128738Y267039D01*
X128433Y266303D01*
X130087D01*
Y267957D01*
D02*
G37*
G36*
X286154Y266740D02*
Y265086D01*
X287808D01*
X287503Y265822D01*
X286890Y266435D01*
X286154Y266740D01*
D02*
G37*
G36*
X132741Y265303D02*
X131087D01*
Y263650D01*
X131823Y263954D01*
X132436Y264568D01*
X132741Y265303D01*
D02*
G37*
G36*
X130087D02*
X128433D01*
X128738Y264568D01*
X129352Y263954D01*
X130087Y263650D01*
Y265303D01*
D02*
G37*
G36*
X216785Y255154D02*
X216050Y254849D01*
X215436Y254236D01*
X215131Y253500D01*
X216785D01*
Y255154D01*
D02*
G37*
G36*
X197937D02*
Y253500D01*
X199591D01*
X199286Y254236D01*
X198673Y254849D01*
X197937Y255154D01*
D02*
G37*
G36*
X134500Y256189D02*
X125268D01*
X124585Y256053D01*
X124006Y255666D01*
X123619Y255087D01*
X123483Y254404D01*
X123619Y253721D01*
X124006Y253143D01*
X124585Y252756D01*
X125268Y252620D01*
X134500D01*
X135183Y252756D01*
X135762Y253143D01*
X136149Y253721D01*
X136284Y254404D01*
X136149Y255087D01*
X135762Y255666D01*
X135183Y256053D01*
X134500Y256189D01*
D02*
G37*
G36*
X143892Y254614D02*
X141709D01*
Y252016D01*
X140708D01*
Y254614D01*
X138525D01*
Y253500D01*
X138238D01*
X137458Y253345D01*
X136796Y252903D01*
X136107Y252214D01*
X135765Y252072D01*
X135151Y251459D01*
X134846Y250723D01*
X137000D01*
Y250223D01*
X137500D01*
Y248070D01*
X137982Y248269D01*
X138482Y247968D01*
Y247192D01*
X137750D01*
Y244723D01*
X140522D01*
X143293D01*
Y247192D01*
X142561D01*
Y249417D01*
X143892D01*
Y249441D01*
X143945Y249876D01*
X144430Y249915D01*
X144781Y249563D01*
Y246692D01*
X144549D01*
Y245323D01*
X144466Y245199D01*
X144272Y244223D01*
Y244026D01*
X144466Y243051D01*
X144549Y242926D01*
Y241755D01*
X145721D01*
X145845Y241671D01*
X146821Y241477D01*
X147796Y241671D01*
X147921Y241755D01*
X149092D01*
Y242926D01*
X149176Y243051D01*
X149370Y244026D01*
Y244223D01*
X149176Y245199D01*
X149092Y245323D01*
Y246692D01*
X148860D01*
Y251328D01*
X148856Y251346D01*
Y251417D01*
X148856Y251417D01*
X148701Y252197D01*
X148317Y252772D01*
Y254114D01*
X143950Y254114D01*
X143892Y254590D01*
Y254614D01*
D02*
G37*
G36*
X136500Y249723D02*
X134846D01*
X135151Y248988D01*
X135765Y248374D01*
X136500Y248070D01*
Y249723D01*
D02*
G37*
G36*
X287465Y246920D02*
X285078D01*
Y244624D01*
X287465D01*
Y246920D01*
D02*
G37*
G36*
X217785Y255154D02*
Y253000D01*
X217285D01*
Y252500D01*
X215131D01*
X215327Y252028D01*
X215285Y251528D01*
X215285Y251528D01*
X215285Y251528D01*
Y248358D01*
X218361D01*
Y247858D01*
X218861D01*
Y244189D01*
X221437D01*
Y244215D01*
X221500Y244689D01*
X221937Y244689D01*
X226652D01*
Y251028D01*
X226346D01*
X226323Y251528D01*
X226354Y251558D01*
X226796Y252220D01*
X226951Y253000D01*
X226796Y253780D01*
X226354Y254442D01*
X225692Y254884D01*
X224912Y255039D01*
X224131Y254884D01*
X223470Y254442D01*
X222826Y253798D01*
X222384Y253137D01*
X222229Y252356D01*
Y251381D01*
X221989Y251142D01*
X221470Y251256D01*
X221437Y251502D01*
Y251528D01*
X219968D01*
Y252356D01*
X219813Y253137D01*
X219371Y253798D01*
X219276Y253893D01*
X219134Y254236D01*
X218521Y254849D01*
X217785Y255154D01*
D02*
G37*
G36*
X217861Y247358D02*
X215285D01*
Y244189D01*
X217861D01*
Y247358D01*
D02*
G37*
G36*
X272764Y246284D02*
X252400D01*
X252384Y246281D01*
X252066D01*
X251771Y246159D01*
X251717Y246148D01*
X251671Y246118D01*
X251448Y246025D01*
X251277Y245854D01*
X251138Y245762D01*
X251046Y245623D01*
X250975Y245552D01*
X250936Y245460D01*
X250751Y245183D01*
X250616Y244500D01*
X250751Y243817D01*
X251138Y243238D01*
X251717Y242851D01*
X252400Y242716D01*
X272764D01*
X273446Y242851D01*
X274025Y243238D01*
X274412Y243817D01*
X274548Y244500D01*
X274483Y244828D01*
Y244872D01*
X274466Y244914D01*
X274412Y245183D01*
X274260Y245411D01*
X274227Y245490D01*
X274166Y245551D01*
X274025Y245762D01*
X273815Y245902D01*
X273754Y245963D01*
X273675Y245996D01*
X273446Y246148D01*
X273177Y246202D01*
X273136Y246219D01*
X273091D01*
X272764Y246284D01*
D02*
G37*
G36*
X143293Y243723D02*
X141022D01*
Y241255D01*
X143293D01*
Y243723D01*
D02*
G37*
G36*
X140022D02*
X137750D01*
Y241255D01*
X140022D01*
Y243723D01*
D02*
G37*
G36*
X177757Y240845D02*
Y239192D01*
X179411D01*
X179106Y239927D01*
X178492Y240541D01*
X177757Y240845D01*
D02*
G37*
G36*
X176757D02*
X176021Y240541D01*
X175408Y239927D01*
X175103Y239192D01*
X176757D01*
Y240845D01*
D02*
G37*
G36*
X168000D02*
Y239192D01*
X169654D01*
X169349Y239927D01*
X168736Y240541D01*
X168000Y240845D01*
D02*
G37*
G36*
X167000D02*
X166264Y240541D01*
X165651Y239927D01*
X165346Y239192D01*
X167000D01*
Y240845D01*
D02*
G37*
G36*
X211000Y239874D02*
Y238221D01*
X212654D01*
X212349Y238956D01*
X211736Y239569D01*
X211000Y239874D01*
D02*
G37*
G36*
X210000D02*
X209264Y239569D01*
X208651Y238956D01*
X208346Y238221D01*
X210000D01*
Y239874D01*
D02*
G37*
G36*
X248162Y241685D02*
X247480Y241549D01*
X246901Y241162D01*
X246732Y240909D01*
X246575Y240752D01*
X246319Y240134D01*
Y239466D01*
X246575Y238848D01*
X247048Y238375D01*
X247314Y238265D01*
X247548Y238108D01*
X248231Y237972D01*
X248231Y237972D01*
X272583D01*
X272802Y237929D01*
X273484Y238065D01*
X274063Y238451D01*
X274450Y239030D01*
X274586Y239713D01*
X274450Y240396D01*
X274063Y240975D01*
X274020Y241018D01*
X273441Y241405D01*
X272758Y241541D01*
X248857D01*
X248845Y241549D01*
X248162Y241685D01*
D02*
G37*
G36*
X179411Y238192D02*
X177757D01*
Y236538D01*
X178492Y236843D01*
X179106Y237456D01*
X179411Y238192D01*
D02*
G37*
G36*
X176757D02*
X175103D01*
X175408Y237456D01*
X176021Y236843D01*
X176757Y236538D01*
Y238192D01*
D02*
G37*
G36*
X169654D02*
X168000D01*
Y236538D01*
X168736Y236843D01*
X169349Y237456D01*
X169654Y238192D01*
D02*
G37*
G36*
X167000D02*
X165346D01*
X165651Y237456D01*
X166264Y236843D01*
X167000Y236538D01*
Y238192D01*
D02*
G37*
G36*
X114990Y240648D02*
X110840D01*
Y236105D01*
X114990D01*
Y240648D01*
D02*
G37*
G36*
X212654Y237221D02*
X211000D01*
Y235567D01*
X211736Y235871D01*
X212349Y236485D01*
X212654Y237221D01*
D02*
G37*
G36*
X210000D02*
X208346D01*
X208651Y236485D01*
X209264Y235871D01*
X210000Y235567D01*
Y237221D01*
D02*
G37*
G36*
X276430Y298084D02*
X275747Y297949D01*
X275168Y297562D01*
X234938Y257332D01*
X234552Y256753D01*
X234416Y256070D01*
Y237800D01*
X234552Y237117D01*
X234938Y236538D01*
X235517Y236152D01*
X236200Y236016D01*
X236883Y236152D01*
X237416Y236508D01*
X237634Y236455D01*
X237916Y236318D01*
Y235161D01*
X238052Y234479D01*
X238438Y233900D01*
X239017Y233513D01*
X239700Y233377D01*
X240383Y233513D01*
X240962Y233900D01*
X241349Y234479D01*
X241484Y235161D01*
Y250561D01*
X282762Y291838D01*
X283149Y292417D01*
X283284Y293100D01*
X283149Y293783D01*
X282762Y294362D01*
X282183Y294748D01*
X281500Y294884D01*
X280817Y294748D01*
X280238Y294362D01*
X238484Y252608D01*
X238292Y252633D01*
X237984Y252782D01*
Y255331D01*
X277692Y295038D01*
X278079Y295617D01*
X278214Y296300D01*
X278079Y296983D01*
X277692Y297562D01*
X277113Y297949D01*
X276430Y298084D01*
D02*
G37*
G36*
X156411Y235648D02*
X152262D01*
Y231105D01*
X156411D01*
Y235648D01*
D02*
G37*
G36*
X286900Y291584D02*
X286217Y291448D01*
X285638Y291062D01*
X242738Y248162D01*
X242352Y247583D01*
X242216Y246900D01*
Y232602D01*
X242352Y231920D01*
X242738Y231341D01*
X243317Y230954D01*
X244000Y230818D01*
X244683Y230954D01*
X245262Y231341D01*
X245649Y231920D01*
X245784Y232602D01*
Y246161D01*
X288162Y288538D01*
X288548Y289117D01*
X288684Y289800D01*
X288548Y290483D01*
X288162Y291062D01*
X287583Y291448D01*
X286900Y291584D01*
D02*
G37*
G36*
X196937Y255154D02*
X196202Y254849D01*
X195588Y254236D01*
X195446Y253893D01*
X194274Y252721D01*
X193833Y252060D01*
X193677Y251279D01*
Y248467D01*
X192285D01*
Y245298D01*
X195361D01*
Y244298D01*
X192285D01*
Y241128D01*
X193322D01*
Y236872D01*
X192285D01*
Y233702D01*
X195361D01*
Y233202D01*
X195861D01*
Y229533D01*
X198437D01*
Y229559D01*
X198500Y230033D01*
X198937Y230033D01*
X203652D01*
Y236372D01*
X202809D01*
Y241628D01*
X203652D01*
Y242767D01*
X205336D01*
X205999Y242899D01*
X206561Y243274D01*
X208159Y244872D01*
X208308Y245094D01*
X208359Y245145D01*
X208386Y245212D01*
X208535Y245434D01*
X208587Y245697D01*
X208615Y245763D01*
Y245835D01*
X208667Y246098D01*
X208615Y246360D01*
Y246432D01*
X208587Y246498D01*
X208535Y246761D01*
X208386Y246983D01*
X208359Y247050D01*
X208308Y247101D01*
X208159Y247323D01*
X207937Y247472D01*
X207886Y247523D01*
X207819Y247550D01*
X207597Y247699D01*
X207334Y247751D01*
X207268Y247779D01*
X207196D01*
X206933Y247831D01*
X206671Y247779D01*
X206599D01*
X206533Y247751D01*
X206270Y247699D01*
X206048Y247550D01*
X205981Y247523D01*
X205930Y247472D01*
X205708Y247323D01*
X204618Y246233D01*
X203652D01*
Y247967D01*
X198500Y247967D01*
X198437Y248441D01*
Y248467D01*
X197756D01*
Y250434D01*
X198330Y251009D01*
X198673Y251151D01*
X199286Y251764D01*
X199591Y252500D01*
X197437D01*
Y253000D01*
X196937D01*
Y255154D01*
D02*
G37*
G36*
X194861Y232702D02*
X192285D01*
Y229533D01*
X194861D01*
Y232702D01*
D02*
G37*
G36*
X117000Y229654D02*
Y228000D01*
X118654D01*
X118349Y228735D01*
X117736Y229349D01*
X117000Y229654D01*
D02*
G37*
G36*
X116000D02*
X115264Y229349D01*
X114651Y228735D01*
X114346Y228000D01*
X116000D01*
Y229654D01*
D02*
G37*
G36*
X217861Y233615D02*
X215285D01*
Y231984D01*
X213170D01*
X212389Y231829D01*
X211728Y231387D01*
X209607Y229266D01*
X209264Y229124D01*
X208651Y228511D01*
X208346Y227775D01*
X210500D01*
Y227275D01*
X211000D01*
Y225121D01*
X211736Y225426D01*
X212349Y226040D01*
X212491Y226382D01*
X214014Y227906D01*
X215285D01*
Y226275D01*
X217861D01*
Y229945D01*
Y233615D01*
D02*
G37*
G36*
X118654Y227000D02*
X117000D01*
Y225346D01*
X117736Y225651D01*
X118349Y226265D01*
X118654Y227000D01*
D02*
G37*
G36*
X116000D02*
X114346D01*
X114651Y226265D01*
X115264Y225651D01*
X116000Y225346D01*
Y227000D01*
D02*
G37*
G36*
X210000Y226775D02*
X208346D01*
X208651Y226040D01*
X209264Y225426D01*
X210000Y225121D01*
Y226775D01*
D02*
G37*
%LPD*%
G36*
X199684Y351989D02*
X177599Y329904D01*
X177298Y329702D01*
X176745Y328875D01*
X176551Y327900D01*
X176745Y326924D01*
X177298Y326098D01*
X178124Y325545D01*
X179100Y325351D01*
X179200D01*
X179763Y325463D01*
X180009Y325002D01*
X173167Y318160D01*
X172743Y318443D01*
X172807Y318598D01*
X171153D01*
Y316945D01*
X171309Y317009D01*
X171592Y316585D01*
X165815Y310808D01*
X164095D01*
X163888Y311308D01*
X164131Y311552D01*
X164388Y312170D01*
Y312838D01*
X164131Y313456D01*
X163659Y313929D01*
X163041Y314185D01*
X162372D01*
X162006Y314033D01*
X154211D01*
X154162Y314533D01*
X154387Y314578D01*
X154770Y314834D01*
X155595D01*
Y315701D01*
X155766Y315958D01*
X155880Y316528D01*
X155924Y316547D01*
X156900Y316353D01*
X157876Y316547D01*
X158702Y317099D01*
X159255Y317926D01*
X159449Y318902D01*
X159255Y319877D01*
X158702Y320704D01*
X155978Y323429D01*
Y324859D01*
X155960Y324946D01*
Y332389D01*
X155766Y333364D01*
X155214Y334191D01*
X137416Y351989D01*
X137607Y352451D01*
X199493D01*
X199684Y351989D01*
D02*
G37*
%LPC*%
G36*
X174457Y338000D02*
X172957D01*
Y333500D01*
X176457D01*
Y336000D01*
X174457Y338000D01*
D02*
G37*
G36*
X171957D02*
X170457D01*
X168457Y336000D01*
Y333500D01*
X171957D01*
Y338000D01*
D02*
G37*
G36*
X164207Y337500D02*
X160707D01*
X158957Y335750D01*
Y330250D01*
X160707Y328500D01*
X164207D01*
X165957Y330250D01*
Y335750D01*
X164207Y337500D01*
D02*
G37*
G36*
X176457Y332500D02*
X172957D01*
Y328000D01*
X174457D01*
X176457Y330000D01*
Y332500D01*
D02*
G37*
G36*
X171957D02*
X168457D01*
Y330000D01*
X170457Y328000D01*
X171957D01*
Y332500D01*
D02*
G37*
G36*
X173146Y326399D02*
X170963D01*
Y324300D01*
X173146D01*
Y326399D01*
D02*
G37*
G36*
X169963D02*
X167779D01*
Y326375D01*
X167721Y325899D01*
X167279Y325899D01*
X163354D01*
Y324427D01*
X163261Y324288D01*
X163106Y323507D01*
Y319098D01*
X163261Y318318D01*
X163703Y317656D01*
X164364Y317214D01*
X165145Y317059D01*
X165925Y317214D01*
X166587Y317656D01*
X167029Y318318D01*
X167184Y319098D01*
Y321348D01*
X167252Y321416D01*
X167778Y321234D01*
X167779Y321225D01*
Y321201D01*
X168869D01*
Y320399D01*
X168804Y320334D01*
X168500Y319598D01*
X172807D01*
X172503Y320334D01*
X172438Y320399D01*
Y321201D01*
X173146D01*
Y323300D01*
X170463D01*
Y323800D01*
X169963D01*
Y326399D01*
D02*
G37*
G36*
X170153Y318598D02*
X168500D01*
X168804Y317863D01*
X169418Y317249D01*
X170153Y316945D01*
Y318598D01*
D02*
G37*
%LPD*%
D18*
X189739Y305142D02*
X190000Y304882D01*
X188669Y305142D02*
X189739D01*
X149401Y310768D02*
X151138Y312504D01*
X139546Y310768D02*
X149401D01*
X138447Y309669D02*
X139546Y310768D01*
X138447Y309584D02*
Y309669D01*
X137264Y310768D02*
X137348D01*
X130395Y314000D02*
X134031D01*
X137348Y310768D02*
X138447Y309669D01*
X134031Y314000D02*
X137264Y310768D01*
X186622Y307189D02*
X186622D01*
X188669Y305142D01*
X184500Y309311D02*
X186622Y307189D01*
X191542Y312559D02*
X191775D01*
X190715Y313386D02*
X191542Y312559D01*
X184519Y313386D02*
X190715D01*
X180669Y309536D02*
X184519Y313386D01*
X178700Y274439D02*
X178918Y274220D01*
Y271758D02*
Y274220D01*
Y271758D02*
X180676Y270000D01*
X151001Y265501D02*
X176177D01*
X180676Y270000D01*
X151138Y312504D02*
X162706D01*
X148486Y316933D02*
Y321336D01*
X180721Y302008D02*
Y305206D01*
Y302008D02*
X184500Y298229D01*
X180669Y305258D02*
Y309536D01*
X159128Y269546D02*
X163456Y273874D01*
X154330Y269546D02*
X159128D01*
X167785D02*
X170949D01*
X163456Y273874D02*
X167785Y269546D01*
X163456Y282569D02*
X173027Y292139D01*
X163456Y273874D02*
Y282569D01*
X180676Y270000D02*
X190928D01*
X195928Y275000D01*
X197735D01*
X173027Y292139D02*
X174925D01*
X175116Y292331D01*
X170949Y282083D02*
X175132D01*
X175162Y282113D01*
X224076Y229945D02*
X224076Y229945D01*
D24*
X112915Y238377D02*
D03*
Y245070D02*
D03*
X154336Y233377D02*
D03*
Y240070D02*
D03*
D31*
X318258Y285000D02*
D03*
X313140D02*
D03*
X318258Y305000D02*
D03*
X313140D02*
D03*
X318258Y325000D02*
D03*
X313140D02*
D03*
X318258Y345000D02*
D03*
X313140D02*
D03*
X318258Y335000D02*
D03*
X313140D02*
D03*
D52*
X114500Y306126D02*
D03*
X114000Y285374D02*
D03*
D53*
X114500Y314000D02*
D03*
Y321874D02*
D03*
X114000Y269626D02*
D03*
Y277500D02*
D03*
D56*
X166554Y309024D02*
X186530Y329000D01*
X161000Y309024D02*
X166554D01*
X168958Y302037D02*
X188641Y321720D01*
X160927Y302037D02*
X168958D01*
X161000Y305498D02*
X167598D01*
X187499Y325400D01*
X133661Y321461D02*
X136848D01*
X127953Y315752D02*
X133661Y321461D01*
X127953Y306972D02*
Y315752D01*
Y306972D02*
X133526Y301399D01*
X146782Y260218D02*
X154336Y252664D01*
X146782Y269178D02*
X156230Y278626D01*
X146782Y260218D02*
Y269178D01*
X156230Y278626D02*
Y285096D01*
X154336Y240070D02*
Y252664D01*
X133526Y301399D02*
X138925Y296000D01*
X133526Y277232D02*
Y301399D01*
X112915Y256622D02*
X133526Y277232D01*
X112915Y238377D02*
X113151Y238141D01*
X252400Y244500D02*
X272764D01*
X248231Y239756D02*
X272758D01*
X272802Y239713D01*
X248162Y239825D02*
X248231Y239756D01*
X248162Y239825D02*
Y239900D01*
X188641Y321720D02*
X305380D01*
X312000Y315100D01*
X186530Y329000D02*
X263004D01*
X187499Y325400D02*
X252000D01*
X263004Y329000D02*
X267004Y325000D01*
X226600Y312529D02*
X305611D01*
X180669Y305258D02*
X180721Y305206D01*
X312000Y315100D02*
X330000D01*
X305611Y312529D02*
X312315Y305825D01*
X313140Y305000D02*
Y305394D01*
X312315Y305825D02*
X312709D01*
X313140Y305394D01*
X170362Y323800D02*
X170653Y323509D01*
Y319234D02*
Y323509D01*
X138925Y296000D02*
X151206D01*
X224076Y229945D02*
X224175Y230043D01*
X229093D01*
X244000Y246900D02*
X286900Y289800D01*
X244000Y232602D02*
Y246900D01*
X239700Y235161D02*
Y251300D01*
X281500Y293100D01*
X236200Y256070D02*
X276430Y296300D01*
X236200Y237800D02*
Y256070D01*
X309100Y335000D02*
X313140D01*
X309100Y345000D02*
X313140D01*
X309100Y325000D02*
X313140D01*
X318258D02*
X329996D01*
X318258Y335000D02*
X329996D01*
X318258Y345000D02*
X329996D01*
X318258Y285000D02*
X329996D01*
X318258Y305000D02*
X329996D01*
X161206Y290072D02*
Y296000D01*
X156230Y285096D02*
X161206Y290072D01*
X125268Y254404D02*
X134500D01*
X112915Y245070D02*
Y256622D01*
D57*
X236038Y302900D02*
X292100D01*
X310000Y285000D02*
X313140D01*
X292100Y302900D02*
X310000Y285000D01*
X205336Y244500D02*
X206933Y246098D01*
X201374Y244500D02*
X205336D01*
X230808Y308130D02*
X236038Y302900D01*
X201076Y233202D02*
Y244798D01*
X201374Y244500D01*
D60*
X284412Y263246D02*
X285654Y264488D01*
X284412Y256856D02*
Y263246D01*
X285654Y264488D02*
Y264586D01*
X284179Y256489D02*
X284578Y256091D01*
Y247420D02*
Y256091D01*
X194525Y301527D02*
X195296Y302299D01*
X190098Y300350D02*
X191275Y301527D01*
X194525D01*
X190000Y300350D02*
X190098D01*
X195296Y295658D02*
Y302299D01*
X195320Y302323D01*
X195272Y295635D02*
X195296Y295658D01*
X171780Y274508D02*
X172567D01*
X175162Y277103D01*
X171710Y274439D02*
X171780Y274508D01*
X200644Y317677D02*
X205877D01*
X207100Y318900D01*
X165145Y319098D02*
Y323507D01*
X165437Y323800D01*
X190000Y317677D02*
X190000Y317677D01*
X195719D01*
X200197Y301527D02*
X200993Y302323D01*
X200197Y295635D02*
Y301527D01*
X200993Y302323D02*
X201042D01*
X200197Y295635D02*
X205900D01*
X195716Y251279D02*
X197437Y253000D01*
X195716Y245153D02*
Y251279D01*
X143415Y304659D02*
X144424Y303649D01*
X138447Y304659D02*
X143415D01*
X213170Y229945D02*
X218361D01*
X210500Y227275D02*
X213170Y229945D01*
X195361Y233202D02*
Y244798D01*
X195716Y245153D01*
X138238Y251461D02*
X140654D01*
X137000Y250223D02*
X138238Y251461D01*
X140654D02*
X141209Y252016D01*
X146821Y248669D02*
Y251328D01*
Y244223D02*
Y248669D01*
X146817Y251332D02*
Y251417D01*
Y251332D02*
X146821Y251328D01*
X146134Y252016D02*
X146219D01*
X146817Y251417D01*
X140522Y244223D02*
Y251413D01*
X141124Y252016D01*
X141209D01*
X320953Y385000D02*
X329996D01*
X175162Y277103D02*
Y277187D01*
X170653Y319098D02*
X170757Y318995D01*
X150023Y285682D02*
X150186Y285844D01*
X150023Y280484D02*
Y285682D01*
X145098Y280484D02*
Y285096D01*
X144350Y285844D02*
X145098Y285096D01*
X224076Y247858D02*
X224268Y248050D01*
Y252356D02*
X224912Y253000D01*
X224268Y248050D02*
Y252356D01*
X217929Y248291D02*
X218361Y247858D01*
X217285Y253000D02*
X217929Y252356D01*
Y248291D02*
Y252356D01*
X310047Y385000D02*
X315047D01*
D61*
X95600Y233900D02*
Y319800D01*
X109100Y220400D02*
X219800D01*
X95600Y233900D02*
X109100Y220400D01*
X179100Y327900D02*
X179200D01*
X206300Y355000D01*
X130800D02*
X206300D01*
X329996D01*
X278856Y232940D02*
Y247420D01*
Y256175D02*
X279170Y256489D01*
X272958D02*
X279170D01*
X278856Y247420D02*
Y256175D01*
X279170Y256489D02*
X279255D01*
X153411Y316933D02*
Y322373D01*
X153429D02*
Y324859D01*
Y322373D02*
X156900Y318902D01*
X153411Y324876D02*
Y332389D01*
X130800Y355000D02*
X153411Y332389D01*
X95600Y319800D02*
X130800Y355000D01*
X272802Y256646D02*
X272958Y256489D01*
X219800Y220400D02*
X266316D01*
X278856Y232940D01*
X146821Y244026D02*
Y244223D01*
X224076Y224676D02*
Y229945D01*
X219800Y220400D02*
X224076Y224676D01*
D62*
X172457Y333000D02*
D03*
X162457D02*
D03*
X161206Y296000D02*
D03*
X151206D02*
D03*
D63*
X197735Y285000D02*
D03*
Y275000D02*
D03*
D64*
X226094Y390634D02*
D03*
D65*
X233968D02*
D03*
D66*
X190000Y300350D02*
D03*
Y304882D02*
D03*
X160927Y302037D02*
D03*
X161000Y305498D02*
D03*
Y309024D02*
D03*
X136848Y321461D02*
D03*
X130395Y314000D02*
D03*
X191775Y312559D02*
D03*
X171710Y274439D02*
D03*
X184898D02*
D03*
X178700D02*
D03*
X201181Y390551D02*
D03*
X267004Y325000D02*
D03*
X146821Y248669D02*
D03*
X329996Y385000D02*
D03*
Y374800D02*
D03*
Y355000D02*
D03*
X285654Y264586D02*
D03*
X244000Y232602D02*
D03*
X239700Y235161D02*
D03*
X236200Y237800D02*
D03*
X276430Y296300D02*
D03*
X281500Y293100D02*
D03*
X286900Y289800D02*
D03*
X309100Y335000D02*
D03*
Y345000D02*
D03*
Y325000D02*
D03*
X167007Y386466D02*
D03*
X176495Y369096D02*
D03*
X330000Y315100D02*
D03*
X329996Y285000D02*
D03*
Y305000D02*
D03*
Y345000D02*
D03*
Y335000D02*
D03*
Y325000D02*
D03*
X116500Y227500D02*
D03*
X210500Y237720D02*
D03*
X154336Y233377D02*
D03*
X147406Y312996D02*
D03*
X170949Y269546D02*
D03*
X175116Y292331D02*
D03*
X150186Y302975D02*
D03*
X151000Y265500D02*
D03*
X154330Y269546D02*
D03*
X165145Y319098D02*
D03*
X170653D02*
D03*
X125268Y254404D02*
D03*
X156230Y285096D02*
D03*
X170949Y282083D02*
D03*
X137000Y250223D02*
D03*
X130587Y265803D02*
D03*
X144350Y285844D02*
D03*
X134500Y254404D02*
D03*
X150186Y285844D02*
D03*
X184500Y298229D02*
D03*
X224912Y253000D02*
D03*
X217285D02*
D03*
X177257Y238692D02*
D03*
X167500D02*
D03*
X139532Y312996D02*
D03*
X143468Y317721D02*
D03*
Y308272D02*
D03*
X310047Y385000D02*
D03*
X207100Y318900D02*
D03*
X112915Y238377D02*
D03*
X212884Y390420D02*
D03*
X272802Y239713D02*
D03*
X168800Y374603D02*
D03*
X203400Y375431D02*
D03*
X179100Y327900D02*
D03*
X252400Y244600D02*
D03*
X248000Y239800D02*
D03*
X162706Y312504D02*
D03*
X156900Y318902D02*
D03*
X148486Y321336D02*
D03*
X252000Y325400D02*
D03*
X180669Y305258D02*
D03*
X184500Y309311D02*
D03*
X230971Y316161D02*
D03*
X190000Y317677D02*
D03*
X170949Y300000D02*
D03*
X205900Y295635D02*
D03*
X272802Y244538D02*
D03*
Y256446D02*
D03*
X144424Y303649D02*
D03*
X229093Y230043D02*
D03*
X210500Y227275D02*
D03*
X206933Y246098D02*
D03*
X197437Y253000D02*
D03*
X230808Y308130D02*
D03*
X226600Y312529D02*
D03*
D73*
X315047Y385000D02*
D03*
X320953D02*
D03*
D74*
X138447Y309584D02*
D03*
Y304659D02*
D03*
X175162Y277187D02*
D03*
Y282113D02*
D03*
D75*
X148486Y316933D02*
D03*
X153411D02*
D03*
X145098Y280484D02*
D03*
X150023D02*
D03*
X170463Y323800D02*
D03*
X165538D02*
D03*
X284179Y256489D02*
D03*
X279255D02*
D03*
X195719Y317677D02*
D03*
X200644D02*
D03*
X195272Y295635D02*
D03*
X200197D02*
D03*
X141209Y252016D02*
D03*
X146134D02*
D03*
D76*
X195320Y302323D02*
D03*
X201042D02*
D03*
X284578Y247420D02*
D03*
X278856D02*
D03*
D77*
X201076Y233202D02*
D03*
X195361D02*
D03*
X201076Y244798D02*
D03*
X195361D02*
D03*
X218361Y229945D02*
D03*
X224076D02*
D03*
X218361Y247858D02*
D03*
X224076D02*
D03*
D78*
X140522Y244223D02*
D03*
X146821D02*
D03*
M02*
