G04*
G04 #@! TF.GenerationSoftware,Altium Limited,Altium Designer,24.2.2 (26)*
G04*
G04 Layer_Color=32896*
%FSLAX25Y25*%
%MOIN*%
G70*
G04*
G04 #@! TF.SameCoordinates,57EBE310-F326-475D-97A3-4CF97A274748*
G04*
G04*
G04 #@! TF.FilePolarity,Positive*
G04*
G01*
G75*
%ADD10C,0.00394*%
D10*
X318000Y383032D02*
Y386968D01*
X316032Y385000D02*
X319969D01*
X138447Y305153D02*
Y309090D01*
X136478Y307121D02*
X140416D01*
X150949Y314965D02*
Y318902D01*
X148980Y316933D02*
X152917D01*
X175162Y277681D02*
Y281618D01*
X173194Y279650D02*
X177130D01*
X147561Y278516D02*
Y282453D01*
X145592Y280484D02*
X149530D01*
X168000Y321831D02*
Y325768D01*
X166032Y323800D02*
X169968D01*
X196213Y302323D02*
X200150D01*
X198181Y300354D02*
Y304291D01*
X281717Y245451D02*
Y249388D01*
X279749Y247420D02*
X283685D01*
X279749Y256489D02*
X283685D01*
X281717Y254521D02*
Y258458D01*
X196250Y233202D02*
X200187D01*
X198219Y231234D02*
Y235171D01*
X196250Y244798D02*
X200187D01*
X198219Y242829D02*
Y246766D01*
X196213Y317677D02*
X200150D01*
X198181Y315709D02*
Y319646D01*
X195766Y295635D02*
X199703D01*
X197735Y293666D02*
Y297603D01*
X221219Y227976D02*
Y231913D01*
X219250Y229945D02*
X223187D01*
X221219Y245890D02*
Y249827D01*
X219250Y247858D02*
X223187D01*
X110947Y241723D02*
X114884D01*
X112915Y239755D02*
Y243692D01*
X152368Y236723D02*
X156305D01*
X154336Y234755D02*
Y238692D01*
X143671Y250047D02*
Y253984D01*
X141703Y252016D02*
X145640D01*
M02*
