G04*
G04 #@! TF.GenerationSoftware,Altium Limited,Altium Designer,24.2.2 (26)*
G04*
G04 Layer_Color=32768*
%FSLAX25Y25*%
%MOIN*%
G70*
G04*
G04 #@! TF.SameCoordinates,57EBE310-F326-475D-97A3-4CF97A274748*
G04*
G04*
G04 #@! TF.FilePolarity,Positive*
G04*
G01*
G75*
%ADD15C,0.00787*%
D15*
X321248Y383130D02*
Y386870D01*
X314752Y383130D02*
X321248D01*
X314752D02*
Y386870D01*
X321248D01*
X140022Y303972D02*
Y310271D01*
X136872D02*
X140022D01*
X136872Y303972D02*
Y310271D01*
Y303972D02*
X140022D01*
X147799Y315358D02*
Y318508D01*
X154098D01*
Y315358D02*
Y318508D01*
X147799Y315358D02*
X154098D01*
X173587Y276500D02*
Y282800D01*
Y276500D02*
X176737D01*
Y282800D01*
X173587D02*
X176737D01*
X144411Y278909D02*
Y282059D01*
X150711D01*
Y278909D02*
Y282059D01*
X144411Y278909D02*
X150711D01*
X171150Y322225D02*
Y325375D01*
X164850Y322225D02*
X171150D01*
X164850D02*
Y325375D01*
X171150D01*
X195031Y300748D02*
X201331D01*
Y303898D01*
X195031D02*
X201331D01*
X195031Y300748D02*
Y303898D01*
X278567Y245845D02*
Y248994D01*
X284867D01*
Y245845D02*
Y248994D01*
X278567Y245845D02*
X284867D01*
X278567Y258064D02*
X284867D01*
X278567Y254914D02*
Y258064D01*
Y254914D02*
X284867D01*
Y258064D01*
X194282Y235663D02*
X202156D01*
X194282Y230742D02*
Y235663D01*
Y230742D02*
X202156D01*
Y235663D01*
X194282Y247258D02*
X202156D01*
X194282Y242337D02*
Y247258D01*
Y242337D02*
X202156D01*
Y247258D01*
X195031Y319252D02*
X201331D01*
X195031Y316102D02*
Y319252D01*
Y316102D02*
X201331D01*
Y319252D01*
X194585Y297210D02*
X200885D01*
X194585Y294060D02*
Y297210D01*
Y294060D02*
X200885D01*
Y297210D01*
X225156Y227484D02*
Y232405D01*
X217282Y227484D02*
X225156D01*
X217282D02*
Y232405D01*
X225156D01*
Y245398D02*
Y250319D01*
X217282Y245398D02*
X225156D01*
X217282D02*
Y250319D01*
X225156D01*
X111144Y245070D02*
X114687D01*
Y238377D02*
Y245070D01*
X111144Y238377D02*
X114687D01*
X111144D02*
Y245070D01*
X152565Y240070D02*
X156108D01*
Y233377D02*
Y240070D01*
X152565Y233377D02*
X156108D01*
X152565D02*
Y240070D01*
X140522Y250441D02*
Y253590D01*
X146821D01*
Y250441D02*
Y253590D01*
X140522Y250441D02*
X146821D01*
M02*
