G04*
G04 #@! TF.GenerationSoftware,Altium Limited,Altium Designer,24.2.2 (26)*
G04*
G04 Layer_Color=16711935*
%FSLAX25Y25*%
%MOIN*%
G70*
G04*
G04 #@! TF.SameCoordinates,57EBE310-F326-475D-97A3-4CF97A274748*
G04*
G04*
G04 #@! TF.FilePolarity,Negative*
G04*
G01*
G75*
%ADD24R,0.03150X0.03543*%
%ADD44R,0.03162X0.03950*%
G04:AMPARAMS|DCode=48|XSize=88mil|YSize=68mil|CornerRadius=0mil|HoleSize=0mil|Usage=FLASHONLY|Rotation=90.000|XOffset=0mil|YOffset=0mil|HoleType=Round|Shape=Octagon|*
%AMOCTAGOND48*
4,1,8,0.01700,0.04400,-0.01700,0.04400,-0.03400,0.02700,-0.03400,-0.02700,-0.01700,-0.04400,0.01700,-0.04400,0.03400,-0.02700,0.03400,0.02700,0.01700,0.04400,0.0*
%
%ADD48OCTAGOND48*%

G04:AMPARAMS|DCode=49|XSize=88mil|YSize=68mil|CornerRadius=0mil|HoleSize=0mil|Usage=FLASHONLY|Rotation=180.000|XOffset=0mil|YOffset=0mil|HoleType=Round|Shape=Octagon|*
%AMOCTAGOND49*
4,1,8,-0.04400,0.01700,-0.04400,-0.01700,-0.02700,-0.03400,0.02700,-0.03400,0.04400,-0.01700,0.04400,0.01700,0.02700,0.03400,-0.02700,0.03400,-0.04400,0.01700,0.0*
%
%ADD49OCTAGOND49*%

%ADD50C,0.06706*%
%ADD51R,0.06706X0.06706*%
%ADD52R,0.05472X0.05472*%
%ADD53C,0.05472*%
%ADD73R,0.01968X0.03543*%
%ADD74R,0.03197X0.03367*%
%ADD75R,0.03367X0.03197*%
%ADD76R,0.03775X0.03591*%
%ADD77R,0.04152X0.05339*%
%ADD79R,0.04343X0.04737*%
D24*
X112915Y238377D02*
D03*
Y245070D02*
D03*
X154336Y233377D02*
D03*
Y240070D02*
D03*
D44*
X318258Y285000D02*
D03*
X313140D02*
D03*
X318258Y305000D02*
D03*
X313140D02*
D03*
X318258Y325000D02*
D03*
X313140D02*
D03*
X318258Y345000D02*
D03*
X313140D02*
D03*
X318258Y335000D02*
D03*
X313140D02*
D03*
D48*
X172457Y333000D02*
D03*
X162457D02*
D03*
X161206Y296000D02*
D03*
X151206D02*
D03*
D49*
X197735Y285000D02*
D03*
Y275000D02*
D03*
D50*
X226094Y390634D02*
D03*
D51*
X233968D02*
D03*
D52*
X114500Y306126D02*
D03*
X114000Y285374D02*
D03*
D53*
X114500Y314000D02*
D03*
Y321874D02*
D03*
X114000Y269626D02*
D03*
Y277500D02*
D03*
D73*
X315047Y385000D02*
D03*
X320953D02*
D03*
D74*
X138447Y309584D02*
D03*
Y304659D02*
D03*
X175162Y277187D02*
D03*
Y282113D02*
D03*
D75*
X148486Y316933D02*
D03*
X153411D02*
D03*
X145098Y280484D02*
D03*
X150023D02*
D03*
X170463Y323800D02*
D03*
X165538D02*
D03*
X284179Y256489D02*
D03*
X279255D02*
D03*
X195719Y317677D02*
D03*
X200644D02*
D03*
X195272Y295635D02*
D03*
X200197D02*
D03*
X141209Y252016D02*
D03*
X146134D02*
D03*
D76*
X195320Y302323D02*
D03*
X201042D02*
D03*
X284578Y247420D02*
D03*
X278856D02*
D03*
D77*
X201076Y233202D02*
D03*
X195361D02*
D03*
X201076Y244798D02*
D03*
X195361D02*
D03*
X218361Y229945D02*
D03*
X224076D02*
D03*
X218361Y247858D02*
D03*
X224076D02*
D03*
D79*
X140522Y244223D02*
D03*
X146821D02*
D03*
M02*
