G04*
G04 #@! TF.GenerationSoftware,Altium Limited,Altium Designer,24.2.2 (26)*
G04*
G04 Layer_Color=32896*
%FSLAX25Y25*%
%MOIN*%
G70*
G04*
G04 #@! TF.SameCoordinates,57EBE310-F326-475D-97A3-4CF97A274748*
G04*
G04*
G04 #@! TF.FilePolarity,Positive*
G04*
G01*
G75*
%ADD15C,0.00787*%
G36*
X315586Y385348D02*
X315537D01*
X315465Y385364D01*
X315428Y385371D01*
X315396Y385377D01*
X315366Y385384D01*
X315343Y385387D01*
X315330Y385390D01*
X315323D01*
X315232Y385404D01*
X315189Y385407D01*
X315150Y385410D01*
X315117Y385413D01*
X315068D01*
X314999Y385410D01*
X314966Y385407D01*
X314936D01*
X314907Y385404D01*
X314887Y385400D01*
X314874Y385397D01*
X314868D01*
X314825Y385390D01*
X314789Y385381D01*
X314756Y385367D01*
X314727Y385358D01*
X314704Y385345D01*
X314684Y385338D01*
X314674Y385331D01*
X314671Y385328D01*
X314635Y385295D01*
X314605Y385266D01*
X314595Y385249D01*
X314589Y385240D01*
X314582Y385233D01*
Y385230D01*
X314569Y385207D01*
X314563Y385184D01*
X314549Y385135D01*
Y385115D01*
X314546Y385099D01*
Y385089D01*
Y385085D01*
Y385049D01*
X314549Y385020D01*
X314556Y384994D01*
X314559Y384971D01*
X314566Y384951D01*
X314572Y384938D01*
X314576Y384931D01*
Y384928D01*
X314599Y384885D01*
X314622Y384853D01*
X314635Y384839D01*
X314641Y384830D01*
X314648Y384823D01*
X314651Y384820D01*
X314677Y384800D01*
X314707Y384784D01*
X314763Y384757D01*
X314786Y384748D01*
X314805Y384741D01*
X314822Y384738D01*
X314825D01*
X314900Y384725D01*
X314933Y384721D01*
X314963Y384718D01*
X314986Y384715D01*
X315061D01*
X315097Y384718D01*
X315130Y384721D01*
X315160Y384725D01*
X315186Y384728D01*
X315202Y384731D01*
X315215Y384735D01*
X315219D01*
X315281Y384754D01*
X315310Y384761D01*
X315337Y384771D01*
X315356Y384777D01*
X315373Y384784D01*
X315386Y384790D01*
X315389D01*
X315422Y384803D01*
X315448Y384817D01*
X315474Y384830D01*
X315494Y384839D01*
X315511Y384846D01*
X315524Y384853D01*
X315530Y384859D01*
X315533D01*
X315573Y384882D01*
X315606Y384902D01*
X315619Y384908D01*
X315629Y384915D01*
X315632Y384918D01*
X315688D01*
Y384400D01*
X315638Y384380D01*
X315589Y384364D01*
X315537Y384347D01*
X315488Y384334D01*
X315442Y384321D01*
X315409Y384311D01*
X315396Y384308D01*
X315386D01*
X315379Y384305D01*
X315376D01*
X315301Y384292D01*
X315222Y384279D01*
X315146Y384272D01*
X315074Y384265D01*
X315012Y384262D01*
X314986D01*
X314963Y384259D01*
X314920D01*
X314831Y384262D01*
X314750Y384269D01*
X314677Y384279D01*
X314615Y384288D01*
X314566Y384298D01*
X314546Y384305D01*
X314530Y384308D01*
X314517Y384311D01*
X314507Y384315D01*
X314504Y384318D01*
X314500D01*
X314438Y384344D01*
X314379Y384370D01*
X314330Y384400D01*
X314287Y384429D01*
X314251Y384456D01*
X314225Y384475D01*
X314208Y384489D01*
X314202Y384495D01*
X314159Y384541D01*
X314120Y384587D01*
X314087Y384633D01*
X314061Y384675D01*
X314041Y384712D01*
X314028Y384741D01*
X314018Y384761D01*
X314015Y384764D01*
Y384767D01*
X313992Y384826D01*
X313975Y384889D01*
X313966Y384944D01*
X313956Y384997D01*
X313952Y385043D01*
X313949Y385079D01*
Y385092D01*
Y385102D01*
Y385105D01*
Y385108D01*
X313952Y385184D01*
X313962Y385256D01*
X313972Y385315D01*
X313985Y385367D01*
X314002Y385410D01*
X314012Y385443D01*
X314021Y385463D01*
X314025Y385469D01*
X314054Y385522D01*
X314090Y385568D01*
X314126Y385610D01*
X314159Y385643D01*
X314189Y385669D01*
X314215Y385689D01*
X314231Y385702D01*
X314238Y385705D01*
X314281Y385732D01*
X314323Y385751D01*
X314369Y385771D01*
X314408Y385784D01*
X314441Y385797D01*
X314471Y385804D01*
X314487Y385810D01*
X314494D01*
X314549Y385823D01*
X314605Y385830D01*
X314658Y385837D01*
X314704Y385843D01*
X314746D01*
X314779Y385846D01*
X314874D01*
X314891Y385843D01*
X314914D01*
X314959Y385840D01*
X314992D01*
X315005Y385837D01*
X315025D01*
Y386233D01*
X314015D01*
Y386680D01*
X315586D01*
Y385348D01*
D02*
G37*
G36*
X318000Y384308D02*
X317406D01*
Y385177D01*
X317196D01*
X316537Y384308D01*
X315809D01*
X316609Y385315D01*
X316537Y385354D01*
X316472Y385400D01*
X316416Y385443D01*
X316367Y385486D01*
X316331Y385525D01*
X316304Y385555D01*
X316294Y385568D01*
X316288Y385577D01*
X316281Y385581D01*
Y385584D01*
X316239Y385653D01*
X316209Y385725D01*
X316186Y385801D01*
X316173Y385869D01*
X316163Y385932D01*
X316160Y385958D01*
Y385981D01*
X316157Y386001D01*
Y386014D01*
Y386023D01*
Y386027D01*
X316160Y386096D01*
X316170Y386158D01*
X316180Y386214D01*
X316193Y386260D01*
X316209Y386296D01*
X316219Y386322D01*
X316229Y386338D01*
X316232Y386345D01*
X316262Y386391D01*
X316294Y386430D01*
X316331Y386466D01*
X316363Y386496D01*
X316389Y386519D01*
X316416Y386539D01*
X316429Y386548D01*
X316435Y386552D01*
X316481Y386578D01*
X316531Y386601D01*
X316577Y386617D01*
X316619Y386630D01*
X316655Y386640D01*
X316681Y386647D01*
X316701Y386653D01*
X316708D01*
X316763Y386663D01*
X316823Y386670D01*
X316878Y386673D01*
X316931Y386676D01*
X316980Y386680D01*
X318000D01*
Y384308D01*
D02*
G37*
G36*
X139264Y311107D02*
X139306Y311103D01*
X139349Y311093D01*
X139382Y311087D01*
X139408Y311077D01*
X139431Y311067D01*
X139444Y311064D01*
X139447Y311061D01*
X139483Y311041D01*
X139513Y311025D01*
X139542Y311002D01*
X139565Y310985D01*
X139582Y310969D01*
X139598Y310956D01*
X139605Y310946D01*
X139608Y310943D01*
X139631Y310913D01*
X139654Y310887D01*
X139670Y310861D01*
X139683Y310834D01*
X139693Y310815D01*
X139700Y310798D01*
X139707Y310788D01*
Y310785D01*
X139726Y310726D01*
X139733Y310700D01*
X139739Y310674D01*
X139743Y310654D01*
X139746Y310634D01*
X139749Y310624D01*
Y310621D01*
X139772D01*
X139795Y310690D01*
X139821Y310749D01*
X139854Y310802D01*
X139887Y310847D01*
X139920Y310883D01*
X139946Y310910D01*
X139962Y310923D01*
X139969Y310929D01*
X140028Y310969D01*
X140087Y310998D01*
X140146Y311018D01*
X140202Y311034D01*
X140251Y311041D01*
X140290Y311044D01*
X140303Y311048D01*
X140313D01*
X140320D01*
X140323D01*
X140376Y311044D01*
X140425Y311038D01*
X140467Y311028D01*
X140507Y311018D01*
X140540Y311005D01*
X140563Y310995D01*
X140576Y310988D01*
X140582Y310985D01*
X140625Y310962D01*
X140661Y310933D01*
X140694Y310903D01*
X140720Y310874D01*
X140743Y310847D01*
X140759Y310824D01*
X140769Y310811D01*
X140772Y310805D01*
X140795Y310762D01*
X140818Y310716D01*
X140835Y310670D01*
X140851Y310631D01*
X140861Y310595D01*
X140871Y310565D01*
X140877Y310546D01*
Y310539D01*
X140891Y310480D01*
X140900Y310418D01*
X140907Y310355D01*
X140913Y310296D01*
Y310247D01*
X140917Y310227D01*
Y310172D01*
X140913Y310093D01*
X140910Y310014D01*
X140900Y309942D01*
X140894Y309880D01*
X140884Y309824D01*
X140881Y309804D01*
X140874Y309785D01*
X140871Y309768D01*
Y309758D01*
X140868Y309752D01*
Y309749D01*
X140848Y309677D01*
X140831Y309611D01*
X140815Y309555D01*
X140799Y309506D01*
X140786Y309470D01*
X140776Y309444D01*
X140769Y309427D01*
X140766Y309421D01*
X140261D01*
Y309470D01*
X140271Y309483D01*
X140277Y309499D01*
X140297Y309535D01*
X140307Y309552D01*
X140313Y309562D01*
X140320Y309572D01*
Y309575D01*
X140346Y309627D01*
X140359Y309653D01*
X140369Y309673D01*
X140376Y309690D01*
X140382Y309706D01*
X140385Y309713D01*
Y309716D01*
X140408Y309778D01*
X140415Y309808D01*
X140425Y309834D01*
X140431Y309857D01*
X140435Y309873D01*
X140438Y309886D01*
Y309890D01*
X140451Y309955D01*
X140454Y309988D01*
X140458Y310014D01*
X140461Y310037D01*
Y310113D01*
X140458Y310155D01*
X140454Y310172D01*
Y310185D01*
X140451Y310195D01*
Y310198D01*
X140441Y310254D01*
X140435Y310277D01*
X140428Y310296D01*
X140421Y310310D01*
X140415Y310323D01*
X140412Y310329D01*
Y310332D01*
X140389Y310365D01*
X140366Y310391D01*
X140346Y310408D01*
X140343Y310415D01*
X140340D01*
X140323Y310428D01*
X140303Y310434D01*
X140264Y310447D01*
X140248D01*
X140238Y310451D01*
X140228D01*
X140225D01*
X140192D01*
X140162Y310444D01*
X140136Y310441D01*
X140113Y310434D01*
X140097Y310428D01*
X140084Y310421D01*
X140077Y310418D01*
X140074Y310415D01*
X140038Y310385D01*
X140015Y310349D01*
X140005Y310336D01*
X139998Y310323D01*
X139992Y310316D01*
Y310313D01*
X139972Y310264D01*
X139962Y310211D01*
X139956Y310191D01*
Y310175D01*
X139953Y310162D01*
Y310159D01*
X139949Y310090D01*
Y310057D01*
X139946Y310027D01*
Y309870D01*
X139533D01*
Y310096D01*
X139529Y310119D01*
Y310159D01*
X139526Y310198D01*
X139523Y310234D01*
X139516Y310264D01*
X139513Y310290D01*
X139506Y310313D01*
X139500Y310329D01*
X139497Y310339D01*
Y310342D01*
X139474Y310395D01*
X139457Y310415D01*
X139444Y310431D01*
X139431Y310444D01*
X139421Y310454D01*
X139415Y310460D01*
X139411Y310464D01*
X139388Y310480D01*
X139362Y310493D01*
X139336Y310500D01*
X139310Y310506D01*
X139287Y310510D01*
X139267Y310513D01*
X139254D01*
X139251D01*
X139211D01*
X139178Y310506D01*
X139149Y310503D01*
X139126Y310496D01*
X139106Y310490D01*
X139093Y310487D01*
X139087Y310480D01*
X139083D01*
X139044Y310454D01*
X139011Y310424D01*
X139001Y310411D01*
X138991Y310401D01*
X138988Y310395D01*
X138985Y310391D01*
X138969Y310365D01*
X138952Y310336D01*
X138932Y310280D01*
X138923Y310257D01*
X138919Y310237D01*
X138916Y310224D01*
Y310221D01*
X138909Y310149D01*
X138906Y310119D01*
Y310090D01*
X138903Y310067D01*
Y310034D01*
X138906Y309978D01*
X138913Y309923D01*
X138923Y309870D01*
X138932Y309821D01*
X138942Y309775D01*
X138952Y309742D01*
X138955Y309729D01*
X138959Y309719D01*
X138962Y309716D01*
Y309713D01*
X138985Y309650D01*
X139011Y309591D01*
X139037Y309539D01*
X139060Y309496D01*
X139080Y309457D01*
X139096Y309431D01*
X139106Y309414D01*
X139110Y309407D01*
Y309352D01*
X138595D01*
X138575Y309401D01*
X138555Y309454D01*
X138539Y309506D01*
X138522Y309555D01*
X138509Y309601D01*
X138499Y309637D01*
X138496Y309650D01*
Y309660D01*
X138493Y309667D01*
Y309670D01*
X138477Y309749D01*
X138467Y309831D01*
X138457Y309909D01*
X138453Y309985D01*
X138450Y310018D01*
Y310050D01*
X138447Y310077D01*
Y310149D01*
X138450Y310237D01*
X138457Y310316D01*
X138463Y310385D01*
X138473Y310444D01*
X138483Y310493D01*
X138486Y310513D01*
X138493Y310529D01*
X138496Y310542D01*
Y310552D01*
X138499Y310556D01*
Y310559D01*
X138522Y310621D01*
X138545Y310677D01*
X138572Y310726D01*
X138598Y310772D01*
X138618Y310805D01*
X138637Y310831D01*
X138650Y310847D01*
X138654Y310854D01*
X138693Y310897D01*
X138732Y310936D01*
X138775Y310969D01*
X138811Y310995D01*
X138847Y311018D01*
X138873Y311031D01*
X138890Y311041D01*
X138896Y311044D01*
X138952Y311067D01*
X139008Y311084D01*
X139060Y311093D01*
X139110Y311103D01*
X139152Y311107D01*
X139185Y311110D01*
X139198D01*
X139208D01*
X139211D01*
X139215D01*
X139264Y311107D01*
D02*
G37*
G36*
X140730Y309060D02*
X140743Y309034D01*
X140766Y308981D01*
X140776Y308958D01*
X140782Y308942D01*
X140786Y308929D01*
X140789Y308925D01*
X140818Y308860D01*
X140828Y308830D01*
X140838Y308804D01*
X140845Y308781D01*
X140851Y308765D01*
X140855Y308755D01*
Y308752D01*
X140874Y308673D01*
X140881Y308637D01*
X140887Y308604D01*
X140894Y308574D01*
X140897Y308552D01*
X140900Y308538D01*
Y308532D01*
X140910Y308447D01*
X140913Y308404D01*
Y308365D01*
X140917Y308328D01*
Y308279D01*
X140913Y308181D01*
X140904Y308089D01*
X140887Y308004D01*
X140864Y307922D01*
X140838Y307846D01*
X140809Y307777D01*
X140779Y307715D01*
X140750Y307656D01*
X140717Y307607D01*
X140687Y307561D01*
X140658Y307522D01*
X140631Y307492D01*
X140612Y307466D01*
X140592Y307446D01*
X140582Y307436D01*
X140579Y307433D01*
X140513Y307377D01*
X140445Y307331D01*
X140372Y307289D01*
X140297Y307253D01*
X140221Y307223D01*
X140149Y307197D01*
X140074Y307177D01*
X140005Y307161D01*
X139939Y307148D01*
X139877Y307138D01*
X139821Y307131D01*
X139775Y307128D01*
X139736Y307125D01*
X139707Y307121D01*
X139687D01*
X139683D01*
X139680D01*
X139572Y307125D01*
X139474Y307135D01*
X139378Y307151D01*
X139290Y307171D01*
X139208Y307193D01*
X139136Y307220D01*
X139067Y307249D01*
X139005Y307279D01*
X138952Y307305D01*
X138903Y307335D01*
X138864Y307361D01*
X138831Y307384D01*
X138804Y307403D01*
X138788Y307420D01*
X138775Y307430D01*
X138772Y307433D01*
X138716Y307495D01*
X138667Y307558D01*
X138624Y307627D01*
X138585Y307695D01*
X138555Y307768D01*
X138529Y307836D01*
X138506Y307905D01*
X138490Y307974D01*
X138477Y308036D01*
X138467Y308092D01*
X138460Y308145D01*
X138457Y308191D01*
X138453Y308227D01*
X138450Y308256D01*
Y308338D01*
X138453Y308394D01*
X138457Y308440D01*
X138460Y308476D01*
X138463Y308506D01*
X138467Y308528D01*
X138470Y308542D01*
Y308545D01*
X138483Y308620D01*
X138493Y308653D01*
X138499Y308686D01*
X138506Y308716D01*
X138513Y308735D01*
X138516Y308752D01*
Y308755D01*
X138539Y308820D01*
X138549Y308850D01*
X138558Y308876D01*
X138568Y308896D01*
X138575Y308915D01*
X138581Y308925D01*
Y308929D01*
X138611Y308991D01*
X138621Y309017D01*
X138634Y309040D01*
X138640Y309057D01*
X138647Y309070D01*
X138654Y309080D01*
Y309083D01*
X139211D01*
Y309027D01*
X139178Y308991D01*
X139149Y308958D01*
X139136Y308942D01*
X139129Y308932D01*
X139123Y308925D01*
X139119Y308922D01*
X139083Y308876D01*
X139050Y308830D01*
X139041Y308811D01*
X139031Y308794D01*
X139024Y308784D01*
X139021Y308781D01*
X139005Y308752D01*
X138985Y308722D01*
X138972Y308693D01*
X138959Y308663D01*
X138949Y308640D01*
X138939Y308620D01*
X138936Y308604D01*
X138932Y308601D01*
X138919Y308561D01*
X138913Y308522D01*
X138906Y308483D01*
X138900Y308450D01*
Y308420D01*
X138896Y308397D01*
Y308378D01*
X138900Y308335D01*
X138903Y308296D01*
X138909Y308256D01*
X138916Y308224D01*
X138923Y308194D01*
X138929Y308171D01*
X138936Y308158D01*
Y308151D01*
X138952Y308112D01*
X138972Y308073D01*
X138995Y308036D01*
X139014Y308007D01*
X139034Y307981D01*
X139050Y307961D01*
X139060Y307948D01*
X139064Y307945D01*
X139100Y307912D01*
X139139Y307879D01*
X139182Y307853D01*
X139221Y307833D01*
X139254Y307814D01*
X139280Y307800D01*
X139300Y307794D01*
X139306Y307790D01*
X139365Y307771D01*
X139428Y307758D01*
X139490Y307748D01*
X139549Y307741D01*
X139598Y307738D01*
X139621D01*
X139641Y307735D01*
X139657D01*
X139667D01*
X139674D01*
X139677D01*
X139752Y307738D01*
X139821Y307745D01*
X139884Y307751D01*
X139939Y307764D01*
X139982Y307774D01*
X140015Y307781D01*
X140025Y307784D01*
X140034Y307787D01*
X140038Y307790D01*
X140041D01*
X140097Y307814D01*
X140146Y307836D01*
X140189Y307859D01*
X140225Y307882D01*
X140251Y307905D01*
X140271Y307922D01*
X140284Y307931D01*
X140287Y307935D01*
X140323Y307971D01*
X140353Y308007D01*
X140376Y308043D01*
X140395Y308073D01*
X140412Y308099D01*
X140421Y308122D01*
X140425Y308135D01*
X140428Y308138D01*
X140441Y308181D01*
X140454Y308220D01*
X140461Y308260D01*
X140464Y308296D01*
X140467Y308328D01*
X140471Y308351D01*
Y308414D01*
X140464Y308453D01*
X140461Y308486D01*
X140454Y308519D01*
X140448Y308545D01*
X140441Y308565D01*
X140438Y308578D01*
X140435Y308581D01*
X140421Y308617D01*
X140405Y308653D01*
X140392Y308683D01*
X140379Y308712D01*
X140366Y308732D01*
X140359Y308752D01*
X140353Y308761D01*
X140349Y308765D01*
X140310Y308824D01*
X140294Y308847D01*
X140277Y308870D01*
X140264Y308886D01*
X140254Y308902D01*
X140248Y308909D01*
X140244Y308912D01*
X140208Y308958D01*
X140182Y308991D01*
X140169Y309004D01*
X140162Y309014D01*
X140159Y309017D01*
X140156Y309020D01*
Y309083D01*
X140717D01*
X140730Y309060D01*
D02*
G37*
G36*
X152221Y316927D02*
X152267Y316923D01*
X152303Y316920D01*
X152333Y316917D01*
X152356Y316913D01*
X152369Y316910D01*
X152372D01*
X152448Y316897D01*
X152480Y316887D01*
X152513Y316881D01*
X152543Y316874D01*
X152562Y316867D01*
X152579Y316864D01*
X152582D01*
X152648Y316841D01*
X152677Y316831D01*
X152703Y316822D01*
X152723Y316812D01*
X152743Y316805D01*
X152753Y316799D01*
X152756D01*
X152818Y316769D01*
X152845Y316759D01*
X152868Y316746D01*
X152884Y316740D01*
X152897Y316733D01*
X152907Y316726D01*
X152910D01*
Y316169D01*
X152854D01*
X152818Y316202D01*
X152786Y316231D01*
X152769Y316244D01*
X152759Y316251D01*
X152753Y316257D01*
X152750Y316261D01*
X152703Y316297D01*
X152658Y316330D01*
X152638Y316339D01*
X152622Y316349D01*
X152612Y316356D01*
X152608Y316359D01*
X152579Y316375D01*
X152549Y316395D01*
X152520Y316408D01*
X152490Y316421D01*
X152467Y316431D01*
X152448Y316441D01*
X152431Y316444D01*
X152428Y316448D01*
X152389Y316461D01*
X152349Y316467D01*
X152310Y316474D01*
X152277Y316480D01*
X152248D01*
X152225Y316484D01*
X152205D01*
X152162Y316480D01*
X152123Y316477D01*
X152084Y316471D01*
X152051Y316464D01*
X152021Y316458D01*
X151998Y316451D01*
X151985Y316444D01*
X151979D01*
X151939Y316428D01*
X151900Y316408D01*
X151864Y316385D01*
X151834Y316366D01*
X151808Y316346D01*
X151788Y316330D01*
X151775Y316320D01*
X151772Y316317D01*
X151739Y316280D01*
X151706Y316241D01*
X151680Y316198D01*
X151661Y316159D01*
X151641Y316126D01*
X151628Y316100D01*
X151621Y316080D01*
X151618Y316074D01*
X151598Y316015D01*
X151585Y315952D01*
X151575Y315890D01*
X151569Y315831D01*
X151565Y315782D01*
Y315759D01*
X151562Y315739D01*
Y315723D01*
Y315713D01*
Y315706D01*
Y315703D01*
X151565Y315628D01*
X151572Y315559D01*
X151578Y315496D01*
X151592Y315441D01*
X151602Y315398D01*
X151608Y315365D01*
X151611Y315355D01*
X151615Y315346D01*
X151618Y315342D01*
Y315339D01*
X151641Y315283D01*
X151664Y315234D01*
X151687Y315191D01*
X151710Y315155D01*
X151733Y315129D01*
X151749Y315109D01*
X151759Y315096D01*
X151762Y315093D01*
X151798Y315057D01*
X151834Y315027D01*
X151870Y315004D01*
X151900Y314985D01*
X151926Y314968D01*
X151949Y314959D01*
X151962Y314955D01*
X151966Y314952D01*
X152008Y314939D01*
X152048Y314926D01*
X152087Y314919D01*
X152123Y314916D01*
X152156Y314913D01*
X152179Y314909D01*
X152241D01*
X152280Y314916D01*
X152313Y314919D01*
X152346Y314926D01*
X152372Y314932D01*
X152392Y314939D01*
X152405Y314942D01*
X152408Y314945D01*
X152444Y314959D01*
X152480Y314975D01*
X152510Y314988D01*
X152540Y315001D01*
X152559Y315014D01*
X152579Y315021D01*
X152589Y315027D01*
X152592Y315031D01*
X152651Y315070D01*
X152674Y315087D01*
X152697Y315103D01*
X152713Y315116D01*
X152730Y315126D01*
X152736Y315132D01*
X152740Y315136D01*
X152786Y315172D01*
X152818Y315198D01*
X152831Y315211D01*
X152841Y315218D01*
X152845Y315221D01*
X152848Y315224D01*
X152910D01*
Y314663D01*
X152887Y314650D01*
X152861Y314637D01*
X152808Y314614D01*
X152786Y314604D01*
X152769Y314598D01*
X152756Y314595D01*
X152753Y314591D01*
X152687Y314562D01*
X152658Y314552D01*
X152631Y314542D01*
X152608Y314535D01*
X152592Y314529D01*
X152582Y314526D01*
X152579D01*
X152500Y314506D01*
X152464Y314499D01*
X152431Y314493D01*
X152402Y314486D01*
X152379Y314483D01*
X152366Y314480D01*
X152359D01*
X152274Y314470D01*
X152231Y314467D01*
X152192D01*
X152156Y314463D01*
X152107D01*
X152008Y314467D01*
X151916Y314476D01*
X151831Y314493D01*
X151749Y314516D01*
X151674Y314542D01*
X151605Y314571D01*
X151542Y314601D01*
X151483Y314631D01*
X151434Y314663D01*
X151388Y314693D01*
X151349Y314722D01*
X151319Y314749D01*
X151293Y314768D01*
X151274Y314788D01*
X151264Y314798D01*
X151260Y314801D01*
X151205Y314867D01*
X151159Y314936D01*
X151116Y315008D01*
X151080Y315083D01*
X151050Y315159D01*
X151024Y315231D01*
X151005Y315306D01*
X150988Y315375D01*
X150975Y315441D01*
X150965Y315503D01*
X150959Y315559D01*
X150955Y315605D01*
X150952Y315644D01*
X150949Y315674D01*
Y315693D01*
Y315697D01*
Y315700D01*
X150952Y315808D01*
X150962Y315907D01*
X150978Y316002D01*
X150998Y316090D01*
X151021Y316172D01*
X151047Y316244D01*
X151077Y316313D01*
X151106Y316375D01*
X151132Y316428D01*
X151162Y316477D01*
X151188Y316517D01*
X151211Y316549D01*
X151231Y316576D01*
X151247Y316592D01*
X151257Y316605D01*
X151260Y316608D01*
X151323Y316664D01*
X151385Y316713D01*
X151454Y316756D01*
X151523Y316795D01*
X151595Y316825D01*
X151664Y316851D01*
X151733Y316874D01*
X151802Y316891D01*
X151864Y316904D01*
X151920Y316913D01*
X151972Y316920D01*
X152018Y316923D01*
X152054Y316927D01*
X152084Y316930D01*
X152166D01*
X152221Y316927D01*
D02*
G37*
G36*
X154061Y316930D02*
X154144Y316923D01*
X154216Y316913D01*
X154278Y316904D01*
X154327Y316894D01*
X154347Y316887D01*
X154363Y316884D01*
X154376Y316881D01*
X154386Y316877D01*
X154390Y316874D01*
X154393D01*
X154455Y316848D01*
X154514Y316822D01*
X154563Y316792D01*
X154606Y316763D01*
X154642Y316736D01*
X154668Y316717D01*
X154685Y316704D01*
X154691Y316697D01*
X154734Y316651D01*
X154773Y316605D01*
X154806Y316559D01*
X154832Y316517D01*
X154852Y316480D01*
X154865Y316451D01*
X154875Y316431D01*
X154878Y316428D01*
Y316425D01*
X154901Y316366D01*
X154918Y316303D01*
X154927Y316248D01*
X154937Y316195D01*
X154940Y316149D01*
X154944Y316113D01*
Y316100D01*
Y316090D01*
Y316087D01*
Y316084D01*
X154940Y316008D01*
X154931Y315936D01*
X154921Y315877D01*
X154908Y315825D01*
X154891Y315782D01*
X154882Y315749D01*
X154872Y315729D01*
X154868Y315723D01*
X154839Y315670D01*
X154803Y315624D01*
X154767Y315582D01*
X154734Y315549D01*
X154704Y315523D01*
X154678Y315503D01*
X154662Y315490D01*
X154655Y315487D01*
X154613Y315460D01*
X154570Y315441D01*
X154524Y315421D01*
X154485Y315408D01*
X154452Y315395D01*
X154422Y315388D01*
X154406Y315382D01*
X154399D01*
X154344Y315369D01*
X154288Y315362D01*
X154235Y315355D01*
X154189Y315349D01*
X154147D01*
X154114Y315346D01*
X154019D01*
X154002Y315349D01*
X153980D01*
X153934Y315352D01*
X153901D01*
X153888Y315355D01*
X153868D01*
Y314959D01*
X154878D01*
Y314512D01*
X153307D01*
Y315844D01*
X153356D01*
X153428Y315828D01*
X153464Y315821D01*
X153497Y315815D01*
X153527Y315808D01*
X153550Y315805D01*
X153563Y315802D01*
X153569D01*
X153661Y315788D01*
X153704Y315785D01*
X153743Y315782D01*
X153776Y315779D01*
X153825D01*
X153894Y315782D01*
X153927Y315785D01*
X153956D01*
X153986Y315788D01*
X154006Y315792D01*
X154019Y315795D01*
X154025D01*
X154068Y315802D01*
X154104Y315811D01*
X154137Y315825D01*
X154166Y315834D01*
X154189Y315847D01*
X154209Y315854D01*
X154219Y315861D01*
X154222Y315864D01*
X154258Y315897D01*
X154288Y315926D01*
X154298Y315943D01*
X154304Y315952D01*
X154311Y315959D01*
Y315962D01*
X154324Y315985D01*
X154330Y316008D01*
X154344Y316057D01*
Y316077D01*
X154347Y316093D01*
Y316103D01*
Y316107D01*
Y316143D01*
X154344Y316172D01*
X154337Y316198D01*
X154334Y316221D01*
X154327Y316241D01*
X154321Y316254D01*
X154317Y316261D01*
Y316264D01*
X154294Y316307D01*
X154271Y316339D01*
X154258Y316353D01*
X154252Y316362D01*
X154245Y316369D01*
X154242Y316372D01*
X154216Y316392D01*
X154186Y316408D01*
X154130Y316435D01*
X154107Y316444D01*
X154088Y316451D01*
X154071Y316454D01*
X154068D01*
X153993Y316467D01*
X153960Y316471D01*
X153930Y316474D01*
X153907Y316477D01*
X153832D01*
X153796Y316474D01*
X153763Y316471D01*
X153734Y316467D01*
X153707Y316464D01*
X153691Y316461D01*
X153678Y316458D01*
X153674D01*
X153612Y316438D01*
X153583Y316431D01*
X153556Y316421D01*
X153537Y316415D01*
X153520Y316408D01*
X153507Y316402D01*
X153504D01*
X153471Y316389D01*
X153445Y316375D01*
X153419Y316362D01*
X153399Y316353D01*
X153383Y316346D01*
X153369Y316339D01*
X153363Y316333D01*
X153359D01*
X153320Y316310D01*
X153287Y316290D01*
X153274Y316284D01*
X153264Y316277D01*
X153261Y316274D01*
X153205D01*
Y316792D01*
X153255Y316812D01*
X153304Y316828D01*
X153356Y316845D01*
X153405Y316858D01*
X153451Y316871D01*
X153484Y316881D01*
X153497Y316884D01*
X153507D01*
X153514Y316887D01*
X153517D01*
X153592Y316900D01*
X153671Y316913D01*
X153747Y316920D01*
X153819Y316927D01*
X153881Y316930D01*
X153907D01*
X153930Y316933D01*
X153973D01*
X154061Y316930D01*
D02*
G37*
G36*
X174040Y279647D02*
X174139Y279637D01*
X174234Y279621D01*
X174322Y279601D01*
X174404Y279578D01*
X174477Y279552D01*
X174545Y279522D01*
X174608Y279493D01*
X174660Y279466D01*
X174709Y279437D01*
X174749Y279411D01*
X174782Y279388D01*
X174808Y279368D01*
X174824Y279352D01*
X174837Y279342D01*
X174841Y279339D01*
X174896Y279276D01*
X174946Y279214D01*
X174988Y279145D01*
X175028Y279076D01*
X175057Y279004D01*
X175083Y278935D01*
X175106Y278866D01*
X175123Y278797D01*
X175136Y278735D01*
X175146Y278679D01*
X175152Y278627D01*
X175155Y278581D01*
X175159Y278545D01*
X175162Y278515D01*
Y278433D01*
X175159Y278377D01*
X175155Y278331D01*
X175152Y278295D01*
X175149Y278266D01*
X175146Y278243D01*
X175142Y278230D01*
Y278226D01*
X175129Y278151D01*
X175119Y278118D01*
X175113Y278085D01*
X175106Y278056D01*
X175100Y278036D01*
X175096Y278020D01*
Y278017D01*
X175074Y277951D01*
X175064Y277922D01*
X175054Y277895D01*
X175044Y277876D01*
X175037Y277856D01*
X175031Y277846D01*
Y277843D01*
X175001Y277781D01*
X174992Y277754D01*
X174978Y277731D01*
X174972Y277715D01*
X174965Y277702D01*
X174959Y277692D01*
Y277689D01*
X174401D01*
Y277744D01*
X174434Y277781D01*
X174463Y277813D01*
X174477Y277830D01*
X174483Y277839D01*
X174490Y277846D01*
X174493Y277849D01*
X174529Y277895D01*
X174562Y277941D01*
X174572Y277961D01*
X174582Y277977D01*
X174588Y277987D01*
X174591Y277990D01*
X174608Y278020D01*
X174627Y278049D01*
X174641Y278079D01*
X174654Y278108D01*
X174663Y278131D01*
X174673Y278151D01*
X174677Y278168D01*
X174680Y278171D01*
X174693Y278210D01*
X174699Y278250D01*
X174706Y278289D01*
X174713Y278322D01*
Y278351D01*
X174716Y278374D01*
Y278394D01*
X174713Y278436D01*
X174709Y278476D01*
X174703Y278515D01*
X174696Y278548D01*
X174690Y278577D01*
X174683Y278601D01*
X174677Y278614D01*
Y278620D01*
X174660Y278660D01*
X174641Y278699D01*
X174618Y278735D01*
X174598Y278764D01*
X174578Y278791D01*
X174562Y278810D01*
X174552Y278823D01*
X174549Y278827D01*
X174513Y278860D01*
X174473Y278892D01*
X174431Y278919D01*
X174391Y278938D01*
X174358Y278958D01*
X174332Y278971D01*
X174312Y278978D01*
X174306Y278981D01*
X174247Y279001D01*
X174185Y279014D01*
X174122Y279024D01*
X174063Y279030D01*
X174014Y279033D01*
X173991D01*
X173971Y279037D01*
X173955D01*
X173945D01*
X173939D01*
X173935D01*
X173860Y279033D01*
X173791Y279027D01*
X173729Y279020D01*
X173673Y279007D01*
X173630Y278997D01*
X173598Y278991D01*
X173588Y278988D01*
X173578Y278984D01*
X173574Y278981D01*
X173571D01*
X173515Y278958D01*
X173466Y278935D01*
X173424Y278912D01*
X173388Y278889D01*
X173361Y278866D01*
X173342Y278850D01*
X173328Y278840D01*
X173325Y278837D01*
X173289Y278801D01*
X173260Y278764D01*
X173237Y278728D01*
X173217Y278699D01*
X173201Y278673D01*
X173191Y278650D01*
X173187Y278637D01*
X173184Y278633D01*
X173171Y278591D01*
X173158Y278551D01*
X173151Y278512D01*
X173148Y278476D01*
X173145Y278443D01*
X173142Y278420D01*
Y278358D01*
X173148Y278318D01*
X173151Y278286D01*
X173158Y278253D01*
X173164Y278226D01*
X173171Y278207D01*
X173174Y278194D01*
X173178Y278190D01*
X173191Y278154D01*
X173207Y278118D01*
X173220Y278089D01*
X173233Y278059D01*
X173247Y278040D01*
X173253Y278020D01*
X173260Y278010D01*
X173263Y278007D01*
X173302Y277948D01*
X173319Y277925D01*
X173335Y277902D01*
X173348Y277885D01*
X173358Y277869D01*
X173365Y277862D01*
X173368Y277859D01*
X173404Y277813D01*
X173430Y277781D01*
X173443Y277767D01*
X173450Y277758D01*
X173453Y277754D01*
X173456Y277751D01*
Y277689D01*
X172896D01*
X172882Y277712D01*
X172869Y277738D01*
X172846Y277790D01*
X172836Y277813D01*
X172830Y277830D01*
X172827Y277843D01*
X172823Y277846D01*
X172794Y277912D01*
X172784Y277941D01*
X172774Y277967D01*
X172768Y277990D01*
X172761Y278007D01*
X172758Y278017D01*
Y278020D01*
X172738Y278099D01*
X172731Y278135D01*
X172725Y278168D01*
X172718Y278197D01*
X172715Y278220D01*
X172712Y278233D01*
Y278240D01*
X172702Y278325D01*
X172699Y278368D01*
Y278407D01*
X172696Y278443D01*
Y278492D01*
X172699Y278591D01*
X172709Y278682D01*
X172725Y278768D01*
X172748Y278850D01*
X172774Y278925D01*
X172804Y278994D01*
X172833Y279056D01*
X172863Y279115D01*
X172896Y279165D01*
X172925Y279210D01*
X172955Y279250D01*
X172981Y279279D01*
X173001Y279306D01*
X173020Y279325D01*
X173030Y279335D01*
X173033Y279339D01*
X173099Y279394D01*
X173168Y279440D01*
X173240Y279483D01*
X173315Y279519D01*
X173391Y279548D01*
X173463Y279575D01*
X173538Y279594D01*
X173607Y279611D01*
X173673Y279624D01*
X173735Y279634D01*
X173791Y279640D01*
X173837Y279644D01*
X173876Y279647D01*
X173906Y279650D01*
X173925D01*
X173929D01*
X173932D01*
X174040Y279647D01*
D02*
G37*
G36*
X175116Y275599D02*
X174670D01*
Y276609D01*
X174650Y276583D01*
X174627Y276554D01*
X174575Y276488D01*
X174552Y276459D01*
X174532Y276436D01*
X174519Y276419D01*
X174516Y276413D01*
X174427Y276311D01*
X174385Y276265D01*
X174345Y276222D01*
X174312Y276186D01*
X174283Y276157D01*
X174267Y276140D01*
X174260Y276134D01*
X174175Y276055D01*
X174096Y275986D01*
X174024Y275931D01*
X173958Y275885D01*
X173906Y275849D01*
X173883Y275835D01*
X173866Y275826D01*
X173850Y275816D01*
X173840Y275809D01*
X173834Y275806D01*
X173830D01*
X173755Y275773D01*
X173679Y275747D01*
X173611Y275730D01*
X173545Y275717D01*
X173493Y275711D01*
X173470Y275708D01*
X173450Y275704D01*
X173433D01*
X173424D01*
X173417D01*
X173414D01*
X173352Y275708D01*
X173292Y275714D01*
X173237Y275724D01*
X173187Y275737D01*
X173142Y275757D01*
X173096Y275773D01*
X173056Y275793D01*
X173020Y275812D01*
X172991Y275835D01*
X172961Y275855D01*
X172938Y275871D01*
X172918Y275888D01*
X172905Y275904D01*
X172896Y275914D01*
X172889Y275921D01*
X172886Y275924D01*
X172853Y275967D01*
X172823Y276012D01*
X172797Y276062D01*
X172774Y276114D01*
X172758Y276167D01*
X172741Y276222D01*
X172718Y276324D01*
X172712Y276373D01*
X172705Y276419D01*
X172702Y276459D01*
X172699Y276495D01*
X172696Y276524D01*
Y276564D01*
X172699Y276639D01*
X172702Y276711D01*
X172712Y276780D01*
X172722Y276842D01*
X172731Y276895D01*
X172735Y276918D01*
X172738Y276938D01*
X172741Y276954D01*
X172745Y276964D01*
X172748Y276970D01*
Y276974D01*
X172768Y277049D01*
X172784Y277111D01*
X172800Y277167D01*
X172817Y277210D01*
X172827Y277242D01*
X172836Y277266D01*
X172843Y277282D01*
X172846Y277285D01*
X173361D01*
Y277239D01*
X173345Y277216D01*
X173328Y277187D01*
X173315Y277167D01*
X173309Y277161D01*
Y277157D01*
X173279Y277111D01*
X173256Y277065D01*
X173247Y277046D01*
X173240Y277029D01*
X173233Y277020D01*
Y277016D01*
X173210Y276957D01*
X173197Y276928D01*
X173191Y276905D01*
X173184Y276882D01*
X173178Y276865D01*
X173174Y276855D01*
Y276852D01*
X173161Y276790D01*
X173158Y276764D01*
X173155Y276737D01*
X173151Y276714D01*
Y276682D01*
X173155Y276619D01*
X173164Y276564D01*
X173181Y276518D01*
X173194Y276478D01*
X173210Y276446D01*
X173227Y276423D01*
X173237Y276409D01*
X173240Y276406D01*
X173276Y276373D01*
X173319Y276347D01*
X173361Y276331D01*
X173401Y276318D01*
X173437Y276311D01*
X173470Y276304D01*
X173489D01*
X173493D01*
X173496D01*
X173551Y276308D01*
X173604Y276318D01*
X173650Y276331D01*
X173693Y276344D01*
X173729Y276357D01*
X173758Y276370D01*
X173775Y276380D01*
X173781Y276383D01*
X173834Y276416D01*
X173889Y276455D01*
X173942Y276498D01*
X173994Y276537D01*
X174037Y276577D01*
X174073Y276606D01*
X174086Y276619D01*
X174093Y276629D01*
X174099Y276632D01*
X174103Y276636D01*
X174155Y276688D01*
X174207Y276741D01*
X174260Y276793D01*
X174306Y276842D01*
X174345Y276885D01*
X174375Y276918D01*
X174385Y276931D01*
X174395Y276941D01*
X174398Y276944D01*
X174401Y276947D01*
X174460Y277016D01*
X174519Y277085D01*
X174575Y277151D01*
X174624Y277213D01*
X174667Y277266D01*
X174686Y277289D01*
X174703Y277308D01*
X174716Y277321D01*
X174726Y277334D01*
X174729Y277341D01*
X174732Y277344D01*
X175116D01*
Y275599D01*
D02*
G37*
G36*
X148834Y280481D02*
X148879Y280477D01*
X148916Y280474D01*
X148945Y280471D01*
X148968Y280468D01*
X148981Y280464D01*
X148984D01*
X149060Y280451D01*
X149093Y280441D01*
X149126Y280435D01*
X149155Y280428D01*
X149175Y280422D01*
X149191Y280418D01*
X149194D01*
X149260Y280396D01*
X149290Y280386D01*
X149316Y280376D01*
X149335Y280366D01*
X149355Y280359D01*
X149365Y280353D01*
X149368D01*
X149431Y280323D01*
X149457Y280313D01*
X149480Y280300D01*
X149496Y280294D01*
X149509Y280287D01*
X149519Y280281D01*
X149522D01*
Y279723D01*
X149467D01*
X149431Y279756D01*
X149398Y279785D01*
X149381Y279799D01*
X149372Y279805D01*
X149365Y279812D01*
X149362Y279815D01*
X149316Y279851D01*
X149270Y279884D01*
X149250Y279894D01*
X149234Y279904D01*
X149224Y279910D01*
X149221Y279913D01*
X149191Y279930D01*
X149162Y279949D01*
X149132Y279962D01*
X149102Y279976D01*
X149080Y279985D01*
X149060Y279995D01*
X149044Y279999D01*
X149040Y280002D01*
X149001Y280015D01*
X148961Y280022D01*
X148922Y280028D01*
X148889Y280035D01*
X148860D01*
X148837Y280038D01*
X148817D01*
X148775Y280035D01*
X148735Y280031D01*
X148696Y280025D01*
X148663Y280018D01*
X148633Y280012D01*
X148610Y280005D01*
X148597Y279999D01*
X148591D01*
X148551Y279982D01*
X148512Y279962D01*
X148476Y279940D01*
X148447Y279920D01*
X148420Y279900D01*
X148401Y279884D01*
X148387Y279874D01*
X148384Y279871D01*
X148351Y279835D01*
X148319Y279795D01*
X148292Y279753D01*
X148273Y279713D01*
X148253Y279680D01*
X148240Y279654D01*
X148233Y279634D01*
X148230Y279628D01*
X148210Y279569D01*
X148197Y279507D01*
X148187Y279444D01*
X148181Y279385D01*
X148178Y279336D01*
Y279313D01*
X148174Y279293D01*
Y279277D01*
Y279267D01*
Y279261D01*
Y279257D01*
X148178Y279182D01*
X148184Y279113D01*
X148191Y279051D01*
X148204Y278995D01*
X148214Y278952D01*
X148220Y278920D01*
X148223Y278910D01*
X148227Y278900D01*
X148230Y278896D01*
Y278893D01*
X148253Y278837D01*
X148276Y278788D01*
X148299Y278746D01*
X148322Y278710D01*
X148345Y278683D01*
X148361Y278664D01*
X148371Y278650D01*
X148374Y278647D01*
X148410Y278611D01*
X148447Y278582D01*
X148483Y278559D01*
X148512Y278539D01*
X148538Y278523D01*
X148561Y278513D01*
X148574Y278509D01*
X148578Y278506D01*
X148620Y278493D01*
X148660Y278480D01*
X148699Y278473D01*
X148735Y278470D01*
X148768Y278467D01*
X148791Y278464D01*
X148853D01*
X148893Y278470D01*
X148925Y278473D01*
X148958Y278480D01*
X148984Y278486D01*
X149004Y278493D01*
X149017Y278496D01*
X149021Y278500D01*
X149057Y278513D01*
X149093Y278529D01*
X149122Y278542D01*
X149152Y278555D01*
X149171Y278569D01*
X149191Y278575D01*
X149201Y278582D01*
X149204Y278585D01*
X149263Y278624D01*
X149286Y278641D01*
X149309Y278657D01*
X149326Y278670D01*
X149342Y278680D01*
X149348Y278687D01*
X149352Y278690D01*
X149398Y278726D01*
X149431Y278752D01*
X149444Y278765D01*
X149453Y278772D01*
X149457Y278775D01*
X149460Y278778D01*
X149522D01*
Y278218D01*
X149499Y278204D01*
X149473Y278191D01*
X149421Y278168D01*
X149398Y278158D01*
X149381Y278152D01*
X149368Y278149D01*
X149365Y278145D01*
X149299Y278116D01*
X149270Y278106D01*
X149243Y278096D01*
X149221Y278090D01*
X149204Y278083D01*
X149194Y278080D01*
X149191D01*
X149112Y278060D01*
X149076Y278053D01*
X149044Y278047D01*
X149014Y278040D01*
X148991Y278037D01*
X148978Y278034D01*
X148971D01*
X148886Y278024D01*
X148843Y278021D01*
X148804D01*
X148768Y278017D01*
X148719D01*
X148620Y278021D01*
X148529Y278031D01*
X148443Y278047D01*
X148361Y278070D01*
X148286Y278096D01*
X148217Y278126D01*
X148155Y278155D01*
X148096Y278185D01*
X148046Y278218D01*
X148000Y278247D01*
X147961Y278277D01*
X147932Y278303D01*
X147905Y278323D01*
X147886Y278342D01*
X147876Y278352D01*
X147872Y278355D01*
X147817Y278421D01*
X147771Y278490D01*
X147728Y278562D01*
X147692Y278637D01*
X147663Y278713D01*
X147636Y278785D01*
X147617Y278860D01*
X147600Y278929D01*
X147587Y278995D01*
X147577Y279057D01*
X147571Y279113D01*
X147567Y279159D01*
X147564Y279198D01*
X147561Y279228D01*
Y279247D01*
Y279251D01*
Y279254D01*
X147564Y279362D01*
X147574Y279461D01*
X147590Y279556D01*
X147610Y279644D01*
X147633Y279726D01*
X147659Y279799D01*
X147689Y279867D01*
X147718Y279930D01*
X147745Y279982D01*
X147774Y280031D01*
X147800Y280071D01*
X147823Y280103D01*
X147843Y280130D01*
X147859Y280146D01*
X147869Y280159D01*
X147872Y280163D01*
X147935Y280218D01*
X147997Y280268D01*
X148066Y280310D01*
X148135Y280349D01*
X148207Y280379D01*
X148276Y280405D01*
X148345Y280428D01*
X148414Y280445D01*
X148476Y280458D01*
X148532Y280468D01*
X148584Y280474D01*
X148630Y280477D01*
X148666Y280481D01*
X148696Y280484D01*
X148778D01*
X148834Y280481D01*
D02*
G37*
G36*
X151316Y279887D02*
X151638D01*
Y279461D01*
X151316D01*
Y278067D01*
X150719D01*
X149699Y279448D01*
Y279887D01*
X150739D01*
Y280445D01*
X151316D01*
Y279887D01*
D02*
G37*
G36*
X166941Y326263D02*
X167032Y326253D01*
X167118Y326237D01*
X167200Y326214D01*
X167275Y326188D01*
X167344Y326158D01*
X167406Y326129D01*
X167465Y326099D01*
X167515Y326066D01*
X167561Y326037D01*
X167600Y326007D01*
X167629Y325981D01*
X167656Y325961D01*
X167675Y325942D01*
X167685Y325932D01*
X167688Y325929D01*
X167744Y325863D01*
X167790Y325794D01*
X167833Y325722D01*
X167869Y325647D01*
X167898Y325571D01*
X167925Y325499D01*
X167944Y325424D01*
X167961Y325355D01*
X167974Y325289D01*
X167984Y325227D01*
X167990Y325171D01*
X167993Y325125D01*
X167997Y325086D01*
X168000Y325056D01*
Y325037D01*
Y325033D01*
Y325030D01*
X167997Y324922D01*
X167987Y324823D01*
X167971Y324728D01*
X167951Y324640D01*
X167928Y324558D01*
X167902Y324485D01*
X167872Y324417D01*
X167843Y324354D01*
X167816Y324302D01*
X167787Y324253D01*
X167761Y324213D01*
X167738Y324180D01*
X167718Y324154D01*
X167702Y324138D01*
X167692Y324125D01*
X167688Y324121D01*
X167626Y324066D01*
X167564Y324016D01*
X167495Y323974D01*
X167426Y323934D01*
X167354Y323905D01*
X167285Y323879D01*
X167216Y323856D01*
X167147Y323839D01*
X167085Y323826D01*
X167029Y323816D01*
X166977Y323810D01*
X166931Y323807D01*
X166895Y323803D01*
X166865Y323800D01*
X166783D01*
X166727Y323803D01*
X166682Y323807D01*
X166645Y323810D01*
X166616Y323813D01*
X166593Y323816D01*
X166580Y323820D01*
X166577D01*
X166501Y323833D01*
X166468Y323843D01*
X166436Y323849D01*
X166406Y323856D01*
X166386Y323862D01*
X166370Y323866D01*
X166367D01*
X166301Y323888D01*
X166271Y323898D01*
X166245Y323908D01*
X166226Y323918D01*
X166206Y323925D01*
X166196Y323931D01*
X166193D01*
X166130Y323961D01*
X166104Y323971D01*
X166081Y323984D01*
X166065Y323990D01*
X166052Y323997D01*
X166042Y324003D01*
X166039D01*
Y324561D01*
X166094D01*
X166130Y324528D01*
X166163Y324499D01*
X166180Y324485D01*
X166190Y324479D01*
X166196Y324472D01*
X166199Y324469D01*
X166245Y324433D01*
X166291Y324400D01*
X166311Y324390D01*
X166327Y324380D01*
X166337Y324374D01*
X166340Y324371D01*
X166370Y324354D01*
X166399Y324335D01*
X166429Y324322D01*
X166458Y324308D01*
X166481Y324299D01*
X166501Y324289D01*
X166517Y324285D01*
X166521Y324282D01*
X166560Y324269D01*
X166600Y324262D01*
X166639Y324256D01*
X166672Y324249D01*
X166701D01*
X166724Y324246D01*
X166744D01*
X166786Y324249D01*
X166826Y324253D01*
X166865Y324259D01*
X166898Y324266D01*
X166928Y324272D01*
X166951Y324279D01*
X166964Y324285D01*
X166970D01*
X167009Y324302D01*
X167049Y324322D01*
X167085Y324344D01*
X167114Y324364D01*
X167141Y324384D01*
X167160Y324400D01*
X167174Y324410D01*
X167177Y324413D01*
X167210Y324449D01*
X167242Y324489D01*
X167269Y324531D01*
X167288Y324571D01*
X167308Y324604D01*
X167321Y324630D01*
X167328Y324650D01*
X167331Y324656D01*
X167351Y324715D01*
X167364Y324777D01*
X167374Y324840D01*
X167380Y324899D01*
X167383Y324948D01*
Y324971D01*
X167387Y324991D01*
Y325007D01*
Y325017D01*
Y325023D01*
Y325027D01*
X167383Y325102D01*
X167377Y325171D01*
X167370Y325233D01*
X167357Y325289D01*
X167347Y325332D01*
X167341Y325364D01*
X167338Y325374D01*
X167334Y325384D01*
X167331Y325388D01*
Y325391D01*
X167308Y325447D01*
X167285Y325496D01*
X167262Y325538D01*
X167239Y325574D01*
X167216Y325601D01*
X167200Y325620D01*
X167190Y325634D01*
X167187Y325637D01*
X167150Y325673D01*
X167114Y325702D01*
X167078Y325725D01*
X167049Y325745D01*
X167023Y325761D01*
X167000Y325771D01*
X166987Y325775D01*
X166983Y325778D01*
X166941Y325791D01*
X166901Y325804D01*
X166862Y325811D01*
X166826Y325814D01*
X166793Y325817D01*
X166770Y325820D01*
X166708D01*
X166668Y325814D01*
X166636Y325811D01*
X166603Y325804D01*
X166577Y325798D01*
X166557Y325791D01*
X166544Y325788D01*
X166541Y325784D01*
X166504Y325771D01*
X166468Y325755D01*
X166439Y325742D01*
X166409Y325729D01*
X166390Y325715D01*
X166370Y325709D01*
X166360Y325702D01*
X166357Y325699D01*
X166298Y325660D01*
X166275Y325643D01*
X166252Y325627D01*
X166235Y325614D01*
X166219Y325604D01*
X166212Y325597D01*
X166209Y325594D01*
X166163Y325558D01*
X166130Y325532D01*
X166117Y325519D01*
X166107Y325512D01*
X166104Y325509D01*
X166101Y325505D01*
X166039D01*
Y326066D01*
X166062Y326080D01*
X166088Y326093D01*
X166140Y326116D01*
X166163Y326126D01*
X166180Y326132D01*
X166193Y326135D01*
X166196Y326139D01*
X166262Y326168D01*
X166291Y326178D01*
X166317Y326188D01*
X166340Y326194D01*
X166357Y326201D01*
X166367Y326204D01*
X166370D01*
X166449Y326224D01*
X166485Y326230D01*
X166517Y326237D01*
X166547Y326244D01*
X166570Y326247D01*
X166583Y326250D01*
X166590D01*
X166675Y326260D01*
X166718Y326263D01*
X166757D01*
X166793Y326267D01*
X166842D01*
X166941Y326263D01*
D02*
G37*
G36*
X165071Y326188D02*
X165078Y326158D01*
X165084Y326129D01*
X165091Y326106D01*
X165101Y326086D01*
X165107Y326073D01*
X165110Y326063D01*
X165114Y326060D01*
X165150Y326017D01*
X165189Y325984D01*
X165206Y325975D01*
X165219Y325965D01*
X165228Y325961D01*
X165232Y325958D01*
X165258Y325948D01*
X165287Y325939D01*
X165343Y325922D01*
X165366Y325919D01*
X165386Y325916D01*
X165402Y325912D01*
X165406D01*
X165484Y325906D01*
X165520Y325902D01*
X165553D01*
X165583Y325899D01*
X165622D01*
Y325512D01*
X165123D01*
Y324259D01*
X165622D01*
Y323846D01*
X164058D01*
Y324259D01*
X164546D01*
Y326224D01*
X165068D01*
X165071Y326188D01*
D02*
G37*
G36*
X199454Y302316D02*
X199500Y302313D01*
X199536Y302310D01*
X199565Y302307D01*
X199588Y302303D01*
X199601Y302300D01*
X199604D01*
X199680Y302287D01*
X199713Y302277D01*
X199746Y302270D01*
X199775Y302264D01*
X199795Y302257D01*
X199811Y302254D01*
X199814D01*
X199880Y302231D01*
X199910Y302221D01*
X199936Y302211D01*
X199955Y302202D01*
X199975Y302195D01*
X199985Y302188D01*
X199988D01*
X200051Y302159D01*
X200077Y302149D01*
X200100Y302136D01*
X200116Y302129D01*
X200129Y302123D01*
X200139Y302116D01*
X200143D01*
Y301559D01*
X200087D01*
X200051Y301591D01*
X200018Y301621D01*
X200001Y301634D01*
X199992Y301641D01*
X199985Y301647D01*
X199982Y301651D01*
X199936Y301687D01*
X199890Y301719D01*
X199870Y301729D01*
X199854Y301739D01*
X199844Y301746D01*
X199841Y301749D01*
X199811Y301765D01*
X199782Y301785D01*
X199752Y301798D01*
X199723Y301811D01*
X199700Y301821D01*
X199680Y301831D01*
X199664Y301834D01*
X199660Y301837D01*
X199621Y301851D01*
X199582Y301857D01*
X199542Y301864D01*
X199509Y301870D01*
X199480D01*
X199457Y301873D01*
X199437D01*
X199395Y301870D01*
X199355Y301867D01*
X199316Y301860D01*
X199283Y301854D01*
X199254Y301847D01*
X199231Y301841D01*
X199217Y301834D01*
X199211D01*
X199172Y301818D01*
X199132Y301798D01*
X199096Y301775D01*
X199067Y301755D01*
X199040Y301736D01*
X199021Y301719D01*
X199008Y301710D01*
X199004Y301706D01*
X198971Y301670D01*
X198939Y301631D01*
X198913Y301588D01*
X198893Y301549D01*
X198873Y301516D01*
X198860Y301490D01*
X198853Y301470D01*
X198850Y301464D01*
X198830Y301405D01*
X198817Y301342D01*
X198808Y301280D01*
X198801Y301221D01*
X198798Y301172D01*
Y301149D01*
X198794Y301129D01*
Y301113D01*
Y301103D01*
Y301096D01*
Y301093D01*
X198798Y301017D01*
X198804Y300949D01*
X198811Y300886D01*
X198824Y300831D01*
X198834Y300788D01*
X198840Y300755D01*
X198844Y300745D01*
X198847Y300735D01*
X198850Y300732D01*
Y300729D01*
X198873Y300673D01*
X198896Y300624D01*
X198919Y300581D01*
X198942Y300545D01*
X198965Y300519D01*
X198981Y300499D01*
X198991Y300486D01*
X198995Y300483D01*
X199030Y300447D01*
X199067Y300417D01*
X199103Y300394D01*
X199132Y300375D01*
X199159Y300358D01*
X199181Y300348D01*
X199195Y300345D01*
X199198Y300342D01*
X199241Y300329D01*
X199280Y300315D01*
X199319Y300309D01*
X199355Y300306D01*
X199388Y300302D01*
X199411Y300299D01*
X199473D01*
X199513Y300306D01*
X199546Y300309D01*
X199578Y300315D01*
X199604Y300322D01*
X199624Y300329D01*
X199637Y300332D01*
X199641Y300335D01*
X199677Y300348D01*
X199713Y300365D01*
X199742Y300378D01*
X199772Y300391D01*
X199792Y300404D01*
X199811Y300411D01*
X199821Y300417D01*
X199824Y300420D01*
X199883Y300460D01*
X199906Y300476D01*
X199929Y300493D01*
X199946Y300506D01*
X199962Y300516D01*
X199969Y300522D01*
X199972Y300525D01*
X200018Y300561D01*
X200051Y300588D01*
X200064Y300601D01*
X200074Y300607D01*
X200077Y300611D01*
X200080Y300614D01*
X200143D01*
Y300053D01*
X200119Y300040D01*
X200093Y300027D01*
X200041Y300004D01*
X200018Y299994D01*
X200001Y299988D01*
X199988Y299984D01*
X199985Y299981D01*
X199919Y299951D01*
X199890Y299942D01*
X199864Y299932D01*
X199841Y299925D01*
X199824Y299919D01*
X199814Y299915D01*
X199811D01*
X199732Y299896D01*
X199696Y299889D01*
X199664Y299883D01*
X199634Y299876D01*
X199611Y299873D01*
X199598Y299869D01*
X199591D01*
X199506Y299860D01*
X199463Y299856D01*
X199424D01*
X199388Y299853D01*
X199339D01*
X199241Y299856D01*
X199149Y299866D01*
X199063Y299883D01*
X198981Y299905D01*
X198906Y299932D01*
X198837Y299961D01*
X198775Y299991D01*
X198716Y300020D01*
X198667Y300053D01*
X198621Y300083D01*
X198581Y300112D01*
X198552Y300138D01*
X198525Y300158D01*
X198506Y300178D01*
X198496Y300188D01*
X198493Y300191D01*
X198437Y300256D01*
X198391Y300325D01*
X198348Y300397D01*
X198312Y300473D01*
X198283Y300548D01*
X198257Y300621D01*
X198237Y300696D01*
X198220Y300765D01*
X198207Y300831D01*
X198197Y300893D01*
X198191Y300949D01*
X198188Y300994D01*
X198184Y301034D01*
X198181Y301063D01*
Y301083D01*
Y301086D01*
Y301090D01*
X198184Y301198D01*
X198194Y301296D01*
X198211Y301391D01*
X198230Y301480D01*
X198253Y301562D01*
X198279Y301634D01*
X198309Y301703D01*
X198338Y301765D01*
X198365Y301818D01*
X198394Y301867D01*
X198421Y301906D01*
X198443Y301939D01*
X198463Y301965D01*
X198479Y301982D01*
X198489Y301995D01*
X198493Y301998D01*
X198555Y302054D01*
X198617Y302103D01*
X198686Y302146D01*
X198755Y302185D01*
X198827Y302215D01*
X198896Y302241D01*
X198965Y302264D01*
X199034Y302280D01*
X199096Y302293D01*
X199152Y302303D01*
X199204Y302310D01*
X199250Y302313D01*
X199286Y302316D01*
X199316Y302320D01*
X199398D01*
X199454Y302316D01*
D02*
G37*
G36*
X203373Y302320D02*
X203452Y302313D01*
X203521Y302307D01*
X203580Y302297D01*
X203629Y302287D01*
X203649Y302284D01*
X203665Y302277D01*
X203678Y302274D01*
X203688D01*
X203691Y302270D01*
X203695D01*
X203757Y302247D01*
X203813Y302224D01*
X203862Y302198D01*
X203908Y302172D01*
X203941Y302152D01*
X203967Y302133D01*
X203983Y302119D01*
X203990Y302116D01*
X204032Y302077D01*
X204072Y302038D01*
X204105Y301995D01*
X204131Y301959D01*
X204154Y301923D01*
X204167Y301897D01*
X204177Y301880D01*
X204180Y301873D01*
X204203Y301818D01*
X204220Y301762D01*
X204229Y301710D01*
X204239Y301660D01*
X204242Y301618D01*
X204246Y301585D01*
Y301572D01*
Y301562D01*
Y301559D01*
Y301555D01*
X204242Y301506D01*
X204239Y301464D01*
X204229Y301421D01*
X204223Y301388D01*
X204213Y301362D01*
X204203Y301339D01*
X204200Y301326D01*
X204197Y301323D01*
X204177Y301286D01*
X204160Y301257D01*
X204137Y301227D01*
X204121Y301204D01*
X204105Y301188D01*
X204092Y301172D01*
X204082Y301165D01*
X204079Y301162D01*
X204049Y301139D01*
X204023Y301116D01*
X203996Y301099D01*
X203970Y301086D01*
X203951Y301077D01*
X203934Y301070D01*
X203924Y301063D01*
X203921D01*
X203862Y301044D01*
X203836Y301037D01*
X203809Y301031D01*
X203790Y301027D01*
X203770Y301024D01*
X203760Y301021D01*
X203757D01*
Y300998D01*
X203826Y300975D01*
X203885Y300949D01*
X203937Y300916D01*
X203983Y300883D01*
X204019Y300850D01*
X204046Y300824D01*
X204059Y300807D01*
X204065Y300801D01*
X204105Y300742D01*
X204134Y300683D01*
X204154Y300624D01*
X204170Y300568D01*
X204177Y300519D01*
X204180Y300480D01*
X204183Y300466D01*
Y300457D01*
Y300450D01*
Y300447D01*
X204180Y300394D01*
X204174Y300345D01*
X204164Y300302D01*
X204154Y300263D01*
X204141Y300230D01*
X204131Y300207D01*
X204124Y300194D01*
X204121Y300188D01*
X204098Y300145D01*
X204069Y300109D01*
X204039Y300076D01*
X204010Y300050D01*
X203983Y300027D01*
X203960Y300010D01*
X203947Y300001D01*
X203941Y299997D01*
X203898Y299974D01*
X203852Y299951D01*
X203806Y299935D01*
X203767Y299919D01*
X203731Y299909D01*
X203701Y299899D01*
X203682Y299892D01*
X203675D01*
X203616Y299879D01*
X203554Y299869D01*
X203491Y299863D01*
X203432Y299856D01*
X203383D01*
X203363Y299853D01*
X203308D01*
X203229Y299856D01*
X203150Y299860D01*
X203078Y299869D01*
X203016Y299876D01*
X202960Y299886D01*
X202940Y299889D01*
X202921Y299896D01*
X202904Y299899D01*
X202894D01*
X202888Y299902D01*
X202885D01*
X202812Y299922D01*
X202747Y299938D01*
X202691Y299955D01*
X202642Y299971D01*
X202606Y299984D01*
X202579Y299994D01*
X202563Y300001D01*
X202556Y300004D01*
Y300509D01*
X202606D01*
X202619Y300499D01*
X202635Y300493D01*
X202671Y300473D01*
X202688Y300463D01*
X202698Y300457D01*
X202707Y300450D01*
X202711D01*
X202763Y300424D01*
X202789Y300411D01*
X202809Y300401D01*
X202825Y300394D01*
X202842Y300388D01*
X202849Y300384D01*
X202852D01*
X202914Y300361D01*
X202944Y300355D01*
X202970Y300345D01*
X202993Y300339D01*
X203009Y300335D01*
X203022Y300332D01*
X203026D01*
X203091Y300319D01*
X203124Y300315D01*
X203150Y300312D01*
X203173Y300309D01*
X203249D01*
X203291Y300312D01*
X203308Y300315D01*
X203321D01*
X203331Y300319D01*
X203334D01*
X203390Y300329D01*
X203413Y300335D01*
X203432Y300342D01*
X203445Y300348D01*
X203458Y300355D01*
X203465Y300358D01*
X203468D01*
X203501Y300381D01*
X203527Y300404D01*
X203544Y300424D01*
X203550Y300427D01*
Y300430D01*
X203563Y300447D01*
X203570Y300466D01*
X203583Y300506D01*
Y300522D01*
X203587Y300532D01*
Y300542D01*
Y300545D01*
Y300578D01*
X203580Y300607D01*
X203577Y300634D01*
X203570Y300657D01*
X203563Y300673D01*
X203557Y300686D01*
X203554Y300693D01*
X203550Y300696D01*
X203521Y300732D01*
X203485Y300755D01*
X203472Y300765D01*
X203458Y300771D01*
X203452Y300778D01*
X203449D01*
X203399Y300798D01*
X203347Y300807D01*
X203327Y300814D01*
X203311D01*
X203298Y300817D01*
X203295D01*
X203226Y300821D01*
X203193D01*
X203163Y300824D01*
X203006D01*
Y301237D01*
X203232D01*
X203255Y301240D01*
X203295D01*
X203334Y301244D01*
X203370Y301247D01*
X203399Y301254D01*
X203426Y301257D01*
X203449Y301263D01*
X203465Y301270D01*
X203475Y301273D01*
X203478D01*
X203531Y301296D01*
X203550Y301313D01*
X203567Y301326D01*
X203580Y301339D01*
X203590Y301349D01*
X203596Y301355D01*
X203600Y301359D01*
X203616Y301381D01*
X203629Y301408D01*
X203636Y301434D01*
X203642Y301460D01*
X203645Y301483D01*
X203649Y301503D01*
Y301516D01*
Y301519D01*
Y301559D01*
X203642Y301591D01*
X203639Y301621D01*
X203632Y301644D01*
X203626Y301664D01*
X203623Y301677D01*
X203616Y301683D01*
Y301687D01*
X203590Y301726D01*
X203560Y301759D01*
X203547Y301769D01*
X203537Y301778D01*
X203531Y301782D01*
X203527Y301785D01*
X203501Y301801D01*
X203472Y301818D01*
X203416Y301837D01*
X203393Y301847D01*
X203373Y301851D01*
X203360Y301854D01*
X203357D01*
X203285Y301860D01*
X203255Y301864D01*
X203226D01*
X203203Y301867D01*
X203170D01*
X203114Y301864D01*
X203058Y301857D01*
X203006Y301847D01*
X202957Y301837D01*
X202911Y301828D01*
X202878Y301818D01*
X202865Y301815D01*
X202855Y301811D01*
X202852Y301808D01*
X202849D01*
X202786Y301785D01*
X202727Y301759D01*
X202675Y301732D01*
X202632Y301710D01*
X202593Y301690D01*
X202566Y301673D01*
X202550Y301664D01*
X202543Y301660D01*
X202488D01*
Y302175D01*
X202537Y302195D01*
X202589Y302215D01*
X202642Y302231D01*
X202691Y302247D01*
X202737Y302261D01*
X202773Y302270D01*
X202786Y302274D01*
X202796D01*
X202802Y302277D01*
X202806D01*
X202885Y302293D01*
X202967Y302303D01*
X203045Y302313D01*
X203121Y302316D01*
X203153Y302320D01*
X203186D01*
X203213Y302323D01*
X203285D01*
X203373Y302320D01*
D02*
G37*
G36*
X202124Y301860D02*
X201635D01*
Y299896D01*
X201113D01*
X201110Y299932D01*
X201103Y299961D01*
X201097Y299991D01*
X201090Y300014D01*
X201080Y300033D01*
X201074Y300047D01*
X201071Y300056D01*
X201067Y300060D01*
X201031Y300102D01*
X200992Y300135D01*
X200976Y300145D01*
X200962Y300155D01*
X200953Y300158D01*
X200949Y300161D01*
X200923Y300171D01*
X200894Y300181D01*
X200838Y300197D01*
X200815Y300201D01*
X200795Y300204D01*
X200779Y300207D01*
X200776D01*
X200697Y300214D01*
X200661Y300217D01*
X200628D01*
X200598Y300220D01*
X200559D01*
Y300607D01*
X201058D01*
Y301860D01*
X200559D01*
Y302274D01*
X202124D01*
Y301860D01*
D02*
G37*
G36*
X282990Y247416D02*
X283035Y247413D01*
X283072Y247410D01*
X283101Y247407D01*
X283124Y247403D01*
X283137Y247400D01*
X283140D01*
X283216Y247387D01*
X283249Y247377D01*
X283281Y247371D01*
X283311Y247364D01*
X283331Y247357D01*
X283347Y247354D01*
X283350D01*
X283416Y247331D01*
X283446Y247321D01*
X283472Y247311D01*
X283491Y247302D01*
X283511Y247295D01*
X283521Y247288D01*
X283524D01*
X283587Y247259D01*
X283613Y247249D01*
X283636Y247236D01*
X283652Y247230D01*
X283665Y247223D01*
X283675Y247216D01*
X283678D01*
Y246659D01*
X283623D01*
X283587Y246692D01*
X283554Y246721D01*
X283537Y246734D01*
X283527Y246741D01*
X283521Y246747D01*
X283518Y246751D01*
X283472Y246787D01*
X283426Y246819D01*
X283406Y246829D01*
X283390Y246839D01*
X283380Y246846D01*
X283377Y246849D01*
X283347Y246865D01*
X283318Y246885D01*
X283288Y246898D01*
X283259Y246911D01*
X283236Y246921D01*
X283216Y246931D01*
X283200Y246934D01*
X283196Y246938D01*
X283157Y246951D01*
X283118Y246957D01*
X283078Y246964D01*
X283045Y246970D01*
X283016D01*
X282993Y246974D01*
X282973D01*
X282930Y246970D01*
X282891Y246967D01*
X282852Y246961D01*
X282819Y246954D01*
X282789Y246947D01*
X282767Y246941D01*
X282753Y246934D01*
X282747D01*
X282708Y246918D01*
X282668Y246898D01*
X282632Y246875D01*
X282603Y246856D01*
X282576Y246836D01*
X282557Y246819D01*
X282543Y246810D01*
X282540Y246806D01*
X282507Y246770D01*
X282475Y246731D01*
X282448Y246688D01*
X282429Y246649D01*
X282409Y246616D01*
X282396Y246590D01*
X282389Y246570D01*
X282386Y246564D01*
X282366Y246505D01*
X282353Y246442D01*
X282343Y246380D01*
X282337Y246321D01*
X282334Y246272D01*
Y246249D01*
X282330Y246229D01*
Y246213D01*
Y246203D01*
Y246196D01*
Y246193D01*
X282334Y246118D01*
X282340Y246049D01*
X282347Y245986D01*
X282360Y245931D01*
X282370Y245888D01*
X282376Y245855D01*
X282380Y245845D01*
X282383Y245835D01*
X282386Y245832D01*
Y245829D01*
X282409Y245773D01*
X282432Y245724D01*
X282455Y245681D01*
X282478Y245645D01*
X282501Y245619D01*
X282517Y245599D01*
X282527Y245586D01*
X282530Y245583D01*
X282566Y245547D01*
X282603Y245517D01*
X282639Y245494D01*
X282668Y245475D01*
X282694Y245458D01*
X282717Y245448D01*
X282731Y245445D01*
X282734Y245442D01*
X282776Y245429D01*
X282816Y245416D01*
X282855Y245409D01*
X282891Y245406D01*
X282924Y245403D01*
X282947Y245399D01*
X283009D01*
X283049Y245406D01*
X283081Y245409D01*
X283114Y245416D01*
X283140Y245422D01*
X283160Y245429D01*
X283173Y245432D01*
X283176Y245435D01*
X283213Y245448D01*
X283249Y245465D01*
X283278Y245478D01*
X283308Y245491D01*
X283327Y245504D01*
X283347Y245511D01*
X283357Y245517D01*
X283360Y245521D01*
X283419Y245560D01*
X283442Y245576D01*
X283465Y245593D01*
X283482Y245606D01*
X283498Y245616D01*
X283505Y245622D01*
X283508Y245626D01*
X283554Y245662D01*
X283587Y245688D01*
X283600Y245701D01*
X283610Y245708D01*
X283613Y245711D01*
X283616Y245714D01*
X283678D01*
Y245153D01*
X283655Y245140D01*
X283629Y245127D01*
X283577Y245104D01*
X283554Y245094D01*
X283537Y245088D01*
X283524Y245084D01*
X283521Y245081D01*
X283455Y245052D01*
X283426Y245042D01*
X283400Y245032D01*
X283377Y245025D01*
X283360Y245019D01*
X283350Y245016D01*
X283347D01*
X283268Y244996D01*
X283232Y244989D01*
X283200Y244983D01*
X283170Y244976D01*
X283147Y244973D01*
X283134Y244970D01*
X283127D01*
X283042Y244960D01*
X282999Y244956D01*
X282960D01*
X282924Y244953D01*
X282875D01*
X282776Y244956D01*
X282684Y244966D01*
X282599Y244983D01*
X282517Y245006D01*
X282442Y245032D01*
X282373Y245061D01*
X282311Y245091D01*
X282252Y245121D01*
X282202Y245153D01*
X282156Y245183D01*
X282117Y245212D01*
X282088Y245238D01*
X282061Y245258D01*
X282042Y245278D01*
X282032Y245288D01*
X282029Y245291D01*
X281973Y245357D01*
X281927Y245426D01*
X281884Y245498D01*
X281848Y245573D01*
X281819Y245649D01*
X281792Y245721D01*
X281773Y245796D01*
X281756Y245865D01*
X281743Y245931D01*
X281733Y245993D01*
X281727Y246049D01*
X281723Y246095D01*
X281720Y246134D01*
X281717Y246164D01*
Y246183D01*
Y246186D01*
Y246190D01*
X281720Y246298D01*
X281730Y246396D01*
X281747Y246492D01*
X281766Y246580D01*
X281789Y246662D01*
X281815Y246734D01*
X281845Y246803D01*
X281874Y246865D01*
X281901Y246918D01*
X281930Y246967D01*
X281956Y247007D01*
X281979Y247039D01*
X281999Y247065D01*
X282015Y247082D01*
X282025Y247095D01*
X282029Y247098D01*
X282091Y247154D01*
X282153Y247203D01*
X282222Y247246D01*
X282291Y247285D01*
X282363Y247315D01*
X282432Y247341D01*
X282501Y247364D01*
X282570Y247380D01*
X282632Y247393D01*
X282688Y247403D01*
X282740Y247410D01*
X282786Y247413D01*
X282822Y247416D01*
X282852Y247420D01*
X282934D01*
X282990Y247416D01*
D02*
G37*
G36*
X284594D02*
X284702Y247403D01*
X284751Y247397D01*
X284797Y247390D01*
X284840Y247380D01*
X284879Y247371D01*
X284915Y247364D01*
X284945Y247354D01*
X284971Y247348D01*
X284994Y247338D01*
X285010Y247335D01*
X285023Y247328D01*
X285030Y247325D01*
X285033D01*
X285115Y247285D01*
X285187Y247239D01*
X285253Y247193D01*
X285309Y247147D01*
X285354Y247105D01*
X285387Y247072D01*
X285397Y247059D01*
X285407Y247049D01*
X285410Y247046D01*
X285414Y247042D01*
X285466Y246974D01*
X285509Y246898D01*
X285548Y246826D01*
X285578Y246757D01*
X285600Y246698D01*
X285610Y246675D01*
X285617Y246652D01*
X285623Y246633D01*
X285627Y246619D01*
X285630Y246613D01*
Y246610D01*
X285653Y246515D01*
X285673Y246416D01*
X285686Y246324D01*
X285692Y246239D01*
X285696Y246200D01*
X285699Y246164D01*
Y246134D01*
X285702Y246108D01*
Y246085D01*
Y246068D01*
Y246059D01*
Y246055D01*
X285699Y245947D01*
X285692Y245849D01*
X285679Y245760D01*
X285673Y245721D01*
X285666Y245685D01*
X285660Y245652D01*
X285653Y245622D01*
X285646Y245599D01*
X285640Y245580D01*
X285636Y245563D01*
X285633Y245550D01*
X285630Y245544D01*
Y245540D01*
X285600Y245465D01*
X285571Y245396D01*
X285538Y245337D01*
X285505Y245285D01*
X285476Y245245D01*
X285453Y245216D01*
X285437Y245196D01*
X285430Y245189D01*
X285384Y245147D01*
X285338Y245111D01*
X285292Y245081D01*
X285249Y245055D01*
X285210Y245039D01*
X285181Y245022D01*
X285161Y245016D01*
X285158Y245012D01*
X285154D01*
X285092Y244992D01*
X285030Y244979D01*
X284967Y244966D01*
X284912Y244960D01*
X284862Y244956D01*
X284840D01*
X284823Y244953D01*
X284787D01*
X284712Y244956D01*
X284643Y244963D01*
X284577Y244973D01*
X284521Y244986D01*
X284475Y244999D01*
X284443Y245009D01*
X284430Y245012D01*
X284420Y245016D01*
X284416Y245019D01*
X284413D01*
X284354Y245045D01*
X284298Y245075D01*
X284249Y245104D01*
X284210Y245134D01*
X284177Y245160D01*
X284151Y245180D01*
X284138Y245193D01*
X284131Y245199D01*
X284092Y245245D01*
X284056Y245291D01*
X284026Y245337D01*
X284000Y245380D01*
X283980Y245419D01*
X283967Y245448D01*
X283957Y245468D01*
X283954Y245471D01*
Y245475D01*
X283934Y245534D01*
X283918Y245593D01*
X283908Y245652D01*
X283898Y245704D01*
X283895Y245747D01*
X283892Y245783D01*
Y245796D01*
Y245806D01*
Y245813D01*
Y245816D01*
X283895Y245901D01*
X283901Y245976D01*
X283914Y246045D01*
X283928Y246101D01*
X283938Y246147D01*
X283951Y246180D01*
X283954Y246190D01*
X283957Y246200D01*
X283960Y246203D01*
Y246206D01*
X283990Y246259D01*
X284023Y246308D01*
X284052Y246351D01*
X284085Y246387D01*
X284111Y246413D01*
X284134Y246436D01*
X284147Y246449D01*
X284154Y246452D01*
X284190Y246475D01*
X284226Y246498D01*
X284259Y246515D01*
X284292Y246528D01*
X284318Y246541D01*
X284338Y246547D01*
X284354Y246551D01*
X284357Y246554D01*
X284443Y246570D01*
X284482Y246577D01*
X284518Y246580D01*
X284548D01*
X284574Y246583D01*
X284594D01*
X284652Y246580D01*
X284705Y246577D01*
X284751Y246570D01*
X284787Y246564D01*
X284820Y246557D01*
X284843Y246551D01*
X284859Y246544D01*
X284862D01*
X284905Y246528D01*
X284948Y246508D01*
X284987Y246485D01*
X285023Y246465D01*
X285056Y246449D01*
X285079Y246432D01*
X285095Y246423D01*
X285102Y246419D01*
X285092Y246478D01*
X285082Y246528D01*
X285069Y246573D01*
X285056Y246613D01*
X285046Y246642D01*
X285036Y246665D01*
X285030Y246678D01*
X285027Y246685D01*
X285007Y246721D01*
X284984Y246757D01*
X284961Y246787D01*
X284941Y246810D01*
X284922Y246833D01*
X284905Y246846D01*
X284895Y246856D01*
X284892Y246859D01*
X284862Y246882D01*
X284830Y246905D01*
X284797Y246921D01*
X284771Y246934D01*
X284744Y246944D01*
X284725Y246951D01*
X284708Y246957D01*
X284705D01*
X284623Y246974D01*
X284587Y246980D01*
X284554Y246984D01*
X284525D01*
X284502Y246987D01*
X284430D01*
X284387Y246984D01*
X284348Y246980D01*
X284315Y246974D01*
X284289Y246970D01*
X284272Y246967D01*
X284259Y246964D01*
X284256D01*
X284226Y246954D01*
X284203Y246944D01*
X284180Y246938D01*
X284164Y246928D01*
X284147Y246924D01*
X284138Y246918D01*
X284134Y246915D01*
X284085D01*
Y247377D01*
X284105Y247380D01*
X284128Y247387D01*
X284180Y247393D01*
X284203Y247397D01*
X284223Y247400D01*
X284236Y247403D01*
X284243D01*
X284289Y247410D01*
X284331Y247413D01*
X284370Y247416D01*
X284403D01*
X284433Y247420D01*
X284475D01*
X284594Y247416D01*
D02*
G37*
G36*
X280648Y259090D02*
X280763Y259074D01*
X280868Y259048D01*
X280913Y259034D01*
X280959Y259021D01*
X280999Y259005D01*
X281035Y258992D01*
X281064Y258979D01*
X281091Y258965D01*
X281110Y258956D01*
X281127Y258949D01*
X281136Y258946D01*
X281140Y258943D01*
X281189Y258913D01*
X281238Y258880D01*
X281324Y258808D01*
X281399Y258736D01*
X281458Y258664D01*
X281484Y258628D01*
X281507Y258598D01*
X281527Y258569D01*
X281540Y258546D01*
X281553Y258526D01*
X281563Y258510D01*
X281566Y258500D01*
X281570Y258496D01*
X281596Y258441D01*
X281619Y258382D01*
X281655Y258267D01*
X281681Y258152D01*
X281691Y258096D01*
X281697Y258044D01*
X281704Y257995D01*
X281711Y257952D01*
X281714Y257913D01*
Y257877D01*
X281717Y257850D01*
Y257827D01*
Y257814D01*
Y257811D01*
X281711Y257680D01*
X281697Y257552D01*
X281687Y257496D01*
X281674Y257440D01*
X281665Y257388D01*
X281651Y257339D01*
X281638Y257293D01*
X281628Y257253D01*
X281615Y257221D01*
X281606Y257191D01*
X281599Y257168D01*
X281592Y257148D01*
X281586Y257139D01*
Y257135D01*
X281560Y257080D01*
X281530Y257024D01*
X281501Y256975D01*
X281468Y256929D01*
X281435Y256883D01*
X281402Y256843D01*
X281373Y256807D01*
X281340Y256778D01*
X281310Y256748D01*
X281284Y256722D01*
X281258Y256702D01*
X281238Y256686D01*
X281219Y256669D01*
X281205Y256660D01*
X281199Y256656D01*
X281195Y256653D01*
X281146Y256624D01*
X281094Y256601D01*
X281038Y256578D01*
X280982Y256558D01*
X280871Y256528D01*
X280766Y256509D01*
X280717Y256502D01*
X280674Y256499D01*
X280631Y256496D01*
X280599Y256492D01*
X280569Y256489D01*
X280530D01*
X280457Y256492D01*
X280389Y256499D01*
X280323Y256509D01*
X280261Y256522D01*
X280202Y256538D01*
X280146Y256558D01*
X280097Y256574D01*
X280047Y256597D01*
X280008Y256617D01*
X279972Y256633D01*
X279939Y256653D01*
X279913Y256669D01*
X279890Y256683D01*
X279877Y256693D01*
X279867Y256699D01*
X279864Y256702D01*
X279815Y256745D01*
X279769Y256791D01*
X279726Y256840D01*
X279690Y256893D01*
X279654Y256945D01*
X279624Y256994D01*
X279595Y257047D01*
X279572Y257096D01*
X279549Y257145D01*
X279533Y257188D01*
X279516Y257227D01*
X279503Y257260D01*
X279497Y257290D01*
X279490Y257312D01*
X279483Y257326D01*
Y257329D01*
X279818Y257414D01*
X279834Y257355D01*
X279851Y257303D01*
X279870Y257253D01*
X279890Y257204D01*
X279913Y257161D01*
X279933Y257122D01*
X279956Y257086D01*
X279979Y257057D01*
X279998Y257027D01*
X280018Y257004D01*
X280038Y256981D01*
X280051Y256965D01*
X280064Y256952D01*
X280074Y256942D01*
X280080Y256939D01*
X280084Y256935D01*
X280120Y256906D01*
X280159Y256883D01*
X280198Y256860D01*
X280241Y256843D01*
X280320Y256814D01*
X280395Y256794D01*
X280428Y256788D01*
X280461Y256784D01*
X280487Y256781D01*
X280513Y256778D01*
X280533Y256774D01*
X280559D01*
X280644Y256781D01*
X280723Y256794D01*
X280795Y256811D01*
X280861Y256834D01*
X280913Y256856D01*
X280936Y256866D01*
X280953Y256873D01*
X280969Y256883D01*
X280979Y256886D01*
X280986Y256893D01*
X280989D01*
X281058Y256942D01*
X281117Y256998D01*
X281166Y257057D01*
X281209Y257116D01*
X281241Y257168D01*
X281251Y257191D01*
X281261Y257211D01*
X281271Y257227D01*
X281277Y257240D01*
X281281Y257247D01*
Y257250D01*
X281310Y257342D01*
X281333Y257440D01*
X281350Y257532D01*
X281360Y257621D01*
X281366Y257660D01*
Y257696D01*
X281369Y257729D01*
X281373Y257758D01*
Y257782D01*
Y257798D01*
Y257808D01*
Y257811D01*
X281369Y257903D01*
X281360Y257991D01*
X281346Y258073D01*
X281333Y258149D01*
X281327Y258178D01*
X281320Y258208D01*
X281314Y258234D01*
X281307Y258257D01*
X281300Y258274D01*
X281297Y258287D01*
X281294Y258293D01*
Y258296D01*
X281261Y258382D01*
X281219Y258454D01*
X281173Y258520D01*
X281127Y258572D01*
X281087Y258615D01*
X281054Y258644D01*
X281041Y258657D01*
X281031Y258664D01*
X281025Y258670D01*
X281022D01*
X280982Y258697D01*
X280943Y258716D01*
X280861Y258752D01*
X280779Y258779D01*
X280703Y258795D01*
X280667Y258798D01*
X280635Y258805D01*
X280605Y258808D01*
X280582D01*
X280562Y258811D01*
X280533D01*
X280441Y258805D01*
X280359Y258792D01*
X280287Y258772D01*
X280225Y258749D01*
X280175Y258723D01*
X280156Y258713D01*
X280139Y258703D01*
X280126Y258697D01*
X280116Y258690D01*
X280113Y258683D01*
X280110D01*
X280080Y258657D01*
X280051Y258631D01*
X279998Y258569D01*
X279956Y258503D01*
X279920Y258437D01*
X279890Y258378D01*
X279880Y258352D01*
X279870Y258329D01*
X279864Y258310D01*
X279857Y258296D01*
X279854Y258287D01*
Y258283D01*
X279526Y258362D01*
X279546Y258424D01*
X279572Y258487D01*
X279598Y258542D01*
X279628Y258595D01*
X279657Y258641D01*
X279687Y258687D01*
X279716Y258726D01*
X279746Y258762D01*
X279775Y258795D01*
X279802Y258824D01*
X279828Y258847D01*
X279847Y258867D01*
X279864Y258884D01*
X279880Y258893D01*
X279887Y258900D01*
X279890Y258903D01*
X279939Y258936D01*
X279992Y258969D01*
X280044Y258992D01*
X280097Y259015D01*
X280153Y259034D01*
X280205Y259051D01*
X280303Y259074D01*
X280349Y259080D01*
X280392Y259087D01*
X280431Y259090D01*
X280464Y259093D01*
X280490Y259097D01*
X280589D01*
X280648Y259090D01*
D02*
G37*
G36*
X278437Y259061D02*
X278496Y259057D01*
X278549Y259048D01*
X278598Y259034D01*
X278644Y259021D01*
X278690Y259005D01*
X278729Y258985D01*
X278762Y258969D01*
X278795Y258952D01*
X278824Y258933D01*
X278847Y258916D01*
X278867Y258903D01*
X278883Y258890D01*
X278893Y258884D01*
X278900Y258877D01*
X278903Y258874D01*
X278939Y258838D01*
X278968Y258802D01*
X278995Y258762D01*
X279018Y258723D01*
X279034Y258683D01*
X279050Y258644D01*
X279073Y258572D01*
X279090Y258510D01*
X279093Y258480D01*
X279096Y258457D01*
X279100Y258437D01*
Y258424D01*
Y258415D01*
Y258411D01*
X279096Y258346D01*
X279086Y258287D01*
X279070Y258234D01*
X279054Y258188D01*
X279037Y258152D01*
X279021Y258123D01*
X279011Y258106D01*
X279008Y258100D01*
X278968Y258054D01*
X278926Y258011D01*
X278877Y257978D01*
X278831Y257949D01*
X278788Y257926D01*
X278755Y257909D01*
X278742Y257903D01*
X278732Y257899D01*
X278726Y257896D01*
X278722D01*
X278804Y257870D01*
X278873Y257837D01*
X278936Y257798D01*
X278985Y257762D01*
X279024Y257726D01*
X279054Y257696D01*
X279070Y257677D01*
X279077Y257673D01*
Y257670D01*
X279119Y257604D01*
X279149Y257536D01*
X279172Y257470D01*
X279185Y257404D01*
X279195Y257345D01*
X279198Y257322D01*
Y257303D01*
X279201Y257283D01*
Y257270D01*
Y257263D01*
Y257260D01*
X279198Y257201D01*
X279191Y257142D01*
X279182Y257086D01*
X279165Y257034D01*
X279149Y256984D01*
X279129Y256939D01*
X279110Y256899D01*
X279086Y256860D01*
X279067Y256827D01*
X279047Y256798D01*
X279027Y256771D01*
X279011Y256748D01*
X278995Y256732D01*
X278985Y256719D01*
X278978Y256712D01*
X278975Y256709D01*
X278929Y256669D01*
X278883Y256637D01*
X278834Y256607D01*
X278785Y256581D01*
X278732Y256561D01*
X278683Y256542D01*
X278588Y256515D01*
X278542Y256509D01*
X278503Y256502D01*
X278467Y256496D01*
X278434Y256492D01*
X278408Y256489D01*
X278372D01*
X278303Y256492D01*
X278240Y256499D01*
X278178Y256509D01*
X278122Y256525D01*
X278066Y256542D01*
X278017Y256558D01*
X277975Y256578D01*
X277932Y256601D01*
X277896Y256620D01*
X277863Y256640D01*
X277837Y256656D01*
X277814Y256676D01*
X277794Y256689D01*
X277781Y256699D01*
X277775Y256706D01*
X277771Y256709D01*
X277732Y256751D01*
X277696Y256794D01*
X277666Y256840D01*
X277637Y256886D01*
X277617Y256932D01*
X277597Y256978D01*
X277581Y257020D01*
X277571Y257063D01*
X277561Y257102D01*
X277555Y257135D01*
X277548Y257168D01*
X277545Y257198D01*
X277542Y257221D01*
Y257237D01*
Y257247D01*
Y257250D01*
X277548Y257335D01*
X277561Y257414D01*
X277581Y257483D01*
X277601Y257542D01*
X277624Y257588D01*
X277633Y257608D01*
X277643Y257624D01*
X277653Y257637D01*
X277656Y257647D01*
X277663Y257650D01*
Y257653D01*
X277712Y257713D01*
X277768Y257762D01*
X277827Y257804D01*
X277886Y257837D01*
X277939Y257863D01*
X277958Y257873D01*
X277978Y257883D01*
X277994Y257890D01*
X278007Y257893D01*
X278014Y257896D01*
X278017D01*
X277952Y257926D01*
X277896Y257959D01*
X277847Y257991D01*
X277807Y258024D01*
X277778Y258054D01*
X277755Y258077D01*
X277742Y258090D01*
X277738Y258096D01*
X277706Y258149D01*
X277683Y258201D01*
X277666Y258250D01*
X277656Y258300D01*
X277647Y258342D01*
X277643Y258375D01*
Y258388D01*
Y258398D01*
Y258401D01*
Y258405D01*
X277647Y258454D01*
X277653Y258503D01*
X277663Y258549D01*
X277676Y258595D01*
X277709Y258674D01*
X277745Y258742D01*
X277765Y258769D01*
X277781Y258795D01*
X277801Y258818D01*
X277814Y258838D01*
X277827Y258851D01*
X277837Y258861D01*
X277843Y258867D01*
X277847Y258870D01*
X277886Y258903D01*
X277925Y258936D01*
X277971Y258959D01*
X278014Y258982D01*
X278060Y259002D01*
X278102Y259018D01*
X278188Y259041D01*
X278227Y259048D01*
X278263Y259054D01*
X278296Y259057D01*
X278322Y259061D01*
X278345Y259064D01*
X278378D01*
X278437Y259061D01*
D02*
G37*
G36*
X193148Y235666D02*
X193217Y235659D01*
X193282Y235649D01*
X193338Y235636D01*
X193384Y235623D01*
X193417Y235613D01*
X193430Y235610D01*
X193440Y235607D01*
X193443Y235603D01*
X193446D01*
X193505Y235577D01*
X193561Y235547D01*
X193610Y235518D01*
X193650Y235489D01*
X193683Y235462D01*
X193709Y235443D01*
X193722Y235429D01*
X193728Y235423D01*
X193768Y235377D01*
X193804Y235331D01*
X193833Y235285D01*
X193860Y235243D01*
X193879Y235203D01*
X193892Y235174D01*
X193902Y235154D01*
X193905Y235151D01*
Y235147D01*
X193925Y235088D01*
X193942Y235029D01*
X193951Y234970D01*
X193961Y234918D01*
X193965Y234875D01*
X193968Y234839D01*
Y234826D01*
Y234816D01*
Y234809D01*
Y234806D01*
X193965Y234721D01*
X193958Y234646D01*
X193945Y234577D01*
X193932Y234521D01*
X193922Y234475D01*
X193909Y234442D01*
X193905Y234432D01*
X193902Y234422D01*
X193899Y234419D01*
Y234416D01*
X193869Y234363D01*
X193837Y234314D01*
X193807Y234272D01*
X193774Y234236D01*
X193748Y234209D01*
X193725Y234186D01*
X193712Y234173D01*
X193705Y234170D01*
X193669Y234147D01*
X193633Y234124D01*
X193600Y234108D01*
X193568Y234095D01*
X193541Y234081D01*
X193522Y234075D01*
X193505Y234071D01*
X193502Y234068D01*
X193417Y234052D01*
X193377Y234045D01*
X193341Y234042D01*
X193312D01*
X193286Y234039D01*
X193266D01*
X193207Y234042D01*
X193154Y234045D01*
X193108Y234052D01*
X193072Y234058D01*
X193040Y234065D01*
X193017Y234071D01*
X193000Y234078D01*
X192997D01*
X192954Y234095D01*
X192912Y234114D01*
X192872Y234137D01*
X192836Y234157D01*
X192803Y234173D01*
X192780Y234190D01*
X192764Y234199D01*
X192757Y234203D01*
X192767Y234144D01*
X192777Y234095D01*
X192790Y234049D01*
X192803Y234009D01*
X192813Y233980D01*
X192823Y233957D01*
X192830Y233944D01*
X192833Y233937D01*
X192853Y233901D01*
X192876Y233865D01*
X192898Y233835D01*
X192918Y233812D01*
X192938Y233789D01*
X192954Y233776D01*
X192964Y233767D01*
X192967Y233763D01*
X192997Y233740D01*
X193030Y233717D01*
X193062Y233701D01*
X193089Y233688D01*
X193115Y233678D01*
X193135Y233671D01*
X193151Y233665D01*
X193154D01*
X193236Y233648D01*
X193272Y233642D01*
X193305Y233639D01*
X193335D01*
X193358Y233635D01*
X193430D01*
X193473Y233639D01*
X193512Y233642D01*
X193545Y233648D01*
X193571Y233652D01*
X193587Y233655D01*
X193600Y233658D01*
X193604D01*
X193633Y233668D01*
X193656Y233678D01*
X193679Y233684D01*
X193696Y233694D01*
X193712Y233698D01*
X193722Y233704D01*
X193725Y233707D01*
X193774D01*
Y233245D01*
X193755Y233242D01*
X193732Y233235D01*
X193679Y233229D01*
X193656Y233225D01*
X193637Y233222D01*
X193623Y233219D01*
X193617D01*
X193571Y233212D01*
X193528Y233209D01*
X193489Y233206D01*
X193456D01*
X193427Y233202D01*
X193384D01*
X193266Y233206D01*
X193158Y233219D01*
X193108Y233225D01*
X193062Y233232D01*
X193020Y233242D01*
X192981Y233252D01*
X192945Y233258D01*
X192915Y233268D01*
X192889Y233275D01*
X192866Y233284D01*
X192849Y233288D01*
X192836Y233294D01*
X192830Y233297D01*
X192826D01*
X192744Y233337D01*
X192672Y233383D01*
X192607Y233429D01*
X192551Y233475D01*
X192505Y233517D01*
X192472Y233550D01*
X192462Y233563D01*
X192453Y233573D01*
X192449Y233576D01*
X192446Y233579D01*
X192393Y233648D01*
X192351Y233724D01*
X192311Y233796D01*
X192282Y233865D01*
X192259Y233924D01*
X192249Y233947D01*
X192243Y233970D01*
X192236Y233990D01*
X192233Y234003D01*
X192229Y234009D01*
Y234013D01*
X192207Y234108D01*
X192187Y234206D01*
X192174Y234298D01*
X192167Y234383D01*
X192164Y234422D01*
X192160Y234459D01*
Y234488D01*
X192157Y234514D01*
Y234537D01*
Y234554D01*
Y234563D01*
Y234567D01*
X192160Y234675D01*
X192167Y234773D01*
X192180Y234862D01*
X192187Y234901D01*
X192193Y234937D01*
X192200Y234970D01*
X192207Y235000D01*
X192213Y235023D01*
X192220Y235042D01*
X192223Y235059D01*
X192226Y235072D01*
X192229Y235079D01*
Y235082D01*
X192259Y235157D01*
X192288Y235226D01*
X192321Y235285D01*
X192354Y235338D01*
X192384Y235377D01*
X192406Y235406D01*
X192423Y235426D01*
X192429Y235433D01*
X192475Y235475D01*
X192521Y235511D01*
X192567Y235541D01*
X192610Y235567D01*
X192649Y235584D01*
X192679Y235600D01*
X192699Y235607D01*
X192702Y235610D01*
X192705D01*
X192767Y235630D01*
X192830Y235643D01*
X192892Y235656D01*
X192948Y235662D01*
X192997Y235666D01*
X193020D01*
X193036Y235669D01*
X193072D01*
X193148Y235666D01*
D02*
G37*
G36*
X197159D02*
X197251Y235656D01*
X197336Y235639D01*
X197418Y235616D01*
X197494Y235590D01*
X197563Y235561D01*
X197625Y235531D01*
X197684Y235502D01*
X197733Y235469D01*
X197779Y235439D01*
X197819Y235410D01*
X197848Y235384D01*
X197874Y235364D01*
X197894Y235344D01*
X197904Y235334D01*
X197907Y235331D01*
X197963Y235265D01*
X198009Y235197D01*
X198051Y235124D01*
X198088Y235049D01*
X198117Y234974D01*
X198143Y234901D01*
X198163Y234826D01*
X198179Y234757D01*
X198193Y234691D01*
X198202Y234629D01*
X198209Y234573D01*
X198212Y234527D01*
X198215Y234488D01*
X198219Y234459D01*
Y234439D01*
Y234436D01*
Y234432D01*
X198215Y234324D01*
X198206Y234226D01*
X198189Y234131D01*
X198170Y234042D01*
X198146Y233960D01*
X198120Y233888D01*
X198091Y233819D01*
X198061Y233757D01*
X198035Y233704D01*
X198005Y233655D01*
X197979Y233616D01*
X197956Y233583D01*
X197937Y233557D01*
X197920Y233540D01*
X197910Y233527D01*
X197907Y233524D01*
X197845Y233468D01*
X197783Y233419D01*
X197714Y233376D01*
X197645Y233337D01*
X197573Y233307D01*
X197504Y233281D01*
X197435Y233258D01*
X197366Y233242D01*
X197304Y233229D01*
X197248Y233219D01*
X197195Y233212D01*
X197149Y233209D01*
X197113Y233206D01*
X197084Y233202D01*
X197002D01*
X196946Y233206D01*
X196900Y233209D01*
X196864Y233212D01*
X196835Y233215D01*
X196812Y233219D01*
X196799Y233222D01*
X196795D01*
X196720Y233235D01*
X196687Y233245D01*
X196654Y233252D01*
X196625Y233258D01*
X196605Y233265D01*
X196589Y233268D01*
X196585D01*
X196520Y233291D01*
X196490Y233301D01*
X196464Y233311D01*
X196444Y233320D01*
X196424Y233327D01*
X196415Y233333D01*
X196411D01*
X196349Y233363D01*
X196323Y233373D01*
X196300Y233386D01*
X196283Y233393D01*
X196270Y233399D01*
X196260Y233406D01*
X196257D01*
Y233963D01*
X196313D01*
X196349Y233930D01*
X196382Y233901D01*
X196398Y233888D01*
X196408Y233881D01*
X196415Y233875D01*
X196418Y233871D01*
X196464Y233835D01*
X196510Y233803D01*
X196529Y233793D01*
X196546Y233783D01*
X196556Y233776D01*
X196559Y233773D01*
X196589Y233757D01*
X196618Y233737D01*
X196648Y233724D01*
X196677Y233711D01*
X196700Y233701D01*
X196720Y233691D01*
X196736Y233688D01*
X196739Y233684D01*
X196779Y233671D01*
X196818Y233665D01*
X196858Y233658D01*
X196890Y233652D01*
X196920D01*
X196943Y233648D01*
X196962D01*
X197005Y233652D01*
X197045Y233655D01*
X197084Y233662D01*
X197117Y233668D01*
X197146Y233675D01*
X197169Y233681D01*
X197182Y233688D01*
X197189D01*
X197228Y233704D01*
X197267Y233724D01*
X197304Y233747D01*
X197333Y233767D01*
X197359Y233786D01*
X197379Y233803D01*
X197392Y233812D01*
X197395Y233816D01*
X197428Y233852D01*
X197461Y233891D01*
X197487Y233934D01*
X197507Y233973D01*
X197527Y234006D01*
X197540Y234032D01*
X197546Y234052D01*
X197550Y234058D01*
X197569Y234117D01*
X197582Y234180D01*
X197592Y234242D01*
X197599Y234301D01*
X197602Y234350D01*
Y234373D01*
X197605Y234393D01*
Y234409D01*
Y234419D01*
Y234426D01*
Y234429D01*
X197602Y234505D01*
X197596Y234573D01*
X197589Y234636D01*
X197576Y234691D01*
X197566Y234734D01*
X197559Y234767D01*
X197556Y234777D01*
X197553Y234787D01*
X197550Y234790D01*
Y234793D01*
X197527Y234849D01*
X197504Y234898D01*
X197481Y234941D01*
X197458Y234977D01*
X197435Y235003D01*
X197418Y235023D01*
X197408Y235036D01*
X197405Y235039D01*
X197369Y235075D01*
X197333Y235105D01*
X197297Y235128D01*
X197267Y235147D01*
X197241Y235164D01*
X197218Y235174D01*
X197205Y235177D01*
X197202Y235180D01*
X197159Y235193D01*
X197120Y235206D01*
X197081Y235213D01*
X197045Y235216D01*
X197012Y235220D01*
X196989Y235223D01*
X196926D01*
X196887Y235216D01*
X196854Y235213D01*
X196821Y235206D01*
X196795Y235200D01*
X196775Y235193D01*
X196762Y235190D01*
X196759Y235187D01*
X196723Y235174D01*
X196687Y235157D01*
X196657Y235144D01*
X196628Y235131D01*
X196608Y235118D01*
X196589Y235111D01*
X196579Y235105D01*
X196575Y235101D01*
X196516Y235062D01*
X196493Y235046D01*
X196470Y235029D01*
X196454Y235016D01*
X196438Y235006D01*
X196431Y235000D01*
X196428Y234997D01*
X196382Y234960D01*
X196349Y234934D01*
X196336Y234921D01*
X196326Y234914D01*
X196323Y234911D01*
X196320Y234908D01*
X196257D01*
Y235469D01*
X196280Y235482D01*
X196307Y235495D01*
X196359Y235518D01*
X196382Y235528D01*
X196398Y235534D01*
X196411Y235538D01*
X196415Y235541D01*
X196480Y235571D01*
X196510Y235580D01*
X196536Y235590D01*
X196559Y235597D01*
X196575Y235603D01*
X196585Y235607D01*
X196589D01*
X196667Y235626D01*
X196703Y235633D01*
X196736Y235639D01*
X196766Y235646D01*
X196789Y235649D01*
X196802Y235652D01*
X196808D01*
X196894Y235662D01*
X196936Y235666D01*
X196976D01*
X197012Y235669D01*
X197061D01*
X197159Y235666D01*
D02*
G37*
G36*
X195290Y235590D02*
X195296Y235561D01*
X195303Y235531D01*
X195309Y235508D01*
X195319Y235489D01*
X195326Y235475D01*
X195329Y235466D01*
X195332Y235462D01*
X195368Y235420D01*
X195408Y235387D01*
X195424Y235377D01*
X195437Y235367D01*
X195447Y235364D01*
X195450Y235361D01*
X195477Y235351D01*
X195506Y235341D01*
X195562Y235325D01*
X195585Y235321D01*
X195605Y235318D01*
X195621Y235315D01*
X195624D01*
X195703Y235308D01*
X195739Y235305D01*
X195772D01*
X195801Y235301D01*
X195841D01*
Y234914D01*
X195342D01*
Y233662D01*
X195841D01*
Y233248D01*
X194276D01*
Y233662D01*
X194765D01*
Y235626D01*
X195286D01*
X195290Y235590D01*
D02*
G37*
G36*
X197159Y247271D02*
X197251Y247261D01*
X197336Y247245D01*
X197418Y247221D01*
X197494Y247195D01*
X197563Y247166D01*
X197625Y247136D01*
X197684Y247107D01*
X197733Y247074D01*
X197779Y247044D01*
X197819Y247015D01*
X197848Y246989D01*
X197874Y246969D01*
X197894Y246949D01*
X197904Y246939D01*
X197907Y246936D01*
X197963Y246871D01*
X198009Y246802D01*
X198051Y246729D01*
X198088Y246654D01*
X198117Y246579D01*
X198143Y246507D01*
X198163Y246431D01*
X198179Y246362D01*
X198193Y246297D01*
X198202Y246234D01*
X198209Y246179D01*
X198212Y246132D01*
X198215Y246093D01*
X198219Y246064D01*
Y246044D01*
Y246041D01*
Y246037D01*
X198215Y245929D01*
X198206Y245831D01*
X198189Y245736D01*
X198170Y245647D01*
X198146Y245565D01*
X198120Y245493D01*
X198091Y245424D01*
X198061Y245362D01*
X198035Y245309D01*
X198005Y245260D01*
X197979Y245221D01*
X197956Y245188D01*
X197937Y245162D01*
X197920Y245145D01*
X197910Y245132D01*
X197907Y245129D01*
X197845Y245073D01*
X197783Y245024D01*
X197714Y244981D01*
X197645Y244942D01*
X197573Y244912D01*
X197504Y244886D01*
X197435Y244863D01*
X197366Y244847D01*
X197304Y244834D01*
X197248Y244824D01*
X197195Y244817D01*
X197149Y244814D01*
X197113Y244811D01*
X197084Y244807D01*
X197002D01*
X196946Y244811D01*
X196900Y244814D01*
X196864Y244817D01*
X196835Y244821D01*
X196812Y244824D01*
X196799Y244827D01*
X196795D01*
X196720Y244840D01*
X196687Y244850D01*
X196654Y244857D01*
X196625Y244863D01*
X196605Y244870D01*
X196589Y244873D01*
X196585D01*
X196520Y244896D01*
X196490Y244906D01*
X196464Y244916D01*
X196444Y244925D01*
X196424Y244932D01*
X196415Y244939D01*
X196411D01*
X196349Y244968D01*
X196323Y244978D01*
X196300Y244991D01*
X196283Y244998D01*
X196270Y245004D01*
X196260Y245011D01*
X196257D01*
Y245568D01*
X196313D01*
X196349Y245536D01*
X196382Y245506D01*
X196398Y245493D01*
X196408Y245486D01*
X196415Y245480D01*
X196418Y245477D01*
X196464Y245441D01*
X196510Y245408D01*
X196529Y245398D01*
X196546Y245388D01*
X196556Y245381D01*
X196559Y245378D01*
X196589Y245362D01*
X196618Y245342D01*
X196648Y245329D01*
X196677Y245316D01*
X196700Y245306D01*
X196720Y245296D01*
X196736Y245293D01*
X196739Y245290D01*
X196779Y245276D01*
X196818Y245270D01*
X196858Y245263D01*
X196890Y245257D01*
X196920D01*
X196943Y245253D01*
X196962D01*
X197005Y245257D01*
X197045Y245260D01*
X197084Y245267D01*
X197117Y245273D01*
X197146Y245280D01*
X197169Y245286D01*
X197182Y245293D01*
X197189D01*
X197228Y245309D01*
X197267Y245329D01*
X197304Y245352D01*
X197333Y245372D01*
X197359Y245391D01*
X197379Y245408D01*
X197392Y245417D01*
X197395Y245421D01*
X197428Y245457D01*
X197461Y245496D01*
X197487Y245539D01*
X197507Y245578D01*
X197527Y245611D01*
X197540Y245637D01*
X197546Y245657D01*
X197550Y245663D01*
X197569Y245723D01*
X197582Y245785D01*
X197592Y245847D01*
X197599Y245906D01*
X197602Y245955D01*
Y245978D01*
X197605Y245998D01*
Y246014D01*
Y246024D01*
Y246031D01*
Y246034D01*
X197602Y246110D01*
X197596Y246179D01*
X197589Y246241D01*
X197576Y246297D01*
X197566Y246339D01*
X197559Y246372D01*
X197556Y246382D01*
X197553Y246392D01*
X197550Y246395D01*
Y246398D01*
X197527Y246454D01*
X197504Y246503D01*
X197481Y246546D01*
X197458Y246582D01*
X197435Y246608D01*
X197418Y246628D01*
X197408Y246641D01*
X197405Y246644D01*
X197369Y246680D01*
X197333Y246710D01*
X197297Y246733D01*
X197267Y246753D01*
X197241Y246769D01*
X197218Y246779D01*
X197205Y246782D01*
X197202Y246785D01*
X197159Y246798D01*
X197120Y246812D01*
X197081Y246818D01*
X197045Y246821D01*
X197012Y246825D01*
X196989Y246828D01*
X196926D01*
X196887Y246821D01*
X196854Y246818D01*
X196821Y246812D01*
X196795Y246805D01*
X196775Y246798D01*
X196762Y246795D01*
X196759Y246792D01*
X196723Y246779D01*
X196687Y246762D01*
X196657Y246749D01*
X196628Y246736D01*
X196608Y246723D01*
X196589Y246716D01*
X196579Y246710D01*
X196575Y246707D01*
X196516Y246667D01*
X196493Y246651D01*
X196470Y246634D01*
X196454Y246621D01*
X196438Y246611D01*
X196431Y246605D01*
X196428Y246602D01*
X196382Y246566D01*
X196349Y246539D01*
X196336Y246526D01*
X196326Y246520D01*
X196323Y246516D01*
X196320Y246513D01*
X196257D01*
Y247074D01*
X196280Y247087D01*
X196307Y247100D01*
X196359Y247123D01*
X196382Y247133D01*
X196398Y247140D01*
X196411Y247143D01*
X196415Y247146D01*
X196480Y247176D01*
X196510Y247185D01*
X196536Y247195D01*
X196559Y247202D01*
X196575Y247208D01*
X196585Y247212D01*
X196589D01*
X196667Y247231D01*
X196703Y247238D01*
X196736Y247245D01*
X196766Y247251D01*
X196789Y247254D01*
X196802Y247258D01*
X196808D01*
X196894Y247267D01*
X196936Y247271D01*
X196976D01*
X197012Y247274D01*
X197061D01*
X197159Y247271D01*
D02*
G37*
G36*
X195290Y247195D02*
X195296Y247166D01*
X195303Y247136D01*
X195309Y247113D01*
X195319Y247094D01*
X195326Y247080D01*
X195329Y247071D01*
X195332Y247067D01*
X195368Y247025D01*
X195408Y246992D01*
X195424Y246982D01*
X195437Y246972D01*
X195447Y246969D01*
X195450Y246966D01*
X195477Y246956D01*
X195506Y246946D01*
X195562Y246930D01*
X195585Y246926D01*
X195605Y246923D01*
X195621Y246920D01*
X195624D01*
X195703Y246913D01*
X195739Y246910D01*
X195772D01*
X195801Y246907D01*
X195841D01*
Y246520D01*
X195342D01*
Y245267D01*
X195841D01*
Y244853D01*
X194276D01*
Y245267D01*
X194765D01*
Y247231D01*
X195286D01*
X195290Y247195D01*
D02*
G37*
G36*
X193112Y247271D02*
X193181Y247267D01*
X193246Y247258D01*
X193302Y247248D01*
X193348Y247238D01*
X193381Y247231D01*
X193394Y247228D01*
X193404Y247225D01*
X193407Y247221D01*
X193410D01*
X193469Y247202D01*
X193525Y247179D01*
X193571Y247156D01*
X193610Y247133D01*
X193643Y247113D01*
X193666Y247097D01*
X193679Y247087D01*
X193686Y247084D01*
X193725Y247048D01*
X193761Y247012D01*
X193791Y246979D01*
X193814Y246946D01*
X193833Y246920D01*
X193846Y246897D01*
X193853Y246884D01*
X193856Y246877D01*
X193876Y246834D01*
X193889Y246792D01*
X193899Y246749D01*
X193905Y246713D01*
X193909Y246680D01*
X193912Y246657D01*
Y246641D01*
Y246634D01*
X193909Y246569D01*
X193899Y246507D01*
X193886Y246454D01*
X193869Y246405D01*
X193856Y246365D01*
X193843Y246336D01*
X193833Y246316D01*
X193830Y246313D01*
Y246310D01*
X193794Y246257D01*
X193751Y246211D01*
X193702Y246169D01*
X193653Y246132D01*
X193610Y246103D01*
X193571Y246083D01*
X193558Y246074D01*
X193548Y246067D01*
X193541Y246064D01*
X193538D01*
Y246054D01*
X193614Y246018D01*
X193679Y245978D01*
X193735Y245942D01*
X193781Y245906D01*
X193817Y245873D01*
X193843Y245850D01*
X193856Y245834D01*
X193863Y245828D01*
X193899Y245775D01*
X193929Y245719D01*
X193948Y245660D01*
X193961Y245608D01*
X193968Y245562D01*
X193971Y245522D01*
X193974Y245509D01*
Y245499D01*
Y245493D01*
Y245490D01*
X193971Y245437D01*
X193965Y245388D01*
X193958Y245342D01*
X193948Y245303D01*
X193938Y245270D01*
X193929Y245244D01*
X193925Y245227D01*
X193922Y245221D01*
X193899Y245175D01*
X193873Y245132D01*
X193846Y245096D01*
X193817Y245063D01*
X193794Y245037D01*
X193774Y245017D01*
X193761Y245004D01*
X193755Y245001D01*
X193709Y244968D01*
X193659Y244939D01*
X193610Y244912D01*
X193564Y244893D01*
X193525Y244876D01*
X193492Y244863D01*
X193479Y244860D01*
X193469Y244857D01*
X193466Y244853D01*
X193463D01*
X193394Y244834D01*
X193322Y244821D01*
X193249Y244811D01*
X193184Y244804D01*
X193128Y244801D01*
X193105D01*
X193082Y244798D01*
X193043D01*
X192961Y244801D01*
X192885Y244807D01*
X192820Y244814D01*
X192761Y244824D01*
X192712Y244834D01*
X192692Y244837D01*
X192675Y244844D01*
X192662Y244847D01*
X192652D01*
X192649Y244850D01*
X192646D01*
X192584Y244873D01*
X192525Y244896D01*
X192475Y244922D01*
X192433Y244945D01*
X192397Y244968D01*
X192370Y244985D01*
X192357Y244998D01*
X192351Y245001D01*
X192308Y245037D01*
X192272Y245076D01*
X192239Y245116D01*
X192213Y245148D01*
X192193Y245181D01*
X192180Y245204D01*
X192170Y245221D01*
X192167Y245227D01*
X192144Y245276D01*
X192128Y245326D01*
X192118Y245375D01*
X192108Y245417D01*
X192105Y245454D01*
X192102Y245483D01*
Y245503D01*
Y245509D01*
X192105Y245588D01*
X192118Y245660D01*
X192138Y245723D01*
X192157Y245775D01*
X192177Y245821D01*
X192197Y245854D01*
X192203Y245864D01*
X192210Y245873D01*
X192213Y245877D01*
Y245880D01*
X192259Y245936D01*
X192315Y245985D01*
X192370Y246028D01*
X192429Y246067D01*
X192479Y246093D01*
X192502Y246106D01*
X192521Y246116D01*
X192538Y246123D01*
X192551Y246129D01*
X192557Y246132D01*
X192561D01*
Y246142D01*
X192489Y246179D01*
X192426Y246218D01*
X192377Y246254D01*
X192334Y246290D01*
X192302Y246323D01*
X192279Y246346D01*
X192262Y246362D01*
X192259Y246369D01*
X192226Y246421D01*
X192203Y246474D01*
X192183Y246526D01*
X192174Y246572D01*
X192167Y246615D01*
X192160Y246644D01*
Y246657D01*
Y246667D01*
Y246671D01*
Y246674D01*
X192164Y246720D01*
X192170Y246766D01*
X192180Y246805D01*
X192190Y246841D01*
X192200Y246871D01*
X192210Y246894D01*
X192216Y246907D01*
X192220Y246913D01*
X192243Y246953D01*
X192269Y246989D01*
X192295Y247021D01*
X192321Y247051D01*
X192348Y247074D01*
X192367Y247090D01*
X192380Y247100D01*
X192384Y247103D01*
X192426Y247130D01*
X192469Y247156D01*
X192515Y247176D01*
X192557Y247192D01*
X192594Y247205D01*
X192626Y247215D01*
X192646Y247221D01*
X192649Y247225D01*
X192652D01*
X192715Y247241D01*
X192780Y247254D01*
X192846Y247261D01*
X192905Y247267D01*
X192958Y247271D01*
X192981Y247274D01*
X193036D01*
X193112Y247271D01*
D02*
G37*
G36*
X197122Y320140D02*
X197214Y320130D01*
X197299Y320114D01*
X197381Y320091D01*
X197456Y320065D01*
X197525Y320035D01*
X197588Y320006D01*
X197646Y319976D01*
X197696Y319944D01*
X197742Y319914D01*
X197781Y319884D01*
X197810Y319858D01*
X197837Y319839D01*
X197856Y319819D01*
X197866Y319809D01*
X197870Y319806D01*
X197925Y319740D01*
X197971Y319671D01*
X198014Y319599D01*
X198050Y319524D01*
X198080Y319448D01*
X198106Y319376D01*
X198125Y319301D01*
X198142Y319232D01*
X198155Y319166D01*
X198165Y319104D01*
X198171Y319048D01*
X198175Y319002D01*
X198178Y318963D01*
X198181Y318933D01*
Y318914D01*
Y318910D01*
Y318907D01*
X198178Y318799D01*
X198168Y318701D01*
X198152Y318605D01*
X198132Y318517D01*
X198109Y318435D01*
X198083Y318363D01*
X198053Y318294D01*
X198024Y318231D01*
X197997Y318179D01*
X197968Y318130D01*
X197942Y318090D01*
X197919Y318058D01*
X197899Y318031D01*
X197883Y318015D01*
X197873Y318002D01*
X197870Y317999D01*
X197807Y317943D01*
X197745Y317894D01*
X197676Y317851D01*
X197607Y317812D01*
X197535Y317782D01*
X197466Y317756D01*
X197397Y317733D01*
X197328Y317717D01*
X197266Y317703D01*
X197210Y317693D01*
X197158Y317687D01*
X197112Y317684D01*
X197076Y317680D01*
X197046Y317677D01*
X196964D01*
X196908Y317680D01*
X196863Y317684D01*
X196827Y317687D01*
X196797Y317690D01*
X196774Y317693D01*
X196761Y317697D01*
X196758D01*
X196682Y317710D01*
X196649Y317720D01*
X196617Y317726D01*
X196587Y317733D01*
X196567Y317739D01*
X196551Y317743D01*
X196548D01*
X196482Y317766D01*
X196453Y317776D01*
X196426Y317785D01*
X196407Y317795D01*
X196387Y317802D01*
X196377Y317808D01*
X196374D01*
X196312Y317838D01*
X196285Y317848D01*
X196262Y317861D01*
X196246Y317867D01*
X196233Y317874D01*
X196223Y317881D01*
X196220D01*
Y318438D01*
X196275D01*
X196312Y318405D01*
X196344Y318376D01*
X196361Y318363D01*
X196371Y318356D01*
X196377Y318350D01*
X196380Y318346D01*
X196426Y318310D01*
X196472Y318277D01*
X196492Y318267D01*
X196508Y318258D01*
X196518Y318251D01*
X196521Y318248D01*
X196551Y318231D01*
X196581Y318212D01*
X196610Y318199D01*
X196640Y318185D01*
X196662Y318176D01*
X196682Y318166D01*
X196699Y318163D01*
X196702Y318159D01*
X196741Y318146D01*
X196781Y318140D01*
X196820Y318133D01*
X196853Y318127D01*
X196882D01*
X196905Y318123D01*
X196925D01*
X196968Y318127D01*
X197007Y318130D01*
X197046Y318136D01*
X197079Y318143D01*
X197109Y318149D01*
X197132Y318156D01*
X197145Y318163D01*
X197151D01*
X197191Y318179D01*
X197230Y318199D01*
X197266Y318222D01*
X197296Y318241D01*
X197322Y318261D01*
X197342Y318277D01*
X197355Y318287D01*
X197358Y318290D01*
X197391Y318326D01*
X197424Y318366D01*
X197450Y318409D01*
X197469Y318448D01*
X197489Y318481D01*
X197502Y318507D01*
X197509Y318527D01*
X197512Y318533D01*
X197532Y318592D01*
X197545Y318655D01*
X197555Y318717D01*
X197561Y318776D01*
X197564Y318825D01*
Y318848D01*
X197568Y318868D01*
Y318884D01*
Y318894D01*
Y318901D01*
Y318904D01*
X197564Y318979D01*
X197558Y319048D01*
X197551Y319110D01*
X197538Y319166D01*
X197528Y319209D01*
X197522Y319242D01*
X197519Y319251D01*
X197515Y319261D01*
X197512Y319265D01*
Y319268D01*
X197489Y319324D01*
X197466Y319373D01*
X197443Y319415D01*
X197420Y319452D01*
X197397Y319478D01*
X197381Y319497D01*
X197371Y319511D01*
X197368Y319514D01*
X197332Y319550D01*
X197296Y319580D01*
X197259Y319602D01*
X197230Y319622D01*
X197204Y319638D01*
X197181Y319648D01*
X197168Y319652D01*
X197164Y319655D01*
X197122Y319668D01*
X197082Y319681D01*
X197043Y319688D01*
X197007Y319691D01*
X196974Y319694D01*
X196951Y319698D01*
X196889D01*
X196850Y319691D01*
X196817Y319688D01*
X196784Y319681D01*
X196758Y319675D01*
X196738Y319668D01*
X196725Y319665D01*
X196722Y319661D01*
X196686Y319648D01*
X196649Y319632D01*
X196620Y319619D01*
X196590Y319606D01*
X196571Y319593D01*
X196551Y319586D01*
X196541Y319580D01*
X196538Y319576D01*
X196479Y319537D01*
X196456Y319520D01*
X196433Y319504D01*
X196416Y319491D01*
X196400Y319481D01*
X196394Y319475D01*
X196390Y319471D01*
X196344Y319435D01*
X196312Y319409D01*
X196298Y319396D01*
X196289Y319389D01*
X196285Y319386D01*
X196282Y319383D01*
X196220D01*
Y319944D01*
X196243Y319957D01*
X196269Y319970D01*
X196321Y319993D01*
X196344Y320003D01*
X196361Y320009D01*
X196374Y320012D01*
X196377Y320016D01*
X196443Y320045D01*
X196472Y320055D01*
X196499Y320065D01*
X196521Y320072D01*
X196538Y320078D01*
X196548Y320081D01*
X196551D01*
X196630Y320101D01*
X196666Y320108D01*
X196699Y320114D01*
X196728Y320121D01*
X196751Y320124D01*
X196764Y320127D01*
X196771D01*
X196856Y320137D01*
X196899Y320140D01*
X196938D01*
X196974Y320144D01*
X197023D01*
X197122Y320140D01*
D02*
G37*
G36*
X195252Y320065D02*
X195259Y320035D01*
X195265Y320006D01*
X195272Y319983D01*
X195282Y319963D01*
X195288Y319950D01*
X195291Y319940D01*
X195295Y319937D01*
X195331Y319894D01*
X195370Y319862D01*
X195387Y319852D01*
X195400Y319842D01*
X195410Y319839D01*
X195413Y319835D01*
X195439Y319826D01*
X195469Y319816D01*
X195524Y319799D01*
X195547Y319796D01*
X195567Y319793D01*
X195583Y319789D01*
X195587D01*
X195665Y319783D01*
X195702Y319780D01*
X195734D01*
X195764Y319776D01*
X195803D01*
Y319389D01*
X195305D01*
Y318136D01*
X195803D01*
Y317723D01*
X194239D01*
Y318136D01*
X194727D01*
Y320101D01*
X195249D01*
X195252Y320065D01*
D02*
G37*
G36*
X193966Y318714D02*
Y318274D01*
X192927D01*
Y317717D01*
X192349D01*
Y318274D01*
X192028D01*
Y318701D01*
X192349D01*
Y320094D01*
X192946D01*
X193966Y318714D01*
D02*
G37*
G36*
X192648Y298098D02*
X192720Y298095D01*
X192789Y298085D01*
X192851Y298075D01*
X192903Y298065D01*
X192926Y298062D01*
X192946Y298059D01*
X192963Y298055D01*
X192972Y298052D01*
X192979Y298049D01*
X192982D01*
X193058Y298029D01*
X193120Y298013D01*
X193176Y297996D01*
X193218Y297980D01*
X193251Y297970D01*
X193274Y297960D01*
X193290Y297954D01*
X193294Y297950D01*
Y297435D01*
X193248D01*
X193225Y297452D01*
X193195Y297468D01*
X193176Y297481D01*
X193169Y297488D01*
X193166D01*
X193120Y297517D01*
X193074Y297540D01*
X193054Y297550D01*
X193038Y297557D01*
X193028Y297563D01*
X193025D01*
X192966Y297586D01*
X192936Y297599D01*
X192913Y297606D01*
X192890Y297613D01*
X192874Y297619D01*
X192864Y297622D01*
X192861D01*
X192798Y297635D01*
X192772Y297639D01*
X192746Y297642D01*
X192723Y297645D01*
X192690D01*
X192628Y297642D01*
X192572Y297632D01*
X192526Y297616D01*
X192487Y297603D01*
X192454Y297586D01*
X192431Y297570D01*
X192418Y297560D01*
X192415Y297557D01*
X192382Y297521D01*
X192356Y297478D01*
X192339Y297435D01*
X192326Y297396D01*
X192320Y297360D01*
X192313Y297327D01*
Y297307D01*
Y297304D01*
Y297301D01*
X192316Y297245D01*
X192326Y297193D01*
X192339Y297147D01*
X192352Y297104D01*
X192366Y297068D01*
X192379Y297039D01*
X192388Y297022D01*
X192392Y297016D01*
X192425Y296963D01*
X192464Y296907D01*
X192507Y296855D01*
X192546Y296802D01*
X192585Y296760D01*
X192615Y296724D01*
X192628Y296710D01*
X192638Y296704D01*
X192641Y296697D01*
X192644Y296694D01*
X192697Y296642D01*
X192749Y296589D01*
X192802Y296537D01*
X192851Y296491D01*
X192894Y296451D01*
X192926Y296422D01*
X192940Y296412D01*
X192949Y296402D01*
X192953Y296399D01*
X192956Y296396D01*
X193025Y296337D01*
X193094Y296277D01*
X193159Y296222D01*
X193222Y296173D01*
X193274Y296130D01*
X193297Y296110D01*
X193317Y296094D01*
X193330Y296081D01*
X193343Y296071D01*
X193350Y296068D01*
X193353Y296064D01*
Y295680D01*
X191608D01*
Y296127D01*
X192618D01*
X192592Y296146D01*
X192562Y296169D01*
X192497Y296222D01*
X192467Y296245D01*
X192444Y296264D01*
X192428Y296277D01*
X192421Y296281D01*
X192320Y296369D01*
X192274Y296412D01*
X192231Y296451D01*
X192195Y296484D01*
X192166Y296514D01*
X192149Y296530D01*
X192142Y296537D01*
X192064Y296622D01*
X191995Y296701D01*
X191939Y296773D01*
X191893Y296838D01*
X191857Y296891D01*
X191844Y296914D01*
X191834Y296930D01*
X191824Y296947D01*
X191818Y296956D01*
X191814Y296963D01*
Y296966D01*
X191782Y297042D01*
X191755Y297117D01*
X191739Y297186D01*
X191726Y297252D01*
X191719Y297304D01*
X191716Y297327D01*
X191713Y297347D01*
Y297363D01*
Y297373D01*
Y297380D01*
Y297383D01*
X191716Y297445D01*
X191723Y297504D01*
X191733Y297560D01*
X191746Y297609D01*
X191765Y297655D01*
X191782Y297701D01*
X191801Y297740D01*
X191821Y297777D01*
X191844Y297806D01*
X191864Y297835D01*
X191880Y297859D01*
X191896Y297878D01*
X191913Y297891D01*
X191923Y297901D01*
X191929Y297908D01*
X191933Y297911D01*
X191975Y297944D01*
X192021Y297973D01*
X192070Y298000D01*
X192123Y298023D01*
X192175Y298039D01*
X192231Y298055D01*
X192333Y298078D01*
X192382Y298085D01*
X192428Y298091D01*
X192467Y298095D01*
X192503Y298098D01*
X192533Y298101D01*
X192572D01*
X192648Y298098D01*
D02*
G37*
G36*
X196676D02*
X196767Y298088D01*
X196853Y298072D01*
X196935Y298049D01*
X197010Y298023D01*
X197079Y297993D01*
X197141Y297963D01*
X197200Y297934D01*
X197249Y297901D01*
X197295Y297872D01*
X197335Y297842D01*
X197364Y297816D01*
X197390Y297796D01*
X197410Y297777D01*
X197420Y297767D01*
X197423Y297763D01*
X197479Y297698D01*
X197525Y297629D01*
X197568Y297557D01*
X197604Y297481D01*
X197633Y297406D01*
X197660Y297334D01*
X197679Y297258D01*
X197696Y297189D01*
X197709Y297124D01*
X197719Y297061D01*
X197725Y297006D01*
X197728Y296960D01*
X197732Y296920D01*
X197735Y296891D01*
Y296871D01*
Y296868D01*
Y296865D01*
X197732Y296756D01*
X197722Y296658D01*
X197705Y296563D01*
X197686Y296474D01*
X197663Y296392D01*
X197636Y296320D01*
X197607Y296251D01*
X197578Y296189D01*
X197551Y296136D01*
X197522Y296087D01*
X197495Y296048D01*
X197473Y296015D01*
X197453Y295989D01*
X197436Y295972D01*
X197427Y295959D01*
X197423Y295956D01*
X197361Y295900D01*
X197299Y295851D01*
X197230Y295809D01*
X197161Y295769D01*
X197089Y295740D01*
X197020Y295713D01*
X196951Y295690D01*
X196882Y295674D01*
X196820Y295661D01*
X196764Y295651D01*
X196712Y295644D01*
X196666Y295641D01*
X196630Y295638D01*
X196600Y295635D01*
X196518D01*
X196462Y295638D01*
X196416Y295641D01*
X196380Y295644D01*
X196351Y295648D01*
X196328Y295651D01*
X196315Y295654D01*
X196311D01*
X196236Y295667D01*
X196203Y295677D01*
X196170Y295684D01*
X196141Y295690D01*
X196121Y295697D01*
X196105Y295700D01*
X196101D01*
X196036Y295723D01*
X196006Y295733D01*
X195980Y295743D01*
X195960Y295753D01*
X195941Y295759D01*
X195931Y295766D01*
X195928D01*
X195865Y295795D01*
X195839Y295805D01*
X195816Y295818D01*
X195800Y295825D01*
X195787Y295831D01*
X195777Y295838D01*
X195773D01*
Y296396D01*
X195829D01*
X195865Y296363D01*
X195898Y296333D01*
X195914Y296320D01*
X195924Y296314D01*
X195931Y296307D01*
X195934Y296304D01*
X195980Y296268D01*
X196026Y296235D01*
X196046Y296225D01*
X196062Y296215D01*
X196072Y296209D01*
X196075Y296205D01*
X196105Y296189D01*
X196134Y296169D01*
X196164Y296156D01*
X196193Y296143D01*
X196216Y296133D01*
X196236Y296123D01*
X196252Y296120D01*
X196256Y296117D01*
X196295Y296104D01*
X196334Y296097D01*
X196374Y296091D01*
X196406Y296084D01*
X196436D01*
X196459Y296081D01*
X196479D01*
X196521Y296084D01*
X196561Y296087D01*
X196600Y296094D01*
X196633Y296100D01*
X196662Y296107D01*
X196685Y296113D01*
X196698Y296120D01*
X196705D01*
X196744Y296136D01*
X196784Y296156D01*
X196820Y296179D01*
X196849Y296199D01*
X196876Y296218D01*
X196895Y296235D01*
X196908Y296245D01*
X196912Y296248D01*
X196944Y296284D01*
X196977Y296323D01*
X197003Y296366D01*
X197023Y296405D01*
X197043Y296438D01*
X197056Y296464D01*
X197063Y296484D01*
X197066Y296491D01*
X197085Y296550D01*
X197099Y296612D01*
X197108Y296674D01*
X197115Y296733D01*
X197118Y296783D01*
Y296806D01*
X197122Y296825D01*
Y296842D01*
Y296851D01*
Y296858D01*
Y296861D01*
X197118Y296937D01*
X197112Y297006D01*
X197105Y297068D01*
X197092Y297124D01*
X197082Y297166D01*
X197076Y297199D01*
X197072Y297209D01*
X197069Y297219D01*
X197066Y297222D01*
Y297225D01*
X197043Y297281D01*
X197020Y297330D01*
X196997Y297373D01*
X196974Y297409D01*
X196951Y297435D01*
X196935Y297455D01*
X196925Y297468D01*
X196922Y297471D01*
X196885Y297508D01*
X196849Y297537D01*
X196813Y297560D01*
X196784Y297580D01*
X196757Y297596D01*
X196734Y297606D01*
X196721Y297609D01*
X196718Y297613D01*
X196676Y297626D01*
X196636Y297639D01*
X196597Y297645D01*
X196561Y297649D01*
X196528Y297652D01*
X196505Y297655D01*
X196443D01*
X196403Y297649D01*
X196370Y297645D01*
X196338Y297639D01*
X196311Y297632D01*
X196292Y297626D01*
X196279Y297622D01*
X196275Y297619D01*
X196239Y297606D01*
X196203Y297589D01*
X196174Y297576D01*
X196144Y297563D01*
X196124Y297550D01*
X196105Y297544D01*
X196095Y297537D01*
X196092Y297534D01*
X196033Y297494D01*
X196010Y297478D01*
X195987Y297462D01*
X195970Y297448D01*
X195954Y297439D01*
X195947Y297432D01*
X195944Y297429D01*
X195898Y297393D01*
X195865Y297366D01*
X195852Y297353D01*
X195842Y297347D01*
X195839Y297343D01*
X195836Y297340D01*
X195773D01*
Y297901D01*
X195796Y297914D01*
X195823Y297927D01*
X195875Y297950D01*
X195898Y297960D01*
X195914Y297967D01*
X195928Y297970D01*
X195931Y297973D01*
X195996Y298003D01*
X196026Y298013D01*
X196052Y298023D01*
X196075Y298029D01*
X196092Y298036D01*
X196101Y298039D01*
X196105D01*
X196184Y298059D01*
X196220Y298065D01*
X196252Y298072D01*
X196282Y298078D01*
X196305Y298081D01*
X196318Y298085D01*
X196325D01*
X196410Y298095D01*
X196452Y298098D01*
X196492D01*
X196528Y298101D01*
X196577D01*
X196676Y298098D01*
D02*
G37*
G36*
X194806Y298023D02*
X194812Y297993D01*
X194819Y297963D01*
X194825Y297940D01*
X194835Y297921D01*
X194842Y297908D01*
X194845Y297898D01*
X194849Y297895D01*
X194885Y297852D01*
X194924Y297819D01*
X194940Y297809D01*
X194954Y297799D01*
X194963Y297796D01*
X194967Y297793D01*
X194993Y297783D01*
X195022Y297773D01*
X195078Y297757D01*
X195101Y297754D01*
X195121Y297750D01*
X195137Y297747D01*
X195140D01*
X195219Y297740D01*
X195255Y297737D01*
X195288D01*
X195318Y297734D01*
X195357D01*
Y297347D01*
X194858D01*
Y296094D01*
X195357D01*
Y295680D01*
X193792D01*
Y296094D01*
X194281D01*
Y298059D01*
X194803D01*
X194806Y298023D01*
D02*
G37*
G36*
X220159Y232408D02*
X220251Y232398D01*
X220336Y232382D01*
X220418Y232359D01*
X220494Y232333D01*
X220563Y232303D01*
X220625Y232274D01*
X220684Y232244D01*
X220733Y232211D01*
X220779Y232182D01*
X220818Y232152D01*
X220848Y232126D01*
X220874Y232106D01*
X220894Y232087D01*
X220904Y232077D01*
X220907Y232074D01*
X220963Y232008D01*
X221009Y231939D01*
X221051Y231867D01*
X221088Y231791D01*
X221117Y231716D01*
X221143Y231644D01*
X221163Y231568D01*
X221179Y231500D01*
X221193Y231434D01*
X221202Y231372D01*
X221209Y231316D01*
X221212Y231270D01*
X221215Y231231D01*
X221219Y231201D01*
Y231181D01*
Y231178D01*
Y231175D01*
X221215Y231067D01*
X221206Y230968D01*
X221189Y230873D01*
X221169Y230785D01*
X221146Y230702D01*
X221120Y230630D01*
X221091Y230561D01*
X221061Y230499D01*
X221035Y230447D01*
X221006Y230398D01*
X220979Y230358D01*
X220956Y230325D01*
X220937Y230299D01*
X220920Y230283D01*
X220910Y230270D01*
X220907Y230266D01*
X220845Y230210D01*
X220782Y230161D01*
X220714Y230119D01*
X220645Y230079D01*
X220572Y230050D01*
X220504Y230024D01*
X220435Y230001D01*
X220366Y229984D01*
X220304Y229971D01*
X220248Y229961D01*
X220195Y229955D01*
X220149Y229951D01*
X220113Y229948D01*
X220084Y229945D01*
X220002D01*
X219946Y229948D01*
X219900Y229951D01*
X219864Y229955D01*
X219834Y229958D01*
X219812Y229961D01*
X219798Y229964D01*
X219795D01*
X219720Y229978D01*
X219687Y229988D01*
X219654Y229994D01*
X219625Y230001D01*
X219605Y230007D01*
X219588Y230010D01*
X219585D01*
X219520Y230033D01*
X219490Y230043D01*
X219464Y230053D01*
X219444Y230063D01*
X219425Y230069D01*
X219415Y230076D01*
X219411D01*
X219349Y230106D01*
X219323Y230115D01*
X219300Y230129D01*
X219284Y230135D01*
X219270Y230142D01*
X219261Y230148D01*
X219257D01*
Y230706D01*
X219313D01*
X219349Y230673D01*
X219382Y230644D01*
X219398Y230630D01*
X219408Y230624D01*
X219415Y230617D01*
X219418Y230614D01*
X219464Y230578D01*
X219510Y230545D01*
X219530Y230535D01*
X219546Y230525D01*
X219556Y230519D01*
X219559Y230516D01*
X219588Y230499D01*
X219618Y230480D01*
X219648Y230466D01*
X219677Y230453D01*
X219700Y230443D01*
X219720Y230434D01*
X219736Y230430D01*
X219739Y230427D01*
X219779Y230414D01*
X219818Y230407D01*
X219858Y230401D01*
X219890Y230394D01*
X219920D01*
X219943Y230391D01*
X219963D01*
X220005Y230394D01*
X220044Y230398D01*
X220084Y230404D01*
X220117Y230411D01*
X220146Y230417D01*
X220169Y230424D01*
X220182Y230430D01*
X220189D01*
X220228Y230447D01*
X220268Y230466D01*
X220304Y230489D01*
X220333Y230509D01*
X220359Y230529D01*
X220379Y230545D01*
X220392Y230555D01*
X220395Y230558D01*
X220428Y230594D01*
X220461Y230634D01*
X220487Y230676D01*
X220507Y230716D01*
X220527Y230748D01*
X220540Y230775D01*
X220546Y230794D01*
X220550Y230801D01*
X220569Y230860D01*
X220582Y230922D01*
X220592Y230985D01*
X220599Y231044D01*
X220602Y231093D01*
Y231116D01*
X220605Y231136D01*
Y231152D01*
Y231162D01*
Y231168D01*
Y231172D01*
X220602Y231247D01*
X220596Y231316D01*
X220589Y231378D01*
X220576Y231434D01*
X220566Y231477D01*
X220559Y231509D01*
X220556Y231519D01*
X220553Y231529D01*
X220550Y231532D01*
Y231536D01*
X220527Y231591D01*
X220504Y231641D01*
X220481Y231683D01*
X220458Y231719D01*
X220435Y231746D01*
X220418Y231765D01*
X220409Y231778D01*
X220405Y231782D01*
X220369Y231818D01*
X220333Y231847D01*
X220297Y231870D01*
X220268Y231890D01*
X220241Y231906D01*
X220218Y231916D01*
X220205Y231919D01*
X220202Y231923D01*
X220159Y231936D01*
X220120Y231949D01*
X220080Y231956D01*
X220044Y231959D01*
X220012Y231962D01*
X219989Y231965D01*
X219926D01*
X219887Y231959D01*
X219854Y231956D01*
X219821Y231949D01*
X219795Y231942D01*
X219776Y231936D01*
X219762Y231932D01*
X219759Y231929D01*
X219723Y231916D01*
X219687Y231900D01*
X219657Y231887D01*
X219628Y231873D01*
X219608Y231860D01*
X219588Y231854D01*
X219579Y231847D01*
X219575Y231844D01*
X219516Y231805D01*
X219493Y231788D01*
X219471Y231772D01*
X219454Y231759D01*
X219438Y231749D01*
X219431Y231742D01*
X219428Y231739D01*
X219382Y231703D01*
X219349Y231677D01*
X219336Y231664D01*
X219326Y231657D01*
X219323Y231654D01*
X219320Y231650D01*
X219257D01*
Y232211D01*
X219280Y232224D01*
X219306Y232238D01*
X219359Y232260D01*
X219382Y232270D01*
X219398Y232277D01*
X219411Y232280D01*
X219415Y232283D01*
X219480Y232313D01*
X219510Y232323D01*
X219536Y232333D01*
X219559Y232339D01*
X219575Y232346D01*
X219585Y232349D01*
X219588D01*
X219667Y232369D01*
X219703Y232375D01*
X219736Y232382D01*
X219766Y232388D01*
X219789Y232392D01*
X219802Y232395D01*
X219808D01*
X219894Y232405D01*
X219936Y232408D01*
X219976D01*
X220012Y232411D01*
X220061D01*
X220159Y232408D01*
D02*
G37*
G36*
X218965Y231916D02*
X217840D01*
X218893Y229991D01*
X218234D01*
X217224Y231890D01*
Y232362D01*
X218965D01*
Y231916D01*
D02*
G37*
G36*
X217893Y250318D02*
X218001Y250305D01*
X218050Y250299D01*
X218096Y250289D01*
X218135Y250279D01*
X218175Y250272D01*
X218211Y250262D01*
X218240Y250253D01*
X218270Y250243D01*
X218290Y250236D01*
X218309Y250230D01*
X218322Y250223D01*
X218329Y250220D01*
X218332D01*
X218414Y250181D01*
X218490Y250134D01*
X218555Y250089D01*
X218611Y250046D01*
X218654Y250007D01*
X218687Y249974D01*
X218696Y249961D01*
X218706Y249951D01*
X218709Y249948D01*
X218713Y249944D01*
X218765Y249872D01*
X218811Y249800D01*
X218847Y249728D01*
X218877Y249659D01*
X218900Y249600D01*
X218910Y249577D01*
X218916Y249554D01*
X218923Y249538D01*
X218926Y249524D01*
X218929Y249518D01*
Y249515D01*
X218952Y249423D01*
X218969Y249328D01*
X218979Y249236D01*
X218985Y249150D01*
X218988Y249111D01*
X218992Y249075D01*
Y249042D01*
X218995Y249016D01*
Y248993D01*
Y248977D01*
Y248967D01*
Y248964D01*
X218992Y248855D01*
X218985Y248757D01*
X218972Y248668D01*
X218965Y248629D01*
X218959Y248593D01*
X218955Y248560D01*
X218949Y248531D01*
X218942Y248504D01*
X218936Y248485D01*
X218933Y248468D01*
X218929Y248455D01*
X218926Y248449D01*
Y248445D01*
X218897Y248367D01*
X218864Y248298D01*
X218828Y248239D01*
X218795Y248186D01*
X218765Y248147D01*
X218742Y248117D01*
X218726Y248098D01*
X218719Y248091D01*
X218673Y248052D01*
X218628Y248016D01*
X218582Y247986D01*
X218539Y247960D01*
X218500Y247943D01*
X218470Y247927D01*
X218450Y247920D01*
X218447Y247917D01*
X218444D01*
X218382Y247898D01*
X218316Y247884D01*
X218254Y247871D01*
X218198Y247865D01*
X218149Y247862D01*
X218126D01*
X218109Y247858D01*
X218073D01*
X217998Y247862D01*
X217926Y247868D01*
X217860Y247881D01*
X217798Y247894D01*
X217739Y247914D01*
X217686Y247934D01*
X217637Y247957D01*
X217594Y247980D01*
X217555Y247999D01*
X217519Y248022D01*
X217493Y248042D01*
X217466Y248062D01*
X217447Y248075D01*
X217434Y248088D01*
X217427Y248094D01*
X217424Y248098D01*
X217381Y248144D01*
X217345Y248193D01*
X217312Y248242D01*
X217286Y248294D01*
X217263Y248347D01*
X217243Y248396D01*
X217227Y248445D01*
X217214Y248495D01*
X217204Y248540D01*
X217197Y248580D01*
X217191Y248616D01*
X217188Y248649D01*
X217184Y248675D01*
Y248695D01*
Y248708D01*
Y248711D01*
X217188Y248796D01*
X217197Y248872D01*
X217207Y248941D01*
X217220Y248996D01*
X217237Y249042D01*
X217247Y249075D01*
X217253Y249085D01*
X217256Y249095D01*
X217260Y249098D01*
Y249101D01*
X217289Y249157D01*
X217319Y249206D01*
X217352Y249249D01*
X217384Y249285D01*
X217411Y249311D01*
X217434Y249334D01*
X217447Y249347D01*
X217453Y249351D01*
X217522Y249393D01*
X217555Y249410D01*
X217588Y249426D01*
X217614Y249436D01*
X217634Y249443D01*
X217647Y249449D01*
X217653D01*
X217696Y249462D01*
X217739Y249469D01*
X217778Y249475D01*
X217814Y249482D01*
X217847D01*
X217870Y249485D01*
X217893D01*
X217949Y249482D01*
X217998Y249479D01*
X218044Y249472D01*
X218086Y249462D01*
X218119Y249452D01*
X218142Y249446D01*
X218159Y249443D01*
X218165Y249439D01*
X218250Y249403D01*
X218293Y249380D01*
X218326Y249364D01*
X218358Y249347D01*
X218382Y249334D01*
X218395Y249324D01*
X218401Y249321D01*
X218382Y249416D01*
X218355Y249501D01*
X218326Y249574D01*
X218293Y249633D01*
X218263Y249679D01*
X218250Y249698D01*
X218237Y249715D01*
X218227Y249725D01*
X218221Y249734D01*
X218214Y249741D01*
X218185Y249767D01*
X218152Y249790D01*
X218083Y249826D01*
X218011Y249852D01*
X217942Y249869D01*
X217880Y249882D01*
X217853Y249885D01*
X217830D01*
X217811Y249888D01*
X217739D01*
X217696Y249885D01*
X217660Y249882D01*
X217627Y249875D01*
X217601Y249872D01*
X217581Y249866D01*
X217568Y249862D01*
X217565D01*
X217532Y249852D01*
X217502Y249843D01*
X217479Y249836D01*
X217463Y249830D01*
X217447Y249823D01*
X217437Y249820D01*
X217434Y249816D01*
X217384D01*
Y250279D01*
X217404Y250282D01*
X217430Y250289D01*
X217483Y250295D01*
X217509Y250299D01*
X217529Y250302D01*
X217542Y250305D01*
X217548D01*
X217634Y250315D01*
X217670Y250318D01*
X217706D01*
X217735Y250322D01*
X217778D01*
X217893Y250318D01*
D02*
G37*
G36*
X220159Y250325D02*
X220251Y250315D01*
X220336Y250299D01*
X220418Y250276D01*
X220494Y250249D01*
X220563Y250220D01*
X220625Y250190D01*
X220684Y250161D01*
X220733Y250128D01*
X220779Y250098D01*
X220818Y250069D01*
X220848Y250043D01*
X220874Y250023D01*
X220894Y250003D01*
X220904Y249993D01*
X220907Y249990D01*
X220963Y249925D01*
X221009Y249856D01*
X221051Y249784D01*
X221088Y249708D01*
X221117Y249633D01*
X221143Y249560D01*
X221163Y249485D01*
X221179Y249416D01*
X221193Y249351D01*
X221202Y249288D01*
X221209Y249233D01*
X221212Y249187D01*
X221215Y249147D01*
X221219Y249118D01*
Y249098D01*
Y249095D01*
Y249092D01*
X221215Y248983D01*
X221206Y248885D01*
X221189Y248790D01*
X221169Y248701D01*
X221146Y248619D01*
X221120Y248547D01*
X221091Y248478D01*
X221061Y248416D01*
X221035Y248363D01*
X221006Y248314D01*
X220979Y248275D01*
X220956Y248242D01*
X220937Y248216D01*
X220920Y248199D01*
X220910Y248186D01*
X220907Y248183D01*
X220845Y248127D01*
X220782Y248078D01*
X220714Y248035D01*
X220645Y247996D01*
X220572Y247967D01*
X220504Y247940D01*
X220435Y247917D01*
X220366Y247901D01*
X220304Y247888D01*
X220248Y247878D01*
X220195Y247871D01*
X220149Y247868D01*
X220113Y247865D01*
X220084Y247862D01*
X220002D01*
X219946Y247865D01*
X219900Y247868D01*
X219864Y247871D01*
X219834Y247875D01*
X219812Y247878D01*
X219798Y247881D01*
X219795D01*
X219720Y247894D01*
X219687Y247904D01*
X219654Y247911D01*
X219625Y247917D01*
X219605Y247924D01*
X219588Y247927D01*
X219585D01*
X219520Y247950D01*
X219490Y247960D01*
X219464Y247970D01*
X219444Y247980D01*
X219425Y247986D01*
X219415Y247993D01*
X219411D01*
X219349Y248022D01*
X219323Y248032D01*
X219300Y248045D01*
X219284Y248052D01*
X219270Y248058D01*
X219261Y248065D01*
X219257D01*
Y248622D01*
X219313D01*
X219349Y248590D01*
X219382Y248560D01*
X219398Y248547D01*
X219408Y248540D01*
X219415Y248534D01*
X219418Y248531D01*
X219464Y248495D01*
X219510Y248462D01*
X219530Y248452D01*
X219546Y248442D01*
X219556Y248435D01*
X219559Y248432D01*
X219588Y248416D01*
X219618Y248396D01*
X219648Y248383D01*
X219677Y248370D01*
X219700Y248360D01*
X219720Y248350D01*
X219736Y248347D01*
X219739Y248344D01*
X219779Y248330D01*
X219818Y248324D01*
X219858Y248317D01*
X219890Y248311D01*
X219920D01*
X219943Y248308D01*
X219963D01*
X220005Y248311D01*
X220044Y248314D01*
X220084Y248321D01*
X220117Y248327D01*
X220146Y248334D01*
X220169Y248340D01*
X220182Y248347D01*
X220189D01*
X220228Y248363D01*
X220268Y248383D01*
X220304Y248406D01*
X220333Y248426D01*
X220359Y248445D01*
X220379Y248462D01*
X220392Y248472D01*
X220395Y248475D01*
X220428Y248511D01*
X220461Y248550D01*
X220487Y248593D01*
X220507Y248632D01*
X220527Y248665D01*
X220540Y248691D01*
X220546Y248711D01*
X220550Y248718D01*
X220569Y248777D01*
X220582Y248839D01*
X220592Y248901D01*
X220599Y248960D01*
X220602Y249009D01*
Y249032D01*
X220605Y249052D01*
Y249068D01*
Y249078D01*
Y249085D01*
Y249088D01*
X220602Y249164D01*
X220596Y249233D01*
X220589Y249295D01*
X220576Y249351D01*
X220566Y249393D01*
X220559Y249426D01*
X220556Y249436D01*
X220553Y249446D01*
X220550Y249449D01*
Y249452D01*
X220527Y249508D01*
X220504Y249557D01*
X220481Y249600D01*
X220458Y249636D01*
X220435Y249662D01*
X220418Y249682D01*
X220409Y249695D01*
X220405Y249698D01*
X220369Y249734D01*
X220333Y249764D01*
X220297Y249787D01*
X220268Y249806D01*
X220241Y249823D01*
X220218Y249833D01*
X220205Y249836D01*
X220202Y249839D01*
X220159Y249852D01*
X220120Y249866D01*
X220080Y249872D01*
X220044Y249875D01*
X220012Y249879D01*
X219989Y249882D01*
X219926D01*
X219887Y249875D01*
X219854Y249872D01*
X219821Y249866D01*
X219795Y249859D01*
X219776Y249852D01*
X219762Y249849D01*
X219759Y249846D01*
X219723Y249833D01*
X219687Y249816D01*
X219657Y249803D01*
X219628Y249790D01*
X219608Y249777D01*
X219588Y249770D01*
X219579Y249764D01*
X219575Y249761D01*
X219516Y249721D01*
X219493Y249705D01*
X219471Y249689D01*
X219454Y249675D01*
X219438Y249665D01*
X219431Y249659D01*
X219428Y249656D01*
X219382Y249620D01*
X219349Y249593D01*
X219336Y249580D01*
X219326Y249574D01*
X219323Y249570D01*
X219320Y249567D01*
X219257D01*
Y250128D01*
X219280Y250141D01*
X219306Y250154D01*
X219359Y250177D01*
X219382Y250187D01*
X219398Y250194D01*
X219411Y250197D01*
X219415Y250200D01*
X219480Y250230D01*
X219510Y250239D01*
X219536Y250249D01*
X219559Y250256D01*
X219575Y250262D01*
X219585Y250266D01*
X219588D01*
X219667Y250285D01*
X219703Y250292D01*
X219736Y250299D01*
X219766Y250305D01*
X219789Y250308D01*
X219802Y250312D01*
X219808D01*
X219894Y250322D01*
X219936Y250325D01*
X219976D01*
X220012Y250328D01*
X220061D01*
X220159Y250325D01*
D02*
G37*
G36*
X112859Y241130D02*
X111990D01*
Y240920D01*
X112859Y240260D01*
Y239532D01*
X111852Y240333D01*
X111813Y240260D01*
X111767Y240195D01*
X111724Y240139D01*
X111682Y240090D01*
X111643Y240054D01*
X111613Y240027D01*
X111600Y240018D01*
X111590Y240011D01*
X111587Y240005D01*
X111583D01*
X111515Y239962D01*
X111442Y239932D01*
X111367Y239909D01*
X111298Y239896D01*
X111236Y239886D01*
X111210Y239883D01*
X111187D01*
X111167Y239880D01*
X111154D01*
X111144D01*
X111141D01*
X111072Y239883D01*
X111010Y239893D01*
X110954Y239903D01*
X110908Y239916D01*
X110872Y239932D01*
X110845Y239942D01*
X110829Y239952D01*
X110822Y239955D01*
X110777Y239985D01*
X110737Y240018D01*
X110701Y240054D01*
X110672Y240087D01*
X110649Y240113D01*
X110629Y240139D01*
X110619Y240152D01*
X110616Y240159D01*
X110590Y240205D01*
X110567Y240254D01*
X110550Y240300D01*
X110537Y240342D01*
X110527Y240378D01*
X110521Y240405D01*
X110514Y240424D01*
Y240431D01*
X110504Y240487D01*
X110498Y240546D01*
X110494Y240601D01*
X110491Y240654D01*
X110488Y240703D01*
Y241723D01*
X112859D01*
Y241130D01*
D02*
G37*
G36*
Y237725D02*
X112446D01*
Y238214D01*
X110481D01*
Y238735D01*
X110518Y238738D01*
X110547Y238745D01*
X110576Y238752D01*
X110600Y238758D01*
X110619Y238768D01*
X110632Y238774D01*
X110642Y238778D01*
X110645Y238781D01*
X110688Y238817D01*
X110721Y238857D01*
X110731Y238873D01*
X110740Y238886D01*
X110744Y238896D01*
X110747Y238899D01*
X110757Y238925D01*
X110767Y238955D01*
X110783Y239011D01*
X110786Y239034D01*
X110790Y239053D01*
X110793Y239070D01*
Y239073D01*
X110800Y239152D01*
X110803Y239188D01*
Y239221D01*
X110806Y239250D01*
Y239289D01*
X111193D01*
Y238791D01*
X112446D01*
Y239289D01*
X112859D01*
Y237725D01*
D02*
G37*
G36*
X112276Y237420D02*
X112325Y237413D01*
X112371Y237407D01*
X112410Y237397D01*
X112443Y237387D01*
X112469Y237377D01*
X112486Y237374D01*
X112492Y237371D01*
X112538Y237348D01*
X112581Y237321D01*
X112617Y237295D01*
X112650Y237266D01*
X112676Y237243D01*
X112695Y237223D01*
X112708Y237210D01*
X112712Y237203D01*
X112745Y237158D01*
X112774Y237108D01*
X112800Y237059D01*
X112820Y237013D01*
X112836Y236974D01*
X112850Y236941D01*
X112853Y236928D01*
X112856Y236918D01*
X112859Y236915D01*
Y236912D01*
X112879Y236843D01*
X112892Y236771D01*
X112902Y236698D01*
X112909Y236633D01*
X112912Y236577D01*
Y236554D01*
X112915Y236531D01*
Y236492D01*
X112912Y236410D01*
X112905Y236334D01*
X112899Y236269D01*
X112889Y236210D01*
X112879Y236160D01*
X112876Y236141D01*
X112869Y236124D01*
X112866Y236111D01*
Y236101D01*
X112863Y236098D01*
Y236095D01*
X112840Y236033D01*
X112817Y235973D01*
X112791Y235924D01*
X112768Y235882D01*
X112745Y235845D01*
X112728Y235819D01*
X112715Y235806D01*
X112712Y235800D01*
X112676Y235757D01*
X112636Y235721D01*
X112597Y235688D01*
X112564Y235662D01*
X112531Y235642D01*
X112508Y235629D01*
X112492Y235619D01*
X112486Y235616D01*
X112436Y235593D01*
X112387Y235577D01*
X112338Y235567D01*
X112295Y235557D01*
X112259Y235554D01*
X112230Y235550D01*
X112210D01*
X112203D01*
X112125Y235554D01*
X112053Y235567D01*
X111990Y235586D01*
X111938Y235606D01*
X111892Y235626D01*
X111859Y235645D01*
X111849Y235652D01*
X111839Y235659D01*
X111836Y235662D01*
X111833D01*
X111777Y235708D01*
X111728Y235764D01*
X111685Y235819D01*
X111646Y235878D01*
X111620Y235928D01*
X111606Y235950D01*
X111597Y235970D01*
X111590Y235986D01*
X111583Y236000D01*
X111580Y236006D01*
Y236010D01*
X111570D01*
X111534Y235937D01*
X111495Y235875D01*
X111459Y235826D01*
X111423Y235783D01*
X111390Y235750D01*
X111367Y235727D01*
X111351Y235711D01*
X111344Y235708D01*
X111292Y235675D01*
X111239Y235652D01*
X111187Y235632D01*
X111141Y235623D01*
X111098Y235616D01*
X111068Y235609D01*
X111055D01*
X111046D01*
X111042D01*
X111039D01*
X110993Y235613D01*
X110947Y235619D01*
X110908Y235629D01*
X110872Y235639D01*
X110842Y235649D01*
X110819Y235659D01*
X110806Y235665D01*
X110800Y235668D01*
X110760Y235691D01*
X110724Y235718D01*
X110691Y235744D01*
X110662Y235770D01*
X110639Y235796D01*
X110623Y235816D01*
X110613Y235829D01*
X110609Y235832D01*
X110583Y235875D01*
X110557Y235918D01*
X110537Y235964D01*
X110521Y236006D01*
X110508Y236042D01*
X110498Y236075D01*
X110491Y236095D01*
X110488Y236098D01*
Y236101D01*
X110472Y236164D01*
X110458Y236229D01*
X110452Y236295D01*
X110445Y236354D01*
X110442Y236406D01*
X110439Y236429D01*
Y236485D01*
X110442Y236561D01*
X110445Y236629D01*
X110455Y236695D01*
X110465Y236751D01*
X110475Y236797D01*
X110481Y236829D01*
X110485Y236843D01*
X110488Y236853D01*
X110491Y236856D01*
Y236859D01*
X110511Y236918D01*
X110534Y236974D01*
X110557Y237020D01*
X110580Y237059D01*
X110600Y237092D01*
X110616Y237115D01*
X110626Y237128D01*
X110629Y237135D01*
X110665Y237174D01*
X110701Y237210D01*
X110734Y237240D01*
X110767Y237263D01*
X110793Y237282D01*
X110816Y237295D01*
X110829Y237302D01*
X110836Y237305D01*
X110878Y237325D01*
X110921Y237338D01*
X110964Y237348D01*
X111000Y237354D01*
X111032Y237358D01*
X111055Y237361D01*
X111072D01*
X111078D01*
X111144Y237358D01*
X111206Y237348D01*
X111259Y237335D01*
X111308Y237318D01*
X111347Y237305D01*
X111377Y237292D01*
X111397Y237282D01*
X111400Y237279D01*
X111403D01*
X111456Y237243D01*
X111502Y237200D01*
X111544Y237151D01*
X111580Y237102D01*
X111610Y237059D01*
X111629Y237020D01*
X111639Y237007D01*
X111646Y236997D01*
X111649Y236990D01*
Y236987D01*
X111659D01*
X111695Y237062D01*
X111734Y237128D01*
X111770Y237184D01*
X111806Y237230D01*
X111839Y237266D01*
X111862Y237292D01*
X111879Y237305D01*
X111885Y237312D01*
X111938Y237348D01*
X111994Y237377D01*
X112053Y237397D01*
X112105Y237410D01*
X112151Y237417D01*
X112190Y237420D01*
X112203Y237423D01*
X112213D01*
X112220D01*
X112223D01*
X112276Y237420D01*
D02*
G37*
G36*
X154330Y236130D02*
X153461D01*
Y235920D01*
X154330Y235260D01*
Y234532D01*
X153323Y235332D01*
X153284Y235260D01*
X153238Y235195D01*
X153195Y235139D01*
X153152Y235090D01*
X153113Y235054D01*
X153084Y235028D01*
X153070Y235018D01*
X153060Y235011D01*
X153057Y235005D01*
X153054D01*
X152985Y234962D01*
X152913Y234932D01*
X152838Y234909D01*
X152769Y234896D01*
X152706Y234887D01*
X152680Y234883D01*
X152657D01*
X152637Y234880D01*
X152624D01*
X152614D01*
X152611D01*
X152542Y234883D01*
X152480Y234893D01*
X152424Y234903D01*
X152378Y234916D01*
X152342Y234932D01*
X152316Y234942D01*
X152300Y234952D01*
X152293Y234955D01*
X152247Y234985D01*
X152208Y235018D01*
X152172Y235054D01*
X152142Y235086D01*
X152119Y235113D01*
X152100Y235139D01*
X152090Y235152D01*
X152086Y235159D01*
X152060Y235205D01*
X152037Y235254D01*
X152021Y235300D01*
X152008Y235342D01*
X151998Y235379D01*
X151991Y235405D01*
X151985Y235424D01*
Y235431D01*
X151975Y235487D01*
X151968Y235546D01*
X151965Y235601D01*
X151962Y235654D01*
X151958Y235703D01*
Y236723D01*
X154330D01*
Y236130D01*
D02*
G37*
G36*
Y232725D02*
X153917D01*
Y233214D01*
X151952D01*
Y233735D01*
X151988Y233738D01*
X152017Y233745D01*
X152047Y233752D01*
X152070Y233758D01*
X152090Y233768D01*
X152103Y233774D01*
X152113Y233778D01*
X152116Y233781D01*
X152158Y233817D01*
X152191Y233857D01*
X152201Y233873D01*
X152211Y233886D01*
X152214Y233896D01*
X152218Y233899D01*
X152227Y233925D01*
X152237Y233955D01*
X152254Y234011D01*
X152257Y234034D01*
X152260Y234053D01*
X152263Y234070D01*
Y234073D01*
X152270Y234152D01*
X152273Y234188D01*
Y234221D01*
X152277Y234250D01*
Y234290D01*
X152664D01*
Y233791D01*
X153917D01*
Y234290D01*
X154330D01*
Y232725D01*
D02*
G37*
G36*
X153779Y231413D02*
X154336D01*
Y230836D01*
X153779D01*
Y230514D01*
X153352D01*
Y230836D01*
X151958D01*
Y231433D01*
X153339Y232453D01*
X153779D01*
Y231413D01*
D02*
G37*
G36*
X144944Y252009D02*
X144990Y252006D01*
X145026Y252003D01*
X145055Y251999D01*
X145078Y251996D01*
X145091Y251993D01*
X145095D01*
X145170Y251979D01*
X145203Y251970D01*
X145236Y251963D01*
X145265Y251957D01*
X145285Y251950D01*
X145301Y251947D01*
X145305D01*
X145370Y251924D01*
X145400Y251914D01*
X145426Y251904D01*
X145446Y251894D01*
X145465Y251888D01*
X145475Y251881D01*
X145478D01*
X145541Y251852D01*
X145567Y251842D01*
X145590Y251829D01*
X145606Y251822D01*
X145619Y251816D01*
X145629Y251809D01*
X145633D01*
Y251251D01*
X145577D01*
X145541Y251284D01*
X145508Y251314D01*
X145491Y251327D01*
X145482Y251333D01*
X145475Y251340D01*
X145472Y251343D01*
X145426Y251379D01*
X145380Y251412D01*
X145360Y251422D01*
X145344Y251432D01*
X145334Y251438D01*
X145331Y251442D01*
X145301Y251458D01*
X145272Y251478D01*
X145242Y251491D01*
X145213Y251504D01*
X145190Y251514D01*
X145170Y251524D01*
X145154Y251527D01*
X145150Y251530D01*
X145111Y251543D01*
X145072Y251550D01*
X145032Y251556D01*
X144999Y251563D01*
X144970D01*
X144947Y251566D01*
X144927D01*
X144885Y251563D01*
X144845Y251560D01*
X144806Y251553D01*
X144773Y251547D01*
X144744Y251540D01*
X144721Y251534D01*
X144708Y251527D01*
X144701D01*
X144662Y251511D01*
X144622Y251491D01*
X144586Y251468D01*
X144557Y251448D01*
X144530Y251429D01*
X144511Y251412D01*
X144498Y251402D01*
X144494Y251399D01*
X144462Y251363D01*
X144429Y251324D01*
X144403Y251281D01*
X144383Y251241D01*
X144363Y251209D01*
X144350Y251183D01*
X144343Y251163D01*
X144340Y251156D01*
X144320Y251097D01*
X144307Y251035D01*
X144298Y250973D01*
X144291Y250914D01*
X144288Y250864D01*
Y250841D01*
X144284Y250822D01*
Y250805D01*
Y250796D01*
Y250789D01*
Y250786D01*
X144288Y250710D01*
X144294Y250641D01*
X144301Y250579D01*
X144314Y250523D01*
X144324Y250481D01*
X144330Y250448D01*
X144334Y250438D01*
X144337Y250428D01*
X144340Y250425D01*
Y250422D01*
X144363Y250366D01*
X144386Y250317D01*
X144409Y250274D01*
X144432Y250238D01*
X144455Y250212D01*
X144471Y250192D01*
X144481Y250179D01*
X144484Y250175D01*
X144520Y250139D01*
X144557Y250110D01*
X144593Y250087D01*
X144622Y250067D01*
X144649Y250051D01*
X144671Y250041D01*
X144685Y250038D01*
X144688Y250034D01*
X144730Y250021D01*
X144770Y250008D01*
X144809Y250002D01*
X144845Y249998D01*
X144878Y249995D01*
X144901Y249992D01*
X144963D01*
X145003Y249998D01*
X145036Y250002D01*
X145068Y250008D01*
X145095Y250015D01*
X145114Y250021D01*
X145127Y250025D01*
X145131Y250028D01*
X145167Y250041D01*
X145203Y250058D01*
X145232Y250071D01*
X145262Y250084D01*
X145282Y250097D01*
X145301Y250103D01*
X145311Y250110D01*
X145314Y250113D01*
X145373Y250153D01*
X145396Y250169D01*
X145419Y250185D01*
X145436Y250199D01*
X145452Y250208D01*
X145459Y250215D01*
X145462Y250218D01*
X145508Y250254D01*
X145541Y250280D01*
X145554Y250294D01*
X145564Y250300D01*
X145567Y250304D01*
X145570Y250307D01*
X145633D01*
Y249746D01*
X145609Y249733D01*
X145583Y249720D01*
X145531Y249697D01*
X145508Y249687D01*
X145491Y249680D01*
X145478Y249677D01*
X145475Y249674D01*
X145409Y249644D01*
X145380Y249634D01*
X145354Y249624D01*
X145331Y249618D01*
X145314Y249611D01*
X145305Y249608D01*
X145301D01*
X145222Y249588D01*
X145186Y249582D01*
X145154Y249575D01*
X145124Y249569D01*
X145101Y249566D01*
X145088Y249562D01*
X145081D01*
X144996Y249552D01*
X144954Y249549D01*
X144914D01*
X144878Y249546D01*
X144829D01*
X144730Y249549D01*
X144639Y249559D01*
X144553Y249575D01*
X144471Y249598D01*
X144396Y249624D01*
X144327Y249654D01*
X144265Y249683D01*
X144206Y249713D01*
X144157Y249746D01*
X144111Y249775D01*
X144071Y249805D01*
X144042Y249831D01*
X144015Y249851D01*
X143996Y249870D01*
X143986Y249880D01*
X143983Y249884D01*
X143927Y249949D01*
X143881Y250018D01*
X143838Y250090D01*
X143802Y250166D01*
X143773Y250241D01*
X143746Y250313D01*
X143727Y250389D01*
X143710Y250458D01*
X143697Y250523D01*
X143687Y250586D01*
X143681Y250641D01*
X143678Y250687D01*
X143674Y250727D01*
X143671Y250756D01*
Y250776D01*
Y250779D01*
Y250782D01*
X143674Y250891D01*
X143684Y250989D01*
X143701Y251084D01*
X143720Y251173D01*
X143743Y251255D01*
X143769Y251327D01*
X143799Y251396D01*
X143828Y251458D01*
X143855Y251511D01*
X143884Y251560D01*
X143911Y251599D01*
X143933Y251632D01*
X143953Y251658D01*
X143970Y251675D01*
X143979Y251688D01*
X143983Y251691D01*
X144045Y251747D01*
X144107Y251796D01*
X144176Y251838D01*
X144245Y251878D01*
X144317Y251907D01*
X144386Y251934D01*
X144455Y251957D01*
X144524Y251973D01*
X144586Y251986D01*
X144642Y251996D01*
X144694Y252003D01*
X144740Y252006D01*
X144776Y252009D01*
X144806Y252012D01*
X144888D01*
X144944Y252009D01*
D02*
G37*
G36*
X148860Y252012D02*
X148942Y252006D01*
X149014Y251996D01*
X149076Y251986D01*
X149126Y251976D01*
X149145Y251970D01*
X149162Y251966D01*
X149175Y251963D01*
X149185Y251960D01*
X149188Y251957D01*
X149191D01*
X149254Y251930D01*
X149313Y251904D01*
X149362Y251875D01*
X149405Y251845D01*
X149441Y251819D01*
X149467Y251799D01*
X149483Y251786D01*
X149490Y251780D01*
X149532Y251733D01*
X149572Y251688D01*
X149604Y251642D01*
X149631Y251599D01*
X149651Y251563D01*
X149664Y251534D01*
X149673Y251514D01*
X149677Y251511D01*
Y251507D01*
X149700Y251448D01*
X149716Y251386D01*
X149726Y251330D01*
X149736Y251278D01*
X149739Y251232D01*
X149742Y251196D01*
Y251183D01*
Y251173D01*
Y251169D01*
Y251166D01*
X149739Y251091D01*
X149729Y251019D01*
X149719Y250959D01*
X149706Y250907D01*
X149690Y250864D01*
X149680Y250832D01*
X149670Y250812D01*
X149667Y250805D01*
X149637Y250753D01*
X149601Y250707D01*
X149565Y250664D01*
X149532Y250631D01*
X149503Y250605D01*
X149477Y250586D01*
X149460Y250572D01*
X149454Y250569D01*
X149411Y250543D01*
X149368Y250523D01*
X149322Y250503D01*
X149283Y250490D01*
X149250Y250477D01*
X149221Y250471D01*
X149204Y250464D01*
X149198D01*
X149142Y250451D01*
X149086Y250445D01*
X149034Y250438D01*
X148988Y250431D01*
X148945D01*
X148913Y250428D01*
X148817D01*
X148801Y250431D01*
X148778D01*
X148732Y250435D01*
X148699D01*
X148686Y250438D01*
X148667D01*
Y250041D01*
X149677D01*
Y249595D01*
X148106D01*
Y250927D01*
X148155D01*
X148227Y250910D01*
X148263Y250904D01*
X148296Y250897D01*
X148325Y250891D01*
X148348Y250887D01*
X148361Y250884D01*
X148368D01*
X148460Y250871D01*
X148503Y250868D01*
X148542Y250864D01*
X148575Y250861D01*
X148624D01*
X148693Y250864D01*
X148725Y250868D01*
X148755D01*
X148784Y250871D01*
X148804Y250874D01*
X148817Y250877D01*
X148824D01*
X148866Y250884D01*
X148903Y250894D01*
X148935Y250907D01*
X148965Y250917D01*
X148988Y250930D01*
X149008Y250937D01*
X149017Y250943D01*
X149021Y250946D01*
X149057Y250979D01*
X149086Y251009D01*
X149096Y251025D01*
X149103Y251035D01*
X149109Y251042D01*
Y251045D01*
X149122Y251068D01*
X149129Y251091D01*
X149142Y251140D01*
Y251160D01*
X149145Y251176D01*
Y251186D01*
Y251189D01*
Y251225D01*
X149142Y251255D01*
X149135Y251281D01*
X149132Y251304D01*
X149126Y251324D01*
X149119Y251337D01*
X149116Y251343D01*
Y251346D01*
X149093Y251389D01*
X149070Y251422D01*
X149057Y251435D01*
X149050Y251445D01*
X149044Y251451D01*
X149040Y251455D01*
X149014Y251474D01*
X148985Y251491D01*
X148929Y251517D01*
X148906Y251527D01*
X148886Y251534D01*
X148870Y251537D01*
X148866D01*
X148791Y251550D01*
X148758Y251553D01*
X148729Y251556D01*
X148706Y251560D01*
X148630D01*
X148594Y251556D01*
X148562Y251553D01*
X148532Y251550D01*
X148506Y251547D01*
X148489Y251543D01*
X148476Y251540D01*
X148473D01*
X148411Y251520D01*
X148381Y251514D01*
X148355Y251504D01*
X148335Y251497D01*
X148319Y251491D01*
X148306Y251484D01*
X148302D01*
X148270Y251471D01*
X148243Y251458D01*
X148217Y251445D01*
X148197Y251435D01*
X148181Y251429D01*
X148168Y251422D01*
X148161Y251415D01*
X148158D01*
X148119Y251392D01*
X148086Y251373D01*
X148073Y251366D01*
X148063Y251360D01*
X148060Y251356D01*
X148004D01*
Y251875D01*
X148053Y251894D01*
X148102Y251911D01*
X148155Y251927D01*
X148204Y251940D01*
X148250Y251953D01*
X148283Y251963D01*
X148296Y251966D01*
X148306D01*
X148312Y251970D01*
X148316D01*
X148391Y251983D01*
X148470Y251996D01*
X148545Y252003D01*
X148617Y252009D01*
X148680Y252012D01*
X148706D01*
X148729Y252016D01*
X148771D01*
X148860Y252012D01*
D02*
G37*
G36*
X147614Y251553D02*
X147125D01*
Y249588D01*
X146603D01*
X146600Y249624D01*
X146593Y249654D01*
X146587Y249683D01*
X146580Y249707D01*
X146571Y249726D01*
X146564Y249739D01*
X146561Y249749D01*
X146557Y249752D01*
X146521Y249795D01*
X146482Y249828D01*
X146466Y249838D01*
X146452Y249848D01*
X146443Y249851D01*
X146439Y249854D01*
X146413Y249864D01*
X146384Y249874D01*
X146328Y249890D01*
X146305Y249893D01*
X146285Y249897D01*
X146269Y249900D01*
X146265D01*
X146187Y249907D01*
X146151Y249910D01*
X146118D01*
X146088Y249913D01*
X146049D01*
Y250300D01*
X146548D01*
Y251553D01*
X146049D01*
Y251966D01*
X147614D01*
Y251553D01*
D02*
G37*
%LPC*%
G36*
X317406Y386247D02*
X317141D01*
X317114Y386243D01*
X317069D01*
X317055Y386240D01*
X317042D01*
X316993Y386233D01*
X316954Y386220D01*
X316937Y386217D01*
X316927Y386210D01*
X316921Y386207D01*
X316918D01*
X316891Y386194D01*
X316868Y386178D01*
X316849Y386161D01*
X316832Y386145D01*
X316819Y386132D01*
X316813Y386119D01*
X316806Y386112D01*
Y386109D01*
X316793Y386083D01*
X316786Y386056D01*
X316773Y386007D01*
Y385987D01*
X316770Y385971D01*
Y385958D01*
Y385955D01*
Y385919D01*
X316773Y385886D01*
X316780Y385859D01*
X316783Y385833D01*
X316790Y385817D01*
X316796Y385801D01*
X316799Y385794D01*
Y385791D01*
X316823Y385748D01*
X316852Y385712D01*
X316865Y385699D01*
X316875Y385692D01*
X316881Y385686D01*
X316885Y385682D01*
X316931Y385653D01*
X316980Y385630D01*
X317000Y385623D01*
X317016Y385620D01*
X317026Y385617D01*
X317029D01*
X317062Y385613D01*
X317098Y385610D01*
X317134Y385607D01*
X317167D01*
X317196Y385604D01*
X317406D01*
Y386247D01*
D02*
G37*
G36*
X150739Y279461D02*
X150139D01*
X150739Y278654D01*
Y279461D01*
D02*
G37*
G36*
X284879Y246170D02*
X284856D01*
X284800Y246167D01*
X284777Y246164D01*
X284754Y246160D01*
X284738D01*
X284725Y246157D01*
X284715Y246154D01*
X284712D01*
X284666Y246137D01*
X284630Y246118D01*
X284616Y246108D01*
X284607Y246101D01*
X284600Y246098D01*
X284597Y246095D01*
X284561Y246055D01*
X284538Y246019D01*
X284528Y246003D01*
X284521Y245990D01*
X284515Y245980D01*
Y245976D01*
X284505Y245947D01*
X284498Y245914D01*
X284495Y245885D01*
X284492Y245852D01*
X284489Y245826D01*
Y245806D01*
Y245793D01*
Y245786D01*
Y245747D01*
X284492Y245711D01*
X284498Y245675D01*
X284502Y245649D01*
X284508Y245622D01*
X284511Y245606D01*
X284515Y245593D01*
Y245589D01*
X284528Y245557D01*
X284538Y245531D01*
X284551Y245508D01*
X284561Y245488D01*
X284571Y245475D01*
X284577Y245465D01*
X284580Y245458D01*
X284584Y245455D01*
X284616Y245422D01*
X284649Y245396D01*
X284662Y245389D01*
X284669Y245383D01*
X284676Y245380D01*
X284679D01*
X284718Y245367D01*
X284751Y245360D01*
X284764Y245357D01*
X284784D01*
X284826Y245360D01*
X284859Y245367D01*
X284872Y245373D01*
X284882Y245376D01*
X284889Y245380D01*
X284892D01*
X284928Y245403D01*
X284961Y245426D01*
X284981Y245445D01*
X284984Y245452D01*
X284987Y245455D01*
X285007Y245484D01*
X285027Y245514D01*
X285056Y245576D01*
X285066Y245606D01*
X285072Y245629D01*
X285079Y245642D01*
Y245649D01*
X285089Y245698D01*
X285099Y245750D01*
X285105Y245803D01*
X285108Y245855D01*
X285112Y245898D01*
Y245934D01*
Y245947D01*
Y245957D01*
Y245963D01*
Y245967D01*
Y246009D01*
Y246039D01*
X285108Y246059D01*
Y246065D01*
X285105Y246088D01*
Y246101D01*
Y246111D01*
Y246114D01*
X285069Y246127D01*
X285033Y246141D01*
X285017Y246147D01*
X285003Y246150D01*
X284994Y246154D01*
X284990D01*
X284941Y246164D01*
X284898Y246167D01*
X284879Y246170D01*
D02*
G37*
G36*
X278388Y258808D02*
X278372D01*
X278309Y258802D01*
X278253Y258788D01*
X278204Y258772D01*
X278162Y258749D01*
X278126Y258726D01*
X278099Y258710D01*
X278086Y258697D01*
X278080Y258690D01*
X278040Y258644D01*
X278011Y258598D01*
X277991Y258549D01*
X277975Y258503D01*
X277968Y258464D01*
X277965Y258434D01*
X277961Y258421D01*
Y258411D01*
Y258408D01*
Y258405D01*
X277965Y258346D01*
X277978Y258293D01*
X277997Y258244D01*
X278017Y258205D01*
X278040Y258172D01*
X278057Y258149D01*
X278070Y258136D01*
X278076Y258129D01*
X278122Y258093D01*
X278171Y258064D01*
X278221Y258044D01*
X278267Y258031D01*
X278306Y258024D01*
X278339Y258021D01*
X278352Y258018D01*
X278368D01*
X278434Y258021D01*
X278493Y258034D01*
X278545Y258054D01*
X278588Y258073D01*
X278624Y258093D01*
X278650Y258113D01*
X278663Y258126D01*
X278670Y258129D01*
X278706Y258175D01*
X278735Y258224D01*
X278755Y258274D01*
X278768Y258319D01*
X278775Y258359D01*
X278778Y258392D01*
X278781Y258405D01*
Y258415D01*
Y258418D01*
Y258421D01*
X278775Y258477D01*
X278762Y258529D01*
X278745Y258575D01*
X278722Y258618D01*
X278703Y258647D01*
X278683Y258674D01*
X278670Y258687D01*
X278667Y258693D01*
X278621Y258733D01*
X278572Y258759D01*
X278522Y258779D01*
X278476Y258795D01*
X278434Y258802D01*
X278401Y258805D01*
X278388Y258808D01*
D02*
G37*
G36*
X278401Y257765D02*
X278339D01*
X278299Y257758D01*
X278227Y257742D01*
X278165Y257719D01*
X278109Y257693D01*
X278066Y257663D01*
X278034Y257640D01*
X278014Y257624D01*
X278007Y257621D01*
Y257617D01*
X277981Y257591D01*
X277958Y257562D01*
X277922Y257499D01*
X277896Y257437D01*
X277879Y257378D01*
X277866Y257326D01*
X277863Y257303D01*
Y257286D01*
X277860Y257270D01*
Y257257D01*
Y257250D01*
Y257247D01*
Y257207D01*
X277866Y257168D01*
X277883Y257099D01*
X277906Y257037D01*
X277932Y256984D01*
X277958Y256942D01*
X277981Y256912D01*
X277997Y256893D01*
X278001Y256889D01*
X278004Y256886D01*
X278030Y256860D01*
X278060Y256840D01*
X278122Y256804D01*
X278185Y256781D01*
X278240Y256761D01*
X278293Y256751D01*
X278316Y256748D01*
X278335D01*
X278348Y256745D01*
X278372D01*
X278424Y256748D01*
X278473Y256755D01*
X278516Y256765D01*
X278558Y256778D01*
X278591Y256791D01*
X278614Y256801D01*
X278631Y256807D01*
X278637Y256811D01*
X278680Y256840D01*
X278719Y256870D01*
X278752Y256902D01*
X278778Y256932D01*
X278798Y256958D01*
X278811Y256981D01*
X278821Y256994D01*
X278824Y257001D01*
X278844Y257047D01*
X278857Y257093D01*
X278870Y257139D01*
X278877Y257178D01*
X278880Y257211D01*
X278883Y257237D01*
Y257253D01*
Y257260D01*
X278880Y257299D01*
X278877Y257339D01*
X278860Y257407D01*
X278837Y257470D01*
X278811Y257522D01*
X278788Y257565D01*
X278765Y257594D01*
X278749Y257614D01*
X278742Y257621D01*
X278716Y257647D01*
X278686Y257670D01*
X278627Y257703D01*
X278565Y257729D01*
X278509Y257749D01*
X278457Y257758D01*
X278437Y257762D01*
X278417D01*
X278401Y257765D01*
D02*
G37*
G36*
X193095Y235265D02*
X193076D01*
X193033Y235262D01*
X193000Y235256D01*
X192987Y235249D01*
X192977Y235246D01*
X192971Y235243D01*
X192967D01*
X192931Y235220D01*
X192898Y235197D01*
X192879Y235177D01*
X192876Y235170D01*
X192872Y235167D01*
X192853Y235138D01*
X192833Y235108D01*
X192803Y235046D01*
X192794Y235016D01*
X192787Y234993D01*
X192780Y234980D01*
Y234974D01*
X192771Y234924D01*
X192761Y234872D01*
X192754Y234819D01*
X192751Y234767D01*
X192748Y234724D01*
Y234688D01*
Y234675D01*
Y234665D01*
Y234659D01*
Y234655D01*
Y234613D01*
Y234583D01*
X192751Y234563D01*
Y234557D01*
X192754Y234534D01*
Y234521D01*
Y234511D01*
Y234508D01*
X192790Y234495D01*
X192826Y234482D01*
X192843Y234475D01*
X192856Y234472D01*
X192866Y234468D01*
X192869D01*
X192918Y234459D01*
X192961Y234455D01*
X192981Y234452D01*
X193003D01*
X193059Y234455D01*
X193082Y234459D01*
X193105Y234462D01*
X193122D01*
X193135Y234465D01*
X193145Y234468D01*
X193148D01*
X193194Y234485D01*
X193230Y234505D01*
X193243Y234514D01*
X193253Y234521D01*
X193259Y234524D01*
X193263Y234527D01*
X193299Y234567D01*
X193322Y234603D01*
X193332Y234619D01*
X193338Y234632D01*
X193345Y234642D01*
Y234646D01*
X193354Y234675D01*
X193361Y234708D01*
X193364Y234737D01*
X193368Y234770D01*
X193371Y234796D01*
Y234816D01*
Y234829D01*
Y234836D01*
Y234875D01*
X193368Y234911D01*
X193361Y234947D01*
X193358Y234974D01*
X193351Y235000D01*
X193348Y235016D01*
X193345Y235029D01*
Y235033D01*
X193332Y235065D01*
X193322Y235092D01*
X193308Y235115D01*
X193299Y235134D01*
X193289Y235147D01*
X193282Y235157D01*
X193279Y235164D01*
X193276Y235167D01*
X193243Y235200D01*
X193210Y235226D01*
X193197Y235233D01*
X193191Y235239D01*
X193184Y235243D01*
X193181D01*
X193141Y235256D01*
X193108Y235262D01*
X193095Y235265D01*
D02*
G37*
G36*
X193056Y246871D02*
X193036D01*
X192987Y246867D01*
X192945Y246857D01*
X192908Y246848D01*
X192876Y246834D01*
X192853Y246818D01*
X192833Y246808D01*
X192823Y246798D01*
X192820Y246795D01*
X192794Y246766D01*
X192774Y246736D01*
X192757Y246703D01*
X192748Y246674D01*
X192741Y246648D01*
X192738Y246624D01*
Y246611D01*
Y246605D01*
Y246569D01*
X192741Y246536D01*
X192748Y246507D01*
X192751Y246480D01*
X192757Y246461D01*
X192764Y246444D01*
X192767Y246434D01*
Y246431D01*
X192794Y246375D01*
X192810Y246349D01*
X192823Y246323D01*
X192836Y246303D01*
X192849Y246287D01*
X192856Y246277D01*
X192859Y246274D01*
X192895Y246287D01*
X192928Y246300D01*
X192954Y246310D01*
X192981Y246320D01*
X192997Y246326D01*
X193013Y246333D01*
X193020Y246336D01*
X193023D01*
X193066Y246356D01*
X193099Y246369D01*
X193112Y246375D01*
X193118Y246378D01*
X193125Y246382D01*
X193128D01*
X193164Y246402D01*
X193194Y246421D01*
X193220Y246438D01*
X193243Y246454D01*
X193259Y246470D01*
X193269Y246480D01*
X193276Y246487D01*
X193279Y246490D01*
X193295Y246513D01*
X193305Y246539D01*
X193318Y246588D01*
X193322Y246611D01*
X193325Y246628D01*
Y246641D01*
Y246644D01*
X193322Y246677D01*
X193312Y246710D01*
X193299Y246736D01*
X193286Y246759D01*
X193272Y246779D01*
X193259Y246792D01*
X193249Y246802D01*
X193246Y246805D01*
X193213Y246828D01*
X193177Y246844D01*
X193145Y246854D01*
X193112Y246864D01*
X193082Y246867D01*
X193056Y246871D01*
D02*
G37*
G36*
X193240Y245919D02*
X193187Y245900D01*
X193138Y245880D01*
X193115Y245870D01*
X193099Y245864D01*
X193089Y245860D01*
X193086Y245857D01*
X193053Y245844D01*
X193026Y245834D01*
X193003Y245824D01*
X192984Y245818D01*
X192971Y245811D01*
X192961Y245805D01*
X192954Y245801D01*
X192951D01*
X192895Y245775D01*
X192849Y245749D01*
X192813Y245726D01*
X192787Y245703D01*
X192764Y245687D01*
X192751Y245673D01*
X192744Y245667D01*
X192741Y245663D01*
X192725Y245637D01*
X192712Y245608D01*
X192702Y245578D01*
X192695Y245549D01*
X192692Y245522D01*
X192689Y245503D01*
Y245490D01*
Y245483D01*
Y245454D01*
X192695Y245427D01*
X192699Y245404D01*
X192705Y245388D01*
X192712Y245372D01*
X192715Y245362D01*
X192721Y245355D01*
Y245352D01*
X192748Y245316D01*
X192774Y245290D01*
X192794Y245270D01*
X192800Y245267D01*
X192803Y245263D01*
X192840Y245244D01*
X192876Y245231D01*
X192889Y245224D01*
X192902Y245221D01*
X192908Y245217D01*
X192912D01*
X192954Y245211D01*
X192987Y245208D01*
X193000Y245204D01*
X193017D01*
X193079Y245208D01*
X193131Y245221D01*
X193177Y245237D01*
X193217Y245253D01*
X193249Y245273D01*
X193272Y245286D01*
X193286Y245299D01*
X193292Y245303D01*
X193328Y245342D01*
X193351Y245385D01*
X193371Y245431D01*
X193384Y245470D01*
X193391Y245509D01*
X193394Y245539D01*
X193397Y245559D01*
Y245562D01*
Y245565D01*
X193394Y245604D01*
X193391Y245644D01*
X193384Y245677D01*
X193374Y245706D01*
X193364Y245732D01*
X193358Y245749D01*
X193354Y245762D01*
X193351Y245765D01*
X193332Y245798D01*
X193312Y245828D01*
X193295Y245854D01*
X193276Y245877D01*
X193263Y245896D01*
X193249Y245910D01*
X193243Y245916D01*
X193240Y245919D01*
D02*
G37*
G36*
X192927Y319507D02*
Y318701D01*
X193527D01*
X192927Y319507D01*
D02*
G37*
G36*
X218175Y249072D02*
X218152D01*
X218099Y249068D01*
X218073Y249065D01*
X218054Y249062D01*
X218037Y249059D01*
X218021Y249055D01*
X218014Y249052D01*
X218011D01*
X217965Y249036D01*
X217926Y249016D01*
X217913Y249006D01*
X217903Y249000D01*
X217896Y248996D01*
X217893Y248993D01*
X217857Y248954D01*
X217830Y248914D01*
X217824Y248898D01*
X217817Y248885D01*
X217811Y248875D01*
Y248872D01*
X217801Y248842D01*
X217794Y248813D01*
X217788Y248780D01*
X217785Y248750D01*
X217781Y248724D01*
Y248705D01*
Y248691D01*
Y248685D01*
Y248636D01*
X217785Y248593D01*
X217788Y248560D01*
X217794Y248531D01*
X217798Y248508D01*
X217804Y248491D01*
X217808Y248481D01*
Y248478D01*
X217827Y248432D01*
X217850Y248393D01*
X217860Y248376D01*
X217870Y248367D01*
X217873Y248360D01*
X217876Y248357D01*
X217909Y248324D01*
X217939Y248301D01*
X217952Y248294D01*
X217962Y248288D01*
X217968Y248285D01*
X217971D01*
X218011Y248271D01*
X218044Y248265D01*
X218057Y248262D01*
X218073D01*
X218116Y248265D01*
X218152Y248271D01*
X218168Y248275D01*
X218178Y248278D01*
X218185Y248281D01*
X218188D01*
X218224Y248304D01*
X218254Y248327D01*
X218273Y248347D01*
X218277Y248354D01*
X218280Y248357D01*
X218300Y248383D01*
X218319Y248412D01*
X218345Y248472D01*
X218358Y248498D01*
X218365Y248521D01*
X218368Y248534D01*
X218372Y248540D01*
X218382Y248590D01*
X218391Y248645D01*
X218398Y248698D01*
X218401Y248750D01*
Y248796D01*
X218405Y248836D01*
Y248849D01*
Y248859D01*
Y248865D01*
Y248868D01*
Y248908D01*
Y248934D01*
Y248954D01*
Y248960D01*
Y248987D01*
Y249003D01*
Y249013D01*
Y249016D01*
X218358Y249032D01*
X218319Y249046D01*
X218303Y249049D01*
X218290Y249052D01*
X218283Y249055D01*
X218280D01*
X218231Y249065D01*
X218191Y249068D01*
X218175Y249072D01*
D02*
G37*
G36*
X111564Y241130D02*
X110921D01*
Y240864D01*
X110924Y240838D01*
Y240792D01*
X110927Y240779D01*
Y240766D01*
X110934Y240716D01*
X110947Y240677D01*
X110951Y240661D01*
X110957Y240651D01*
X110960Y240644D01*
Y240641D01*
X110973Y240615D01*
X110990Y240592D01*
X111006Y240572D01*
X111023Y240556D01*
X111036Y240543D01*
X111049Y240536D01*
X111055Y240529D01*
X111059D01*
X111085Y240516D01*
X111111Y240510D01*
X111160Y240496D01*
X111180D01*
X111196Y240493D01*
X111210D01*
X111213D01*
X111249D01*
X111282Y240496D01*
X111308Y240503D01*
X111334Y240506D01*
X111351Y240513D01*
X111367Y240519D01*
X111374Y240523D01*
X111377D01*
X111419Y240546D01*
X111456Y240575D01*
X111469Y240588D01*
X111475Y240598D01*
X111482Y240605D01*
X111485Y240608D01*
X111515Y240654D01*
X111538Y240703D01*
X111544Y240723D01*
X111547Y240739D01*
X111551Y240749D01*
Y240752D01*
X111554Y240785D01*
X111557Y240821D01*
X111560Y240857D01*
Y240890D01*
X111564Y240920D01*
Y241130D01*
D02*
G37*
G36*
X111085Y236774D02*
X111072D01*
X111068D01*
X111036Y236771D01*
X111003Y236761D01*
X110977Y236748D01*
X110954Y236734D01*
X110934Y236721D01*
X110921Y236708D01*
X110911Y236698D01*
X110908Y236695D01*
X110885Y236662D01*
X110869Y236626D01*
X110859Y236593D01*
X110849Y236561D01*
X110845Y236531D01*
X110842Y236505D01*
Y236485D01*
X110845Y236436D01*
X110855Y236393D01*
X110865Y236357D01*
X110878Y236324D01*
X110895Y236301D01*
X110905Y236282D01*
X110914Y236272D01*
X110918Y236269D01*
X110947Y236242D01*
X110977Y236223D01*
X111010Y236206D01*
X111039Y236196D01*
X111065Y236190D01*
X111088Y236187D01*
X111101D01*
X111108D01*
X111144D01*
X111177Y236190D01*
X111206Y236196D01*
X111232Y236200D01*
X111252Y236206D01*
X111269Y236213D01*
X111278Y236216D01*
X111282D01*
X111337Y236242D01*
X111364Y236259D01*
X111390Y236272D01*
X111410Y236285D01*
X111426Y236298D01*
X111436Y236305D01*
X111439Y236308D01*
X111426Y236344D01*
X111413Y236377D01*
X111403Y236403D01*
X111393Y236429D01*
X111387Y236446D01*
X111380Y236462D01*
X111377Y236469D01*
Y236472D01*
X111357Y236515D01*
X111344Y236547D01*
X111337Y236561D01*
X111334Y236567D01*
X111331Y236574D01*
Y236577D01*
X111311Y236613D01*
X111292Y236643D01*
X111275Y236669D01*
X111259Y236692D01*
X111242Y236708D01*
X111232Y236718D01*
X111226Y236724D01*
X111223Y236728D01*
X111200Y236744D01*
X111173Y236754D01*
X111124Y236767D01*
X111101Y236771D01*
X111085Y236774D01*
D02*
G37*
G36*
X112154Y236846D02*
X112151D01*
X112148D01*
X112108Y236843D01*
X112069Y236839D01*
X112036Y236833D01*
X112007Y236823D01*
X111980Y236813D01*
X111964Y236807D01*
X111951Y236803D01*
X111948Y236800D01*
X111915Y236780D01*
X111885Y236761D01*
X111859Y236744D01*
X111836Y236724D01*
X111816Y236711D01*
X111803Y236698D01*
X111797Y236692D01*
X111793Y236688D01*
X111813Y236636D01*
X111833Y236587D01*
X111843Y236564D01*
X111849Y236547D01*
X111852Y236538D01*
X111856Y236534D01*
X111869Y236502D01*
X111879Y236475D01*
X111889Y236452D01*
X111895Y236433D01*
X111902Y236420D01*
X111908Y236410D01*
X111911Y236403D01*
Y236400D01*
X111938Y236344D01*
X111964Y236298D01*
X111987Y236262D01*
X112010Y236236D01*
X112026Y236213D01*
X112039Y236200D01*
X112046Y236193D01*
X112049Y236190D01*
X112075Y236174D01*
X112105Y236160D01*
X112135Y236151D01*
X112164Y236144D01*
X112190Y236141D01*
X112210Y236137D01*
X112223D01*
X112230D01*
X112259D01*
X112285Y236144D01*
X112308Y236147D01*
X112325Y236154D01*
X112341Y236160D01*
X112351Y236164D01*
X112358Y236170D01*
X112361D01*
X112397Y236196D01*
X112423Y236223D01*
X112443Y236242D01*
X112446Y236249D01*
X112449Y236252D01*
X112469Y236288D01*
X112482Y236324D01*
X112489Y236337D01*
X112492Y236351D01*
X112495Y236357D01*
Y236361D01*
X112502Y236403D01*
X112505Y236436D01*
X112508Y236449D01*
Y236465D01*
X112505Y236528D01*
X112492Y236580D01*
X112476Y236626D01*
X112459Y236666D01*
X112440Y236698D01*
X112426Y236721D01*
X112413Y236734D01*
X112410Y236741D01*
X112371Y236777D01*
X112328Y236800D01*
X112282Y236820D01*
X112243Y236833D01*
X112203Y236839D01*
X112174Y236843D01*
X112154Y236846D01*
D02*
G37*
G36*
X153034Y236130D02*
X152391D01*
Y235864D01*
X152395Y235838D01*
Y235792D01*
X152398Y235779D01*
Y235766D01*
X152404Y235716D01*
X152418Y235677D01*
X152421Y235661D01*
X152427Y235651D01*
X152431Y235644D01*
Y235641D01*
X152444Y235615D01*
X152460Y235592D01*
X152477Y235572D01*
X152493Y235556D01*
X152506Y235542D01*
X152519Y235536D01*
X152526Y235529D01*
X152529D01*
X152555Y235516D01*
X152582Y235510D01*
X152631Y235496D01*
X152650D01*
X152667Y235493D01*
X152680D01*
X152683D01*
X152719D01*
X152752Y235496D01*
X152778Y235503D01*
X152805Y235506D01*
X152821Y235513D01*
X152838Y235520D01*
X152844Y235523D01*
X152847D01*
X152890Y235546D01*
X152926Y235575D01*
X152939Y235588D01*
X152946Y235598D01*
X152952Y235605D01*
X152956Y235608D01*
X152985Y235654D01*
X153008Y235703D01*
X153015Y235723D01*
X153018Y235739D01*
X153021Y235749D01*
Y235752D01*
X153024Y235785D01*
X153028Y235821D01*
X153031Y235857D01*
Y235890D01*
X153034Y235920D01*
Y236130D01*
D02*
G37*
G36*
X153352Y232013D02*
X152546Y231413D01*
X153352D01*
Y232013D01*
D02*
G37*
%LPD*%
D15*
X322331Y382736D02*
Y387264D01*
X313669Y382736D02*
X322331D01*
X313669D02*
Y387264D01*
X322331D01*
X140612Y302582D02*
Y311661D01*
X136282D02*
X140612D01*
X136282Y302582D02*
Y311661D01*
Y302582D02*
X140612D01*
X146409Y314768D02*
Y319098D01*
X155489D01*
Y314768D02*
Y319098D01*
X146409Y314768D02*
X155489D01*
X172997Y275110D02*
Y284190D01*
Y275110D02*
X177327D01*
Y284190D01*
X172997D02*
X177327D01*
X143021Y278319D02*
Y282649D01*
X152101D01*
Y278319D02*
Y282649D01*
X143021Y278319D02*
X152101D01*
X172540Y321635D02*
Y325965D01*
X163460Y321635D02*
X172540D01*
X163460D02*
Y325965D01*
X172540D01*
X192449Y299543D02*
X203914D01*
Y305103D01*
X192449D02*
X203914D01*
X192449Y299543D02*
Y305103D01*
X275985Y244640D02*
Y250200D01*
X287450D01*
Y244640D02*
Y250200D01*
X275985Y244640D02*
X287450D01*
X277177Y258655D02*
X286257D01*
X277177Y254324D02*
Y258655D01*
Y254324D02*
X286257D01*
Y258655D01*
X192892Y236450D02*
X203546D01*
X192892Y229954D02*
Y236450D01*
Y229954D02*
X203546D01*
Y236450D01*
X192892Y248046D02*
X203546D01*
X192892Y241550D02*
Y248046D01*
Y241550D02*
X203546D01*
Y248046D01*
X193641Y319843D02*
X202721D01*
X193641Y315512D02*
Y319843D01*
Y315512D02*
X202721D01*
Y319843D01*
X193195Y297800D02*
X202275D01*
X193195Y293469D02*
Y297800D01*
Y293469D02*
X202275D01*
Y297800D01*
X226546Y226697D02*
Y233193D01*
X215892Y226697D02*
X226546D01*
X215892D02*
Y233193D01*
X226546D01*
Y244610D02*
Y251106D01*
X215892Y244610D02*
X226546D01*
X215892D02*
Y251106D01*
X226546D01*
X110750Y247235D02*
X115080D01*
Y236211D02*
Y247235D01*
X110750Y236211D02*
X115080D01*
X110750D02*
Y247235D01*
X152171Y242235D02*
X156502D01*
Y231211D02*
Y242235D01*
X152171Y231211D02*
X156502D01*
X152171D02*
Y242235D01*
X139131Y249850D02*
Y254181D01*
X148211D01*
Y249850D02*
Y254181D01*
X139131Y249850D02*
X148211D01*
M02*
