G04*
G04 #@! TF.GenerationSoftware,Altium Limited,Altium Designer,24.2.2 (26)*
G04*
G04 Layer_Color=0*
%FSLAX25Y25*%
%MOIN*%
G70*
G04*
G04 #@! TF.SameCoordinates,57EBE310-F326-475D-97A3-4CF97A274748*
G04*
G04*
G04 #@! TF.FilePolarity,Positive*
G04*
G01*
G75*
%ADD10C,0.00394*%
D10*
X154861Y276645D02*
X158799D01*
X156830Y274677D02*
Y278614D01*
X112915Y239755D02*
Y243692D01*
X110947Y241723D02*
X114884D01*
X154336Y234655D02*
Y238592D01*
X152368Y236623D02*
X156305D01*
X129419Y329432D02*
Y333368D01*
X127451Y331400D02*
X131388D01*
X186965Y226532D02*
Y230469D01*
X184996Y228500D02*
X188933D01*
X176000Y222475D02*
Y226412D01*
X174031Y224444D02*
X177969D01*
X174031Y245000D02*
X177969D01*
X176000Y243032D02*
Y246969D01*
X174031Y232728D02*
X177969D01*
X176000Y230760D02*
Y234697D01*
X186965Y247107D02*
Y251044D01*
X184996Y249075D02*
X188933D01*
X207732Y390914D02*
Y394851D01*
X205764Y392883D02*
X209701D01*
X176495Y377990D02*
Y381927D01*
X174526Y379958D02*
X178463D01*
X188369Y375496D02*
Y379433D01*
X186401Y377465D02*
X190338D01*
X114421Y312032D02*
Y315968D01*
X112453Y314000D02*
X116390D01*
X112110Y277500D02*
X116047D01*
X114079Y275532D02*
Y279468D01*
X174031Y253285D02*
X177969D01*
X176000Y251316D02*
Y255253D01*
M02*
