G04*
G04 #@! TF.GenerationSoftware,Altium Limited,Altium Designer,24.2.2 (26)*
G04*
G04 Layer_Color=32768*
%FSLAX25Y25*%
%MOIN*%
G70*
G04*
G04 #@! TF.SameCoordinates,57EBE310-F326-475D-97A3-4CF97A274748*
G04*
G04*
G04 #@! TF.FilePolarity,Positive*
G04*
G01*
G75*
%ADD15C,0.00787*%
D15*
X154050Y270913D02*
X159610D01*
Y282378D01*
X154050D02*
X159610D01*
X154050Y270913D02*
Y282378D01*
X110750Y236211D02*
Y247235D01*
X115080D01*
Y236211D02*
Y247235D01*
X110750Y236211D02*
X115080D01*
X152171Y231111D02*
Y242135D01*
X156502D01*
Y231111D02*
Y242135D01*
X152171Y231111D02*
X156502D01*
X135152Y328620D02*
Y334180D01*
X123687D02*
X135152D01*
X123687Y328620D02*
Y334180D01*
Y328620D02*
X135152D01*
X183717Y222890D02*
Y234110D01*
X190213D01*
Y222890D02*
Y234110D01*
X183717Y222890D02*
X190213D01*
X170095Y222278D02*
Y226609D01*
Y222278D02*
X181905D01*
Y226609D01*
X170095D02*
X181905D01*
X170095Y247165D02*
X181905D01*
Y242835D02*
Y247165D01*
X170095Y242835D02*
X181905D01*
X170095D02*
Y247165D01*
Y234894D02*
X181905D01*
Y230563D02*
Y234894D01*
X170095Y230563D02*
X181905D01*
X170095D02*
Y234894D01*
X190213Y243465D02*
Y254686D01*
X183717Y243465D02*
X190213D01*
X183717D02*
Y254686D01*
X190213D01*
X210094Y388343D02*
Y397423D01*
X205370Y388343D02*
X210094D01*
X205370D02*
Y397423D01*
X210094D01*
X171463Y371481D02*
Y388435D01*
X181527D01*
Y371481D02*
Y388435D01*
X171463Y371481D02*
X181527D01*
X191149Y371732D02*
Y383197D01*
X185590Y371732D02*
X191149D01*
X185590D02*
Y383197D01*
X191149D01*
X106272Y301795D02*
Y326205D01*
X122571D01*
Y301795D02*
Y326205D01*
X106272Y301795D02*
X122571D01*
X105929Y289705D02*
X122228D01*
X105929Y265295D02*
Y289705D01*
Y265295D02*
X122228D01*
Y289705D01*
X170095Y255450D02*
X181905D01*
Y251119D02*
Y255450D01*
X170095Y251119D02*
X181905D01*
X170095D02*
Y255450D01*
M02*
