G04*
G04 #@! TF.GenerationSoftware,Altium Limited,Altium Designer,24.2.2 (26)*
G04*
G04 Layer_Color=8421504*
%FSLAX25Y25*%
%MOIN*%
G70*
G04*
G04 #@! TF.SameCoordinates,57EBE310-F326-475D-97A3-4CF97A274748*
G04*
G04*
G04 #@! TF.FilePolarity,Positive*
G04*
G01*
G75*
%ADD19R,0.04520X0.05158*%
%ADD20R,0.05250X0.01700*%
%ADD21R,0.10827X0.07874*%
%ADD22R,0.05512X0.01378*%
%ADD23R,0.03591X0.03772*%
%ADD24R,0.03150X0.03543*%
%ADD25R,0.02756X0.02756*%
G04:AMPARAMS|DCode=26|XSize=21.65mil|YSize=49.21mil|CornerRadius=1.95mil|HoleSize=0mil|Usage=FLASHONLY|Rotation=90.000|XOffset=0mil|YOffset=0mil|HoleType=Round|Shape=RoundedRectangle|*
%AMROUNDEDRECTD26*
21,1,0.02165,0.04532,0,0,90.0*
21,1,0.01776,0.04921,0,0,90.0*
1,1,0.00390,0.02266,0.00888*
1,1,0.00390,0.02266,-0.00888*
1,1,0.00390,-0.02266,-0.00888*
1,1,0.00390,-0.02266,0.00888*
%
%ADD26ROUNDEDRECTD26*%
%ADD27R,0.00800X0.05500*%
%ADD28R,0.03200X0.01000*%
%ADD29R,0.03600X0.01000*%
%ADD30R,0.03772X0.03591*%
%ADD31R,0.02362X0.03150*%
%ADD32R,0.05800X0.01400*%
%ADD33R,0.04134X0.03150*%
%ADD34R,0.03937X0.03543*%
G04:AMPARAMS|DCode=35|XSize=9.84mil|YSize=23.62mil|CornerRadius=1.97mil|HoleSize=0mil|Usage=FLASHONLY|Rotation=270.000|XOffset=0mil|YOffset=0mil|HoleType=Round|Shape=RoundedRectangle|*
%AMROUNDEDRECTD35*
21,1,0.00984,0.01968,0,0,270.0*
21,1,0.00591,0.02362,0,0,270.0*
1,1,0.00394,-0.00984,-0.00295*
1,1,0.00394,-0.00984,0.00295*
1,1,0.00394,0.00984,0.00295*
1,1,0.00394,0.00984,-0.00295*
%
%ADD35ROUNDEDRECTD35*%
%ADD36R,0.03568X0.03367*%
%ADD37R,0.06127X0.05727*%
%ADD38R,0.03740X0.03150*%
%ADD39R,0.02300X0.01200*%
G36*
X110653Y272972D02*
X117347D01*
X117347Y271024D01*
X117374Y270941D01*
X117468Y270795D01*
X117606Y270689D01*
X117771Y270635D01*
X117858Y270630D01*
X117858Y270630D01*
X121756D01*
Y268622D01*
X117858Y268622D01*
X117758Y268612D01*
X117574Y268536D01*
X117433Y268395D01*
X117356Y268210D01*
X117347Y268110D01*
D01*
Y266280D01*
X110653D01*
Y272972D01*
D02*
G37*
G36*
X117347Y280847D02*
X110653D01*
Y278898D01*
X110626Y278815D01*
X110532Y278669D01*
X110394Y278563D01*
X110229Y278509D01*
X110142Y278504D01*
Y278504D01*
X106244Y278504D01*
Y276496D01*
X110142Y276496D01*
X110242Y276486D01*
X110426Y276410D01*
X110567Y276269D01*
X110644Y276084D01*
X110653Y275984D01*
X110653Y275984D01*
Y274153D01*
X117347D01*
Y280847D01*
D02*
G37*
G36*
X110653Y288720D02*
X117347D01*
X117347Y286772D01*
X117374Y286689D01*
X117468Y286543D01*
X117606Y286437D01*
X117771Y286383D01*
X117858Y286378D01*
X117858Y286378D01*
X121756D01*
Y284370D01*
X117858Y284370D01*
X117758Y284360D01*
X117574Y284284D01*
X117433Y284143D01*
X117356Y283958D01*
X117347Y283858D01*
D01*
Y282028D01*
X110653D01*
Y288720D01*
D02*
G37*
G36*
X117847Y302780D02*
X111153D01*
Y304728D01*
X111126Y304811D01*
X111032Y304957D01*
X110894Y305063D01*
X110729Y305117D01*
X110642Y305122D01*
D01*
X106744D01*
Y307130D01*
X110642D01*
X110742Y307140D01*
X110926Y307216D01*
X111067Y307357D01*
X111144Y307542D01*
X111153Y307642D01*
X111153Y307642D01*
Y309472D01*
X117847D01*
Y302780D01*
D02*
G37*
G36*
X111153Y310653D02*
X117847D01*
X117847Y312602D01*
X117874Y312685D01*
X117968Y312831D01*
X118106Y312937D01*
X118271Y312991D01*
X118358Y312996D01*
X118358D01*
X122256Y312996D01*
Y315004D01*
X118358D01*
X118258Y315014D01*
X118074Y315090D01*
X117933Y315231D01*
X117856Y315416D01*
X117847Y315516D01*
D01*
Y317347D01*
X111153D01*
Y310653D01*
D02*
G37*
G36*
X117847Y318528D02*
X111153D01*
Y320476D01*
X111126Y320559D01*
X111032Y320705D01*
X110894Y320811D01*
X110729Y320865D01*
X110642Y320870D01*
D01*
X106744D01*
Y322878D01*
X110642D01*
X110742Y322888D01*
X110926Y322964D01*
X111067Y323105D01*
X111144Y323290D01*
X111153Y323390D01*
X111153Y323390D01*
Y325220D01*
X117847D01*
Y318528D01*
D02*
G37*
D19*
X140815Y310024D02*
D03*
X146122D02*
D03*
Y315968D02*
D03*
X140815D02*
D03*
D20*
X130111Y272807D02*
D03*
X147561Y280484D02*
D03*
Y277925D02*
D03*
Y275366D02*
D03*
Y272807D02*
D03*
X130111Y275366D02*
D03*
Y277925D02*
D03*
Y280484D02*
D03*
D21*
X329996Y274800D02*
D03*
Y284800D02*
D03*
Y294800D02*
D03*
Y304800D02*
D03*
Y314800D02*
D03*
Y324800D02*
D03*
Y334800D02*
D03*
Y344800D02*
D03*
Y354800D02*
D03*
Y364800D02*
D03*
Y374800D02*
D03*
Y384800D02*
D03*
Y394800D02*
D03*
X267004Y274800D02*
D03*
Y284800D02*
D03*
Y294800D02*
D03*
Y304800D02*
D03*
Y314800D02*
D03*
Y324800D02*
D03*
Y334800D02*
D03*
Y344800D02*
D03*
Y354800D02*
D03*
Y364800D02*
D03*
Y374800D02*
D03*
Y384800D02*
D03*
Y394800D02*
D03*
D22*
X220819Y317677D02*
D03*
X198181Y302323D02*
D03*
X220819D02*
D03*
Y304882D02*
D03*
Y307441D02*
D03*
Y310000D02*
D03*
Y312559D02*
D03*
Y315118D02*
D03*
X198181Y304882D02*
D03*
Y307441D02*
D03*
Y310000D02*
D03*
Y312559D02*
D03*
Y315118D02*
D03*
Y317677D02*
D03*
D23*
X156830Y279508D02*
D03*
Y273783D02*
D03*
X188369Y380327D02*
D03*
Y374603D02*
D03*
D24*
X112915Y238377D02*
D03*
Y245070D02*
D03*
X154336Y233277D02*
D03*
Y239970D02*
D03*
D25*
X301506Y257824D02*
D03*
X296781D02*
D03*
X292057D02*
D03*
X301506Y235776D02*
D03*
X296781D02*
D03*
X292057D02*
D03*
X287332D02*
D03*
X282608D02*
D03*
X287332Y257824D02*
D03*
X280639Y253887D02*
D03*
Y249162D02*
D03*
Y244438D02*
D03*
Y239713D02*
D03*
X306230Y257824D02*
D03*
X292057Y249162D02*
D03*
X287332D02*
D03*
Y244438D02*
D03*
X282608Y257824D02*
D03*
X292057Y244438D02*
D03*
D26*
X143671Y244223D02*
D03*
X123002D02*
D03*
Y239223D02*
D03*
Y234223D02*
D03*
X143671Y239223D02*
D03*
Y234223D02*
D03*
Y229223D02*
D03*
X123002D02*
D03*
D27*
X183038Y279650D02*
D03*
X181069D02*
D03*
X179100D02*
D03*
X175162D02*
D03*
Y286750D02*
D03*
X177131D02*
D03*
X179100D02*
D03*
X181069D02*
D03*
X183038D02*
D03*
X177131Y279650D02*
D03*
D28*
X175181Y314429D02*
D03*
Y312461D02*
D03*
Y310492D02*
D03*
Y308524D02*
D03*
X168094Y312461D02*
D03*
Y308524D02*
D03*
Y310492D02*
D03*
D29*
X168294Y314429D02*
D03*
D30*
X126557Y331400D02*
D03*
X132281D02*
D03*
D31*
X229574Y242303D02*
D03*
X234692D02*
D03*
Y247832D02*
D03*
X229574D02*
D03*
D32*
X222000Y245398D02*
D03*
X199000Y237720D02*
D03*
Y240280D02*
D03*
X222000Y247957D02*
D03*
Y242839D02*
D03*
Y240280D02*
D03*
Y237720D02*
D03*
Y235161D02*
D03*
Y232602D02*
D03*
Y230043D02*
D03*
X199000D02*
D03*
Y232602D02*
D03*
Y235161D02*
D03*
Y242839D02*
D03*
Y245398D02*
D03*
Y247957D02*
D03*
D33*
X186965Y224858D02*
D03*
Y232142D02*
D03*
Y252717D02*
D03*
Y245434D02*
D03*
D34*
X179543Y224444D02*
D03*
X172457D02*
D03*
X179543Y245000D02*
D03*
X172457D02*
D03*
X179543Y232728D02*
D03*
X172457D02*
D03*
Y253285D02*
D03*
X179543D02*
D03*
D35*
X150949Y309059D02*
D03*
Y311028D02*
D03*
Y312996D02*
D03*
Y314965D02*
D03*
Y316933D02*
D03*
X135988Y307090D02*
D03*
Y309059D02*
D03*
Y311028D02*
D03*
Y312996D02*
D03*
Y314965D02*
D03*
Y316933D02*
D03*
Y318902D02*
D03*
X150949D02*
D03*
Y307090D02*
D03*
D36*
X207732Y395345D02*
D03*
Y390420D02*
D03*
D37*
X176495Y376313D02*
D03*
Y383603D02*
D03*
D38*
X197133Y380352D02*
D03*
Y375431D02*
D03*
D39*
X195983Y395345D02*
D03*
Y392983D02*
D03*
Y390621D02*
D03*
Y388259D02*
D03*
X191083D02*
D03*
Y390621D02*
D03*
Y392983D02*
D03*
Y395345D02*
D03*
M02*
