G04*
G04 #@! TF.GenerationSoftware,Altium Limited,Altium Designer,24.2.2 (26)*
G04*
G04 Layer_Physical_Order=1*
G04 Layer_Color=255*
%FSLAX25Y25*%
%MOIN*%
G70*
G04*
G04 #@! TF.SameCoordinates,57EBE310-F326-475D-97A3-4CF97A274748*
G04*
G04*
G04 #@! TF.FilePolarity,Positive*
G04*
G01*
G75*
%ADD18C,0.01000*%
%ADD20R,0.05250X0.01700*%
%ADD21R,0.10827X0.07874*%
%ADD22R,0.05512X0.01378*%
%ADD23R,0.03591X0.03772*%
%ADD24R,0.03150X0.03543*%
%ADD25R,0.02756X0.02756*%
G04:AMPARAMS|DCode=26|XSize=21.65mil|YSize=49.21mil|CornerRadius=1.95mil|HoleSize=0mil|Usage=FLASHONLY|Rotation=90.000|XOffset=0mil|YOffset=0mil|HoleType=Round|Shape=RoundedRectangle|*
%AMROUNDEDRECTD26*
21,1,0.02165,0.04532,0,0,90.0*
21,1,0.01776,0.04921,0,0,90.0*
1,1,0.00390,0.02266,0.00888*
1,1,0.00390,0.02266,-0.00888*
1,1,0.00390,-0.02266,-0.00888*
1,1,0.00390,-0.02266,0.00888*
%
%ADD26ROUNDEDRECTD26*%
%ADD27R,0.00800X0.05500*%
%ADD28R,0.03200X0.01000*%
%ADD29R,0.03600X0.01000*%
%ADD30R,0.03772X0.03591*%
%ADD31R,0.02362X0.03150*%
%ADD32R,0.05800X0.01400*%
%ADD33R,0.04134X0.03150*%
%ADD34R,0.03937X0.03543*%
G04:AMPARAMS|DCode=35|XSize=9.84mil|YSize=23.62mil|CornerRadius=1.97mil|HoleSize=0mil|Usage=FLASHONLY|Rotation=270.000|XOffset=0mil|YOffset=0mil|HoleType=Round|Shape=RoundedRectangle|*
%AMROUNDEDRECTD35*
21,1,0.00984,0.01968,0,0,270.0*
21,1,0.00591,0.02362,0,0,270.0*
1,1,0.00394,-0.00984,-0.00295*
1,1,0.00394,-0.00984,0.00295*
1,1,0.00394,0.00984,0.00295*
1,1,0.00394,0.00984,-0.00295*
%
%ADD35ROUNDEDRECTD35*%
%ADD36R,0.03568X0.03367*%
%ADD37R,0.06127X0.05727*%
%ADD38R,0.03740X0.03150*%
%ADD39R,0.02300X0.01200*%
%ADD52R,0.05472X0.05472*%
%ADD53C,0.05472*%
G04:AMPARAMS|DCode=55|XSize=118.11mil|YSize=102.36mil|CornerRadius=2.05mil|HoleSize=0mil|Usage=FLASHONLY|Rotation=270.000|XOffset=0mil|YOffset=0mil|HoleType=Round|Shape=RoundedRectangle|*
%AMROUNDEDRECTD55*
21,1,0.11811,0.09827,0,0,270.0*
21,1,0.11402,0.10236,0,0,270.0*
1,1,0.00409,-0.04913,-0.05701*
1,1,0.00409,-0.04913,0.05701*
1,1,0.00409,0.04913,0.05701*
1,1,0.00409,0.04913,-0.05701*
%
%ADD55ROUNDEDRECTD55*%
%ADD56C,0.01500*%
%ADD57C,0.01400*%
%ADD58C,0.01200*%
%ADD59C,0.01700*%
%ADD60C,0.02000*%
%ADD61C,0.03000*%
G04:AMPARAMS|DCode=62|XSize=80mil|YSize=60mil|CornerRadius=0mil|HoleSize=0mil|Usage=FLASHONLY|Rotation=90.000|XOffset=0mil|YOffset=0mil|HoleType=Round|Shape=Octagon|*
%AMOCTAGOND62*
4,1,8,0.01500,0.04000,-0.01500,0.04000,-0.03000,0.02500,-0.03000,-0.02500,-0.01500,-0.04000,0.01500,-0.04000,0.03000,-0.02500,0.03000,0.02500,0.01500,0.04000,0.0*
%
%ADD62OCTAGOND62*%

G04:AMPARAMS|DCode=63|XSize=80mil|YSize=60mil|CornerRadius=0mil|HoleSize=0mil|Usage=FLASHONLY|Rotation=180.000|XOffset=0mil|YOffset=0mil|HoleType=Round|Shape=Octagon|*
%AMOCTAGOND63*
4,1,8,-0.04000,0.01500,-0.04000,-0.01500,-0.02500,-0.03000,0.02500,-0.03000,0.04000,-0.01500,0.04000,0.01500,0.02500,0.03000,-0.02500,0.03000,-0.04000,0.01500,0.0*
%
%ADD63OCTAGOND63*%

%ADD64C,0.05906*%
%ADD65R,0.05906X0.05906*%
%ADD66C,0.02362*%
G36*
X345500Y372223D02*
X344915Y372107D01*
X344419Y371775D01*
X344087Y371279D01*
X343971Y370694D01*
Y307444D01*
Y271452D01*
X325765Y253247D01*
X299537D01*
X299154Y253089D01*
X298996Y252706D01*
Y239073D01*
X283543D01*
Y254920D01*
X297962D01*
X298345Y255078D01*
X298503Y255461D01*
Y255946D01*
X298659D01*
Y259702D01*
X294903D01*
Y256790D01*
X293935D01*
Y259702D01*
X291887D01*
X291695Y260164D01*
X304747Y273216D01*
X324083D01*
Y270363D01*
X335910D01*
Y279237D01*
X324083D01*
Y276784D01*
X304008D01*
X304008Y276784D01*
X303325Y276648D01*
X302746Y276262D01*
X286187Y259702D01*
X285454D01*
Y259702D01*
X284986Y259779D01*
Y260202D01*
X284292D01*
Y261340D01*
X285154Y262202D01*
Y264586D01*
Y266740D01*
X284419Y266435D01*
X283893Y265909D01*
X283657Y265752D01*
X283657Y265752D01*
X281246Y263341D01*
X280859Y262762D01*
X280724Y262079D01*
Y260202D01*
X280230D01*
Y258324D01*
X282608D01*
Y257324D01*
X280230D01*
Y255765D01*
X278761D01*
Y255671D01*
X276200D01*
X274063Y257808D01*
X273484Y258194D01*
X272802Y258330D01*
X272119Y258194D01*
X271540Y257808D01*
X271153Y257229D01*
X271017Y256546D01*
X271153Y255863D01*
X271338Y255587D01*
X271376Y255494D01*
X271447Y255423D01*
X271540Y255284D01*
X273898Y252927D01*
X274099Y252625D01*
X274678Y252238D01*
X275361Y252103D01*
X278761D01*
Y252009D01*
X281673D01*
Y251040D01*
X278761D01*
Y247284D01*
X281673D01*
Y246316D01*
X278761D01*
Y246222D01*
X272802D01*
X272786Y246219D01*
X272467D01*
X272173Y246097D01*
X272119Y246087D01*
X272073Y246056D01*
X271849Y245963D01*
X271678Y245792D01*
X271540Y245700D01*
X271447Y245561D01*
X271376Y245490D01*
X271338Y245397D01*
X271153Y245121D01*
X271017Y244438D01*
X271153Y243755D01*
X271540Y243176D01*
X272119Y242790D01*
X272802Y242654D01*
X278761D01*
Y242560D01*
X281673D01*
Y241591D01*
X278761D01*
Y241497D01*
X272802D01*
X272119Y241361D01*
X271540Y240975D01*
X271153Y240396D01*
X271017Y239713D01*
X271092Y239339D01*
X270631Y239092D01*
X268788Y240935D01*
Y270363D01*
X272917D01*
Y279237D01*
X261091D01*
Y270363D01*
X265220D01*
Y240196D01*
X265355Y239513D01*
X265742Y238934D01*
X273311Y231365D01*
X273311Y231365D01*
X273890Y230978D01*
X274573Y230842D01*
X290550D01*
X291233Y230978D01*
X291812Y231365D01*
X292691Y232244D01*
X293077Y232823D01*
X293213Y233506D01*
Y233898D01*
X293935D01*
Y237204D01*
X294729D01*
X294863Y236704D01*
X294832Y236659D01*
X294697Y235976D01*
Y235776D01*
X294832Y235093D01*
X294903Y234988D01*
Y233898D01*
X294997D01*
Y231720D01*
X290929Y227653D01*
X273771D01*
X259142Y242282D01*
Y278218D01*
X261175Y280252D01*
X264040D01*
X264600Y280363D01*
X272917D01*
Y289237D01*
X262941D01*
X262750Y289699D01*
X263414Y290363D01*
X272917D01*
Y299237D01*
X262941D01*
X262750Y299699D01*
X263414Y300363D01*
X272917D01*
Y309237D01*
X261091D01*
Y303086D01*
X246738Y288734D01*
X246352Y288155D01*
X246216Y287472D01*
Y240200D01*
X246319Y239681D01*
Y239466D01*
X246575Y238848D01*
X247048Y238375D01*
X247666Y238119D01*
X248334D01*
X248952Y238375D01*
X249425Y238848D01*
X249681Y239466D01*
Y239681D01*
X249784Y240200D01*
Y286733D01*
X260629Y297578D01*
X261091Y297386D01*
Y293086D01*
X251138Y283134D01*
X250751Y282555D01*
X250616Y281872D01*
Y244600D01*
X250751Y243917D01*
X251138Y243338D01*
X251717Y242951D01*
X252400Y242816D01*
X253083Y242951D01*
X253662Y243338D01*
X254048Y243917D01*
X254184Y244600D01*
Y281133D01*
X260629Y287578D01*
X261091Y287386D01*
Y283820D01*
X260436D01*
X260436Y283820D01*
X259753Y283684D01*
X259174Y283297D01*
X259174Y283297D01*
X256096Y280219D01*
X255709Y279640D01*
X255573Y278957D01*
Y241543D01*
X255709Y240860D01*
X256096Y240281D01*
X271770Y224607D01*
X271770Y224607D01*
X272349Y224220D01*
X273032Y224084D01*
X273032Y224084D01*
X291668D01*
X292351Y224220D01*
X292930Y224607D01*
X298043Y229719D01*
X298043Y229719D01*
X298429Y230298D01*
X298496Y230632D01*
X298996Y230582D01*
Y226478D01*
X288866Y216348D01*
X88529D01*
X88529Y335819D01*
X88413Y336404D01*
X88081Y336900D01*
X163500Y412319D01*
X345500D01*
Y372223D01*
D02*
G37*
%LPC*%
G36*
X212884Y402535D02*
X212104Y402380D01*
X211442Y401938D01*
X207074Y397570D01*
X207047Y397529D01*
X205448D01*
Y396977D01*
X191083D01*
X190459Y396853D01*
X189929Y396499D01*
X189894Y396445D01*
X189433D01*
Y394583D01*
X188933D01*
Y393483D01*
X191083D01*
Y392483D01*
X188933D01*
Y391121D01*
X191083D01*
Y390121D01*
X188933D01*
Y389890D01*
X185969D01*
X185345Y389766D01*
X184816Y389412D01*
X182153Y386750D01*
X181799Y386220D01*
X181675Y385596D01*
Y378857D01*
X180520Y377702D01*
X180058Y377893D01*
X180058Y379677D01*
X180532Y379739D01*
X180558D01*
Y383103D01*
X176495D01*
Y383603D01*
X175995D01*
Y387466D01*
X172432D01*
Y386249D01*
X170829D01*
X168809Y388269D01*
X167982Y388821D01*
X167007Y389015D01*
X166031Y388821D01*
X165204Y388269D01*
X164652Y387442D01*
X164458Y386466D01*
X164652Y385491D01*
X165204Y384664D01*
X167971Y381898D01*
X168798Y381345D01*
X169773Y381151D01*
X172432D01*
Y379739D01*
X172458D01*
X172932Y379677D01*
X172932Y379240D01*
Y376234D01*
X169255D01*
X169134Y376284D01*
X168466D01*
X168203Y376175D01*
X167876Y376110D01*
X167347Y375756D01*
X166993Y375227D01*
X166869Y374603D01*
X166993Y373978D01*
X167347Y373449D01*
X167876Y373096D01*
X168203Y373030D01*
X168466Y372922D01*
X169134D01*
X169255Y372971D01*
X172932D01*
Y372950D01*
X174864D01*
Y369551D01*
X174814Y369430D01*
Y368762D01*
X175070Y368144D01*
X175543Y367671D01*
X176161Y367415D01*
X176829D01*
X177447Y367671D01*
X177920Y368144D01*
X178176Y368762D01*
Y369430D01*
X178126Y369551D01*
Y372950D01*
X180058D01*
Y372971D01*
X186074D01*
Y372217D01*
X190665D01*
Y376989D01*
X186074D01*
Y376234D01*
X184320D01*
X184129Y376696D01*
X184460Y377028D01*
X184814Y377557D01*
X184938Y378181D01*
Y384920D01*
X186645Y386628D01*
X191083D01*
X191707Y386752D01*
X192237Y387105D01*
X192272Y387159D01*
X192733D01*
Y388990D01*
X194333D01*
Y387159D01*
X194352D01*
Y382391D01*
X190665D01*
Y382713D01*
X186074D01*
Y377941D01*
X190665D01*
Y378313D01*
X193890D01*
X194263Y378005D01*
X194263Y377813D01*
Y375931D01*
X197133D01*
Y375430D01*
X197633D01*
Y372856D01*
X200003D01*
Y373646D01*
X202100D01*
X202165Y373582D01*
X202900Y373277D01*
Y375431D01*
Y377584D01*
X202165Y377280D01*
X202100Y377215D01*
X200003D01*
Y378005D01*
X199891D01*
X199503Y378277D01*
X199503Y378505D01*
Y382427D01*
X197614D01*
Y387159D01*
X197633D01*
Y388990D01*
X199658D01*
X199946Y388702D01*
X200681Y388398D01*
Y390551D01*
Y392705D01*
X199946Y392400D01*
X199798Y392252D01*
X199571D01*
X198609Y393214D01*
X198816Y393714D01*
X205095D01*
X205176Y393633D01*
X204995Y393107D01*
X204972Y393104D01*
X204948D01*
Y390920D01*
X207732D01*
Y390420D01*
X208232D01*
Y387737D01*
X210516D01*
Y388381D01*
X212108D01*
X212384Y388267D01*
Y390420D01*
Y392574D01*
X212108Y392460D01*
X210516D01*
Y393104D01*
X210492D01*
X210016Y393162D01*
X210016Y393604D01*
Y394674D01*
X210157Y394885D01*
X213729Y398457D01*
X228762D01*
X231929Y395290D01*
Y394087D01*
X230516D01*
Y391338D01*
X230016Y391272D01*
X229778Y392160D01*
X229257Y393061D01*
X228521Y393797D01*
X227620Y394318D01*
X226615Y394587D01*
X226594D01*
Y390634D01*
Y386682D01*
X226615D01*
X227620Y386951D01*
X228521Y387471D01*
X229257Y388207D01*
X229778Y389109D01*
X230016Y389997D01*
X230516Y389931D01*
Y387182D01*
X237421D01*
Y394087D01*
X236008D01*
Y396134D01*
X235852Y396915D01*
X235410Y397576D01*
X231049Y401938D01*
X230387Y402380D01*
X229607Y402535D01*
X212884D01*
X212884Y402535D01*
D02*
G37*
G36*
X225594Y394587D02*
X225574D01*
X224569Y394318D01*
X223667Y393797D01*
X222931Y393061D01*
X222411Y392160D01*
X222142Y391155D01*
Y391134D01*
X225594D01*
Y394587D01*
D02*
G37*
G36*
X201681Y392705D02*
Y391051D01*
X203335D01*
X203030Y391787D01*
X202417Y392400D01*
X201681Y392705D01*
D02*
G37*
G36*
X213384Y392574D02*
Y390920D01*
X215038D01*
X214733Y391656D01*
X214120Y392269D01*
X213384Y392574D01*
D02*
G37*
G36*
X335910Y399237D02*
X324083D01*
Y390363D01*
X335910D01*
Y399237D01*
D02*
G37*
G36*
X272917D02*
X261091D01*
Y390363D01*
X272917D01*
Y399237D01*
D02*
G37*
G36*
X203335Y390051D02*
X201681D01*
Y388398D01*
X202417Y388702D01*
X203030Y389316D01*
X203335Y390051D01*
D02*
G37*
G36*
X215038Y389920D02*
X213384D01*
Y388267D01*
X214120Y388571D01*
X214733Y389185D01*
X215038Y389920D01*
D02*
G37*
G36*
X207232Y389920D02*
X204948D01*
Y387737D01*
X207232D01*
Y389920D01*
D02*
G37*
G36*
X225594Y390134D02*
X222142D01*
Y390114D01*
X222411Y389109D01*
X222931Y388207D01*
X223667Y387471D01*
X224569Y386951D01*
X225574Y386682D01*
X225594D01*
Y390134D01*
D02*
G37*
G36*
X180558Y387466D02*
X176995D01*
Y384103D01*
X180558D01*
Y387466D01*
D02*
G37*
G36*
X272917Y389237D02*
X261091D01*
Y383597D01*
X259813D01*
X259813Y383597D01*
X259130Y383461D01*
X258551Y383075D01*
X258551Y383075D01*
X209490Y334014D01*
X209103Y333435D01*
X208968Y332752D01*
Y320824D01*
X208468Y320617D01*
X208335Y320749D01*
X207600Y321054D01*
Y318900D01*
Y316746D01*
X208335Y317051D01*
X208468Y317183D01*
X208968Y316976D01*
Y311641D01*
X208506Y311449D01*
X207633Y312322D01*
Y313706D01*
X207633Y313707D01*
X207501Y314370D01*
X207126Y314932D01*
X203155Y318903D01*
X202593Y319279D01*
X201929Y319410D01*
X190462D01*
X189936Y319515D01*
X180326Y329126D01*
X180103Y329274D01*
X180052Y329325D01*
X179986Y329353D01*
X179763Y329501D01*
X179501Y329554D01*
X179434Y329581D01*
X179362D01*
X179100Y329633D01*
X178838Y329581D01*
X178766D01*
X178699Y329554D01*
X178437Y329501D01*
X178214Y329353D01*
X178148Y329325D01*
X178097Y329274D01*
X177874Y329126D01*
X177726Y328903D01*
X177675Y328852D01*
X177647Y328786D01*
X177499Y328563D01*
X177446Y328301D01*
X177419Y328234D01*
Y328162D01*
X177367Y327900D01*
X177419Y327638D01*
Y327566D01*
X177446Y327499D01*
X177499Y327237D01*
X177647Y327014D01*
X177675Y326948D01*
X177726Y326897D01*
X177874Y326674D01*
X187982Y316566D01*
X188545Y316191D01*
X189208Y316059D01*
X189423D01*
X189599Y316023D01*
X189666Y315996D01*
X189738D01*
X190000Y315944D01*
X190000Y315944D01*
X194925D01*
Y314292D01*
X191775D01*
X191513Y314240D01*
X191441D01*
X191375Y314213D01*
X191112Y314160D01*
X190890Y314012D01*
X190823Y313984D01*
X190772Y313933D01*
X190550Y313785D01*
X190401Y313562D01*
X190350Y313511D01*
X190323Y313445D01*
X190174Y313222D01*
X190122Y312960D01*
X190094Y312893D01*
Y312822D01*
X190042Y312559D01*
X190094Y312297D01*
Y312225D01*
X190122Y312158D01*
X190147Y312029D01*
X189927Y311643D01*
X189864Y311577D01*
X189338Y311575D01*
X187371Y313542D01*
X186875Y313874D01*
X186289Y313990D01*
X177281D01*
Y315429D01*
X173081D01*
Y311461D01*
Y307524D01*
X174045D01*
X174100Y307442D01*
X174596Y307111D01*
X175181Y306994D01*
X178664D01*
X178948Y306710D01*
Y305449D01*
X178988Y305250D01*
Y304924D01*
X179244Y304306D01*
X179717Y303833D01*
X179798Y303799D01*
X179896Y303309D01*
X178019Y301431D01*
X177687Y300935D01*
X177571Y300350D01*
Y293377D01*
X177109Y293185D01*
X177073Y293221D01*
X176577Y293552D01*
X176196Y293628D01*
X176068Y293756D01*
X175451Y294012D01*
X174782D01*
X174164Y293756D01*
X173691Y293283D01*
X173435Y292665D01*
Y291996D01*
X173691Y291378D01*
X174164Y290905D01*
X174782Y290650D01*
X174990D01*
X175139Y290500D01*
X175106Y290315D01*
X174851Y290000D01*
X174262D01*
Y288534D01*
X170381D01*
X170381Y288534D01*
X169698Y288399D01*
X169119Y288012D01*
X169119Y288012D01*
X164551Y283444D01*
X164165Y282865D01*
X164029Y282182D01*
Y271696D01*
X155617Y263284D01*
X152057D01*
X152003Y263365D01*
X152133Y264044D01*
X152316Y264166D01*
X152725Y264778D01*
X152869Y265500D01*
X152725Y266222D01*
X152316Y266834D01*
X149080Y270070D01*
X148555Y270421D01*
X148604Y270831D01*
X148638Y270921D01*
X149294D01*
X151946Y268269D01*
X152558Y267860D01*
X153279Y267717D01*
X154041D01*
X154330Y267659D01*
X155052Y267803D01*
X155664Y268212D01*
X156073Y268824D01*
X156216Y269546D01*
X156073Y270267D01*
X155664Y270879D01*
X155646Y270897D01*
X155664Y271063D01*
X155817Y271397D01*
X159125D01*
Y276169D01*
X157194D01*
X157034Y276276D01*
X157008Y276801D01*
X157359Y277122D01*
X159125D01*
Y279243D01*
X159136Y279259D01*
X159280Y279980D01*
X159136Y280702D01*
X159125Y280718D01*
Y281894D01*
X158716D01*
Y284415D01*
X158573Y285137D01*
X158164Y285749D01*
X157727Y286185D01*
X157564Y286430D01*
X156952Y286839D01*
X156230Y286982D01*
X155508Y286839D01*
X154896Y286430D01*
X154487Y285818D01*
X154344Y285096D01*
Y285015D01*
X154487Y284293D01*
X154896Y283681D01*
X154944Y283634D01*
Y281894D01*
X154534D01*
Y280095D01*
X154110Y279811D01*
X150686D01*
Y281834D01*
X150345D01*
Y283247D01*
X151448Y284349D01*
X151448Y284349D01*
X151834Y284928D01*
X151970Y285611D01*
X151970Y285611D01*
Y285844D01*
X151834Y286527D01*
X151448Y287106D01*
X150869Y287493D01*
X150186Y287628D01*
X149503Y287493D01*
X148924Y287106D01*
X148538Y286527D01*
X148527Y286475D01*
X147299Y285247D01*
X146913Y284669D01*
X146777Y283986D01*
Y282065D01*
X146432Y281834D01*
X144436D01*
Y277785D01*
X143936Y277577D01*
X134805Y286709D01*
X134193Y287118D01*
X133471Y287261D01*
X128350D01*
X128346Y287260D01*
X117746D01*
X117620Y287891D01*
X117236Y288465D01*
Y288610D01*
X117091D01*
X116517Y288994D01*
X115736Y289149D01*
X114956Y288994D01*
X114381Y288610D01*
X110764D01*
Y282138D01*
X116284D01*
X116491Y281638D01*
X115325Y280472D01*
X115249Y280516D01*
X114426Y280736D01*
X113574D01*
X112751Y280516D01*
X112013Y280090D01*
X111410Y279487D01*
X110984Y278749D01*
X110764Y277926D01*
Y277074D01*
X110984Y276251D01*
X111410Y275513D01*
X112013Y274910D01*
X112751Y274484D01*
X113574Y274264D01*
X114426D01*
X115249Y274484D01*
X115987Y274910D01*
X116590Y275513D01*
X117016Y276251D01*
X117227Y277038D01*
X118786Y278598D01*
X120513D01*
X120704Y278136D01*
X115218Y272650D01*
X114426Y272862D01*
X113574D01*
X112751Y272642D01*
X112013Y272216D01*
X111410Y271613D01*
X110984Y270875D01*
X110764Y270052D01*
Y269200D01*
X110984Y268377D01*
X111410Y267639D01*
X112013Y267036D01*
X112751Y266610D01*
X113574Y266390D01*
X114426D01*
X115249Y266610D01*
X115987Y267036D01*
X116590Y267639D01*
X117016Y268377D01*
X117236Y269200D01*
Y269333D01*
X123942Y276039D01*
X126986D01*
Y274657D01*
X126486D01*
Y273307D01*
X133736D01*
Y273480D01*
X134589D01*
X140666Y267402D01*
X141278Y266993D01*
X142000Y266850D01*
X146965D01*
X149649Y264166D01*
X149832Y264044D01*
X149963Y263365D01*
X149908Y263284D01*
X135096D01*
X134413Y263148D01*
X133834Y262762D01*
X133834Y262762D01*
X128849Y257777D01*
X128463Y257198D01*
X128327Y256515D01*
Y238623D01*
X125792Y236089D01*
X123083D01*
X122400Y235953D01*
X122200Y235820D01*
X120736D01*
X120465Y235766D01*
X120235Y235612D01*
X120081Y235382D01*
X120027Y235111D01*
Y233335D01*
X120081Y233064D01*
X120235Y232835D01*
X120465Y232681D01*
X120736Y232627D01*
X122241D01*
X122319Y232575D01*
X123002Y232439D01*
X123411Y232520D01*
X126531D01*
X127214Y232656D01*
X127793Y233043D01*
X130111Y235361D01*
X137510Y227962D01*
X137510Y227961D01*
X138089Y227575D01*
X138772Y227439D01*
X138772Y227439D01*
X143671D01*
X144354Y227575D01*
X144432Y227627D01*
X145937D01*
X146208Y227681D01*
X146438Y227835D01*
X146591Y228064D01*
X146645Y228335D01*
Y230111D01*
X146591Y230382D01*
X146438Y230612D01*
X146208Y230766D01*
X145937Y230820D01*
X144432D01*
X144354Y230872D01*
X143671Y231008D01*
X139511D01*
X131895Y238623D01*
Y255776D01*
X135835Y259716D01*
X136614D01*
X136763Y259408D01*
X136788Y259216D01*
X133238Y255666D01*
X132852Y255087D01*
X132716Y254404D01*
X132852Y253721D01*
X133238Y253143D01*
X133817Y252756D01*
X134500Y252620D01*
X135183Y252756D01*
X135762Y253143D01*
X138835Y256216D01*
X166805D01*
X169988Y253033D01*
Y251013D01*
X174925D01*
Y255556D01*
X172511D01*
X168806Y259262D01*
X168227Y259648D01*
X167544Y259784D01*
X157838D01*
X157689Y260092D01*
X157664Y260284D01*
X165813Y268434D01*
X170892Y263354D01*
X170893Y263354D01*
X171471Y262967D01*
X172154Y262832D01*
X172154Y262832D01*
X196345D01*
X205149Y254028D01*
Y246439D01*
X203282Y244572D01*
X202400D01*
Y246598D01*
X202400D01*
Y246757D01*
X202400D01*
Y249157D01*
X200243D01*
X200226Y249182D01*
X199663Y249558D01*
X199000Y249690D01*
X196818D01*
X192425Y254082D01*
X191863Y254458D01*
X191200Y254590D01*
X189532D01*
Y254792D01*
X188271D01*
X187853Y254875D01*
X182169D01*
X182012Y255032D01*
Y255556D01*
X181404D01*
X181095Y255762D01*
X180432Y255894D01*
X179768Y255762D01*
X179460Y255556D01*
X177075D01*
Y251013D01*
X182012D01*
Y251408D01*
X184398D01*
Y250642D01*
X189532D01*
Y251124D01*
X190482D01*
X194013Y247593D01*
X193821Y247131D01*
X189532D01*
Y247508D01*
X184398D01*
Y247131D01*
X182012D01*
Y247272D01*
X181744D01*
X181536Y247479D01*
X181040Y247811D01*
X180454Y247927D01*
X179869Y247811D01*
X179373Y247479D01*
X179234Y247272D01*
X177075D01*
Y242728D01*
X182012D01*
Y243664D01*
X184398D01*
Y243359D01*
X189532D01*
Y243664D01*
X192003D01*
X192194Y243202D01*
X191174Y242183D01*
X190799Y241620D01*
X190667Y240957D01*
Y237323D01*
X190799Y236660D01*
X191174Y236097D01*
X192474Y234798D01*
X192282Y234336D01*
X188776D01*
X188177Y234216D01*
X187991D01*
X187392Y234336D01*
X182012D01*
Y235000D01*
X177075D01*
Y230457D01*
X182012D01*
Y230869D01*
X184398D01*
Y230067D01*
X189532D01*
Y230869D01*
X193937D01*
X194129Y230407D01*
X190313Y226592D01*
X189532D01*
Y226933D01*
X184398D01*
Y226592D01*
X182012D01*
Y226715D01*
X177075D01*
Y222172D01*
X182012D01*
Y223125D01*
X184398D01*
Y222783D01*
X189532D01*
Y223125D01*
X191031D01*
X191694Y223257D01*
X192257Y223633D01*
X196934Y228310D01*
X199000D01*
X199663Y228442D01*
X200226Y228818D01*
X200243Y228843D01*
X202400D01*
Y231243D01*
X202400D01*
Y231402D01*
X202400D01*
Y233802D01*
X202400D01*
Y233961D01*
X202400D01*
Y235987D01*
X209149D01*
X209264Y235871D01*
X210000Y235567D01*
Y237720D01*
Y239874D01*
X209264Y239569D01*
X209149Y239454D01*
X202900D01*
Y239779D01*
X199000D01*
Y240779D01*
X202900D01*
Y241105D01*
X204000D01*
X204663Y241237D01*
X205226Y241613D01*
X208159Y244546D01*
X208535Y245109D01*
X208667Y245772D01*
Y245841D01*
X208718Y246098D01*
Y254767D01*
X208718Y254767D01*
X208582Y255449D01*
X208195Y256028D01*
X198346Y265878D01*
X197767Y266264D01*
X197084Y266400D01*
X172893D01*
X171777Y267516D01*
X171984Y268016D01*
X184138D01*
X184723Y268132D01*
X185220Y268464D01*
X192773Y276017D01*
X193235Y275826D01*
Y273250D01*
X194985Y271500D01*
X200485D01*
X202235Y273250D01*
Y276750D01*
X200485Y278500D01*
X195909D01*
X195718Y278962D01*
X196935Y280179D01*
X197266Y280675D01*
X197382Y281260D01*
Y281500D01*
X200485D01*
X202235Y283250D01*
Y286750D01*
X200485Y288500D01*
X194985D01*
X193235Y286750D01*
Y283250D01*
X194324Y282161D01*
Y281894D01*
X187527Y275097D01*
X186937Y275215D01*
X186747Y275674D01*
X186133Y276288D01*
X185332Y276620D01*
X184952D01*
X184567Y277004D01*
Y279650D01*
X184451Y280235D01*
X184438Y280255D01*
Y283400D01*
X184397D01*
X183938Y283500D01*
Y285547D01*
X184119Y285669D01*
X184451Y286165D01*
X184567Y286750D01*
Y296134D01*
X185086Y296653D01*
X185452Y296804D01*
X185925Y297277D01*
X186181Y297895D01*
Y298564D01*
X185925Y299182D01*
X185452Y299655D01*
X184834Y299910D01*
X184480D01*
X184273Y300411D01*
X187938Y304076D01*
X187975Y304087D01*
X188547Y303996D01*
X188575Y303930D01*
X188626Y303879D01*
X188774Y303656D01*
X188997Y303508D01*
X189048Y303457D01*
X189114Y303429D01*
X189337Y303280D01*
X189599Y303228D01*
X189666Y303201D01*
X189738D01*
X189917Y303165D01*
X190171Y302712D01*
X189429Y301970D01*
X189337Y301951D01*
X189114Y301803D01*
X189048Y301775D01*
X188997Y301724D01*
X188774Y301576D01*
X188626Y301353D01*
X188575Y301302D01*
X188547Y301236D01*
X188399Y301013D01*
X188347Y300751D01*
X188319Y300684D01*
Y300612D01*
X188267Y300350D01*
X188319Y300088D01*
Y300016D01*
X188347Y299949D01*
X188399Y299687D01*
X188547Y299464D01*
X188575Y299398D01*
X188626Y299347D01*
X188774Y299124D01*
X188997Y298976D01*
X189048Y298925D01*
X189114Y298897D01*
X189337Y298749D01*
X189599Y298696D01*
X189666Y298669D01*
X189738D01*
X190000Y298617D01*
X190260D01*
X190924Y298749D01*
X191486Y299124D01*
X192951Y300589D01*
X198181D01*
X198844Y300722D01*
X199407Y301097D01*
X199431Y301134D01*
X201437D01*
Y303512D01*
X201437D01*
Y303693D01*
X201437D01*
Y305752D01*
X201437Y306071D01*
X201437D01*
Y306252D01*
X201437D01*
Y308630D01*
X201437D01*
Y308811D01*
X201437D01*
Y311189D01*
X201437Y311189D01*
Y311370D01*
X201437D01*
X201437Y311689D01*
Y313429D01*
X201437Y313748D01*
X201437D01*
Y313929D01*
X201437D01*
Y315065D01*
X201899Y315256D01*
X204167Y312989D01*
Y311604D01*
X204299Y310941D01*
X204674Y310378D01*
X213955Y301097D01*
X214518Y300722D01*
X215181Y300589D01*
X220819D01*
X221482Y300722D01*
X222044Y301097D01*
X222069Y301134D01*
X224075D01*
Y303512D01*
X224075D01*
Y303693D01*
X224075D01*
Y306071D01*
X224075D01*
Y306252D01*
X224075D01*
Y308267D01*
X228058D01*
X229420Y306904D01*
X229982Y306529D01*
X230646Y306397D01*
X230808D01*
X231070Y306449D01*
X231142D01*
X231209Y306476D01*
X231471Y306529D01*
X231694Y306677D01*
X231760Y306705D01*
X231811Y306756D01*
X232034Y306904D01*
X232182Y307127D01*
X232233Y307178D01*
X232261Y307244D01*
X232410Y307467D01*
X232908Y307410D01*
Y247832D01*
X233011Y247313D01*
Y245757D01*
X234576D01*
X234767Y245295D01*
X233850Y244378D01*
X233011D01*
Y243216D01*
X232908Y242697D01*
Y242303D01*
X233011Y241785D01*
Y240229D01*
X236373D01*
Y241785D01*
X236391Y241872D01*
X242062Y247543D01*
X242448Y248122D01*
X242584Y248805D01*
X242584Y248805D01*
Y322791D01*
X252739Y332945D01*
X261091D01*
Y330363D01*
X272917D01*
Y339237D01*
X261091D01*
Y336514D01*
X252000D01*
X251317Y336378D01*
X250738Y335991D01*
X239538Y324791D01*
X239152Y324212D01*
X239016Y323530D01*
Y249544D01*
X236908Y247436D01*
X236447Y247682D01*
X236477Y247832D01*
Y325153D01*
X254539Y343216D01*
X261091D01*
Y340363D01*
X272917D01*
Y349237D01*
X261091D01*
Y346784D01*
X253800D01*
X253800Y346784D01*
X253117Y346649D01*
X252538Y346262D01*
X252538Y346262D01*
X233431Y327154D01*
X233044Y326575D01*
X232908Y325892D01*
Y318015D01*
X232408Y317808D01*
X232206Y318010D01*
X231404Y318342D01*
X231078D01*
X230517Y318903D01*
X229955Y319279D01*
X229292Y319410D01*
X220819D01*
X220596Y319366D01*
X217063D01*
X216733Y319730D01*
Y329282D01*
X259634Y372183D01*
X261091D01*
Y370363D01*
X272917D01*
Y379237D01*
X261091D01*
Y375649D01*
X258916D01*
X258253Y375518D01*
X257691Y375142D01*
X213774Y331226D01*
X213399Y330663D01*
X213267Y330000D01*
Y311615D01*
X212767Y311380D01*
X212536Y311560D01*
Y332013D01*
X260552Y380029D01*
X263817D01*
X264500Y380165D01*
X264797Y380363D01*
X272917D01*
Y389237D01*
D02*
G37*
G36*
X310382Y386681D02*
X309713D01*
X309095Y386425D01*
X308622Y385952D01*
X308366Y385334D01*
Y384666D01*
X308622Y384048D01*
X309095Y383575D01*
X309713Y383319D01*
X310382D01*
X310999Y383575D01*
X311472Y384048D01*
X311728Y384666D01*
Y385334D01*
X311472Y385952D01*
X310999Y386425D01*
X310382Y386681D01*
D02*
G37*
G36*
X335910Y389237D02*
X324083D01*
Y380363D01*
X335910D01*
Y389237D01*
D02*
G37*
G36*
X203900Y377584D02*
Y375931D01*
X205554D01*
X205249Y376666D01*
X204636Y377280D01*
X203900Y377584D01*
D02*
G37*
G36*
X336409Y379737D02*
X330496D01*
Y375300D01*
X336409D01*
Y379737D01*
D02*
G37*
G36*
X329496D02*
X323583D01*
Y375300D01*
X329496D01*
Y379737D01*
D02*
G37*
G36*
X205554Y374931D02*
X203900D01*
Y373277D01*
X204636Y373582D01*
X205249Y374195D01*
X205554Y374931D01*
D02*
G37*
G36*
X196633Y374931D02*
X194263D01*
Y372856D01*
X196633D01*
Y374931D01*
D02*
G37*
G36*
X336409Y374300D02*
X330496D01*
Y369863D01*
X336409D01*
Y374300D01*
D02*
G37*
G36*
X329496D02*
X323583D01*
Y369863D01*
X329496D01*
Y374300D01*
D02*
G37*
G36*
X273417Y369737D02*
X267504D01*
Y365300D01*
X273417D01*
Y369737D01*
D02*
G37*
G36*
X266504D02*
X260591D01*
Y365300D01*
X266504D01*
Y369737D01*
D02*
G37*
G36*
X335910Y369237D02*
X324083D01*
Y360363D01*
X335910D01*
Y369237D01*
D02*
G37*
G36*
X273417Y364300D02*
X267004D01*
X260591D01*
Y360237D01*
X260591Y359863D01*
X260591Y359363D01*
Y355300D01*
X267004D01*
X273417D01*
Y359363D01*
X273417Y359737D01*
X273417Y360237D01*
Y364300D01*
D02*
G37*
G36*
X335910Y359237D02*
X324083D01*
Y350363D01*
X335910D01*
Y359237D01*
D02*
G37*
G36*
X273417Y354300D02*
X267504D01*
Y349863D01*
X273417D01*
Y354300D01*
D02*
G37*
G36*
X266504D02*
X260591D01*
Y349863D01*
X266504D01*
Y354300D01*
D02*
G37*
G36*
X335910Y349237D02*
X324083D01*
Y340363D01*
X335910D01*
Y349237D01*
D02*
G37*
G36*
X174457Y338000D02*
X172957D01*
Y333500D01*
X176457D01*
Y336000D01*
X174457Y338000D01*
D02*
G37*
G36*
X171957D02*
X170457D01*
X168457Y336000D01*
Y333500D01*
X171957D01*
Y338000D01*
D02*
G37*
G36*
X335910Y339237D02*
X324083D01*
Y330363D01*
X335910D01*
Y339237D01*
D02*
G37*
G36*
X176457Y332500D02*
X172957D01*
Y328000D01*
X174457D01*
X176457Y330000D01*
Y332500D01*
D02*
G37*
G36*
X171957D02*
X168457D01*
Y330000D01*
X170457Y328000D01*
X171957D01*
Y332500D01*
D02*
G37*
G36*
X147986Y323489D02*
X147251Y323185D01*
X146637Y322571D01*
X146333Y321836D01*
X147986D01*
Y323489D01*
D02*
G37*
G36*
X134668Y333696D02*
X129895D01*
Y329104D01*
X130448D01*
Y320639D01*
X129987Y320447D01*
X127783Y322651D01*
Y329104D01*
X128943D01*
Y333696D01*
X124171D01*
Y329104D01*
X124724D01*
Y322018D01*
X124841Y321432D01*
X125172Y320936D01*
X129965Y316143D01*
X129820Y315581D01*
X129443Y315425D01*
X128970Y314952D01*
X128714Y314334D01*
Y313666D01*
X128970Y313048D01*
X128754Y312557D01*
X125165D01*
X117362Y320359D01*
X117516Y320625D01*
X117736Y321448D01*
Y322300D01*
X117516Y323123D01*
X117090Y323861D01*
X116487Y324464D01*
X115749Y324890D01*
X114926Y325110D01*
X114074D01*
X113251Y324890D01*
X112513Y324464D01*
X111910Y323861D01*
X111484Y323123D01*
X111264Y322300D01*
Y321448D01*
X111484Y320625D01*
X111910Y319887D01*
X112513Y319284D01*
X113251Y318858D01*
X114074Y318638D01*
X114758D01*
X115940Y317457D01*
X115896Y317356D01*
X115646Y317043D01*
X114926Y317236D01*
X114074D01*
X113251Y317016D01*
X112513Y316590D01*
X111910Y315987D01*
X111484Y315249D01*
X111264Y314426D01*
Y313574D01*
X111484Y312751D01*
X111910Y312013D01*
X112513Y311410D01*
X113251Y310984D01*
X114074Y310764D01*
X114926D01*
X115437Y310901D01*
X116513Y309824D01*
X116322Y309362D01*
X111264D01*
Y302890D01*
X117736D01*
Y305553D01*
X135307D01*
X135892Y305669D01*
X136388Y306001D01*
X136389Y306001D01*
X136444Y306085D01*
X136972D01*
X137244Y306139D01*
X137267Y306154D01*
X137687Y306427D01*
X138085Y306160D01*
X138555Y306067D01*
X143255D01*
X143355Y305567D01*
X143189Y305498D01*
X142576Y304885D01*
X142271Y304149D01*
X146578D01*
X146274Y304885D01*
X145660Y305498D01*
X145494Y305567D01*
X145594Y306067D01*
X148382D01*
X148852Y306160D01*
X148919Y306205D01*
X149102Y305932D01*
X149419Y305720D01*
Y305019D01*
X148951Y304824D01*
X148337Y304211D01*
X148032Y303475D01*
X152372D01*
X152478Y304009D01*
Y305720D01*
X152796Y305932D01*
X152930Y305946D01*
X157660Y301216D01*
X158156Y300885D01*
X158741Y300768D01*
X159017D01*
X159224Y300268D01*
X157706Y298750D01*
Y293250D01*
X159456Y291500D01*
X162956D01*
X164706Y293250D01*
Y298750D01*
X162956Y300500D01*
X162474D01*
X162267Y301000D01*
X162352Y301085D01*
X162608Y301702D01*
Y302371D01*
X162352Y302989D01*
X161879Y303462D01*
X161831Y303482D01*
Y304023D01*
X161952Y304073D01*
X162425Y304546D01*
X162681Y305164D01*
Y305833D01*
X162425Y306451D01*
X161952Y306924D01*
X161791Y306990D01*
Y307532D01*
X161952Y307598D01*
X162425Y308071D01*
X162681Y308689D01*
Y309358D01*
X162425Y309976D01*
X161952Y310449D01*
X161334Y310705D01*
X160666D01*
X160454Y310617D01*
X158952D01*
X155492Y314077D01*
X154996Y314409D01*
X154411Y314526D01*
X152762D01*
X152644Y314669D01*
Y315260D01*
X152762Y315404D01*
X154931D01*
X155517Y315520D01*
X156013Y315852D01*
X157486Y317325D01*
X157852Y317476D01*
X158325Y317949D01*
X158581Y318567D01*
Y319236D01*
X158325Y319854D01*
X157852Y320327D01*
X157234Y320583D01*
X156566D01*
X155948Y320327D01*
X155475Y319854D01*
X155323Y319488D01*
X154298Y318462D01*
X153271D01*
X153153Y318606D01*
Y319197D01*
X153060Y319664D01*
X152796Y320060D01*
X152478Y320272D01*
Y320750D01*
X152362Y321335D01*
X152030Y321831D01*
X151444Y322417D01*
X150948Y322749D01*
X150363Y322865D01*
X150041D01*
X149722Y323185D01*
X148986Y323489D01*
Y321336D01*
X148486D01*
Y320836D01*
X146333D01*
X146503Y320425D01*
X146169Y319925D01*
X143968D01*
Y312996D01*
X142968D01*
Y319925D01*
X138555D01*
X138504Y319915D01*
X138425Y319980D01*
X138274Y320508D01*
X138529Y321126D01*
Y321795D01*
X138274Y322413D01*
X137801Y322886D01*
X137183Y323142D01*
X136514D01*
X135896Y322886D01*
X135423Y322413D01*
X135167Y321795D01*
Y321748D01*
X135058Y321200D01*
Y320084D01*
X134907Y319983D01*
X134834Y319873D01*
X134732Y319853D01*
X134502Y319699D01*
X133904Y319606D01*
X133507Y320002D01*
Y329104D01*
X134668D01*
Y333696D01*
D02*
G37*
G36*
X335910Y329237D02*
X324083D01*
Y320363D01*
X335910D01*
Y329237D01*
D02*
G37*
G36*
X272917D02*
X261091D01*
Y320363D01*
X272917D01*
Y329237D01*
D02*
G37*
G36*
X171153Y321252D02*
Y319598D01*
X172807D01*
X172503Y320334D01*
X171889Y320948D01*
X171153Y321252D01*
D02*
G37*
G36*
X170153D02*
X169418Y320948D01*
X168804Y320334D01*
X168500Y319598D01*
X170153D01*
Y321252D01*
D02*
G37*
G36*
X206600Y321054D02*
X205865Y320749D01*
X205251Y320135D01*
X204946Y319400D01*
X206600D01*
Y321054D01*
D02*
G37*
G36*
X172807Y318598D02*
X171153D01*
Y316945D01*
X171889Y317249D01*
X172503Y317863D01*
X172807Y318598D01*
D02*
G37*
G36*
X170153D02*
X168500D01*
X168804Y317863D01*
X169418Y317249D01*
X170153Y316945D01*
Y318598D01*
D02*
G37*
G36*
X206600Y318400D02*
X204946D01*
X205251Y317665D01*
X205865Y317051D01*
X206600Y316746D01*
Y318400D01*
D02*
G37*
G36*
X335910Y319237D02*
X324083D01*
Y310363D01*
X335910D01*
Y319237D01*
D02*
G37*
G36*
X252000Y327184D02*
X251317Y327048D01*
X250738Y326662D01*
X250352Y326083D01*
X250216Y325400D01*
X250352Y324717D01*
X250738Y324138D01*
X258958Y315919D01*
X258958Y315919D01*
X259536Y315532D01*
X260219Y315396D01*
X260219Y315396D01*
X261091D01*
Y310363D01*
X272917D01*
Y319237D01*
X261091D01*
Y319237D01*
X260619Y319305D01*
X253262Y326662D01*
X252683Y327048D01*
X252000Y327184D01*
D02*
G37*
G36*
X164207Y337500D02*
X160707D01*
X158957Y335750D01*
Y330250D01*
X159425Y329782D01*
X159379Y329714D01*
X159263Y329128D01*
Y314418D01*
X159379Y313833D01*
X159711Y313337D01*
X161129Y311918D01*
X161281Y311552D01*
X161754Y311079D01*
X162372Y310823D01*
X163041D01*
X163303Y310931D01*
X165494D01*
Y309024D01*
X170694D01*
Y309992D01*
X168094D01*
Y310931D01*
X168402Y310992D01*
X170694D01*
Y311992D01*
X170194D01*
Y313429D01*
X170594D01*
Y315429D01*
X169430D01*
X169376Y315511D01*
X168880Y315842D01*
X168294Y315959D01*
X167628D01*
X166674Y316912D01*
Y318398D01*
X166826Y318764D01*
Y319433D01*
X166570Y320051D01*
X166097Y320524D01*
X165479Y320779D01*
X164810D01*
X164192Y320524D01*
X163720Y320051D01*
X163464Y319433D01*
Y318764D01*
X163615Y318398D01*
Y316279D01*
X163732Y315694D01*
X164063Y315197D01*
X164809Y314452D01*
X164617Y313990D01*
X163511D01*
X163292Y314081D01*
X162321Y315052D01*
Y328495D01*
X162327Y328500D01*
X164207D01*
X165957Y330250D01*
Y335750D01*
X164207Y337500D01*
D02*
G37*
G36*
X146578Y303149D02*
X144924D01*
Y301496D01*
X145660Y301800D01*
X146274Y302414D01*
X146578Y303149D01*
D02*
G37*
G36*
X143924D02*
X142271D01*
X142576Y302414D01*
X143189Y301800D01*
X143924Y301496D01*
Y303149D01*
D02*
G37*
G36*
X335910Y309237D02*
X324083D01*
Y300363D01*
X335910D01*
Y309237D01*
D02*
G37*
G36*
X173103Y299500D02*
X171449D01*
Y297846D01*
X172185Y298151D01*
X172798Y298764D01*
X173103Y299500D01*
D02*
G37*
G36*
X170694Y308024D02*
X165494D01*
Y307024D01*
X166565D01*
Y302855D01*
X166681Y302269D01*
X167013Y301773D01*
X168768Y300018D01*
Y299566D01*
X169100Y298764D01*
X169713Y298151D01*
X170449Y297846D01*
Y300000D01*
X170949D01*
Y300500D01*
X173103D01*
X172798Y301236D01*
X172185Y301849D01*
X171383Y302181D01*
X170931D01*
X169624Y303488D01*
Y307024D01*
X170694D01*
Y308024D01*
D02*
G37*
G36*
X206400Y297788D02*
Y296135D01*
X208054D01*
X207749Y296870D01*
X207136Y297484D01*
X206400Y297788D01*
D02*
G37*
G36*
X205400D02*
X204664Y297484D01*
X204051Y296870D01*
X203746Y296135D01*
X205400D01*
Y297788D01*
D02*
G37*
G36*
X309100Y346784D02*
X308417Y346649D01*
X307838Y346262D01*
X275168Y313592D01*
X274781Y313013D01*
X274646Y312330D01*
Y296300D01*
X274781Y295617D01*
X275168Y295038D01*
X275747Y294652D01*
X276430Y294516D01*
X277113Y294652D01*
X277692Y295038D01*
X278079Y295617D01*
X278214Y296300D01*
Y311591D01*
X310362Y343738D01*
X310749Y344317D01*
X310884Y345000D01*
X310749Y345683D01*
X310362Y346262D01*
X309783Y346649D01*
X309100Y346784D01*
D02*
G37*
G36*
X208054Y295135D02*
X206400D01*
Y293481D01*
X207136Y293786D01*
X207749Y294399D01*
X208054Y295135D01*
D02*
G37*
G36*
X205400D02*
X203746D01*
X204051Y294399D01*
X204664Y293786D01*
X205400Y293481D01*
Y295135D01*
D02*
G37*
G36*
X152340Y302475D02*
X148032D01*
X148337Y301740D01*
X148951Y301126D01*
X149356Y300958D01*
X149368Y300412D01*
X147706Y298750D01*
Y293250D01*
X149456Y291500D01*
X152956D01*
X154706Y293250D01*
Y298750D01*
X152956Y300500D01*
X151216D01*
X151117Y301000D01*
X151421Y301126D01*
X152035Y301740D01*
X152340Y302475D01*
D02*
G37*
G36*
X309100Y336784D02*
X308417Y336649D01*
X307838Y336262D01*
X280238Y308662D01*
X279852Y308083D01*
X279716Y307400D01*
Y293100D01*
X279852Y292417D01*
X280238Y291838D01*
X280817Y291452D01*
X281500Y291316D01*
X282183Y291452D01*
X282762Y291838D01*
X283149Y292417D01*
X283284Y293100D01*
Y306661D01*
X310362Y333738D01*
X310362Y333738D01*
X310749Y334317D01*
X310884Y335000D01*
X310749Y335683D01*
X310362Y336262D01*
X309783Y336649D01*
X309100Y336784D01*
D02*
G37*
G36*
X335910Y299237D02*
X324083D01*
Y290363D01*
X335910D01*
Y299237D01*
D02*
G37*
G36*
X309100Y326784D02*
X308417Y326648D01*
X307838Y326262D01*
X285638Y304062D01*
X285251Y303483D01*
X285116Y302800D01*
Y289800D01*
X285251Y289117D01*
X285638Y288538D01*
X286217Y288152D01*
X286900Y288016D01*
X287583Y288152D01*
X288162Y288538D01*
X288548Y289117D01*
X288684Y289800D01*
Y302061D01*
X310362Y323738D01*
X310749Y324317D01*
X310884Y325000D01*
X310749Y325683D01*
X310362Y326262D01*
X309783Y326648D01*
X309100Y326784D01*
D02*
G37*
G36*
X144850Y287998D02*
Y286344D01*
X146504D01*
X146200Y287080D01*
X145586Y287693D01*
X144850Y287998D01*
D02*
G37*
G36*
X143850D02*
X143115Y287693D01*
X142501Y287080D01*
X142197Y286344D01*
X143850D01*
Y287998D01*
D02*
G37*
G36*
X146504Y285344D02*
X144850D01*
Y283690D01*
X145586Y283995D01*
X146200Y284609D01*
X146504Y285344D01*
D02*
G37*
G36*
X143850D02*
X142197D01*
X142501Y284609D01*
X143115Y283995D01*
X143850Y283690D01*
Y285344D01*
D02*
G37*
G36*
X335910Y289237D02*
X324083D01*
Y280363D01*
X335910D01*
Y289237D01*
D02*
G37*
G36*
X286154Y266740D02*
Y265086D01*
X287808D01*
X287503Y265822D01*
X286890Y266435D01*
X286154Y266740D01*
D02*
G37*
G36*
X132741Y265303D02*
X131087D01*
Y263650D01*
X131823Y263954D01*
X132436Y264568D01*
X132741Y265303D01*
D02*
G37*
G36*
X133736Y272307D02*
X126486D01*
Y270957D01*
X128072D01*
Y266280D01*
X128227Y265499D01*
X128557Y265006D01*
X128738Y264568D01*
X129352Y263954D01*
X130087Y263650D01*
Y265803D01*
X130587D01*
Y266303D01*
X132741D01*
X132436Y267039D01*
X132150Y267325D01*
Y270957D01*
X133736D01*
Y272307D01*
D02*
G37*
G36*
X287808Y264086D02*
X286154D01*
Y262432D01*
X286890Y262737D01*
X287503Y263351D01*
X287808Y264086D01*
D02*
G37*
G36*
X305930Y259808D02*
X301206D01*
X300672Y259702D01*
X299628D01*
Y258812D01*
X299557Y258707D01*
X299422Y258024D01*
X299557Y257341D01*
X299628Y257236D01*
Y255946D01*
X303384D01*
Y256240D01*
X304352D01*
Y255946D01*
X308108D01*
Y259702D01*
X306464D01*
X305930Y259808D01*
D02*
G37*
G36*
X217785Y255154D02*
Y253500D01*
X219439D01*
X219134Y254236D01*
X218521Y254849D01*
X217785Y255154D01*
D02*
G37*
G36*
X197937D02*
Y253500D01*
X199591D01*
X199286Y254236D01*
X198673Y254849D01*
X197937Y255154D01*
D02*
G37*
G36*
X196937D02*
X196202Y254849D01*
X195588Y254236D01*
X195284Y253500D01*
X196937D01*
Y255154D01*
D02*
G37*
G36*
X199591Y252500D02*
X197937D01*
Y250846D01*
X198673Y251151D01*
X199286Y251764D01*
X199591Y252500D01*
D02*
G37*
G36*
X196937D02*
X195284D01*
X195588Y251764D01*
X196202Y251151D01*
X196937Y250846D01*
Y252500D01*
D02*
G37*
G36*
X137500Y252377D02*
Y250723D01*
X139154D01*
X138849Y251459D01*
X138235Y252072D01*
X137500Y252377D01*
D02*
G37*
G36*
X136500D02*
X135765Y252072D01*
X135151Y251459D01*
X134846Y250723D01*
X136500D01*
Y252377D01*
D02*
G37*
G36*
X294435Y251540D02*
X292557D01*
Y249662D01*
X294435D01*
Y251540D01*
D02*
G37*
G36*
X286832D02*
X284954D01*
Y249662D01*
X286832D01*
Y251540D01*
D02*
G37*
G36*
X139154Y249723D02*
X137500D01*
Y248070D01*
X138235Y248374D01*
X138849Y248988D01*
X139154Y249723D01*
D02*
G37*
G36*
X136500D02*
X134846D01*
X135151Y248988D01*
X135765Y248374D01*
X136500Y248070D01*
Y249723D01*
D02*
G37*
G36*
X125602Y256085D02*
X124933D01*
X124692Y255985D01*
X124505Y255948D01*
X124347Y255843D01*
X124315Y255830D01*
X124291Y255805D01*
X123926Y255561D01*
X121740Y253375D01*
X121353Y252797D01*
X121218Y252114D01*
Y246007D01*
X114990D01*
Y247341D01*
X110840D01*
Y242798D01*
X112723D01*
X113057Y242575D01*
X113740Y242439D01*
X113740Y242439D01*
X123002D01*
X123685Y242575D01*
X123763Y242627D01*
X125268D01*
X125539Y242681D01*
X125768Y242834D01*
X125922Y243064D01*
X125976Y243335D01*
Y245111D01*
X125922Y245382D01*
X125768Y245612D01*
X125539Y245766D01*
X125268Y245819D01*
X124786D01*
Y251375D01*
X126450Y253038D01*
X126836Y253617D01*
X126906Y253967D01*
X126949Y254070D01*
Y254182D01*
X126972Y254300D01*
X126949Y254418D01*
Y254739D01*
X126693Y255357D01*
X126220Y255830D01*
X125602Y256085D01*
D02*
G37*
G36*
X175425Y247772D02*
X172957D01*
Y245500D01*
X175425D01*
Y247772D01*
D02*
G37*
G36*
X171957D02*
X169488D01*
Y245500D01*
X171957D01*
Y247772D01*
D02*
G37*
G36*
X146821Y250453D02*
X146138Y250318D01*
X145559Y249931D01*
X145463Y249835D01*
X145077Y249256D01*
X144941Y248573D01*
Y246638D01*
X144310Y246007D01*
X143671D01*
X142988Y245872D01*
X142910Y245819D01*
X141405D01*
X141134Y245766D01*
X140904Y245612D01*
X140751Y245382D01*
X140697Y245111D01*
Y243335D01*
X140751Y243064D01*
X140904Y242834D01*
X141134Y242681D01*
X141405Y242627D01*
X142910D01*
X142988Y242575D01*
X143671Y242439D01*
X145049D01*
X145732Y242575D01*
X145810Y242627D01*
X145937D01*
X146208Y242681D01*
X146438Y242834D01*
X146591Y243064D01*
X146635Y243286D01*
X146643Y243294D01*
X146643Y243294D01*
X147987Y244638D01*
X148373Y245216D01*
X148509Y245899D01*
Y248188D01*
X148605Y248669D01*
X148469Y249352D01*
X148082Y249931D01*
X147503Y250318D01*
X146821Y250453D01*
D02*
G37*
G36*
X294435Y243938D02*
X292557D01*
Y242060D01*
X294435D01*
Y243938D01*
D02*
G37*
G36*
X291557Y251540D02*
X287832D01*
Y249162D01*
X287332D01*
Y248662D01*
X284954D01*
Y246784D01*
Y244938D01*
X287332D01*
Y244438D01*
X287832D01*
Y242060D01*
X291557D01*
Y244438D01*
X292057D01*
Y244938D01*
X294435D01*
Y246784D01*
Y248662D01*
X292057D01*
Y249162D01*
X291557D01*
Y251540D01*
D02*
G37*
G36*
X286832Y243938D02*
X284954D01*
Y242060D01*
X286832D01*
Y243938D01*
D02*
G37*
G36*
X175425Y244500D02*
X169488D01*
Y244324D01*
X169469Y244228D01*
Y241649D01*
X168551Y240731D01*
X168277D01*
X168000Y240845D01*
Y238692D01*
Y236538D01*
X168277Y236652D01*
X169395D01*
X170176Y236808D01*
X170837Y237250D01*
X171282Y237695D01*
X171671Y237376D01*
X171541Y237182D01*
X171386Y236402D01*
Y235500D01*
X169488D01*
Y233228D01*
X175425D01*
Y233303D01*
X175464Y233500D01*
Y235558D01*
X176536Y236629D01*
X176757Y236538D01*
Y238692D01*
Y240845D01*
X176480Y240731D01*
X175715D01*
X174934Y240576D01*
X174273Y240134D01*
X173651Y239512D01*
X173263Y239831D01*
X173392Y240024D01*
X173547Y240805D01*
Y242228D01*
X175425D01*
Y244500D01*
D02*
G37*
G36*
X177757Y240845D02*
Y239192D01*
X179411D01*
X179106Y239927D01*
X178492Y240541D01*
X177757Y240845D01*
D02*
G37*
G36*
X167000D02*
X166264Y240541D01*
X165651Y239927D01*
X165346Y239192D01*
X167000D01*
Y240845D01*
D02*
G37*
G36*
X211000Y239874D02*
Y238221D01*
X212654D01*
X212349Y238956D01*
X211736Y239569D01*
X211000Y239874D01*
D02*
G37*
G36*
X179411Y238192D02*
X177757D01*
Y236538D01*
X178492Y236843D01*
X179106Y237456D01*
X179411Y238192D01*
D02*
G37*
G36*
X167000D02*
X165346D01*
X165651Y237456D01*
X166264Y236843D01*
X167000Y236538D01*
Y238192D01*
D02*
G37*
G36*
X113740Y241007D02*
X113057Y240872D01*
X112723Y240648D01*
X110840D01*
Y236105D01*
X114990D01*
Y237439D01*
X123002D01*
X123685Y237575D01*
X123763Y237627D01*
X125268D01*
X125539Y237681D01*
X125768Y237835D01*
X125922Y238064D01*
X125976Y238335D01*
Y240111D01*
X125922Y240382D01*
X125768Y240612D01*
X125539Y240766D01*
X125268Y240820D01*
X123763D01*
X123685Y240872D01*
X123002Y241007D01*
X113740D01*
X113740Y241007D01*
D02*
G37*
G36*
X212654Y237221D02*
X211000D01*
Y235567D01*
X211736Y235871D01*
X212349Y236485D01*
X212654Y237221D01*
D02*
G37*
G36*
X156411Y242241D02*
X152262D01*
Y241262D01*
X143671D01*
X142891Y241107D01*
X142460Y240820D01*
X141405D01*
X141134Y240766D01*
X140904Y240612D01*
X140751Y240382D01*
X140697Y240111D01*
Y238335D01*
X140751Y238064D01*
X140904Y237835D01*
X141134Y237681D01*
X141405Y237627D01*
X142460D01*
X142891Y237339D01*
X143671Y237184D01*
X153762D01*
X154542Y237339D01*
X154586Y237369D01*
X155945Y236010D01*
X155753Y235548D01*
X154678D01*
X154194Y235872D01*
X153512Y236007D01*
X143671D01*
X142988Y235872D01*
X142910Y235820D01*
X141405D01*
X141134Y235766D01*
X140904Y235612D01*
X140751Y235382D01*
X140697Y235111D01*
Y233335D01*
X140751Y233064D01*
X140904Y232835D01*
X141134Y232681D01*
X141405Y232627D01*
X142910D01*
X142988Y232575D01*
X143671Y232439D01*
X152262D01*
Y231005D01*
X156411D01*
Y234890D01*
X156873Y235082D01*
X168029Y223926D01*
X168591Y223550D01*
X169254Y223418D01*
X169988D01*
Y222172D01*
X174925D01*
Y226715D01*
X172468D01*
X172412Y226753D01*
X171749Y226885D01*
X169972D01*
X156634Y240224D01*
X156411Y240372D01*
Y242241D01*
D02*
G37*
G36*
X175425Y232228D02*
X172957D01*
Y229957D01*
X175425D01*
Y232228D01*
D02*
G37*
G36*
X171957D02*
X169488D01*
Y229957D01*
X171957D01*
Y232228D01*
D02*
G37*
G36*
X125268Y231329D02*
X123502D01*
Y229723D01*
X126486D01*
Y230111D01*
X126393Y230577D01*
X126129Y230973D01*
X125734Y231237D01*
X125268Y231329D01*
D02*
G37*
G36*
X216785Y255154D02*
X216050Y254849D01*
X215436Y254236D01*
X215104Y253434D01*
Y253270D01*
X214666Y252832D01*
X214290Y252270D01*
X214158Y251606D01*
Y246218D01*
X214290Y245554D01*
X214666Y244992D01*
X215486Y244172D01*
X216048Y243796D01*
X216712Y243664D01*
X218600D01*
Y241639D01*
X218600D01*
Y241479D01*
X218600D01*
Y239079D01*
X218600D01*
Y238920D01*
X218600D01*
Y236521D01*
X218600D01*
Y236361D01*
X218600D01*
Y233961D01*
X218600D01*
Y233802D01*
X218600D01*
Y231402D01*
X218600D01*
Y231243D01*
X218600D01*
Y228843D01*
X220757D01*
X220774Y228818D01*
X221337Y228442D01*
X222000Y228310D01*
X229093D01*
X229356Y228362D01*
X229428D01*
X229494Y228390D01*
X229756Y228442D01*
X229979Y228591D01*
X230045Y228618D01*
X230096Y228669D01*
X230319Y228818D01*
X230467Y229040D01*
X230518Y229091D01*
X230546Y229157D01*
X230695Y229380D01*
X230747Y229642D01*
X230774Y229709D01*
Y229781D01*
X230826Y230043D01*
X230774Y230306D01*
Y230378D01*
X230844Y230549D01*
X231141Y230869D01*
X244000D01*
X244262Y230921D01*
X244334D01*
X244401Y230949D01*
X244663Y231001D01*
X244886Y231150D01*
X244952Y231177D01*
X245003Y231228D01*
X245226Y231377D01*
X245374Y231599D01*
X245425Y231650D01*
X245453Y231716D01*
X245601Y231939D01*
X245654Y232202D01*
X245681Y232268D01*
Y232340D01*
X245733Y232602D01*
X245681Y232865D01*
Y232937D01*
X245654Y233003D01*
X245601Y233266D01*
X245453Y233488D01*
X245425Y233555D01*
X245374Y233606D01*
X245226Y233828D01*
X245003Y233977D01*
X244952Y234028D01*
X244886Y234055D01*
X244663Y234204D01*
X244401Y234256D01*
X244334Y234283D01*
X244262D01*
X244000Y234336D01*
X241748D01*
X241451Y234655D01*
X241381Y234827D01*
Y234899D01*
X241433Y235161D01*
X241381Y235424D01*
Y235496D01*
X241354Y235562D01*
X241301Y235825D01*
X241153Y236047D01*
X241125Y236114D01*
X241074Y236164D01*
X240926Y236387D01*
X240703Y236536D01*
X240652Y236587D01*
X240586Y236614D01*
X240363Y236763D01*
X240101Y236815D01*
X240034Y236842D01*
X239962D01*
X239700Y236895D01*
X238224D01*
X238177Y236922D01*
X237853Y237395D01*
X237854Y237399D01*
X237881Y237466D01*
Y237538D01*
X237933Y237800D01*
X237881Y238062D01*
Y238134D01*
X237854Y238201D01*
X237801Y238463D01*
X237653Y238686D01*
X237625Y238752D01*
X237574Y238803D01*
X237426Y239026D01*
X237203Y239174D01*
X237152Y239225D01*
X237086Y239253D01*
X236863Y239401D01*
X236601Y239454D01*
X236534Y239481D01*
X236462D01*
X236200Y239533D01*
X235938Y239481D01*
X235866D01*
X235800Y239454D01*
X230768D01*
X230546Y239954D01*
X230744Y240229D01*
X231255D01*
Y242041D01*
X231308Y242303D01*
X231255Y242566D01*
Y244378D01*
X230089D01*
X229898Y244840D01*
X230319Y245261D01*
X230650Y245757D01*
X231255D01*
Y247569D01*
X231308Y247832D01*
X231255Y248094D01*
Y249907D01*
X227893D01*
Y248602D01*
X227868Y248576D01*
X227492Y248014D01*
X227360Y247351D01*
Y247205D01*
X226362Y246207D01*
X225900Y246398D01*
Y247098D01*
X225400D01*
Y249157D01*
X224858D01*
Y250333D01*
X226137Y251612D01*
X226513Y252174D01*
X226645Y252838D01*
Y253000D01*
X226593Y253262D01*
Y253334D01*
X226565Y253401D01*
X226513Y253663D01*
X226364Y253886D01*
X226337Y253952D01*
X226286Y254003D01*
X226137Y254226D01*
X225915Y254374D01*
X225864Y254425D01*
X225798Y254453D01*
X225575Y254601D01*
X225312Y254654D01*
X225246Y254681D01*
X225174D01*
X224912Y254733D01*
X224649Y254681D01*
X224577D01*
X224511Y254654D01*
X224248Y254601D01*
X224026Y254453D01*
X223959Y254425D01*
X223908Y254374D01*
X223686Y254226D01*
X223537Y254003D01*
X223486Y253952D01*
X223459Y253886D01*
X223359Y253736D01*
X221899Y252277D01*
X221524Y251714D01*
X221392Y251051D01*
Y249569D01*
X221337Y249558D01*
X220774Y249182D01*
X220757Y249157D01*
X218600D01*
Y247131D01*
X217625D01*
Y250819D01*
X217719D01*
X218521Y251151D01*
X219134Y251764D01*
X219439Y252500D01*
X217285D01*
Y253000D01*
X216785D01*
Y255154D01*
D02*
G37*
G36*
X211000Y229429D02*
Y227775D01*
X212654D01*
X212349Y228511D01*
X211736Y229124D01*
X211000Y229429D01*
D02*
G37*
G36*
X210000D02*
X209264Y229124D01*
X208651Y228511D01*
X208346Y227775D01*
X210000D01*
Y229429D01*
D02*
G37*
G36*
X126486Y228723D02*
X123502D01*
Y227117D01*
X125268D01*
X125734Y227210D01*
X126129Y227474D01*
X126393Y227869D01*
X126486Y228335D01*
Y228723D01*
D02*
G37*
G36*
X122502Y231329D02*
X120736D01*
X120400Y231262D01*
X118223D01*
X117443Y231107D01*
X116781Y230665D01*
X115607Y229491D01*
X115264Y229349D01*
X114651Y228735D01*
X114346Y228000D01*
X116500D01*
Y227500D01*
X117000D01*
Y225346D01*
X117736Y225651D01*
X118349Y226265D01*
X118491Y226607D01*
X119068Y227184D01*
X120400D01*
X120736Y227117D01*
X122502D01*
Y229223D01*
Y231329D01*
D02*
G37*
G36*
X116000Y227000D02*
X114346D01*
X114651Y226265D01*
X115264Y225651D01*
X116000Y225346D01*
Y227000D01*
D02*
G37*
G36*
X212654Y226775D02*
X211000D01*
Y225121D01*
X211736Y225426D01*
X212349Y226040D01*
X212654Y226775D01*
D02*
G37*
G36*
X210000D02*
X208346D01*
X208651Y226040D01*
X209264Y225426D01*
X210000Y225121D01*
Y226775D01*
D02*
G37*
%LPD*%
G36*
X231470Y314007D02*
X232206Y314312D01*
X232408Y314514D01*
X232908Y314307D01*
Y308850D01*
X232410Y308793D01*
X232261Y309016D01*
X232233Y309082D01*
X232182Y309133D01*
X232034Y309355D01*
X231811Y309504D01*
X231760Y309555D01*
X231694Y309583D01*
X231544Y309682D01*
X230001Y311226D01*
X229439Y311601D01*
X228776Y311733D01*
X228668D01*
X228369Y312018D01*
X228281Y312195D01*
Y312267D01*
X228333Y312529D01*
X228281Y312792D01*
Y312864D01*
X228254Y312930D01*
X228201Y313193D01*
X228053Y313415D01*
X228025Y313482D01*
X227974Y313533D01*
X227826Y313755D01*
X227603Y313904D01*
X227552Y313955D01*
X227486Y313982D01*
X227263Y314131D01*
X227001Y314183D01*
X226934Y314211D01*
X226862D01*
X226600Y314263D01*
X224075D01*
Y315944D01*
X228574D01*
X228789Y315728D01*
Y315727D01*
X229121Y314925D01*
X229735Y314312D01*
X230470Y314007D01*
Y316161D01*
X231470D01*
Y314007D01*
D02*
G37*
G36*
X174262Y283500D02*
X175731D01*
X176062Y283500D01*
Y283500D01*
X176231D01*
Y283500D01*
X177239D01*
X177242Y283497D01*
X177400Y282954D01*
X177346Y282900D01*
X176231D01*
Y282900D01*
X176062D01*
Y282900D01*
X174262D01*
Y280853D01*
X174081Y280731D01*
X173749Y280235D01*
X173633Y279650D01*
Y278134D01*
X171619Y276120D01*
X171376D01*
X170758Y275864D01*
X170285Y275391D01*
X170029Y274773D01*
Y274104D01*
X170285Y273487D01*
X170758Y273014D01*
X171376Y272758D01*
X172045D01*
X172662Y273014D01*
X172672Y273023D01*
X172686Y273026D01*
X173182Y273357D01*
X175242Y275417D01*
X175801Y275269D01*
X176050Y274896D01*
X177145Y273800D01*
X177275Y273487D01*
X177748Y273014D01*
X178366Y272758D01*
X179034D01*
X179652Y273014D01*
X180125Y273487D01*
X180381Y274104D01*
Y274773D01*
X180125Y275391D01*
X180116Y275400D01*
X180323Y275900D01*
X180569D01*
Y279650D01*
X181569D01*
Y275900D01*
X181602D01*
X181625Y275785D01*
X181957Y275289D01*
X182307Y274939D01*
X184898D01*
Y273939D01*
X182744D01*
X183049Y273203D01*
X183662Y272590D01*
X184122Y272399D01*
X184239Y271810D01*
X183505Y271075D01*
X171650D01*
X171283Y271227D01*
X170615D01*
X169997Y270971D01*
X169524Y270498D01*
X169483Y270399D01*
X168992Y270301D01*
X167597Y271696D01*
Y281443D01*
X168268Y282114D01*
X168768Y281907D01*
Y281649D01*
X169100Y280847D01*
X169713Y280234D01*
X170449Y279929D01*
Y282083D01*
X170949D01*
Y282583D01*
X173103D01*
X172798Y283318D01*
X172185Y283932D01*
X171449Y284237D01*
X171305Y284499D01*
X171218Y284764D01*
X171369Y284966D01*
X174262D01*
Y283500D01*
D02*
G37*
%LPC*%
G36*
X173103Y281583D02*
X171449D01*
Y279929D01*
X172185Y280234D01*
X172798Y280847D01*
X173103Y281583D01*
D02*
G37*
%LPD*%
D18*
X151988Y309051D02*
X158741Y302298D01*
X160666D01*
X160927Y302037D01*
X160936Y309088D02*
X161000Y309024D01*
X160739Y305759D02*
X161000Y305498D01*
X158410Y305759D02*
X160739D01*
X158319Y309088D02*
X160936D01*
X153150Y311020D02*
X158410Y305759D01*
X154411Y312996D02*
X158319Y309088D01*
X150949Y312996D02*
X154411D01*
X150186Y303246D02*
X150949Y304009D01*
X150186Y302975D02*
Y303246D01*
X150949Y304009D02*
Y307090D01*
X135988Y318902D02*
X136580D01*
X136588Y318909D02*
Y321200D01*
X136848Y321461D01*
X136580Y318902D02*
X136588Y318909D01*
X131768Y312996D02*
X135307D01*
X130395Y314000D02*
X130764D01*
X131768Y312996D01*
X124531Y311028D02*
X135988D01*
X114500Y321059D02*
X124531Y311028D01*
X133307Y314965D02*
X135988D01*
X126253Y322018D02*
Y331400D01*
Y322018D02*
X133307Y314965D01*
X134413Y316933D02*
X135988D01*
X131978Y319369D02*
X134413Y316933D01*
X131978Y319369D02*
Y331400D01*
X119441Y309059D02*
X135988D01*
X114500Y314000D02*
X119441Y309059D01*
X150957Y311020D02*
X153150D01*
X172101Y274439D02*
X175162Y277500D01*
Y279650D01*
X171710Y274439D02*
X172101D01*
X184898D02*
Y274511D01*
X183038Y276371D02*
Y279650D01*
Y276371D02*
X184898Y274511D01*
X177131Y275977D02*
X178669Y274439D01*
X178700D01*
X177131Y275977D02*
Y279650D01*
X195853Y283118D02*
X197735Y285000D01*
X184138Y269546D02*
X195853Y281260D01*
X170949Y269546D02*
X184138D01*
X195853Y281260D02*
Y283118D01*
X181069Y286750D02*
Y299369D01*
X189141Y307441D01*
X198181D01*
X160792Y314418D02*
Y329128D01*
X162750Y312461D02*
X168094D01*
X160792Y314418D02*
X162750Y312461D01*
X162457Y330793D02*
Y333000D01*
X160792Y329128D02*
X162457Y330793D01*
X150949Y316933D02*
X154931D01*
X156900Y318902D01*
X150949D02*
Y320750D01*
X148486Y321336D02*
X150363D01*
X150949Y320750D01*
X175181Y312461D02*
X186289D01*
X188750Y310000D01*
X180478Y305449D02*
X180669Y305258D01*
X180478Y305449D02*
Y307343D01*
X179297Y308524D02*
X180478Y307343D01*
X179100Y286750D02*
Y300350D01*
X188750Y310000D01*
X175181Y310492D02*
X182861D01*
X183851Y309502D01*
X184309D02*
X184500Y309311D01*
X183851Y309502D02*
X184309D01*
X188750Y310000D02*
X198181D01*
X168094Y302855D02*
X170949Y300000D01*
X168094Y302855D02*
Y310492D01*
X181069Y279650D02*
X183038D01*
X179100D02*
X181069D01*
X329996Y315000D02*
Y315096D01*
X330000Y315100D01*
X267004Y295000D02*
X268480D01*
X175181Y308524D02*
X179297D01*
X175992Y292139D02*
X177131Y291000D01*
X175116Y292331D02*
X175307Y292139D01*
X177131Y286750D02*
Y291000D01*
X175307Y292139D02*
X175992D01*
X165145Y316279D02*
Y319098D01*
Y316279D02*
X166994Y314429D01*
X114500Y321059D02*
Y321874D01*
X150957Y309051D02*
X151988D01*
X150949Y311028D02*
X150957Y311020D01*
X183038Y296767D02*
X184500Y298229D01*
X183038Y286750D02*
Y296767D01*
X220819Y312559D02*
X220848Y312529D01*
X180454Y246398D02*
X181455Y245398D01*
X150949Y309059D02*
X150957Y309051D01*
X166994Y314429D02*
X168294D01*
X114500Y306126D02*
X115456Y307082D01*
X135307D01*
X135307Y307083D01*
D20*
X130111Y272807D02*
D03*
X147561Y280484D02*
D03*
Y277925D02*
D03*
Y275366D02*
D03*
Y272807D02*
D03*
X130111Y275366D02*
D03*
Y277925D02*
D03*
Y280484D02*
D03*
D21*
X329996Y274800D02*
D03*
Y284800D02*
D03*
Y294800D02*
D03*
Y304800D02*
D03*
Y314800D02*
D03*
Y324800D02*
D03*
Y334800D02*
D03*
Y344800D02*
D03*
Y354800D02*
D03*
Y364800D02*
D03*
Y374800D02*
D03*
Y384800D02*
D03*
Y394800D02*
D03*
X267004Y274800D02*
D03*
Y284800D02*
D03*
Y294800D02*
D03*
Y304800D02*
D03*
Y314800D02*
D03*
Y324800D02*
D03*
Y334800D02*
D03*
Y344800D02*
D03*
Y354800D02*
D03*
Y364800D02*
D03*
Y374800D02*
D03*
Y384800D02*
D03*
Y394800D02*
D03*
D22*
X220819Y317677D02*
D03*
X198181Y302323D02*
D03*
X220819D02*
D03*
Y304882D02*
D03*
Y307441D02*
D03*
Y310000D02*
D03*
Y312559D02*
D03*
Y315118D02*
D03*
X198181Y304882D02*
D03*
Y307441D02*
D03*
Y310000D02*
D03*
Y312559D02*
D03*
Y315118D02*
D03*
Y317677D02*
D03*
D23*
X156830Y279508D02*
D03*
Y273783D02*
D03*
X188369Y380327D02*
D03*
Y374603D02*
D03*
D24*
X112915Y238377D02*
D03*
Y245070D02*
D03*
X154336Y233277D02*
D03*
Y239970D02*
D03*
D25*
X301506Y257824D02*
D03*
X296781D02*
D03*
X292057D02*
D03*
X301506Y235776D02*
D03*
X296781D02*
D03*
X292057D02*
D03*
X287332D02*
D03*
X282608D02*
D03*
X287332Y257824D02*
D03*
X280639Y253887D02*
D03*
Y249162D02*
D03*
Y244438D02*
D03*
Y239713D02*
D03*
X306230Y257824D02*
D03*
X292057Y249162D02*
D03*
X287332D02*
D03*
Y244438D02*
D03*
X282608Y257824D02*
D03*
X292057Y244438D02*
D03*
D26*
X143671Y244223D02*
D03*
X123002D02*
D03*
Y239223D02*
D03*
Y234223D02*
D03*
X143671Y239223D02*
D03*
Y234223D02*
D03*
Y229223D02*
D03*
X123002D02*
D03*
D27*
X183038Y279650D02*
D03*
X181069D02*
D03*
X179100D02*
D03*
X175162D02*
D03*
Y286750D02*
D03*
X177131D02*
D03*
X179100D02*
D03*
X181069D02*
D03*
X183038D02*
D03*
X177131Y279650D02*
D03*
D28*
X175181Y314429D02*
D03*
Y312461D02*
D03*
Y310492D02*
D03*
Y308524D02*
D03*
X168094Y312461D02*
D03*
Y308524D02*
D03*
Y310492D02*
D03*
D29*
X168294Y314429D02*
D03*
D30*
X126557Y331400D02*
D03*
X132281D02*
D03*
D31*
X229574Y242303D02*
D03*
X234692D02*
D03*
Y247832D02*
D03*
X229574D02*
D03*
D32*
X222000Y245398D02*
D03*
X199000Y237720D02*
D03*
Y240280D02*
D03*
X222000Y247957D02*
D03*
Y242839D02*
D03*
Y240280D02*
D03*
Y237720D02*
D03*
Y235161D02*
D03*
Y232602D02*
D03*
Y230043D02*
D03*
X199000D02*
D03*
Y232602D02*
D03*
Y235161D02*
D03*
Y242839D02*
D03*
Y245398D02*
D03*
Y247957D02*
D03*
D33*
X186965Y224858D02*
D03*
Y232142D02*
D03*
Y252717D02*
D03*
Y245434D02*
D03*
D34*
X179543Y224444D02*
D03*
X172457D02*
D03*
X179543Y245000D02*
D03*
X172457D02*
D03*
X179543Y232728D02*
D03*
X172457D02*
D03*
Y253285D02*
D03*
X179543D02*
D03*
D35*
X150949Y309059D02*
D03*
Y311028D02*
D03*
Y312996D02*
D03*
Y314965D02*
D03*
Y316933D02*
D03*
X135988Y307090D02*
D03*
Y309059D02*
D03*
Y311028D02*
D03*
Y312996D02*
D03*
Y314965D02*
D03*
Y316933D02*
D03*
Y318902D02*
D03*
X150949D02*
D03*
Y307090D02*
D03*
D36*
X207732Y395345D02*
D03*
Y390420D02*
D03*
D37*
X176495Y376313D02*
D03*
Y383603D02*
D03*
D38*
X197133Y380352D02*
D03*
Y375431D02*
D03*
D39*
X195983Y395345D02*
D03*
Y392983D02*
D03*
Y390621D02*
D03*
Y388259D02*
D03*
X191083D02*
D03*
Y390621D02*
D03*
Y392983D02*
D03*
Y395345D02*
D03*
D52*
X114500Y306126D02*
D03*
X114000Y285374D02*
D03*
D53*
X114500Y314000D02*
D03*
Y321874D02*
D03*
X114000Y269626D02*
D03*
Y277500D02*
D03*
D55*
X143468Y312996D02*
D03*
D56*
X147561Y280484D02*
X148461D01*
X148561Y280584D02*
Y283986D01*
X150186Y285611D01*
X148461Y280484D02*
X148561Y280584D01*
X150186Y285611D02*
Y285844D01*
X290550Y232627D02*
X291429Y233506D01*
Y235148D02*
X292057Y235776D01*
X291429Y233506D02*
Y235148D01*
X274573Y232627D02*
X290550D01*
X267004Y240196D02*
X274573Y232627D01*
X113740Y239223D02*
X123002D01*
X112915Y238398D02*
X113740Y239223D01*
X112915Y238377D02*
Y238398D01*
X123002Y252114D02*
X125188Y254300D01*
X123002Y244223D02*
Y252114D01*
X296481Y235776D02*
Y235976D01*
X291668Y225868D02*
X296781Y230981D01*
Y235776D01*
X272802Y239713D02*
X280339D01*
X272802Y244438D02*
X280339D01*
X275361Y253887D02*
X280339D01*
X272802Y256546D02*
X275361Y253987D01*
X282508Y258024D02*
Y262079D01*
X284919Y264490D01*
X197133Y375431D02*
X203400D01*
X304008Y275000D02*
X329996D01*
X287032Y258024D02*
X304008Y275000D01*
X285558Y264490D02*
X285654Y264586D01*
X284919Y264490D02*
X285758D01*
X264823Y317181D02*
X267004Y315000D01*
X260219Y317181D02*
X264823D01*
X252000Y325400D02*
X260219Y317181D01*
X248000Y240200D02*
Y287472D01*
X265528Y305000D01*
X252400Y244600D02*
Y281872D01*
X265528Y295000D01*
X234692Y242697D02*
X240800Y248805D01*
Y323530D02*
X252000Y334730D01*
X240800Y248805D02*
Y323530D01*
X252000Y334730D02*
X266734D01*
X234692Y247832D02*
Y325892D01*
X253800Y345000D02*
X267004D01*
X234692Y325892D02*
X253800Y345000D01*
X210752Y310777D02*
Y332752D01*
X259813Y381813D01*
X263817D01*
X257357Y241543D02*
X273032Y225868D01*
X257357Y241543D02*
Y278957D01*
X260436Y282036D01*
X264040D01*
X267004Y285000D01*
X265528Y295000D02*
X267004D01*
Y240196D02*
Y275000D01*
X265528Y305000D02*
X267004D01*
X273032Y225868D02*
X291668D01*
X301206Y258024D02*
X305930D01*
X206933Y246098D02*
Y254767D01*
X197084Y264616D02*
X206933Y254767D01*
X266734Y334730D02*
X267004Y335000D01*
X234692Y242303D02*
Y242697D01*
X143671Y234223D02*
X153512D01*
X154336Y233398D01*
Y233377D02*
Y233398D01*
X145382Y244556D02*
Y244556D01*
X146725Y245899D02*
Y248573D01*
X145382Y244556D02*
X146725Y245899D01*
X145049Y244223D02*
X145382Y244556D01*
X143671Y244223D02*
X145049D01*
X146725Y248573D02*
X146821Y248669D01*
X276430Y296300D02*
Y312330D01*
X309100Y345000D01*
X281500Y293100D02*
Y307400D01*
X309100Y335000D01*
X286900Y302800D02*
X309100Y325000D01*
X286900Y289800D02*
Y302800D01*
X309100Y335000D02*
X309100D01*
X165813Y270957D02*
X172154Y264616D01*
X165813Y270957D02*
Y282182D01*
X172154Y264616D02*
X197084D01*
X156356Y261500D02*
X165813Y270957D01*
Y282182D02*
X170381Y286750D01*
X135096Y261500D02*
X156356D01*
X130111Y256515D02*
X135096Y261500D01*
X138096Y258000D02*
X167544D01*
X134500Y254404D02*
X138096Y258000D01*
X167544D02*
X172223Y253321D01*
X123002Y234223D02*
X123083Y234305D01*
X126531D01*
X130111Y237884D01*
X138772Y229223D02*
X143671D01*
X130111Y237884D02*
Y256515D01*
Y237884D02*
X138772Y229223D01*
X170381Y286750D02*
X174762D01*
X328707Y283711D02*
X329996Y285000D01*
X263817Y381813D02*
X267004Y385000D01*
X112915Y245048D02*
X113740Y244223D01*
X123002D01*
D57*
X223125Y247957D02*
Y251051D01*
X192233Y302323D02*
X198181D01*
X190260Y300350D02*
X192233Y302323D01*
X190000Y300350D02*
X190260D01*
X190000Y304882D02*
X198181D01*
X191775Y312559D02*
X198181D01*
X179100Y327900D02*
X189208Y317792D01*
X189885D02*
X190000Y317677D01*
X189208Y317792D02*
X189885D01*
X198181Y317677D02*
X201929D01*
X190000D02*
X198181D01*
X205900Y311604D02*
Y313707D01*
X201929Y317677D02*
X205900Y313707D01*
Y311604D02*
X215181Y302323D01*
X220819D01*
X216636Y304893D02*
X220808D01*
X210752Y310777D02*
X216636Y304893D01*
X217363Y307452D02*
X220808D01*
X215000Y309815D02*
Y330000D01*
Y309815D02*
X217363Y307452D01*
X220808D02*
X220819Y307441D01*
X229292Y317677D02*
X230808Y316161D01*
X230971D01*
X220819Y317677D02*
X229292D01*
X222000Y230043D02*
X229093D01*
X216712Y245398D02*
X222000D01*
X215892Y246218D02*
X216712Y245398D01*
X215892Y251606D02*
X217285Y253000D01*
X215892Y246218D02*
Y251606D01*
X206933Y245772D02*
Y246098D01*
X188138Y252857D02*
X191200D01*
X196100Y247957D02*
X199000D01*
X191200Y252857D02*
X196100Y247957D01*
X187853Y253142D02*
X188138Y252857D01*
X181451Y253142D02*
X187853D01*
X192400Y237323D02*
Y240957D01*
X194282Y242839D01*
X181455Y245398D02*
X199000D01*
Y242839D02*
X204000D01*
X194282D02*
X199000D01*
X220819Y310000D02*
X228776D01*
X230646Y308130D02*
X230808D01*
X228776Y310000D02*
X230646Y308130D01*
X220848Y312529D02*
X226600D01*
X155211Y238998D02*
X155408D01*
X169254Y225152D01*
X154336Y239873D02*
X155211Y238998D01*
X171749Y225152D02*
X172457Y224444D01*
X169254Y225152D02*
X171749D01*
X222000Y232602D02*
X244000D01*
X222000Y235161D02*
X239700D01*
X222000Y237720D02*
X236121D01*
X236200Y237800D01*
X199000Y237720D02*
X210500D01*
X192400Y237323D02*
X194561Y235161D01*
X199000D01*
X196216Y230043D02*
X199000D01*
X191031Y224858D02*
X196216Y230043D01*
X180995Y224858D02*
X191031D01*
X220808Y304893D02*
X220819Y304882D01*
X258916Y373916D02*
X265920D01*
X215000Y330000D02*
X258916Y373916D01*
X265920D02*
X267004Y375000D01*
X222000Y242839D02*
X225445D01*
X229093Y246487D02*
Y247351D01*
X225445Y242839D02*
X229093Y246487D01*
Y247351D02*
X229574Y247832D01*
X223125Y251051D02*
X224912Y252838D01*
X222000Y247957D02*
X223125D01*
X224912Y252838D02*
Y253000D01*
X222000Y240280D02*
X228273D01*
X229093Y241100D01*
Y241822D01*
X229574Y242303D01*
X180454Y224318D02*
X180995Y224858D01*
X188776Y232602D02*
X199000D01*
X204000Y242839D02*
X206933Y245772D01*
X187392Y232602D02*
X187853Y232142D01*
X180454Y232602D02*
X187392D01*
X180432Y254161D02*
X181451Y253142D01*
D58*
X168800Y374603D02*
X175942D01*
X168500D02*
X168800D01*
X198756Y390621D02*
X201111D01*
X201181Y390551D01*
X195983Y390621D02*
X198756D01*
X195983Y381327D02*
Y388259D01*
X196958Y380352D02*
X197133D01*
X195983Y381327D02*
X196958Y380352D01*
X175942Y374603D02*
X176495Y374050D01*
X199000Y237720D02*
Y240280D01*
X198756Y390621D02*
Y390760D01*
X196533Y392983D02*
X198756Y390760D01*
X195983Y392983D02*
X196533D01*
X191633Y392521D02*
Y392983D01*
X191171D02*
X191633D01*
Y392521D02*
X193533Y390621D01*
X191083D02*
X193533D01*
X195983D01*
X178206Y374603D02*
X179728D01*
X183307Y378181D02*
Y385596D01*
X179728Y374603D02*
X188369D01*
X179728D02*
X183307Y378181D01*
X176495Y376313D02*
X178206Y374603D01*
X183307Y385596D02*
X185969Y388259D01*
X176495Y383603D02*
X176543Y383651D01*
X176495Y369096D02*
Y374050D01*
X185969Y388259D02*
X191083D01*
X195983Y395345D02*
X207732D01*
X191083D02*
X195983D01*
D59*
X156830Y280544D02*
X157393Y279980D01*
X155885Y278472D02*
X157393Y279980D01*
X114000Y269626D02*
X114862D01*
X123161Y277925D02*
X130111D01*
X114862Y269626D02*
X123161Y277925D01*
X147561Y275366D02*
X154889D01*
X143480D02*
X147561D01*
X133526Y285320D02*
X143480Y275366D01*
X133471Y285375D02*
X133526Y285320D01*
X147747Y268736D02*
X150983Y265500D01*
X142000Y268736D02*
X147747D01*
X150075Y272807D02*
X153279Y269603D01*
X154273D02*
X154330Y269546D01*
X153279Y269603D02*
X154273D01*
X147561Y272807D02*
X150075D01*
X135370Y275366D02*
X142000Y268736D01*
X156230Y285015D02*
X156830Y284415D01*
Y280544D02*
Y284415D01*
X156230Y285015D02*
Y285096D01*
X155435Y278472D02*
X155885D01*
X147561Y277925D02*
X154889D01*
X155435Y278472D01*
X154889Y275366D02*
X155435Y274819D01*
X155885D02*
X156830Y273874D01*
X155435Y274819D02*
X155885D01*
X156830Y273783D02*
Y273874D01*
X130111Y275366D02*
X135370D01*
X114000Y277500D02*
X115021D01*
X118005Y280484D02*
X130111D01*
X115021Y277500D02*
X118005Y280484D01*
X114000Y285374D02*
X128349D01*
X128350Y285375D01*
X133471D01*
D60*
X188394Y380352D02*
X195983D01*
X197133D01*
X207732Y390420D02*
X212884D01*
X167500Y238692D02*
X169395D01*
X171508Y240805D01*
X173425Y236402D02*
X175715Y238692D01*
X177257D01*
X143671Y239223D02*
X153762D01*
X154336Y239798D01*
Y239873D01*
X116500Y227500D02*
X118223Y229223D01*
X123002D01*
X229607Y400496D02*
X233968Y396134D01*
X212884Y400496D02*
X229607D01*
X233968Y390634D02*
Y396134D01*
X208516Y396128D02*
X212884Y400496D01*
X208516Y396029D02*
Y396128D01*
X130111Y266280D02*
X130587Y265803D01*
X130111Y266280D02*
Y271957D01*
X114000Y285374D02*
X115736Y287110D01*
X171508Y244228D02*
X172280Y245000D01*
X171508Y240805D02*
Y244228D01*
X172280Y245000D02*
X172457D01*
X173425Y233500D02*
Y236402D01*
X172653Y232728D02*
X173425Y233500D01*
X172457Y232728D02*
X172653D01*
D61*
X169773Y383700D02*
X176495D01*
X167007Y386466D02*
X169773Y383700D01*
X176495D02*
X176543Y383651D01*
D62*
X172457Y333000D02*
D03*
X162457D02*
D03*
X161206Y296000D02*
D03*
X151206D02*
D03*
D63*
X197735Y285000D02*
D03*
Y275000D02*
D03*
D64*
X226094Y390634D02*
D03*
D65*
X233968D02*
D03*
D66*
X190000Y300350D02*
D03*
Y304882D02*
D03*
X160927Y302037D02*
D03*
X161000Y305498D02*
D03*
Y309024D02*
D03*
X136848Y321461D02*
D03*
X130395Y314000D02*
D03*
X191775Y312559D02*
D03*
X171710Y274439D02*
D03*
X184898D02*
D03*
X178700D02*
D03*
X201181Y390551D02*
D03*
X267004Y325000D02*
D03*
X146821Y248669D02*
D03*
X329996Y385000D02*
D03*
Y374800D02*
D03*
Y355000D02*
D03*
X285654Y264586D02*
D03*
X244000Y232602D02*
D03*
X239700Y235161D02*
D03*
X236200Y237800D02*
D03*
X276430Y296300D02*
D03*
X281500Y293100D02*
D03*
X286900Y289800D02*
D03*
X309100Y335000D02*
D03*
Y345000D02*
D03*
Y325000D02*
D03*
X167007Y386466D02*
D03*
X176495Y369096D02*
D03*
X330000Y315100D02*
D03*
X329996Y285000D02*
D03*
Y305000D02*
D03*
Y345000D02*
D03*
Y335000D02*
D03*
Y325000D02*
D03*
X116500Y227500D02*
D03*
X210500Y237720D02*
D03*
X154336Y233377D02*
D03*
X147406Y312996D02*
D03*
X170949Y269546D02*
D03*
X175116Y292331D02*
D03*
X150186Y302975D02*
D03*
X151000Y265500D02*
D03*
X154330Y269546D02*
D03*
X165145Y319098D02*
D03*
X170653D02*
D03*
X125268Y254404D02*
D03*
X156230Y285096D02*
D03*
X170949Y282083D02*
D03*
X137000Y250223D02*
D03*
X130587Y265803D02*
D03*
X144350Y285844D02*
D03*
X134500Y254404D02*
D03*
X150186Y285844D02*
D03*
X184500Y298229D02*
D03*
X224912Y253000D02*
D03*
X217285D02*
D03*
X177257Y238692D02*
D03*
X167500D02*
D03*
X139532Y312996D02*
D03*
X143468Y317721D02*
D03*
Y308272D02*
D03*
X310047Y385000D02*
D03*
X207100Y318900D02*
D03*
X112915Y238377D02*
D03*
X212884Y390420D02*
D03*
X272802Y239713D02*
D03*
X168800Y374603D02*
D03*
X203400Y375431D02*
D03*
X179100Y327900D02*
D03*
X252400Y244600D02*
D03*
X248000Y239800D02*
D03*
X162706Y312504D02*
D03*
X156900Y318902D02*
D03*
X148486Y321336D02*
D03*
X252000Y325400D02*
D03*
X180669Y305258D02*
D03*
X184500Y309311D02*
D03*
X230971Y316161D02*
D03*
X190000Y317677D02*
D03*
X170949Y300000D02*
D03*
X205900Y295635D02*
D03*
X272802Y244538D02*
D03*
Y256446D02*
D03*
X144424Y303649D02*
D03*
X229093Y230043D02*
D03*
X210500Y227275D02*
D03*
X206933Y246098D02*
D03*
X197437Y253000D02*
D03*
X230808Y308130D02*
D03*
X226600Y312529D02*
D03*
M02*
