G04*
G04 #@! TF.GenerationSoftware,Altium Limited,Altium Designer,24.2.2 (26)*
G04*
G04 Layer_Color=16711935*
%FSLAX25Y25*%
%MOIN*%
G70*
G04*
G04 #@! TF.SameCoordinates,57EBE310-F326-475D-97A3-4CF97A274748*
G04*
G04*
G04 #@! TF.FilePolarity,Positive*
G04*
G01*
G75*
%ADD10C,0.00394*%
%ADD80C,0.00000*%
%ADD81C,0.00100*%
G36*
X134188Y279900D02*
X134808Y280316D01*
X135020Y280004D01*
X134317Y279592D01*
X135020Y279180D01*
X134808Y278872D01*
X134180Y279305D01*
X134201Y278602D01*
X133797D01*
X133806Y279284D01*
X133190Y278872D01*
X132986Y279180D01*
X133681Y279592D01*
X132986Y280008D01*
X133190Y280320D01*
X133806Y279900D01*
X133797Y280586D01*
X134201D01*
X134188Y279900D01*
D02*
G37*
G36*
X203102Y246204D02*
X203722Y246620D01*
X203934Y246308D01*
X203231Y245897D01*
X203934Y245485D01*
X203722Y245177D01*
X203094Y245609D01*
X203115Y244906D01*
X202711D01*
X202719Y245589D01*
X202104Y245177D01*
X201900Y245485D01*
X202595Y245897D01*
X201900Y246313D01*
X202104Y246625D01*
X202719Y246204D01*
X202711Y246891D01*
X203115D01*
X203102Y246204D01*
D02*
G37*
D10*
X329996Y279032D02*
G03*
X329996Y270568I0J-4232D01*
G01*
Y289032D02*
G03*
X329996Y280568I0J-4232D01*
G01*
Y299032D02*
G03*
X329996Y290568I0J-4232D01*
G01*
Y309032D02*
G03*
X329996Y300568I0J-4232D01*
G01*
Y319032D02*
G03*
X329996Y310568I0J-4232D01*
G01*
Y329032D02*
G03*
X329996Y320568I0J-4232D01*
G01*
Y339032D02*
G03*
X329996Y330568I0J-4232D01*
G01*
Y349032D02*
G03*
X329996Y340568I0J-4232D01*
G01*
Y359032D02*
G03*
X329996Y350568I0J-4232D01*
G01*
Y369032D02*
G03*
X329996Y360568I0J-4232D01*
G01*
Y379032D02*
G03*
X329996Y370568I0J-4232D01*
G01*
Y389032D02*
G03*
X329996Y380568I0J-4232D01*
G01*
Y399032D02*
G03*
X329996Y390568I0J-4232D01*
G01*
X267004Y270568D02*
G03*
X267004Y279032I0J4232D01*
G01*
Y280568D02*
G03*
X267004Y289032I0J4232D01*
G01*
Y290568D02*
G03*
X267004Y299032I0J4232D01*
G01*
Y300568D02*
G03*
X267004Y309032I0J4232D01*
G01*
Y310568D02*
G03*
X267004Y319032I0J4232D01*
G01*
Y320568D02*
G03*
X267004Y329032I0J4232D01*
G01*
Y330568D02*
G03*
X267004Y339032I0J4232D01*
G01*
Y340568D02*
G03*
X267004Y349032I0J4232D01*
G01*
Y350568D02*
G03*
X267004Y359032I0J4232D01*
G01*
Y360568D02*
G03*
X267004Y369032I0J4232D01*
G01*
Y370568D02*
G03*
X267004Y379032I0J4232D01*
G01*
Y380568D02*
G03*
X267004Y389032I0J4232D01*
G01*
Y390568D02*
G03*
X267004Y399032I0J4232D01*
G01*
X216783Y303504D02*
G03*
X216783Y303504I-1969J0D01*
G01*
X149768Y308665D02*
G03*
X149768Y308665I-1969J0D01*
G01*
X130974Y243022D02*
G03*
X130974Y243022I-1969J0D01*
G01*
X329996Y268855D02*
Y270568D01*
Y279032D02*
Y280568D01*
Y289032D02*
Y290568D01*
Y299032D02*
Y300568D01*
Y309032D02*
Y310568D01*
Y319032D02*
Y320568D01*
Y329032D02*
Y330568D01*
Y339032D02*
Y340568D01*
Y349032D02*
Y350568D01*
Y359032D02*
Y360568D01*
Y369032D02*
Y370568D01*
Y379032D02*
Y380568D01*
Y389032D02*
Y390568D01*
Y399032D02*
Y400745D01*
X267004Y268855D02*
X329996D01*
X267004D02*
Y270568D01*
Y279032D02*
Y280568D01*
Y289032D02*
Y290568D01*
Y299032D02*
Y300568D01*
Y309032D02*
Y310568D01*
Y319032D02*
Y320568D01*
Y329032D02*
Y330568D01*
Y339032D02*
Y340568D01*
Y349032D02*
Y350568D01*
Y359032D02*
Y360568D01*
Y369032D02*
Y370568D01*
Y379032D02*
Y380568D01*
Y389032D02*
Y390568D01*
Y399032D02*
Y400745D01*
X329996D01*
X218358Y299961D02*
Y320039D01*
X200642Y299961D02*
Y320039D01*
Y299961D02*
X218358D01*
X200642Y320039D02*
X218358D01*
X277883Y233020D02*
X313317D01*
X277883Y260579D02*
X313317D01*
X277884Y233020D02*
Y260580D01*
X313316Y233020D02*
Y260580D01*
X319046Y283228D02*
Y286772D01*
X312353Y283228D02*
Y286772D01*
X319046D01*
X312353Y283228D02*
X319046D01*
Y303228D02*
Y306772D01*
X312353Y303228D02*
Y306772D01*
X319046D01*
X312353Y303228D02*
X319046D01*
Y323228D02*
Y326772D01*
X312353Y323228D02*
Y326772D01*
X319046D01*
X312353Y323228D02*
X319046D01*
Y343228D02*
Y346772D01*
X312353Y343228D02*
Y346772D01*
X319046D01*
X312353Y343228D02*
X319046D01*
Y333228D02*
Y336772D01*
X312353Y333228D02*
Y336772D01*
X319046D01*
X312353Y333228D02*
X319046D01*
X228787Y240532D02*
Y244075D01*
X235480Y240532D02*
Y244075D01*
X228787D02*
X235480D01*
X228787Y240532D02*
X235480D01*
X151342Y305122D02*
Y320870D01*
X135594Y305122D02*
Y320870D01*
Y305122D02*
X151342D01*
X135594Y320870D02*
X151342D01*
X140226Y242353D02*
Y246093D01*
X147116Y242353D02*
Y246093D01*
X140226Y242353D02*
X147116D01*
X140226Y246093D02*
X147116D01*
X218417Y383941D02*
X241646D01*
Y401658D01*
X218417Y383941D02*
Y401658D01*
X241646D01*
X199003Y374643D02*
Y381139D01*
X195263Y374643D02*
Y381139D01*
X199003D01*
X195263Y374643D02*
X199003D01*
X228787Y246060D02*
X235480D01*
X228787Y249604D02*
X235480D01*
Y246060D02*
Y249604D01*
X228787Y246060D02*
Y249604D01*
X125462Y226881D02*
Y246566D01*
X141210Y226881D02*
Y246566D01*
X125462D02*
X141210D01*
X125462Y226881D02*
X141210D01*
D80*
X137636Y282746D02*
G03*
X140036Y282746I1200J0D01*
G01*
X174000Y282000D02*
G03*
X174000Y284400I0J1200D01*
G01*
X170438Y315426D02*
G03*
X172838Y315426I1200J0D01*
G01*
X169994Y314429D02*
G03*
X169994Y314429I-300J0D01*
G01*
X209300Y249050D02*
G03*
X211700Y249050I1200J0D01*
G01*
X192333Y396902D02*
G03*
X194733Y396902I1200J0D01*
G01*
X192533Y395345D02*
G03*
X192533Y395345I-300J0D01*
G01*
D81*
X132736Y270546D02*
Y282746D01*
X144936D01*
Y270546D02*
Y282746D01*
X132736Y270546D02*
X144936D01*
Y281234D02*
X148786D01*
Y279734D02*
Y281234D01*
X144936Y279734D02*
X148786D01*
X144936D02*
Y281234D01*
Y278675D02*
X148786D01*
Y277175D02*
Y278675D01*
X144936Y277175D02*
X148786D01*
X144936D02*
Y278675D01*
Y276116D02*
X148786D01*
Y274616D02*
Y276116D01*
X144936Y274616D02*
X148786D01*
X144936D02*
Y276116D01*
Y273557D02*
X148786D01*
Y272057D02*
Y273557D01*
X144936Y272057D02*
X148786D01*
X144936D02*
Y273557D01*
X128886Y272057D02*
X132736D01*
X128886D02*
Y273557D01*
X132736D01*
Y272057D02*
Y273557D01*
X128886Y274616D02*
X132736D01*
X128886D02*
Y276116D01*
X132736D01*
Y274616D02*
Y276116D01*
X128886Y277175D02*
X132736D01*
X128886D02*
Y278675D01*
X132736D01*
Y277175D02*
Y278675D01*
X128886Y279734D02*
X132736D01*
X128886D02*
Y281234D01*
X132736D01*
Y279734D02*
Y281234D01*
X174000Y278100D02*
X184200D01*
X174000D02*
Y288300D01*
X184200D01*
Y278100D02*
Y288300D01*
X167688Y307526D02*
Y315426D01*
X175588D01*
Y307526D02*
Y315426D01*
X167688Y307526D02*
X175588D01*
X201650Y228950D02*
Y249050D01*
X219350D01*
Y228950D02*
Y249050D01*
X201650Y228950D02*
X219350D01*
Y248557D02*
X223500D01*
Y247357D02*
Y248557D01*
X219350Y247357D02*
X223500D01*
X219350D02*
Y248557D01*
Y245998D02*
X223500D01*
Y244798D02*
Y245998D01*
X219350Y244798D02*
X223500D01*
X219350D02*
Y245998D01*
Y243439D02*
X223500D01*
Y242239D02*
Y243439D01*
X219350Y242239D02*
X223500D01*
X219350D02*
Y243439D01*
Y240880D02*
X223500D01*
Y239680D02*
Y240880D01*
X219350Y239680D02*
X223500D01*
X219350D02*
Y240880D01*
Y238320D02*
X223500D01*
Y237121D02*
Y238320D01*
X219350Y237121D02*
X223500D01*
X219350D02*
Y238320D01*
Y235761D02*
X223500D01*
Y234561D02*
Y235761D01*
X219350Y234561D02*
X223500D01*
X219350D02*
Y235761D01*
Y233202D02*
X223500D01*
Y232002D02*
Y233202D01*
X219350Y232002D02*
X223500D01*
X219350D02*
Y233202D01*
Y230643D02*
X223500D01*
Y229443D02*
Y230643D01*
X219350Y229443D02*
X223500D01*
X219350D02*
Y230643D01*
X197500Y229443D02*
X201650D01*
X197500D02*
Y230643D01*
X201650D01*
Y229443D02*
Y230643D01*
X197500Y232002D02*
X201650D01*
X197500D02*
Y233202D01*
X201650D01*
Y232002D02*
Y233202D01*
X197500Y234561D02*
X201650D01*
X197500D02*
Y235761D01*
X201650D01*
Y234561D02*
Y235761D01*
X197500Y237121D02*
X201650D01*
X197500D02*
Y238320D01*
X201650D01*
Y237121D02*
Y238320D01*
X197500Y239680D02*
X201650D01*
X197500D02*
Y240880D01*
X201650D01*
Y239680D02*
Y240880D01*
X197500Y242239D02*
X201650D01*
X197500D02*
Y243439D01*
X201650D01*
Y242239D02*
Y243439D01*
X197500Y244798D02*
X201650D01*
X197500D02*
Y245998D01*
X201650D01*
Y244798D02*
Y245998D01*
X197500Y247357D02*
X201650D01*
X197500D02*
Y248557D01*
X201650D01*
Y247357D02*
Y248557D01*
X189383Y386702D02*
Y396902D01*
X197683D01*
Y386702D02*
Y396902D01*
X189383Y386702D02*
X197683D01*
M02*
