G04*
G04 #@! TF.GenerationSoftware,Altium Limited,Altium Designer,24.2.2 (26)*
G04*
G04 Layer_Color=16711935*
%FSLAX25Y25*%
%MOIN*%
G70*
G04*
G04 #@! TF.SameCoordinates,57EBE310-F326-475D-97A3-4CF97A274748*
G04*
G04*
G04 #@! TF.FilePolarity,Positive*
G04*
G01*
G75*
%ADD15C,0.00787*%
G36*
X156830Y279007D02*
X156446D01*
X156443Y279010D01*
X156440Y279017D01*
X156430Y279030D01*
X156417Y279043D01*
X156400Y279063D01*
X156381Y279086D01*
X156338Y279138D01*
X156289Y279201D01*
X156233Y279266D01*
X156174Y279335D01*
X156115Y279404D01*
X156112Y279407D01*
X156108Y279411D01*
X156099Y279420D01*
X156089Y279433D01*
X156059Y279466D01*
X156020Y279509D01*
X155974Y279558D01*
X155921Y279611D01*
X155869Y279663D01*
X155816Y279715D01*
X155813Y279719D01*
X155807Y279722D01*
X155800Y279732D01*
X155787Y279745D01*
X155751Y279775D01*
X155708Y279814D01*
X155656Y279853D01*
X155603Y279896D01*
X155548Y279935D01*
X155495Y279968D01*
X155489Y279971D01*
X155472Y279981D01*
X155443Y279994D01*
X155406Y280008D01*
X155364Y280021D01*
X155318Y280034D01*
X155265Y280044D01*
X155210Y280047D01*
X155206D01*
X155203D01*
X155183D01*
X155151Y280040D01*
X155115Y280034D01*
X155075Y280021D01*
X155033Y280004D01*
X154990Y279978D01*
X154954Y279945D01*
X154951Y279942D01*
X154941Y279929D01*
X154924Y279906D01*
X154908Y279873D01*
X154895Y279834D01*
X154878Y279788D01*
X154869Y279732D01*
X154865Y279670D01*
Y279637D01*
X154869Y279614D01*
X154872Y279588D01*
X154875Y279561D01*
X154888Y279499D01*
Y279496D01*
X154892Y279486D01*
X154898Y279469D01*
X154905Y279447D01*
X154911Y279424D01*
X154924Y279394D01*
X154947Y279335D01*
Y279332D01*
X154954Y279322D01*
X154960Y279306D01*
X154970Y279286D01*
X154993Y279240D01*
X155023Y279194D01*
Y279191D01*
X155029Y279184D01*
X155042Y279165D01*
X155059Y279135D01*
X155075Y279112D01*
Y279066D01*
X154560D01*
X154557Y279069D01*
X154550Y279086D01*
X154541Y279109D01*
X154531Y279141D01*
X154514Y279184D01*
X154498Y279240D01*
X154481Y279302D01*
X154462Y279378D01*
Y279381D01*
X154459Y279387D01*
X154455Y279397D01*
X154452Y279414D01*
X154449Y279433D01*
X154446Y279456D01*
X154436Y279509D01*
X154426Y279571D01*
X154416Y279640D01*
X154413Y279712D01*
X154409Y279788D01*
Y279827D01*
X154413Y279857D01*
X154416Y279893D01*
X154419Y279932D01*
X154426Y279978D01*
X154432Y280027D01*
X154455Y280129D01*
X154472Y280185D01*
X154488Y280237D01*
X154511Y280290D01*
X154537Y280339D01*
X154567Y280385D01*
X154600Y280427D01*
X154603Y280431D01*
X154610Y280437D01*
X154619Y280447D01*
X154632Y280463D01*
X154652Y280480D01*
X154675Y280496D01*
X154705Y280516D01*
X154734Y280539D01*
X154770Y280558D01*
X154809Y280578D01*
X154856Y280595D01*
X154901Y280614D01*
X154951Y280627D01*
X155006Y280637D01*
X155065Y280644D01*
X155128Y280647D01*
X155131D01*
X155138D01*
X155147D01*
X155164D01*
X155183Y280644D01*
X155206Y280641D01*
X155259Y280634D01*
X155324Y280621D01*
X155393Y280604D01*
X155469Y280578D01*
X155544Y280545D01*
X155548D01*
X155554Y280542D01*
X155564Y280536D01*
X155580Y280526D01*
X155597Y280516D01*
X155620Y280503D01*
X155672Y280467D01*
X155738Y280421D01*
X155810Y280365D01*
X155889Y280296D01*
X155974Y280217D01*
X155981Y280211D01*
X155997Y280194D01*
X156026Y280165D01*
X156059Y280129D01*
X156099Y280086D01*
X156141Y280040D01*
X156230Y279939D01*
X156233Y279932D01*
X156246Y279916D01*
X156266Y279893D01*
X156289Y279863D01*
X156341Y279798D01*
X156364Y279768D01*
X156384Y279742D01*
Y280752D01*
X156830D01*
Y279007D01*
D02*
G37*
G36*
Y278108D02*
X155961Y277449D01*
Y277239D01*
X156830D01*
Y276645D01*
X154459D01*
Y277665D01*
X154462Y277715D01*
X154465Y277767D01*
X154468Y277823D01*
X154475Y277882D01*
X154485Y277938D01*
Y277944D01*
X154491Y277964D01*
X154498Y277990D01*
X154508Y278026D01*
X154521Y278069D01*
X154537Y278115D01*
X154560Y278164D01*
X154587Y278210D01*
X154590Y278217D01*
X154600Y278230D01*
X154619Y278256D01*
X154642Y278282D01*
X154672Y278315D01*
X154708Y278351D01*
X154747Y278384D01*
X154793Y278413D01*
X154800Y278417D01*
X154816Y278427D01*
X154842Y278436D01*
X154878Y278453D01*
X154924Y278466D01*
X154980Y278476D01*
X155042Y278485D01*
X155111Y278489D01*
X155115D01*
X155124D01*
X155138D01*
X155157Y278485D01*
X155180D01*
X155206Y278482D01*
X155269Y278472D01*
X155338Y278459D01*
X155413Y278436D01*
X155485Y278407D01*
X155554Y278364D01*
X155557D01*
X155561Y278358D01*
X155570Y278351D01*
X155584Y278341D01*
X155613Y278315D01*
X155652Y278279D01*
X155695Y278230D01*
X155738Y278174D01*
X155784Y278108D01*
X155823Y278036D01*
X156830Y278836D01*
Y278108D01*
D02*
G37*
G36*
X112915Y246840D02*
Y246181D01*
X110990Y247234D01*
Y246109D01*
X110544D01*
Y247850D01*
X111016D01*
X112915Y246840D01*
D02*
G37*
G36*
Y244157D02*
X112502D01*
Y244655D01*
X111249D01*
Y244157D01*
X110862D01*
Y244196D01*
X110859Y244226D01*
Y244259D01*
X110855Y244295D01*
X110849Y244373D01*
Y244377D01*
X110845Y244393D01*
X110842Y244413D01*
X110839Y244436D01*
X110822Y244492D01*
X110813Y244521D01*
X110803Y244547D01*
X110800Y244550D01*
X110796Y244560D01*
X110786Y244573D01*
X110777Y244590D01*
X110744Y244629D01*
X110701Y244665D01*
X110698Y244669D01*
X110688Y244672D01*
X110675Y244678D01*
X110655Y244688D01*
X110632Y244695D01*
X110603Y244701D01*
X110573Y244708D01*
X110537Y244711D01*
Y245233D01*
X112502D01*
Y245722D01*
X112915D01*
Y244157D01*
D02*
G37*
G36*
Y243186D02*
X112046Y242527D01*
Y242317D01*
X112915D01*
Y241723D01*
X110544D01*
Y242743D01*
X110547Y242793D01*
X110550Y242845D01*
X110554Y242901D01*
X110560Y242960D01*
X110570Y243016D01*
Y243022D01*
X110576Y243042D01*
X110583Y243068D01*
X110593Y243104D01*
X110606Y243147D01*
X110623Y243193D01*
X110645Y243242D01*
X110672Y243288D01*
X110675Y243294D01*
X110685Y243307D01*
X110704Y243334D01*
X110727Y243360D01*
X110757Y243393D01*
X110793Y243429D01*
X110832Y243462D01*
X110878Y243491D01*
X110885Y243494D01*
X110901Y243504D01*
X110927Y243514D01*
X110964Y243531D01*
X111010Y243544D01*
X111065Y243553D01*
X111128Y243563D01*
X111196Y243566D01*
X111200D01*
X111210D01*
X111223D01*
X111242Y243563D01*
X111265D01*
X111292Y243560D01*
X111354Y243550D01*
X111423Y243537D01*
X111498Y243514D01*
X111570Y243484D01*
X111639Y243442D01*
X111643D01*
X111646Y243435D01*
X111656Y243429D01*
X111669Y243419D01*
X111698Y243393D01*
X111738Y243357D01*
X111780Y243307D01*
X111823Y243252D01*
X111869Y243186D01*
X111908Y243114D01*
X112915Y243914D01*
Y243186D01*
D02*
G37*
G36*
X153631Y242740D02*
X153674Y242737D01*
X153723Y242727D01*
X153776Y242717D01*
X153831Y242701D01*
X153887Y242678D01*
X153894Y242675D01*
X153910Y242665D01*
X153936Y242652D01*
X153972Y242629D01*
X154008Y242603D01*
X154051Y242570D01*
X154090Y242530D01*
X154130Y242488D01*
X154133Y242481D01*
X154146Y242465D01*
X154166Y242439D01*
X154186Y242406D01*
X154212Y242360D01*
X154238Y242311D01*
X154261Y242255D01*
X154284Y242193D01*
Y242189D01*
X154287Y242186D01*
Y242176D01*
X154290Y242163D01*
X154297Y242147D01*
X154300Y242127D01*
X154310Y242078D01*
X154320Y242019D01*
X154327Y241950D01*
X154333Y241871D01*
X154336Y241783D01*
Y241710D01*
X154333Y241684D01*
Y241651D01*
X154330Y241619D01*
X154327Y241543D01*
X154317Y241464D01*
X154307Y241383D01*
X154290Y241304D01*
Y241301D01*
X154287Y241294D01*
Y241284D01*
X154284Y241271D01*
X154274Y241235D01*
X154261Y241189D01*
X154245Y241140D01*
X154228Y241087D01*
X154209Y241035D01*
X154189Y240986D01*
X153674D01*
Y241041D01*
X153677Y241048D01*
X153687Y241064D01*
X153703Y241090D01*
X153723Y241130D01*
X153746Y241173D01*
X153772Y241225D01*
X153798Y241284D01*
X153822Y241346D01*
Y241350D01*
X153825Y241353D01*
X153828Y241363D01*
X153831Y241376D01*
X153841Y241409D01*
X153851Y241455D01*
X153861Y241504D01*
X153871Y241556D01*
X153877Y241612D01*
X153881Y241668D01*
Y241701D01*
X153877Y241724D01*
Y241753D01*
X153874Y241783D01*
X153867Y241855D01*
Y241858D01*
X153864Y241871D01*
X153861Y241891D01*
X153851Y241914D01*
X153831Y241970D01*
X153815Y241999D01*
X153798Y242025D01*
X153795Y242029D01*
X153792Y242035D01*
X153782Y242045D01*
X153772Y242058D01*
X153740Y242088D01*
X153700Y242114D01*
X153697D01*
X153690Y242120D01*
X153677Y242124D01*
X153657Y242130D01*
X153635Y242137D01*
X153605Y242140D01*
X153572Y242147D01*
X153533D01*
X153530D01*
X153516D01*
X153497Y242143D01*
X153474Y242140D01*
X153448Y242134D01*
X153421Y242127D01*
X153395Y242114D01*
X153372Y242097D01*
X153369Y242094D01*
X153362Y242088D01*
X153352Y242078D01*
X153339Y242065D01*
X153326Y242048D01*
X153310Y242029D01*
X153287Y241976D01*
Y241973D01*
X153284Y241963D01*
X153277Y241947D01*
X153270Y241924D01*
X153267Y241897D01*
X153261Y241868D01*
X153257Y241832D01*
X153254Y241792D01*
Y241753D01*
X153251Y241730D01*
Y241504D01*
X152838D01*
Y241661D01*
X152834Y241691D01*
Y241724D01*
X152831Y241792D01*
Y241796D01*
X152828Y241809D01*
Y241825D01*
X152821Y241845D01*
X152811Y241897D01*
X152792Y241947D01*
Y241950D01*
X152785Y241956D01*
X152778Y241970D01*
X152769Y241983D01*
X152746Y242019D01*
X152710Y242048D01*
X152706Y242052D01*
X152700Y242055D01*
X152687Y242061D01*
X152670Y242068D01*
X152647Y242074D01*
X152621Y242078D01*
X152592Y242084D01*
X152559D01*
X152555D01*
X152546D01*
X152536Y242081D01*
X152519D01*
X152480Y242068D01*
X152460Y242061D01*
X152444Y242048D01*
X152441D01*
X152437Y242042D01*
X152418Y242025D01*
X152395Y241999D01*
X152372Y241966D01*
Y241963D01*
X152368Y241956D01*
X152362Y241943D01*
X152355Y241930D01*
X152349Y241911D01*
X152342Y241888D01*
X152332Y241832D01*
Y241828D01*
X152329Y241819D01*
Y241806D01*
X152326Y241789D01*
X152322Y241746D01*
Y241671D01*
X152326Y241648D01*
X152329Y241622D01*
X152332Y241589D01*
X152346Y241524D01*
Y241520D01*
X152349Y241507D01*
X152352Y241491D01*
X152359Y241468D01*
X152368Y241441D01*
X152375Y241412D01*
X152398Y241350D01*
Y241346D01*
X152401Y241340D01*
X152408Y241323D01*
X152414Y241307D01*
X152424Y241287D01*
X152437Y241261D01*
X152464Y241209D01*
Y241205D01*
X152470Y241196D01*
X152477Y241186D01*
X152487Y241169D01*
X152506Y241133D01*
X152513Y241117D01*
X152523Y241104D01*
Y241054D01*
X152017D01*
X152014Y241061D01*
X152008Y241077D01*
X151998Y241104D01*
X151985Y241140D01*
X151968Y241189D01*
X151952Y241245D01*
X151936Y241310D01*
X151916Y241383D01*
Y241386D01*
X151912Y241392D01*
Y241402D01*
X151909Y241419D01*
X151903Y241438D01*
X151899Y241458D01*
X151890Y241514D01*
X151883Y241576D01*
X151873Y241648D01*
X151870Y241727D01*
X151867Y241806D01*
Y241861D01*
X151870Y241881D01*
Y241930D01*
X151876Y241989D01*
X151883Y242052D01*
X151893Y242114D01*
X151906Y242173D01*
Y242179D01*
X151912Y242199D01*
X151922Y242229D01*
X151932Y242265D01*
X151949Y242304D01*
X151965Y242350D01*
X151988Y242396D01*
X152011Y242439D01*
X152014Y242445D01*
X152024Y242458D01*
X152041Y242481D01*
X152063Y242508D01*
X152090Y242537D01*
X152122Y242566D01*
X152158Y242596D01*
X152201Y242619D01*
X152208Y242622D01*
X152221Y242629D01*
X152244Y242639D01*
X152277Y242652D01*
X152316Y242662D01*
X152359Y242671D01*
X152408Y242678D01*
X152460Y242681D01*
X152464D01*
X152470D01*
X152480D01*
X152493Y242678D01*
X152532Y242675D01*
X152582Y242668D01*
X152637Y242652D01*
X152697Y242632D01*
X152755Y242603D01*
X152814Y242563D01*
X152821Y242557D01*
X152838Y242544D01*
X152864Y242517D01*
X152896Y242481D01*
X152929Y242435D01*
X152962Y242383D01*
X152988Y242324D01*
X153011Y242255D01*
X153034D01*
Y242258D01*
X153038Y242268D01*
X153041Y242288D01*
X153044Y242307D01*
X153051Y242334D01*
X153057Y242360D01*
X153077Y242419D01*
Y242422D01*
X153084Y242432D01*
X153090Y242448D01*
X153100Y242468D01*
X153113Y242494D01*
X153129Y242521D01*
X153152Y242547D01*
X153175Y242576D01*
X153179Y242580D01*
X153185Y242589D01*
X153202Y242603D01*
X153218Y242619D01*
X153241Y242635D01*
X153270Y242658D01*
X153300Y242675D01*
X153336Y242694D01*
X153339Y242698D01*
X153352Y242701D01*
X153375Y242711D01*
X153402Y242721D01*
X153434Y242727D01*
X153477Y242737D01*
X153520Y242740D01*
X153569Y242744D01*
X153572D01*
X153576D01*
X153585D01*
X153598D01*
X153631Y242740D01*
D02*
G37*
G36*
X154287Y239057D02*
X153874D01*
Y239556D01*
X152621D01*
Y239057D01*
X152234D01*
Y239096D01*
X152231Y239126D01*
Y239159D01*
X152227Y239195D01*
X152221Y239273D01*
Y239277D01*
X152218Y239293D01*
X152214Y239313D01*
X152211Y239336D01*
X152195Y239391D01*
X152185Y239421D01*
X152175Y239447D01*
X152172Y239451D01*
X152168Y239460D01*
X152158Y239474D01*
X152149Y239490D01*
X152116Y239529D01*
X152073Y239565D01*
X152070Y239569D01*
X152060Y239572D01*
X152047Y239579D01*
X152027Y239588D01*
X152004Y239595D01*
X151975Y239601D01*
X151945Y239608D01*
X151909Y239611D01*
Y240133D01*
X153874D01*
Y240621D01*
X154287D01*
Y239057D01*
D02*
G37*
G36*
Y238086D02*
X153418Y237427D01*
Y237217D01*
X154287D01*
Y236623D01*
X151916D01*
Y237643D01*
X151919Y237692D01*
X151922Y237745D01*
X151926Y237801D01*
X151932Y237860D01*
X151942Y237915D01*
Y237922D01*
X151949Y237942D01*
X151955Y237968D01*
X151965Y238004D01*
X151978Y238047D01*
X151995Y238093D01*
X152017Y238142D01*
X152044Y238188D01*
X152047Y238194D01*
X152057Y238207D01*
X152076Y238234D01*
X152100Y238260D01*
X152129Y238293D01*
X152165Y238329D01*
X152204Y238362D01*
X152250Y238391D01*
X152257Y238394D01*
X152273Y238404D01*
X152300Y238414D01*
X152336Y238431D01*
X152382Y238444D01*
X152437Y238453D01*
X152500Y238463D01*
X152568Y238467D01*
X152572D01*
X152582D01*
X152595D01*
X152614Y238463D01*
X152637D01*
X152664Y238460D01*
X152726Y238450D01*
X152795Y238437D01*
X152870Y238414D01*
X152943Y238385D01*
X153011Y238342D01*
X153015D01*
X153018Y238335D01*
X153028Y238329D01*
X153041Y238319D01*
X153070Y238293D01*
X153110Y238257D01*
X153152Y238207D01*
X153195Y238152D01*
X153241Y238086D01*
X153280Y238014D01*
X154287Y238814D01*
Y238086D01*
D02*
G37*
G36*
X176449Y384412D02*
X176036D01*
Y384911D01*
X174783D01*
Y384412D01*
X174396D01*
Y384452D01*
X174392Y384481D01*
Y384514D01*
X174389Y384550D01*
X174383Y384629D01*
Y384632D01*
X174379Y384648D01*
X174376Y384668D01*
X174373Y384691D01*
X174356Y384747D01*
X174347Y384776D01*
X174337Y384803D01*
X174333Y384806D01*
X174330Y384816D01*
X174320Y384829D01*
X174311Y384845D01*
X174278Y384885D01*
X174235Y384921D01*
X174232Y384924D01*
X174222Y384927D01*
X174209Y384934D01*
X174189Y384944D01*
X174166Y384950D01*
X174137Y384957D01*
X174107Y384963D01*
X174071Y384967D01*
Y385488D01*
X176036D01*
Y385977D01*
X176449D01*
Y384412D01*
D02*
G37*
G36*
Y382336D02*
X176036D01*
Y382835D01*
X174783D01*
Y382336D01*
X174396D01*
Y382375D01*
X174392Y382405D01*
Y382438D01*
X174389Y382474D01*
X174383Y382553D01*
Y382556D01*
X174379Y382572D01*
X174376Y382592D01*
X174373Y382615D01*
X174356Y382671D01*
X174347Y382700D01*
X174337Y382726D01*
X174333Y382730D01*
X174330Y382739D01*
X174320Y382753D01*
X174311Y382769D01*
X174278Y382808D01*
X174235Y382844D01*
X174232Y382848D01*
X174222Y382851D01*
X174209Y382858D01*
X174189Y382867D01*
X174166Y382874D01*
X174137Y382880D01*
X174107Y382887D01*
X174071Y382890D01*
Y383412D01*
X176036D01*
Y383901D01*
X176449D01*
Y382336D01*
D02*
G37*
G36*
X176292Y381916D02*
X176298Y381906D01*
X176305Y381893D01*
X176311Y381877D01*
X176324Y381854D01*
X176334Y381828D01*
X176364Y381765D01*
Y381762D01*
X176370Y381752D01*
X176377Y381733D01*
X176387Y381713D01*
X176397Y381687D01*
X176406Y381657D01*
X176429Y381592D01*
Y381588D01*
X176433Y381572D01*
X176439Y381552D01*
X176446Y381523D01*
X176452Y381490D01*
X176462Y381457D01*
X176475Y381382D01*
Y381378D01*
X176479Y381365D01*
X176482Y381342D01*
X176485Y381313D01*
X176488Y381277D01*
X176492Y381231D01*
X176495Y381175D01*
Y381093D01*
X176492Y381063D01*
X176488Y381027D01*
X176485Y380981D01*
X176479Y380929D01*
X176469Y380873D01*
X176456Y380811D01*
X176439Y380742D01*
X176416Y380673D01*
X176390Y380604D01*
X176360Y380532D01*
X176321Y380463D01*
X176278Y380394D01*
X176229Y380332D01*
X176173Y380270D01*
X176170Y380266D01*
X176157Y380257D01*
X176141Y380240D01*
X176114Y380221D01*
X176082Y380198D01*
X176042Y380171D01*
X175993Y380142D01*
X175941Y380116D01*
X175878Y380086D01*
X175809Y380057D01*
X175737Y380030D01*
X175655Y380007D01*
X175567Y379988D01*
X175472Y379971D01*
X175373Y379961D01*
X175265Y379958D01*
X175262D01*
X175258D01*
X175239D01*
X175209Y379961D01*
X175170Y379965D01*
X175124Y379968D01*
X175068Y379975D01*
X175006Y379984D01*
X174940Y379997D01*
X174871Y380014D01*
X174796Y380033D01*
X174724Y380060D01*
X174648Y380089D01*
X174573Y380125D01*
X174501Y380168D01*
X174432Y380214D01*
X174366Y380270D01*
X174363Y380273D01*
X174353Y380283D01*
X174333Y380303D01*
X174314Y380329D01*
X174287Y380358D01*
X174258Y380398D01*
X174229Y380444D01*
X174196Y380493D01*
X174166Y380552D01*
X174137Y380614D01*
X174107Y380683D01*
X174081Y380758D01*
X174058Y380840D01*
X174041Y380926D01*
X174032Y381017D01*
X174028Y381116D01*
Y381165D01*
X174032Y381201D01*
Y381241D01*
X174035Y381283D01*
X174045Y381368D01*
Y381375D01*
X174048Y381388D01*
X174051Y381411D01*
X174058Y381441D01*
X174065Y381473D01*
X174071Y381509D01*
X174091Y381588D01*
Y381592D01*
X174094Y381601D01*
X174101Y381618D01*
X174107Y381641D01*
X174117Y381667D01*
X174127Y381697D01*
X174156Y381762D01*
X174160Y381765D01*
X174163Y381779D01*
X174169Y381795D01*
X174179Y381818D01*
X174202Y381870D01*
X174215Y381896D01*
X174229Y381920D01*
X174789D01*
Y381857D01*
X174786Y381854D01*
X174783Y381851D01*
X174776Y381841D01*
X174763Y381828D01*
X174737Y381795D01*
X174701Y381749D01*
X174697Y381746D01*
X174691Y381739D01*
X174681Y381723D01*
X174668Y381706D01*
X174652Y381683D01*
X174635Y381660D01*
X174596Y381601D01*
X174593Y381598D01*
X174586Y381588D01*
X174579Y381569D01*
X174566Y381549D01*
X174553Y381519D01*
X174540Y381490D01*
X174524Y381454D01*
X174511Y381418D01*
X174507Y381414D01*
X174504Y381401D01*
X174497Y381382D01*
X174491Y381355D01*
X174484Y381323D01*
X174481Y381290D01*
X174475Y381250D01*
Y381188D01*
X174478Y381165D01*
X174481Y381132D01*
X174484Y381096D01*
X174491Y381057D01*
X174504Y381017D01*
X174517Y380975D01*
X174520Y380972D01*
X174524Y380959D01*
X174533Y380936D01*
X174550Y380909D01*
X174570Y380880D01*
X174593Y380844D01*
X174622Y380808D01*
X174658Y380771D01*
X174661Y380768D01*
X174675Y380758D01*
X174694Y380742D01*
X174721Y380719D01*
X174757Y380696D01*
X174799Y380673D01*
X174848Y380650D01*
X174904Y380627D01*
X174907D01*
X174911Y380624D01*
X174921Y380621D01*
X174930Y380617D01*
X174963Y380611D01*
X175006Y380601D01*
X175062Y380588D01*
X175124Y380581D01*
X175193Y380575D01*
X175268Y380571D01*
X175271D01*
X175278D01*
X175288D01*
X175304D01*
X175324Y380575D01*
X175347D01*
X175396Y380578D01*
X175455Y380585D01*
X175517Y380594D01*
X175580Y380608D01*
X175639Y380627D01*
X175645Y380630D01*
X175665Y380637D01*
X175691Y380650D01*
X175724Y380670D01*
X175763Y380690D01*
X175806Y380716D01*
X175846Y380749D01*
X175882Y380781D01*
X175885Y380785D01*
X175895Y380798D01*
X175911Y380817D01*
X175931Y380844D01*
X175951Y380873D01*
X175973Y380909D01*
X175993Y380949D01*
X176010Y380988D01*
Y380995D01*
X176016Y381008D01*
X176023Y381031D01*
X176029Y381060D01*
X176036Y381093D01*
X176042Y381132D01*
X176046Y381172D01*
X176049Y381214D01*
Y381234D01*
X176046Y381257D01*
Y381287D01*
X176039Y381319D01*
X176032Y381359D01*
X176026Y381398D01*
X176013Y381437D01*
X176010Y381441D01*
X176006Y381457D01*
X175996Y381477D01*
X175987Y381500D01*
X175973Y381529D01*
X175960Y381559D01*
X175941Y381588D01*
X175924Y381618D01*
X175921Y381621D01*
X175914Y381631D01*
X175905Y381647D01*
X175895Y381667D01*
X175862Y381713D01*
X175826Y381759D01*
X175823Y381762D01*
X175816Y381769D01*
X175809Y381779D01*
X175796Y381795D01*
X175767Y381828D01*
X175734Y381864D01*
Y381920D01*
X176292D01*
Y381916D01*
D02*
G37*
G36*
X129419Y329029D02*
X128399D01*
X128350Y329032D01*
X128298Y329035D01*
X128242Y329038D01*
X128183Y329045D01*
X128127Y329055D01*
X128121D01*
X128101Y329061D01*
X128075Y329068D01*
X128039Y329078D01*
X127996Y329091D01*
X127950Y329107D01*
X127901Y329130D01*
X127855Y329156D01*
X127848Y329160D01*
X127835Y329170D01*
X127809Y329189D01*
X127783Y329212D01*
X127750Y329242D01*
X127714Y329278D01*
X127681Y329317D01*
X127651Y329363D01*
X127648Y329370D01*
X127638Y329386D01*
X127629Y329412D01*
X127612Y329448D01*
X127599Y329494D01*
X127589Y329550D01*
X127579Y329612D01*
X127576Y329681D01*
Y329685D01*
Y329694D01*
Y329708D01*
X127579Y329727D01*
Y329750D01*
X127583Y329776D01*
X127592Y329839D01*
X127605Y329908D01*
X127629Y329983D01*
X127658Y330055D01*
X127701Y330124D01*
Y330127D01*
X127707Y330131D01*
X127714Y330140D01*
X127724Y330154D01*
X127750Y330183D01*
X127786Y330223D01*
X127835Y330265D01*
X127891Y330308D01*
X127956Y330354D01*
X128029Y330393D01*
X127228Y331400D01*
X127956D01*
X128616Y330531D01*
X128826D01*
Y331400D01*
X129419D01*
Y329029D01*
D02*
G37*
G36*
X126986Y330987D02*
X126487D01*
Y329734D01*
X126986D01*
Y329347D01*
X126946D01*
X126917Y329344D01*
X126884D01*
X126848Y329340D01*
X126769Y329334D01*
X126766D01*
X126749Y329330D01*
X126730Y329327D01*
X126707Y329324D01*
X126651Y329307D01*
X126621Y329298D01*
X126595Y329288D01*
X126592Y329284D01*
X126582Y329281D01*
X126569Y329271D01*
X126553Y329261D01*
X126513Y329229D01*
X126477Y329186D01*
X126474Y329183D01*
X126471Y329173D01*
X126464Y329160D01*
X126454Y329140D01*
X126448Y329117D01*
X126441Y329088D01*
X126435Y329058D01*
X126431Y329022D01*
X125910D01*
Y330987D01*
X125421D01*
Y331400D01*
X126986D01*
Y330987D01*
D02*
G37*
G36*
X186919Y233561D02*
Y232902D01*
X184993Y233955D01*
Y232830D01*
X184547D01*
Y234571D01*
X185020D01*
X186919Y233561D01*
D02*
G37*
G36*
Y230878D02*
X186505D01*
Y231377D01*
X185252D01*
Y230878D01*
X184865D01*
Y230917D01*
X184862Y230947D01*
Y230980D01*
X184859Y231016D01*
X184852Y231094D01*
Y231098D01*
X184849Y231114D01*
X184846Y231134D01*
X184843Y231157D01*
X184826Y231212D01*
X184816Y231242D01*
X184806Y231268D01*
X184803Y231272D01*
X184800Y231281D01*
X184790Y231294D01*
X184780Y231311D01*
X184747Y231350D01*
X184705Y231386D01*
X184702Y231390D01*
X184692Y231393D01*
X184678Y231399D01*
X184659Y231409D01*
X184636Y231416D01*
X184606Y231422D01*
X184577Y231429D01*
X184541Y231432D01*
Y231954D01*
X186505D01*
Y232442D01*
X186919D01*
Y230878D01*
D02*
G37*
G36*
X186761Y230458D02*
X186768Y230448D01*
X186775Y230435D01*
X186781Y230419D01*
X186794Y230396D01*
X186804Y230369D01*
X186834Y230307D01*
Y230304D01*
X186840Y230294D01*
X186847Y230274D01*
X186856Y230255D01*
X186866Y230228D01*
X186876Y230199D01*
X186899Y230133D01*
Y230130D01*
X186902Y230114D01*
X186909Y230094D01*
X186916Y230065D01*
X186922Y230032D01*
X186932Y229999D01*
X186945Y229924D01*
Y229920D01*
X186948Y229907D01*
X186952Y229884D01*
X186955Y229855D01*
X186958Y229819D01*
X186961Y229773D01*
X186965Y229717D01*
Y229635D01*
X186961Y229605D01*
X186958Y229569D01*
X186955Y229523D01*
X186948Y229471D01*
X186938Y229415D01*
X186925Y229353D01*
X186909Y229284D01*
X186886Y229215D01*
X186860Y229146D01*
X186830Y229074D01*
X186791Y229005D01*
X186748Y228936D01*
X186699Y228874D01*
X186643Y228812D01*
X186640Y228808D01*
X186627Y228798D01*
X186610Y228782D01*
X186584Y228762D01*
X186551Y228739D01*
X186512Y228713D01*
X186463Y228684D01*
X186410Y228657D01*
X186348Y228628D01*
X186279Y228598D01*
X186207Y228572D01*
X186125Y228549D01*
X186036Y228530D01*
X185941Y228513D01*
X185843Y228503D01*
X185735Y228500D01*
X185731D01*
X185728D01*
X185708D01*
X185679Y228503D01*
X185640Y228506D01*
X185594Y228510D01*
X185538Y228516D01*
X185476Y228526D01*
X185410Y228539D01*
X185341Y228556D01*
X185266Y228575D01*
X185194Y228602D01*
X185118Y228631D01*
X185043Y228667D01*
X184970Y228710D01*
X184902Y228756D01*
X184836Y228812D01*
X184833Y228815D01*
X184823Y228825D01*
X184803Y228844D01*
X184783Y228871D01*
X184757Y228900D01*
X184728Y228940D01*
X184698Y228985D01*
X184665Y229035D01*
X184636Y229094D01*
X184606Y229156D01*
X184577Y229225D01*
X184551Y229300D01*
X184528Y229382D01*
X184511Y229468D01*
X184501Y229559D01*
X184498Y229658D01*
Y229707D01*
X184501Y229743D01*
Y229782D01*
X184505Y229825D01*
X184514Y229910D01*
Y229917D01*
X184518Y229930D01*
X184521Y229953D01*
X184528Y229982D01*
X184534Y230015D01*
X184541Y230051D01*
X184560Y230130D01*
Y230133D01*
X184564Y230143D01*
X184570Y230160D01*
X184577Y230183D01*
X184587Y230209D01*
X184597Y230238D01*
X184626Y230304D01*
X184629Y230307D01*
X184633Y230320D01*
X184639Y230337D01*
X184649Y230360D01*
X184672Y230412D01*
X184685Y230438D01*
X184698Y230461D01*
X185259D01*
Y230399D01*
X185256Y230396D01*
X185252Y230393D01*
X185246Y230383D01*
X185233Y230369D01*
X185207Y230337D01*
X185170Y230291D01*
X185167Y230288D01*
X185161Y230281D01*
X185151Y230265D01*
X185138Y230248D01*
X185121Y230225D01*
X185105Y230202D01*
X185066Y230143D01*
X185062Y230140D01*
X185056Y230130D01*
X185049Y230110D01*
X185036Y230091D01*
X185023Y230061D01*
X185010Y230032D01*
X184993Y229996D01*
X184980Y229960D01*
X184977Y229956D01*
X184974Y229943D01*
X184967Y229924D01*
X184961Y229897D01*
X184954Y229864D01*
X184951Y229832D01*
X184944Y229792D01*
Y229730D01*
X184948Y229707D01*
X184951Y229674D01*
X184954Y229638D01*
X184961Y229599D01*
X184974Y229559D01*
X184987Y229517D01*
X184990Y229514D01*
X184993Y229500D01*
X185003Y229477D01*
X185020Y229451D01*
X185039Y229422D01*
X185062Y229386D01*
X185092Y229349D01*
X185128Y229313D01*
X185131Y229310D01*
X185144Y229300D01*
X185164Y229284D01*
X185190Y229261D01*
X185226Y229238D01*
X185269Y229215D01*
X185318Y229192D01*
X185374Y229169D01*
X185377D01*
X185380Y229166D01*
X185390Y229163D01*
X185400Y229159D01*
X185433Y229153D01*
X185476Y229143D01*
X185531Y229130D01*
X185594Y229123D01*
X185662Y229117D01*
X185738Y229113D01*
X185741D01*
X185748D01*
X185758D01*
X185774D01*
X185794Y229117D01*
X185817D01*
X185866Y229120D01*
X185925Y229126D01*
X185987Y229136D01*
X186050Y229149D01*
X186109Y229169D01*
X186115Y229172D01*
X186135Y229179D01*
X186161Y229192D01*
X186194Y229212D01*
X186233Y229231D01*
X186276Y229258D01*
X186315Y229290D01*
X186351Y229323D01*
X186355Y229327D01*
X186364Y229340D01*
X186381Y229359D01*
X186400Y229386D01*
X186420Y229415D01*
X186443Y229451D01*
X186463Y229490D01*
X186479Y229530D01*
Y229536D01*
X186486Y229550D01*
X186492Y229573D01*
X186499Y229602D01*
X186505Y229635D01*
X186512Y229674D01*
X186515Y229714D01*
X186519Y229756D01*
Y229776D01*
X186515Y229799D01*
Y229828D01*
X186509Y229861D01*
X186502Y229901D01*
X186496Y229940D01*
X186483Y229979D01*
X186479Y229982D01*
X186476Y229999D01*
X186466Y230019D01*
X186456Y230042D01*
X186443Y230071D01*
X186430Y230101D01*
X186410Y230130D01*
X186394Y230160D01*
X186391Y230163D01*
X186384Y230173D01*
X186374Y230189D01*
X186364Y230209D01*
X186332Y230255D01*
X186296Y230301D01*
X186292Y230304D01*
X186286Y230311D01*
X186279Y230320D01*
X186266Y230337D01*
X186237Y230369D01*
X186204Y230406D01*
Y230461D01*
X186761D01*
Y230458D01*
D02*
G37*
G36*
X182061Y226418D02*
X181051D01*
Y226022D01*
X181071D01*
X181084Y226025D01*
X181117D01*
X181163Y226028D01*
X181186D01*
X181202Y226031D01*
X181297D01*
X181330Y226028D01*
X181373D01*
X181419Y226022D01*
X181471Y226015D01*
X181527Y226008D01*
X181582Y225995D01*
X181589D01*
X181606Y225989D01*
X181635Y225982D01*
X181668Y225969D01*
X181707Y225956D01*
X181753Y225936D01*
X181796Y225917D01*
X181838Y225890D01*
X181845Y225887D01*
X181861Y225874D01*
X181888Y225854D01*
X181917Y225828D01*
X181950Y225795D01*
X181986Y225753D01*
X182022Y225707D01*
X182052Y225654D01*
X182055Y225648D01*
X182065Y225628D01*
X182074Y225595D01*
X182091Y225553D01*
X182104Y225500D01*
X182114Y225441D01*
X182124Y225369D01*
X182127Y225293D01*
Y225290D01*
Y225287D01*
Y225277D01*
Y225264D01*
X182124Y225228D01*
X182120Y225182D01*
X182111Y225129D01*
X182101Y225074D01*
X182084Y225011D01*
X182061Y224952D01*
Y224949D01*
X182058Y224946D01*
X182048Y224926D01*
X182035Y224897D01*
X182016Y224860D01*
X181989Y224818D01*
X181956Y224772D01*
X181917Y224726D01*
X181874Y224680D01*
X181868Y224673D01*
X181851Y224660D01*
X181825Y224641D01*
X181789Y224614D01*
X181746Y224585D01*
X181697Y224555D01*
X181638Y224529D01*
X181576Y224503D01*
X181573D01*
X181569Y224500D01*
X181560Y224496D01*
X181546Y224493D01*
X181530Y224490D01*
X181510Y224483D01*
X181461Y224473D01*
X181399Y224464D01*
X181327Y224454D01*
X181245Y224447D01*
X181156Y224444D01*
X181114D01*
X181090Y224447D01*
X181064D01*
X181002Y224450D01*
X180930Y224457D01*
X180854Y224464D01*
X180776Y224477D01*
X180700Y224490D01*
X180697D01*
X180690Y224493D01*
X180681D01*
X180667Y224496D01*
X180635Y224506D01*
X180589Y224519D01*
X180540Y224532D01*
X180487Y224549D01*
X180438Y224565D01*
X180389Y224585D01*
Y225103D01*
X180444D01*
X180448Y225100D01*
X180457Y225093D01*
X180471Y225087D01*
X180503Y225067D01*
X180543Y225044D01*
X180546D01*
X180553Y225038D01*
X180566Y225031D01*
X180582Y225024D01*
X180602Y225015D01*
X180628Y225001D01*
X180654Y224988D01*
X180687Y224975D01*
X180690D01*
X180703Y224969D01*
X180720Y224962D01*
X180740Y224956D01*
X180766Y224946D01*
X180795Y224939D01*
X180858Y224919D01*
X180861D01*
X180874Y224916D01*
X180890Y224913D01*
X180917Y224910D01*
X180946Y224906D01*
X180979Y224903D01*
X181015Y224900D01*
X181090D01*
X181114Y224903D01*
X181143Y224906D01*
X181176Y224910D01*
X181251Y224923D01*
X181254D01*
X181271Y224926D01*
X181291Y224933D01*
X181314Y224942D01*
X181369Y224969D01*
X181399Y224985D01*
X181425Y225005D01*
X181428Y225008D01*
X181435Y225015D01*
X181441Y225024D01*
X181455Y225038D01*
X181477Y225070D01*
X181500Y225113D01*
Y225116D01*
X181504Y225123D01*
X181510Y225136D01*
X181517Y225156D01*
X181520Y225179D01*
X181527Y225205D01*
X181530Y225234D01*
Y225270D01*
Y225274D01*
Y225284D01*
X181527Y225300D01*
Y225320D01*
X181514Y225369D01*
X181507Y225392D01*
X181494Y225415D01*
Y225418D01*
X181487Y225425D01*
X181481Y225434D01*
X181471Y225451D01*
X181441Y225480D01*
X181405Y225513D01*
X181402Y225516D01*
X181392Y225523D01*
X181373Y225530D01*
X181350Y225543D01*
X181320Y225553D01*
X181287Y225566D01*
X181251Y225575D01*
X181209Y225582D01*
X181202D01*
X181189Y225585D01*
X181169Y225589D01*
X181140Y225592D01*
X181110D01*
X181077Y225595D01*
X181009Y225598D01*
X180959D01*
X180927Y225595D01*
X180887Y225592D01*
X180844Y225589D01*
X180753Y225575D01*
X180746D01*
X180733Y225572D01*
X180710Y225569D01*
X180681Y225562D01*
X180648Y225556D01*
X180612Y225549D01*
X180540Y225533D01*
X180490D01*
Y226865D01*
X182061D01*
Y226418D01*
D02*
G37*
G36*
X179509Y224906D02*
X179998D01*
Y224493D01*
X178434D01*
Y224906D01*
X178932D01*
Y226159D01*
X178434D01*
Y226546D01*
X178473D01*
X178503Y226550D01*
X178535D01*
X178571Y226553D01*
X178650Y226559D01*
X178654D01*
X178670Y226563D01*
X178690Y226566D01*
X178712Y226569D01*
X178768Y226586D01*
X178798Y226595D01*
X178824Y226605D01*
X178827Y226609D01*
X178837Y226612D01*
X178850Y226622D01*
X178867Y226632D01*
X178906Y226664D01*
X178942Y226707D01*
X178945Y226710D01*
X178949Y226720D01*
X178955Y226733D01*
X178965Y226753D01*
X178972Y226776D01*
X178978Y226805D01*
X178985Y226835D01*
X178988Y226871D01*
X179509D01*
Y224906D01*
D02*
G37*
G36*
X177069Y226861D02*
X177122Y226858D01*
X177178Y226855D01*
X177236Y226848D01*
X177292Y226838D01*
X177299D01*
X177319Y226832D01*
X177345Y226825D01*
X177381Y226815D01*
X177424Y226802D01*
X177469Y226786D01*
X177519Y226763D01*
X177565Y226737D01*
X177571Y226733D01*
X177584Y226723D01*
X177610Y226704D01*
X177637Y226681D01*
X177670Y226651D01*
X177706Y226615D01*
X177738Y226576D01*
X177768Y226530D01*
X177771Y226523D01*
X177781Y226507D01*
X177791Y226481D01*
X177807Y226445D01*
X177820Y226399D01*
X177830Y226343D01*
X177840Y226281D01*
X177843Y226212D01*
Y226208D01*
Y226199D01*
Y226185D01*
X177840Y226166D01*
Y226143D01*
X177837Y226117D01*
X177827Y226054D01*
X177814Y225985D01*
X177791Y225910D01*
X177761Y225838D01*
X177719Y225769D01*
Y225766D01*
X177712Y225762D01*
X177706Y225753D01*
X177696Y225739D01*
X177670Y225710D01*
X177633Y225671D01*
X177584Y225628D01*
X177528Y225585D01*
X177463Y225539D01*
X177391Y225500D01*
X178191Y224493D01*
X177463D01*
X176804Y225362D01*
X176594D01*
Y224493D01*
X176000D01*
Y226865D01*
X177020D01*
X177069Y226861D01*
D02*
G37*
G36*
X179211Y247466D02*
X179247Y247463D01*
X179287Y247460D01*
X179332Y247453D01*
X179382Y247447D01*
X179483Y247424D01*
X179539Y247408D01*
X179592Y247391D01*
X179644Y247368D01*
X179693Y247342D01*
X179739Y247312D01*
X179782Y247280D01*
X179785Y247276D01*
X179792Y247270D01*
X179801Y247260D01*
X179818Y247247D01*
X179834Y247227D01*
X179851Y247204D01*
X179870Y247175D01*
X179893Y247145D01*
X179913Y247109D01*
X179933Y247070D01*
X179949Y247024D01*
X179969Y246978D01*
X179982Y246929D01*
X179992Y246873D01*
X179998Y246814D01*
X180001Y246751D01*
Y246748D01*
Y246742D01*
Y246732D01*
Y246715D01*
X179998Y246696D01*
X179995Y246673D01*
X179988Y246620D01*
X179975Y246555D01*
X179959Y246486D01*
X179933Y246410D01*
X179900Y246335D01*
Y246332D01*
X179897Y246325D01*
X179890Y246315D01*
X179880Y246299D01*
X179870Y246282D01*
X179857Y246259D01*
X179821Y246207D01*
X179775Y246141D01*
X179719Y246069D01*
X179651Y245990D01*
X179572Y245905D01*
X179565Y245899D01*
X179549Y245882D01*
X179519Y245853D01*
X179483Y245820D01*
X179441Y245781D01*
X179395Y245738D01*
X179293Y245649D01*
X179287Y245646D01*
X179270Y245633D01*
X179247Y245613D01*
X179218Y245590D01*
X179152Y245538D01*
X179122Y245515D01*
X179096Y245495D01*
X180106D01*
Y245049D01*
X178362D01*
Y245433D01*
X178365Y245436D01*
X178371Y245440D01*
X178384Y245449D01*
X178398Y245462D01*
X178417Y245479D01*
X178440Y245498D01*
X178493Y245541D01*
X178555Y245590D01*
X178621Y245646D01*
X178690Y245705D01*
X178758Y245764D01*
X178762Y245767D01*
X178765Y245771D01*
X178775Y245781D01*
X178788Y245790D01*
X178821Y245820D01*
X178863Y245859D01*
X178913Y245905D01*
X178965Y245958D01*
X179018Y246010D01*
X179070Y246063D01*
X179073Y246066D01*
X179077Y246073D01*
X179086Y246079D01*
X179100Y246092D01*
X179129Y246128D01*
X179168Y246171D01*
X179208Y246223D01*
X179250Y246276D01*
X179290Y246332D01*
X179323Y246384D01*
X179326Y246391D01*
X179336Y246407D01*
X179349Y246437D01*
X179362Y246473D01*
X179375Y246515D01*
X179388Y246561D01*
X179398Y246614D01*
X179401Y246670D01*
Y246673D01*
Y246676D01*
Y246696D01*
X179395Y246728D01*
X179388Y246765D01*
X179375Y246804D01*
X179359Y246847D01*
X179332Y246889D01*
X179300Y246925D01*
X179296Y246929D01*
X179283Y246938D01*
X179260Y246955D01*
X179227Y246971D01*
X179188Y246984D01*
X179142Y247001D01*
X179086Y247011D01*
X179024Y247014D01*
X178991D01*
X178968Y247011D01*
X178942Y247007D01*
X178916Y247004D01*
X178853Y246991D01*
X178850D01*
X178840Y246988D01*
X178824Y246981D01*
X178801Y246974D01*
X178778Y246968D01*
X178749Y246955D01*
X178690Y246932D01*
X178686D01*
X178676Y246925D01*
X178660Y246919D01*
X178640Y246909D01*
X178594Y246886D01*
X178549Y246856D01*
X178545D01*
X178539Y246850D01*
X178519Y246837D01*
X178489Y246820D01*
X178466Y246804D01*
X178421D01*
Y247319D01*
X178424Y247322D01*
X178440Y247329D01*
X178463Y247339D01*
X178496Y247348D01*
X178539Y247365D01*
X178594Y247381D01*
X178657Y247398D01*
X178732Y247417D01*
X178735D01*
X178742Y247421D01*
X178752Y247424D01*
X178768Y247427D01*
X178788Y247430D01*
X178811Y247434D01*
X178863Y247444D01*
X178926Y247453D01*
X178995Y247463D01*
X179067Y247466D01*
X179142Y247470D01*
X179182D01*
X179211Y247466D01*
D02*
G37*
G36*
X177069Y247417D02*
X177122Y247414D01*
X177178Y247411D01*
X177236Y247404D01*
X177292Y247394D01*
X177299D01*
X177319Y247388D01*
X177345Y247381D01*
X177381Y247371D01*
X177424Y247358D01*
X177469Y247342D01*
X177519Y247319D01*
X177565Y247293D01*
X177571Y247289D01*
X177584Y247280D01*
X177610Y247260D01*
X177637Y247237D01*
X177670Y247207D01*
X177706Y247171D01*
X177738Y247132D01*
X177768Y247086D01*
X177771Y247079D01*
X177781Y247063D01*
X177791Y247037D01*
X177807Y247001D01*
X177820Y246955D01*
X177830Y246899D01*
X177840Y246837D01*
X177843Y246768D01*
Y246765D01*
Y246755D01*
Y246742D01*
X177840Y246722D01*
Y246699D01*
X177837Y246673D01*
X177827Y246610D01*
X177814Y246542D01*
X177791Y246466D01*
X177761Y246394D01*
X177719Y246325D01*
Y246322D01*
X177712Y246319D01*
X177706Y246309D01*
X177696Y246296D01*
X177670Y246266D01*
X177633Y246227D01*
X177584Y246184D01*
X177528Y246141D01*
X177463Y246095D01*
X177391Y246056D01*
X178191Y245049D01*
X177463D01*
X176804Y245918D01*
X176594D01*
Y245049D01*
X176000D01*
Y247421D01*
X177020D01*
X177069Y247417D01*
D02*
G37*
G36*
X181300Y247466D02*
X181323D01*
X181386Y247460D01*
X181451Y247450D01*
X181524Y247434D01*
X181596Y247414D01*
X181661Y247388D01*
X181665D01*
X181668Y247385D01*
X181678Y247378D01*
X181691Y247371D01*
X181720Y247355D01*
X181760Y247329D01*
X181806Y247293D01*
X181851Y247253D01*
X181901Y247204D01*
X181943Y247148D01*
Y247145D01*
X181947Y247142D01*
X181953Y247132D01*
X181960Y247119D01*
X181979Y247086D01*
X182002Y247040D01*
X182029Y246984D01*
X182055Y246919D01*
X182081Y246843D01*
X182101Y246761D01*
Y246758D01*
X182104Y246751D01*
Y246738D01*
X182107Y246722D01*
X182114Y246699D01*
X182117Y246673D01*
X182120Y246643D01*
X182127Y246610D01*
X182130Y246571D01*
X182133Y246532D01*
X182143Y246443D01*
X182147Y246341D01*
X182150Y246233D01*
Y246230D01*
Y246220D01*
Y246204D01*
Y246181D01*
Y246154D01*
X182147Y246125D01*
Y246089D01*
X182143Y246053D01*
X182137Y245968D01*
X182127Y245879D01*
X182114Y245784D01*
X182097Y245695D01*
Y245692D01*
X182094Y245686D01*
X182091Y245672D01*
X182088Y245656D01*
X182084Y245636D01*
X182078Y245613D01*
X182058Y245561D01*
X182038Y245502D01*
X182009Y245436D01*
X181979Y245374D01*
X181940Y245311D01*
Y245308D01*
X181937Y245305D01*
X181920Y245285D01*
X181897Y245259D01*
X181865Y245226D01*
X181825Y245187D01*
X181776Y245148D01*
X181720Y245111D01*
X181658Y245079D01*
X181655D01*
X181651Y245075D01*
X181642Y245072D01*
X181628Y245065D01*
X181612Y245059D01*
X181592Y245052D01*
X181540Y245039D01*
X181481Y245026D01*
X181409Y245013D01*
X181327Y245003D01*
X181235Y245000D01*
X181192D01*
X181173Y245003D01*
X181146D01*
X181087Y245010D01*
X181022Y245020D01*
X180953Y245033D01*
X180881Y245052D01*
X180812Y245079D01*
X180808D01*
X180805Y245082D01*
X180795Y245089D01*
X180782Y245095D01*
X180753Y245111D01*
X180710Y245138D01*
X180667Y245170D01*
X180618Y245213D01*
X180572Y245259D01*
X180530Y245315D01*
Y245318D01*
X180526Y245321D01*
X180520Y245331D01*
X180513Y245341D01*
X180494Y245377D01*
X180471Y245420D01*
X180444Y245476D01*
X180418Y245541D01*
X180392Y245617D01*
X180372Y245699D01*
Y245702D01*
X180369Y245708D01*
Y245722D01*
X180366Y245738D01*
X180362Y245761D01*
X180356Y245787D01*
X180352Y245817D01*
X180349Y245853D01*
X180343Y245889D01*
X180339Y245932D01*
X180330Y246020D01*
X180326Y246122D01*
X180323Y246233D01*
Y246236D01*
Y246246D01*
Y246263D01*
Y246286D01*
Y246312D01*
X180326Y246345D01*
Y246381D01*
X180330Y246420D01*
X180333Y246502D01*
X180343Y246594D01*
X180352Y246683D01*
X180369Y246771D01*
Y246774D01*
X180372Y246781D01*
X180376Y246794D01*
X180379Y246807D01*
X180385Y246827D01*
X180392Y246850D01*
X180408Y246902D01*
X180431Y246961D01*
X180457Y247027D01*
X180494Y247093D01*
X180533Y247155D01*
Y247158D01*
X180540Y247162D01*
X180553Y247181D01*
X180579Y247207D01*
X180612Y247243D01*
X180651Y247283D01*
X180700Y247322D01*
X180756Y247358D01*
X180818Y247391D01*
X180822D01*
X180825Y247394D01*
X180835Y247398D01*
X180848Y247404D01*
X180868Y247411D01*
X180887Y247417D01*
X180936Y247430D01*
X180995Y247444D01*
X181068Y247457D01*
X181146Y247466D01*
X181235Y247470D01*
X181278D01*
X181300Y247466D01*
D02*
G37*
G36*
X181645Y235188D02*
X181681D01*
X181717Y235185D01*
X181802Y235175D01*
X181809D01*
X181822Y235172D01*
X181842Y235169D01*
X181868Y235165D01*
X181920Y235159D01*
X181947Y235152D01*
X181966Y235149D01*
Y234686D01*
X181917D01*
X181914Y234690D01*
X181904Y234693D01*
X181888Y234700D01*
X181871Y234706D01*
X181848Y234713D01*
X181819Y234722D01*
X181786Y234732D01*
X181783D01*
X181770Y234736D01*
X181750Y234742D01*
X181724Y234746D01*
X181691Y234752D01*
X181655Y234755D01*
X181612Y234759D01*
X181540D01*
X181520Y234755D01*
X181497D01*
X181471Y234752D01*
X181409Y234739D01*
X181340Y234722D01*
X181268Y234696D01*
X181199Y234660D01*
X181166Y234637D01*
X181136Y234611D01*
X181130Y234605D01*
X181123Y234595D01*
X181114Y234585D01*
X181100Y234568D01*
X181087Y234549D01*
X181058Y234503D01*
X181025Y234444D01*
X180995Y234372D01*
X180969Y234286D01*
X180949Y234191D01*
X180956Y234194D01*
X180969Y234204D01*
X180992Y234217D01*
X181025Y234234D01*
X181058Y234250D01*
X181100Y234273D01*
X181186Y234309D01*
X181192Y234313D01*
X181209Y234316D01*
X181231Y234322D01*
X181264Y234332D01*
X181307Y234342D01*
X181353Y234349D01*
X181402Y234352D01*
X181458Y234355D01*
X181481D01*
X181504Y234352D01*
X181537D01*
X181573Y234345D01*
X181612Y234339D01*
X181655Y234332D01*
X181697Y234319D01*
X181704D01*
X181717Y234313D01*
X181737Y234306D01*
X181763Y234296D01*
X181796Y234280D01*
X181828Y234263D01*
X181897Y234221D01*
X181904Y234217D01*
X181917Y234204D01*
X181940Y234181D01*
X181966Y234155D01*
X181999Y234119D01*
X182032Y234076D01*
X182061Y234027D01*
X182091Y233971D01*
Y233968D01*
X182094Y233965D01*
X182097Y233955D01*
X182104Y233945D01*
X182114Y233912D01*
X182130Y233867D01*
X182143Y233811D01*
X182153Y233742D01*
X182163Y233666D01*
X182166Y233581D01*
Y233578D01*
Y233565D01*
Y233545D01*
X182163Y233519D01*
X182160Y233486D01*
X182153Y233450D01*
X182147Y233411D01*
X182137Y233365D01*
X182124Y233315D01*
X182107Y233266D01*
X182088Y233217D01*
X182065Y233165D01*
X182038Y233112D01*
X182006Y233063D01*
X181970Y233014D01*
X181927Y232968D01*
X181924Y232964D01*
X181917Y232958D01*
X181904Y232945D01*
X181884Y232932D01*
X181858Y232912D01*
X181832Y232892D01*
X181796Y232869D01*
X181756Y232850D01*
X181714Y232827D01*
X181665Y232804D01*
X181612Y232784D01*
X181553Y232764D01*
X181491Y232751D01*
X181425Y232738D01*
X181353Y232732D01*
X181278Y232728D01*
X181241D01*
X181225Y232732D01*
X181202D01*
X181153Y232735D01*
X181097Y232741D01*
X181035Y232754D01*
X180969Y232768D01*
X180907Y232787D01*
X180903D01*
X180900Y232791D01*
X180881Y232797D01*
X180851Y232814D01*
X180812Y232830D01*
X180769Y232856D01*
X180723Y232886D01*
X180677Y232922D01*
X180631Y232961D01*
X180625Y232968D01*
X180608Y232987D01*
X180585Y233017D01*
X180556Y233056D01*
X180523Y233109D01*
X180487Y233168D01*
X180454Y233237D01*
X180425Y233315D01*
Y233319D01*
X180421Y233325D01*
X180418Y233338D01*
X180415Y233355D01*
X180408Y233375D01*
X180402Y233401D01*
X180395Y233430D01*
X180392Y233463D01*
X180385Y233499D01*
X180379Y233539D01*
X180366Y233627D01*
X180359Y233725D01*
X180356Y233834D01*
Y233837D01*
Y233847D01*
Y233863D01*
Y233886D01*
X180359Y233912D01*
Y233945D01*
X180362Y233981D01*
X180366Y234021D01*
X180372Y234106D01*
X180382Y234198D01*
X180398Y234293D01*
X180421Y234385D01*
Y234388D01*
X180425Y234395D01*
X180428Y234408D01*
X180435Y234424D01*
X180441Y234447D01*
X180451Y234470D01*
X180474Y234529D01*
X180503Y234598D01*
X180540Y234670D01*
X180585Y234742D01*
X180638Y234814D01*
X180641Y234818D01*
X180644Y234821D01*
X180654Y234831D01*
X180664Y234844D01*
X180697Y234877D01*
X180740Y234916D01*
X180795Y234959D01*
X180861Y235005D01*
X180936Y235051D01*
X181018Y235090D01*
X181022D01*
X181028Y235093D01*
X181041Y235100D01*
X181061Y235106D01*
X181081Y235113D01*
X181110Y235123D01*
X181140Y235133D01*
X181176Y235142D01*
X181215Y235149D01*
X181254Y235159D01*
X181300Y235169D01*
X181350Y235175D01*
X181458Y235188D01*
X181573Y235192D01*
X181615D01*
X181645Y235188D01*
D02*
G37*
G36*
X179509Y233191D02*
X179998D01*
Y232778D01*
X178434D01*
Y233191D01*
X178932D01*
Y234444D01*
X178434D01*
Y234831D01*
X178473D01*
X178503Y234834D01*
X178535D01*
X178571Y234837D01*
X178650Y234844D01*
X178654D01*
X178670Y234847D01*
X178690Y234851D01*
X178712Y234854D01*
X178768Y234870D01*
X178798Y234880D01*
X178824Y234890D01*
X178827Y234893D01*
X178837Y234896D01*
X178850Y234906D01*
X178867Y234916D01*
X178906Y234949D01*
X178942Y234992D01*
X178945Y234995D01*
X178949Y235005D01*
X178955Y235018D01*
X178965Y235037D01*
X178972Y235060D01*
X178978Y235090D01*
X178985Y235119D01*
X178988Y235156D01*
X179509D01*
Y233191D01*
D02*
G37*
G36*
X177069Y235146D02*
X177122Y235142D01*
X177178Y235139D01*
X177236Y235133D01*
X177292Y235123D01*
X177299D01*
X177319Y235116D01*
X177345Y235110D01*
X177381Y235100D01*
X177424Y235087D01*
X177469Y235070D01*
X177519Y235047D01*
X177565Y235021D01*
X177571Y235018D01*
X177584Y235008D01*
X177610Y234988D01*
X177637Y234965D01*
X177670Y234936D01*
X177706Y234900D01*
X177738Y234860D01*
X177768Y234814D01*
X177771Y234808D01*
X177781Y234791D01*
X177791Y234765D01*
X177807Y234729D01*
X177820Y234683D01*
X177830Y234627D01*
X177840Y234565D01*
X177843Y234496D01*
Y234493D01*
Y234483D01*
Y234470D01*
X177840Y234450D01*
Y234427D01*
X177837Y234401D01*
X177827Y234339D01*
X177814Y234270D01*
X177791Y234194D01*
X177761Y234122D01*
X177719Y234053D01*
Y234050D01*
X177712Y234047D01*
X177706Y234037D01*
X177696Y234024D01*
X177670Y233994D01*
X177633Y233955D01*
X177584Y233912D01*
X177528Y233870D01*
X177463Y233824D01*
X177391Y233785D01*
X178191Y232778D01*
X177463D01*
X176804Y233647D01*
X176594D01*
Y232778D01*
X176000D01*
Y235149D01*
X177020D01*
X177069Y235146D01*
D02*
G37*
G36*
X188254Y249072D02*
X188293Y249069D01*
X188339Y249065D01*
X188395Y249059D01*
X188457Y249049D01*
X188523Y249036D01*
X188592Y249020D01*
X188667Y249000D01*
X188739Y248974D01*
X188814Y248944D01*
X188890Y248908D01*
X188962Y248866D01*
X189031Y248819D01*
X189097Y248764D01*
X189100Y248761D01*
X189110Y248751D01*
X189129Y248731D01*
X189149Y248705D01*
X189175Y248675D01*
X189205Y248636D01*
X189234Y248590D01*
X189267Y248541D01*
X189297Y248482D01*
X189326Y248419D01*
X189356Y248351D01*
X189382Y248275D01*
X189405Y248193D01*
X189421Y248108D01*
X189431Y248016D01*
X189435Y247918D01*
Y247868D01*
X189431Y247832D01*
Y247793D01*
X189428Y247750D01*
X189418Y247665D01*
Y247658D01*
X189415Y247645D01*
X189411Y247622D01*
X189405Y247593D01*
X189398Y247560D01*
X189392Y247524D01*
X189372Y247445D01*
Y247442D01*
X189369Y247432D01*
X189362Y247416D01*
X189356Y247393D01*
X189346Y247366D01*
X189336Y247337D01*
X189306Y247271D01*
X189303Y247268D01*
X189300Y247255D01*
X189293Y247239D01*
X189284Y247216D01*
X189261Y247163D01*
X189248Y247137D01*
X189234Y247114D01*
X188673D01*
Y247176D01*
X188677Y247180D01*
X188680Y247183D01*
X188687Y247193D01*
X188700Y247206D01*
X188726Y247239D01*
X188762Y247285D01*
X188765Y247288D01*
X188772Y247294D01*
X188782Y247311D01*
X188795Y247327D01*
X188811Y247350D01*
X188828Y247373D01*
X188867Y247432D01*
X188870Y247435D01*
X188877Y247445D01*
X188883Y247465D01*
X188897Y247485D01*
X188910Y247514D01*
X188923Y247544D01*
X188939Y247580D01*
X188952Y247616D01*
X188956Y247619D01*
X188959Y247632D01*
X188965Y247652D01*
X188972Y247678D01*
X188979Y247711D01*
X188982Y247744D01*
X188988Y247783D01*
Y247845D01*
X188985Y247868D01*
X188982Y247901D01*
X188979Y247937D01*
X188972Y247977D01*
X188959Y248016D01*
X188946Y248059D01*
X188943Y248062D01*
X188939Y248075D01*
X188929Y248098D01*
X188913Y248124D01*
X188893Y248154D01*
X188870Y248190D01*
X188841Y248226D01*
X188805Y248262D01*
X188801Y248265D01*
X188788Y248275D01*
X188769Y248291D01*
X188742Y248314D01*
X188706Y248337D01*
X188664Y248360D01*
X188614Y248383D01*
X188559Y248406D01*
X188555D01*
X188552Y248410D01*
X188542Y248413D01*
X188532Y248416D01*
X188500Y248423D01*
X188457Y248432D01*
X188401Y248446D01*
X188339Y248452D01*
X188270Y248459D01*
X188195Y248462D01*
X188191D01*
X188185D01*
X188175D01*
X188159D01*
X188139Y248459D01*
X188116D01*
X188067Y248456D01*
X188008Y248449D01*
X187945Y248439D01*
X187883Y248426D01*
X187824Y248406D01*
X187817Y248403D01*
X187798Y248396D01*
X187771Y248383D01*
X187739Y248364D01*
X187699Y248344D01*
X187657Y248318D01*
X187617Y248285D01*
X187581Y248252D01*
X187578Y248249D01*
X187568Y248236D01*
X187552Y248216D01*
X187532Y248190D01*
X187512Y248160D01*
X187489Y248124D01*
X187470Y248085D01*
X187453Y248045D01*
Y248039D01*
X187447Y248026D01*
X187440Y248003D01*
X187434Y247973D01*
X187427Y247940D01*
X187420Y247901D01*
X187417Y247862D01*
X187414Y247819D01*
Y247799D01*
X187417Y247777D01*
Y247747D01*
X187424Y247714D01*
X187430Y247675D01*
X187437Y247636D01*
X187450Y247596D01*
X187453Y247593D01*
X187457Y247576D01*
X187467Y247557D01*
X187476Y247534D01*
X187489Y247504D01*
X187503Y247475D01*
X187522Y247445D01*
X187539Y247416D01*
X187542Y247412D01*
X187548Y247403D01*
X187558Y247386D01*
X187568Y247366D01*
X187601Y247321D01*
X187637Y247275D01*
X187640Y247271D01*
X187647Y247265D01*
X187653Y247255D01*
X187666Y247239D01*
X187696Y247206D01*
X187729Y247170D01*
Y247114D01*
X187171D01*
Y247117D01*
X187165Y247127D01*
X187158Y247140D01*
X187152Y247157D01*
X187138Y247180D01*
X187129Y247206D01*
X187099Y247268D01*
Y247271D01*
X187092Y247281D01*
X187086Y247301D01*
X187076Y247321D01*
X187066Y247347D01*
X187057Y247376D01*
X187033Y247442D01*
Y247445D01*
X187030Y247462D01*
X187024Y247481D01*
X187017Y247511D01*
X187011Y247544D01*
X187001Y247576D01*
X186988Y247652D01*
Y247655D01*
X186984Y247668D01*
X186981Y247691D01*
X186978Y247721D01*
X186975Y247757D01*
X186971Y247803D01*
X186968Y247859D01*
Y247940D01*
X186971Y247970D01*
X186975Y248006D01*
X186978Y248052D01*
X186984Y248105D01*
X186994Y248160D01*
X187007Y248223D01*
X187024Y248291D01*
X187047Y248360D01*
X187073Y248429D01*
X187102Y248501D01*
X187142Y248570D01*
X187184Y248639D01*
X187234Y248702D01*
X187289Y248764D01*
X187293Y248767D01*
X187306Y248777D01*
X187322Y248793D01*
X187348Y248813D01*
X187381Y248836D01*
X187420Y248862D01*
X187470Y248892D01*
X187522Y248918D01*
X187584Y248948D01*
X187653Y248977D01*
X187726Y249003D01*
X187808Y249026D01*
X187896Y249046D01*
X187991Y249062D01*
X188090Y249072D01*
X188198Y249075D01*
X188201D01*
X188205D01*
X188224D01*
X188254Y249072D01*
D02*
G37*
G36*
X187401Y246766D02*
X187404Y246760D01*
X187414Y246747D01*
X187427Y246733D01*
X187443Y246714D01*
X187463Y246691D01*
X187506Y246638D01*
X187555Y246576D01*
X187611Y246510D01*
X187670Y246442D01*
X187729Y246373D01*
X187732Y246369D01*
X187735Y246366D01*
X187745Y246356D01*
X187755Y246343D01*
X187785Y246310D01*
X187824Y246268D01*
X187870Y246218D01*
X187922Y246166D01*
X187975Y246113D01*
X188027Y246061D01*
X188031Y246058D01*
X188037Y246055D01*
X188044Y246045D01*
X188057Y246032D01*
X188093Y246002D01*
X188136Y245963D01*
X188188Y245923D01*
X188241Y245881D01*
X188296Y245841D01*
X188349Y245809D01*
X188355Y245805D01*
X188372Y245795D01*
X188401Y245782D01*
X188437Y245769D01*
X188480Y245756D01*
X188526Y245743D01*
X188578Y245733D01*
X188634Y245730D01*
X188637D01*
X188641D01*
X188660D01*
X188693Y245736D01*
X188729Y245743D01*
X188769Y245756D01*
X188811Y245772D01*
X188854Y245799D01*
X188890Y245831D01*
X188893Y245835D01*
X188903Y245848D01*
X188919Y245871D01*
X188936Y245904D01*
X188949Y245943D01*
X188965Y245989D01*
X188975Y246045D01*
X188979Y246107D01*
Y246140D01*
X188975Y246163D01*
X188972Y246189D01*
X188969Y246215D01*
X188956Y246278D01*
Y246281D01*
X188952Y246291D01*
X188946Y246307D01*
X188939Y246330D01*
X188933Y246353D01*
X188919Y246382D01*
X188897Y246442D01*
Y246445D01*
X188890Y246455D01*
X188883Y246471D01*
X188874Y246491D01*
X188851Y246537D01*
X188821Y246583D01*
Y246586D01*
X188814Y246592D01*
X188801Y246612D01*
X188785Y246642D01*
X188769Y246665D01*
Y246710D01*
X189284D01*
X189287Y246707D01*
X189293Y246691D01*
X189303Y246668D01*
X189313Y246635D01*
X189330Y246592D01*
X189346Y246537D01*
X189362Y246474D01*
X189382Y246399D01*
Y246396D01*
X189385Y246389D01*
X189389Y246379D01*
X189392Y246363D01*
X189395Y246343D01*
X189398Y246320D01*
X189408Y246268D01*
X189418Y246205D01*
X189428Y246136D01*
X189431Y246064D01*
X189435Y245989D01*
Y245950D01*
X189431Y245920D01*
X189428Y245884D01*
X189425Y245845D01*
X189418Y245799D01*
X189411Y245749D01*
X189389Y245648D01*
X189372Y245592D01*
X189356Y245540D01*
X189333Y245487D01*
X189306Y245438D01*
X189277Y245392D01*
X189244Y245349D01*
X189241Y245346D01*
X189234Y245339D01*
X189225Y245330D01*
X189211Y245313D01*
X189192Y245297D01*
X189169Y245280D01*
X189139Y245261D01*
X189110Y245238D01*
X189074Y245218D01*
X189034Y245198D01*
X188988Y245182D01*
X188943Y245162D01*
X188893Y245149D01*
X188838Y245139D01*
X188778Y245133D01*
X188716Y245130D01*
X188713D01*
X188706D01*
X188697D01*
X188680D01*
X188660Y245133D01*
X188637Y245136D01*
X188585Y245143D01*
X188519Y245156D01*
X188451Y245172D01*
X188375Y245198D01*
X188300Y245231D01*
X188296D01*
X188290Y245234D01*
X188280Y245241D01*
X188263Y245251D01*
X188247Y245261D01*
X188224Y245274D01*
X188172Y245310D01*
X188106Y245356D01*
X188034Y245412D01*
X187955Y245480D01*
X187870Y245559D01*
X187863Y245566D01*
X187847Y245582D01*
X187817Y245612D01*
X187785Y245648D01*
X187745Y245690D01*
X187703Y245736D01*
X187614Y245838D01*
X187611Y245845D01*
X187598Y245861D01*
X187578Y245884D01*
X187555Y245914D01*
X187503Y245979D01*
X187480Y246009D01*
X187460Y246035D01*
Y245025D01*
X187014D01*
Y246769D01*
X187398D01*
X187401Y246766D01*
D02*
G37*
G36*
X188309Y244805D02*
X188346D01*
X188385Y244801D01*
X188467Y244798D01*
X188559Y244788D01*
X188647Y244779D01*
X188736Y244762D01*
X188739D01*
X188746Y244759D01*
X188759Y244756D01*
X188772Y244752D01*
X188792Y244746D01*
X188814Y244739D01*
X188867Y244723D01*
X188926Y244700D01*
X188992Y244674D01*
X189057Y244638D01*
X189120Y244598D01*
X189123D01*
X189126Y244592D01*
X189146Y244579D01*
X189172Y244552D01*
X189208Y244519D01*
X189248Y244480D01*
X189287Y244431D01*
X189323Y244375D01*
X189356Y244313D01*
Y244309D01*
X189359Y244306D01*
X189362Y244296D01*
X189369Y244283D01*
X189375Y244264D01*
X189382Y244244D01*
X189395Y244195D01*
X189408Y244136D01*
X189421Y244063D01*
X189431Y243985D01*
X189435Y243896D01*
Y243854D01*
X189431Y243831D01*
Y243808D01*
X189425Y243745D01*
X189415Y243680D01*
X189398Y243608D01*
X189379Y243535D01*
X189353Y243470D01*
Y243467D01*
X189349Y243463D01*
X189343Y243454D01*
X189336Y243440D01*
X189320Y243411D01*
X189293Y243372D01*
X189257Y243326D01*
X189218Y243280D01*
X189169Y243230D01*
X189113Y243188D01*
X189110D01*
X189107Y243184D01*
X189097Y243178D01*
X189084Y243171D01*
X189051Y243152D01*
X189005Y243129D01*
X188949Y243103D01*
X188883Y243076D01*
X188808Y243050D01*
X188726Y243030D01*
X188723D01*
X188716Y243027D01*
X188703D01*
X188687Y243024D01*
X188664Y243017D01*
X188637Y243014D01*
X188608Y243011D01*
X188575Y243004D01*
X188536Y243001D01*
X188496Y242998D01*
X188408Y242988D01*
X188306Y242984D01*
X188198Y242981D01*
X188195D01*
X188185D01*
X188168D01*
X188145D01*
X188119D01*
X188090Y242984D01*
X188054D01*
X188017Y242988D01*
X187932Y242994D01*
X187844Y243004D01*
X187749Y243017D01*
X187660Y243034D01*
X187657D01*
X187650Y243037D01*
X187637Y243040D01*
X187621Y243043D01*
X187601Y243047D01*
X187578Y243053D01*
X187525Y243073D01*
X187467Y243093D01*
X187401Y243122D01*
X187338Y243152D01*
X187276Y243191D01*
X187273D01*
X187270Y243194D01*
X187250Y243211D01*
X187224Y243234D01*
X187191Y243267D01*
X187152Y243306D01*
X187112Y243355D01*
X187076Y243411D01*
X187043Y243473D01*
Y243476D01*
X187040Y243480D01*
X187037Y243490D01*
X187030Y243503D01*
X187024Y243519D01*
X187017Y243539D01*
X187004Y243591D01*
X186991Y243650D01*
X186978Y243722D01*
X186968Y243804D01*
X186965Y243896D01*
Y243939D01*
X186968Y243959D01*
Y243985D01*
X186975Y244044D01*
X186984Y244110D01*
X186997Y244178D01*
X187017Y244250D01*
X187043Y244319D01*
Y244323D01*
X187047Y244326D01*
X187053Y244336D01*
X187060Y244349D01*
X187076Y244378D01*
X187102Y244421D01*
X187135Y244464D01*
X187178Y244513D01*
X187224Y244559D01*
X187279Y244601D01*
X187283D01*
X187286Y244605D01*
X187296Y244611D01*
X187306Y244618D01*
X187342Y244638D01*
X187384Y244660D01*
X187440Y244687D01*
X187506Y244713D01*
X187581Y244739D01*
X187663Y244759D01*
X187666D01*
X187673Y244762D01*
X187686D01*
X187703Y244765D01*
X187726Y244769D01*
X187752Y244775D01*
X187781Y244779D01*
X187817Y244782D01*
X187854Y244788D01*
X187896Y244792D01*
X187985Y244801D01*
X188086Y244805D01*
X188198Y244808D01*
X188201D01*
X188211D01*
X188227D01*
X188250D01*
X188277D01*
X188309Y244805D01*
D02*
G37*
G36*
X209021Y392880D02*
X209060Y392876D01*
X209106Y392873D01*
X209162Y392867D01*
X209224Y392857D01*
X209290Y392844D01*
X209359Y392827D01*
X209434Y392808D01*
X209507Y392781D01*
X209582Y392752D01*
X209657Y392716D01*
X209730Y392673D01*
X209798Y392627D01*
X209864Y392571D01*
X209867Y392568D01*
X209877Y392558D01*
X209897Y392538D01*
X209916Y392512D01*
X209943Y392483D01*
X209972Y392443D01*
X210002Y392397D01*
X210035Y392348D01*
X210064Y392289D01*
X210094Y392227D01*
X210123Y392158D01*
X210149Y392083D01*
X210172Y392001D01*
X210189Y391915D01*
X210199Y391824D01*
X210202Y391725D01*
Y391676D01*
X210199Y391640D01*
Y391600D01*
X210195Y391558D01*
X210185Y391473D01*
Y391466D01*
X210182Y391453D01*
X210179Y391430D01*
X210172Y391400D01*
X210166Y391368D01*
X210159Y391332D01*
X210139Y391253D01*
Y391249D01*
X210136Y391240D01*
X210130Y391223D01*
X210123Y391200D01*
X210113Y391174D01*
X210104Y391144D01*
X210074Y391079D01*
X210071Y391076D01*
X210067Y391063D01*
X210061Y391046D01*
X210051Y391023D01*
X210028Y390971D01*
X210015Y390945D01*
X210002Y390921D01*
X209441D01*
Y390984D01*
X209444Y390987D01*
X209447Y390990D01*
X209454Y391000D01*
X209467Y391013D01*
X209493Y391046D01*
X209529Y391092D01*
X209533Y391095D01*
X209539Y391102D01*
X209549Y391118D01*
X209562Y391135D01*
X209579Y391158D01*
X209595Y391181D01*
X209634Y391240D01*
X209638Y391243D01*
X209644Y391253D01*
X209651Y391272D01*
X209664Y391292D01*
X209677Y391322D01*
X209690Y391351D01*
X209707Y391387D01*
X209720Y391423D01*
X209723Y391427D01*
X209726Y391440D01*
X209733Y391459D01*
X209739Y391486D01*
X209746Y391518D01*
X209749Y391551D01*
X209756Y391591D01*
Y391653D01*
X209752Y391676D01*
X209749Y391709D01*
X209746Y391745D01*
X209739Y391784D01*
X209726Y391824D01*
X209713Y391866D01*
X209710Y391869D01*
X209707Y391882D01*
X209697Y391905D01*
X209680Y391932D01*
X209661Y391961D01*
X209638Y391997D01*
X209608Y392033D01*
X209572Y392070D01*
X209569Y392073D01*
X209556Y392083D01*
X209536Y392099D01*
X209510Y392122D01*
X209474Y392145D01*
X209431Y392168D01*
X209382Y392191D01*
X209326Y392214D01*
X209323D01*
X209319Y392217D01*
X209310Y392220D01*
X209300Y392224D01*
X209267Y392230D01*
X209224Y392240D01*
X209169Y392253D01*
X209106Y392260D01*
X209037Y392266D01*
X208962Y392270D01*
X208959D01*
X208952D01*
X208942D01*
X208926D01*
X208906Y392266D01*
X208883D01*
X208834Y392263D01*
X208775Y392256D01*
X208713Y392247D01*
X208650Y392233D01*
X208591Y392214D01*
X208585Y392211D01*
X208565Y392204D01*
X208539Y392191D01*
X208506Y392171D01*
X208467Y392151D01*
X208424Y392125D01*
X208385Y392092D01*
X208349Y392060D01*
X208345Y392056D01*
X208335Y392043D01*
X208319Y392024D01*
X208299Y391997D01*
X208280Y391968D01*
X208257Y391932D01*
X208237Y391892D01*
X208221Y391853D01*
Y391846D01*
X208214Y391833D01*
X208208Y391810D01*
X208201Y391781D01*
X208194Y391748D01*
X208188Y391709D01*
X208185Y391669D01*
X208181Y391627D01*
Y391607D01*
X208185Y391584D01*
Y391555D01*
X208191Y391522D01*
X208198Y391482D01*
X208204Y391443D01*
X208218Y391404D01*
X208221Y391400D01*
X208224Y391384D01*
X208234Y391364D01*
X208244Y391341D01*
X208257Y391312D01*
X208270Y391282D01*
X208290Y391253D01*
X208306Y391223D01*
X208309Y391220D01*
X208316Y391210D01*
X208326Y391194D01*
X208335Y391174D01*
X208368Y391128D01*
X208404Y391082D01*
X208408Y391079D01*
X208414Y391072D01*
X208421Y391063D01*
X208434Y391046D01*
X208464Y391013D01*
X208496Y390977D01*
Y390921D01*
X207939D01*
Y390925D01*
X207932Y390935D01*
X207926Y390948D01*
X207919Y390964D01*
X207906Y390987D01*
X207896Y391013D01*
X207867Y391076D01*
Y391079D01*
X207860Y391089D01*
X207853Y391108D01*
X207843Y391128D01*
X207834Y391154D01*
X207824Y391184D01*
X207801Y391249D01*
Y391253D01*
X207798Y391269D01*
X207791Y391289D01*
X207785Y391318D01*
X207778Y391351D01*
X207768Y391384D01*
X207755Y391459D01*
Y391463D01*
X207752Y391476D01*
X207748Y391499D01*
X207745Y391528D01*
X207742Y391564D01*
X207739Y391610D01*
X207735Y391666D01*
Y391748D01*
X207739Y391778D01*
X207742Y391814D01*
X207745Y391860D01*
X207752Y391912D01*
X207762Y391968D01*
X207775Y392030D01*
X207791Y392099D01*
X207814Y392168D01*
X207840Y392237D01*
X207870Y392309D01*
X207909Y392378D01*
X207952Y392447D01*
X208001Y392509D01*
X208057Y392571D01*
X208060Y392575D01*
X208073Y392584D01*
X208089Y392601D01*
X208116Y392621D01*
X208149Y392643D01*
X208188Y392670D01*
X208237Y392699D01*
X208290Y392725D01*
X208352Y392755D01*
X208421Y392785D01*
X208493Y392811D01*
X208575Y392834D01*
X208664Y392853D01*
X208759Y392870D01*
X208857Y392880D01*
X208965Y392883D01*
X208969D01*
X208972D01*
X208992D01*
X209021Y392880D01*
D02*
G37*
G36*
X209835Y390466D02*
X209838Y390436D01*
Y390403D01*
X209841Y390367D01*
X209848Y390288D01*
Y390285D01*
X209851Y390269D01*
X209854Y390249D01*
X209858Y390226D01*
X209874Y390170D01*
X209884Y390141D01*
X209893Y390115D01*
X209897Y390111D01*
X209900Y390102D01*
X209910Y390088D01*
X209920Y390072D01*
X209953Y390033D01*
X209995Y389997D01*
X209998Y389993D01*
X210008Y389990D01*
X210021Y389983D01*
X210041Y389974D01*
X210064Y389967D01*
X210094Y389961D01*
X210123Y389954D01*
X210159Y389951D01*
Y389429D01*
X208194D01*
Y388940D01*
X207781D01*
Y390505D01*
X208194D01*
Y390006D01*
X209447D01*
Y390505D01*
X209835D01*
Y390466D01*
D02*
G37*
G36*
X209077Y388612D02*
X209113D01*
X209152Y388609D01*
X209234Y388606D01*
X209326Y388596D01*
X209415Y388586D01*
X209503Y388570D01*
X209507D01*
X209513Y388566D01*
X209526Y388563D01*
X209539Y388560D01*
X209559Y388553D01*
X209582Y388547D01*
X209634Y388530D01*
X209693Y388507D01*
X209759Y388481D01*
X209825Y388445D01*
X209887Y388406D01*
X209890D01*
X209893Y388399D01*
X209913Y388386D01*
X209939Y388360D01*
X209976Y388327D01*
X210015Y388288D01*
X210054Y388239D01*
X210090Y388183D01*
X210123Y388120D01*
Y388117D01*
X210126Y388114D01*
X210130Y388104D01*
X210136Y388091D01*
X210143Y388071D01*
X210149Y388052D01*
X210162Y388002D01*
X210176Y387943D01*
X210189Y387871D01*
X210199Y387792D01*
X210202Y387704D01*
Y387661D01*
X210199Y387638D01*
Y387615D01*
X210192Y387553D01*
X210182Y387487D01*
X210166Y387415D01*
X210146Y387343D01*
X210120Y387277D01*
Y387274D01*
X210117Y387271D01*
X210110Y387261D01*
X210104Y387248D01*
X210087Y387218D01*
X210061Y387179D01*
X210025Y387133D01*
X209985Y387087D01*
X209936Y387038D01*
X209880Y386995D01*
X209877D01*
X209874Y386992D01*
X209864Y386985D01*
X209851Y386979D01*
X209818Y386959D01*
X209772Y386936D01*
X209716Y386910D01*
X209651Y386884D01*
X209575Y386858D01*
X209493Y386838D01*
X209490D01*
X209484Y386835D01*
X209470D01*
X209454Y386831D01*
X209431Y386825D01*
X209405Y386822D01*
X209375Y386818D01*
X209343Y386812D01*
X209303Y386808D01*
X209264Y386805D01*
X209175Y386795D01*
X209073Y386792D01*
X208965Y386789D01*
X208962D01*
X208952D01*
X208936D01*
X208913D01*
X208887D01*
X208857Y386792D01*
X208821D01*
X208785Y386795D01*
X208700Y386802D01*
X208611Y386812D01*
X208516Y386825D01*
X208427Y386841D01*
X208424D01*
X208418Y386844D01*
X208404Y386848D01*
X208388Y386851D01*
X208368Y386854D01*
X208345Y386861D01*
X208293Y386880D01*
X208234Y386900D01*
X208168Y386930D01*
X208106Y386959D01*
X208044Y386999D01*
X208040D01*
X208037Y387002D01*
X208017Y387018D01*
X207991Y387041D01*
X207958Y387074D01*
X207919Y387113D01*
X207880Y387163D01*
X207843Y387218D01*
X207811Y387281D01*
Y387284D01*
X207807Y387287D01*
X207804Y387297D01*
X207798Y387310D01*
X207791Y387327D01*
X207785Y387346D01*
X207771Y387399D01*
X207758Y387458D01*
X207745Y387530D01*
X207735Y387612D01*
X207732Y387704D01*
Y387747D01*
X207735Y387766D01*
Y387792D01*
X207742Y387851D01*
X207752Y387917D01*
X207765Y387986D01*
X207785Y388058D01*
X207811Y388127D01*
Y388130D01*
X207814Y388134D01*
X207821Y388143D01*
X207827Y388157D01*
X207843Y388186D01*
X207870Y388229D01*
X207903Y388271D01*
X207945Y388320D01*
X207991Y388366D01*
X208047Y388409D01*
X208050D01*
X208053Y388412D01*
X208063Y388419D01*
X208073Y388425D01*
X208109Y388445D01*
X208152Y388468D01*
X208208Y388494D01*
X208273Y388521D01*
X208349Y388547D01*
X208431Y388566D01*
X208434D01*
X208440Y388570D01*
X208454D01*
X208470Y388573D01*
X208493Y388576D01*
X208519Y388583D01*
X208549Y388586D01*
X208585Y388589D01*
X208621Y388596D01*
X208664Y388599D01*
X208752Y388609D01*
X208854Y388612D01*
X208965Y388616D01*
X208969D01*
X208978D01*
X208995D01*
X209018D01*
X209044D01*
X209077Y388612D01*
D02*
G37*
G36*
X190741Y376445D02*
X190737Y376396D01*
X190734Y376343D01*
X190731Y376288D01*
X190724Y376228D01*
X190715Y376173D01*
Y376166D01*
X190708Y376146D01*
X190701Y376120D01*
X190692Y376084D01*
X190679Y376042D01*
X190662Y375995D01*
X190639Y375946D01*
X190613Y375900D01*
X190610Y375894D01*
X190600Y375881D01*
X190580Y375854D01*
X190557Y375828D01*
X190528Y375796D01*
X190491Y375759D01*
X190452Y375727D01*
X190406Y375697D01*
X190400Y375694D01*
X190383Y375684D01*
X190357Y375674D01*
X190321Y375658D01*
X190275Y375645D01*
X190219Y375635D01*
X190157Y375625D01*
X190088Y375622D01*
X190085D01*
X190075D01*
X190062D01*
X190042Y375625D01*
X190019D01*
X189993Y375628D01*
X189931Y375638D01*
X189862Y375651D01*
X189786Y375674D01*
X189714Y375704D01*
X189645Y375746D01*
X189642D01*
X189639Y375753D01*
X189629Y375759D01*
X189616Y375769D01*
X189586Y375796D01*
X189547Y375832D01*
X189504Y375881D01*
X189462Y375937D01*
X189416Y376002D01*
X189376Y376074D01*
X188369Y375274D01*
Y376002D01*
X189239Y376661D01*
Y376871D01*
X188369D01*
Y377465D01*
X190741D01*
Y376445D01*
D02*
G37*
G36*
X190423Y374992D02*
X190426Y374962D01*
Y374929D01*
X190429Y374893D01*
X190436Y374815D01*
Y374812D01*
X190439Y374795D01*
X190442Y374775D01*
X190446Y374752D01*
X190462Y374697D01*
X190472Y374667D01*
X190482Y374641D01*
X190485Y374638D01*
X190488Y374628D01*
X190498Y374615D01*
X190508Y374598D01*
X190541Y374559D01*
X190583Y374523D01*
X190587Y374519D01*
X190596Y374516D01*
X190610Y374510D01*
X190629Y374500D01*
X190652Y374493D01*
X190682Y374487D01*
X190711Y374480D01*
X190747Y374477D01*
Y373955D01*
X188783D01*
Y373467D01*
X188369D01*
Y375031D01*
X188783D01*
Y374533D01*
X190036D01*
Y375031D01*
X190423D01*
Y374992D01*
D02*
G37*
G36*
Y372916D02*
X190426Y372886D01*
Y372853D01*
X190429Y372817D01*
X190436Y372739D01*
Y372735D01*
X190439Y372719D01*
X190442Y372699D01*
X190446Y372676D01*
X190462Y372620D01*
X190472Y372591D01*
X190482Y372565D01*
X190485Y372561D01*
X190488Y372551D01*
X190498Y372538D01*
X190508Y372522D01*
X190541Y372483D01*
X190583Y372447D01*
X190587Y372443D01*
X190596Y372440D01*
X190610Y372433D01*
X190629Y372424D01*
X190652Y372417D01*
X190682Y372410D01*
X190711Y372404D01*
X190747Y372401D01*
Y371879D01*
X188783D01*
Y371390D01*
X188369D01*
Y372955D01*
X188783D01*
Y372456D01*
X190036D01*
Y372955D01*
X190423D01*
Y372916D01*
D02*
G37*
G36*
X114385Y315860D02*
X114001D01*
X113998Y315863D01*
X113995Y315869D01*
X113985Y315883D01*
X113972Y315896D01*
X113955Y315915D01*
X113936Y315938D01*
X113893Y315991D01*
X113844Y316053D01*
X113788Y316119D01*
X113729Y316188D01*
X113670Y316257D01*
X113667Y316260D01*
X113664Y316263D01*
X113654Y316273D01*
X113644Y316286D01*
X113614Y316319D01*
X113575Y316361D01*
X113529Y316411D01*
X113477Y316463D01*
X113424Y316516D01*
X113372Y316568D01*
X113368Y316571D01*
X113362Y316575D01*
X113355Y316585D01*
X113342Y316598D01*
X113306Y316627D01*
X113263Y316667D01*
X113211Y316706D01*
X113159Y316749D01*
X113103Y316788D01*
X113050Y316821D01*
X113044Y316824D01*
X113027Y316834D01*
X112998Y316847D01*
X112962Y316860D01*
X112919Y316873D01*
X112873Y316886D01*
X112821Y316896D01*
X112765Y316899D01*
X112762D01*
X112758D01*
X112739D01*
X112706Y316893D01*
X112670Y316886D01*
X112630Y316873D01*
X112588Y316857D01*
X112545Y316831D01*
X112509Y316798D01*
X112506Y316794D01*
X112496Y316781D01*
X112479Y316758D01*
X112463Y316726D01*
X112450Y316686D01*
X112434Y316640D01*
X112424Y316585D01*
X112420Y316522D01*
Y316490D01*
X112424Y316466D01*
X112427Y316440D01*
X112430Y316414D01*
X112443Y316352D01*
Y316348D01*
X112447Y316339D01*
X112453Y316322D01*
X112460Y316299D01*
X112466Y316276D01*
X112479Y316247D01*
X112503Y316188D01*
Y316184D01*
X112509Y316175D01*
X112516Y316158D01*
X112525Y316139D01*
X112548Y316093D01*
X112578Y316047D01*
Y316043D01*
X112584Y316037D01*
X112598Y316017D01*
X112614Y315988D01*
X112630Y315965D01*
Y315919D01*
X112116D01*
X112112Y315922D01*
X112106Y315938D01*
X112096Y315961D01*
X112086Y315994D01*
X112069Y316037D01*
X112053Y316093D01*
X112037Y316155D01*
X112017Y316230D01*
Y316234D01*
X112014Y316240D01*
X112011Y316250D01*
X112007Y316266D01*
X112004Y316286D01*
X112001Y316309D01*
X111991Y316361D01*
X111981Y316424D01*
X111971Y316493D01*
X111968Y316565D01*
X111965Y316640D01*
Y316680D01*
X111968Y316709D01*
X111971Y316745D01*
X111974Y316785D01*
X111981Y316831D01*
X111987Y316880D01*
X112011Y316982D01*
X112027Y317037D01*
X112043Y317090D01*
X112066Y317142D01*
X112092Y317191D01*
X112122Y317237D01*
X112155Y317280D01*
X112158Y317283D01*
X112165Y317290D01*
X112174Y317300D01*
X112188Y317316D01*
X112207Y317332D01*
X112230Y317349D01*
X112260Y317369D01*
X112289Y317391D01*
X112325Y317411D01*
X112365Y317431D01*
X112411Y317447D01*
X112457Y317467D01*
X112506Y317480D01*
X112562Y317490D01*
X112621Y317496D01*
X112683Y317500D01*
X112686D01*
X112693D01*
X112703D01*
X112719D01*
X112739Y317496D01*
X112762Y317493D01*
X112814Y317487D01*
X112880Y317474D01*
X112949Y317457D01*
X113024Y317431D01*
X113100Y317398D01*
X113103D01*
X113109Y317395D01*
X113119Y317388D01*
X113136Y317378D01*
X113152Y317369D01*
X113175Y317355D01*
X113227Y317319D01*
X113293Y317273D01*
X113365Y317218D01*
X113444Y317149D01*
X113529Y317070D01*
X113536Y317063D01*
X113552Y317047D01*
X113582Y317018D01*
X113614Y316982D01*
X113654Y316939D01*
X113696Y316893D01*
X113785Y316791D01*
X113788Y316785D01*
X113801Y316768D01*
X113821Y316745D01*
X113844Y316716D01*
X113897Y316650D01*
X113919Y316621D01*
X113939Y316594D01*
Y317605D01*
X114385D01*
Y315860D01*
D02*
G37*
G36*
X113746Y315401D02*
X113785Y315397D01*
X113828Y315391D01*
X113877Y315381D01*
X113929Y315368D01*
X113982Y315351D01*
X113988Y315348D01*
X114005Y315341D01*
X114028Y315328D01*
X114060Y315312D01*
X114097Y315289D01*
X114136Y315263D01*
X114175Y315230D01*
X114211Y315191D01*
X114215Y315184D01*
X114228Y315171D01*
X114248Y315145D01*
X114270Y315112D01*
X114297Y315069D01*
X114326Y315023D01*
X114349Y314967D01*
X114372Y314909D01*
Y314905D01*
X114375Y314902D01*
Y314892D01*
X114379Y314879D01*
X114389Y314846D01*
X114395Y314804D01*
X114405Y314748D01*
X114415Y314686D01*
X114418Y314613D01*
X114421Y314538D01*
Y314482D01*
X114418Y314443D01*
Y314397D01*
X114415Y314344D01*
X114408Y314239D01*
Y314233D01*
X114405Y314216D01*
X114402Y314190D01*
X114398Y314157D01*
X114395Y314121D01*
X114389Y314082D01*
X114382Y314039D01*
X114375Y314000D01*
X113897D01*
Y314056D01*
X113900Y314066D01*
X113906Y314079D01*
X113913Y314098D01*
X113923Y314121D01*
X113933Y314144D01*
X113952Y314200D01*
Y314203D01*
X113955Y314213D01*
X113959Y314233D01*
X113962Y314256D01*
X113969Y314282D01*
X113972Y314318D01*
X113975Y314357D01*
Y314426D01*
X113972Y314456D01*
X113969Y314489D01*
X113965Y314528D01*
X113955Y314567D01*
X113946Y314607D01*
X113933Y314640D01*
X113929Y314643D01*
X113923Y314653D01*
X113913Y314669D01*
X113900Y314686D01*
X113883Y314705D01*
X113860Y314728D01*
X113834Y314744D01*
X113808Y314761D01*
X113805Y314764D01*
X113795Y314768D01*
X113778Y314774D01*
X113755Y314781D01*
X113729Y314787D01*
X113700Y314794D01*
X113664Y314797D01*
X113628Y314800D01*
X113624D01*
X113611D01*
X113588Y314804D01*
X113562D01*
X113526D01*
X113487Y314807D01*
X113444D01*
X113398D01*
X112447D01*
Y314269D01*
X112014D01*
Y315404D01*
X113690D01*
X113693D01*
X113696D01*
X113716D01*
X113746Y315401D01*
D02*
G37*
G36*
X114617Y277444D02*
X114613Y277434D01*
X114607Y277421D01*
X114600Y277402D01*
X114590Y277379D01*
X114581Y277356D01*
X114561Y277300D01*
Y277297D01*
X114558Y277287D01*
X114554Y277267D01*
X114551Y277244D01*
X114544Y277218D01*
X114541Y277182D01*
X114538Y277143D01*
Y277074D01*
X114541Y277044D01*
X114544Y277011D01*
X114548Y276972D01*
X114558Y276933D01*
X114567Y276893D01*
X114581Y276860D01*
X114584Y276857D01*
X114590Y276847D01*
X114600Y276831D01*
X114613Y276815D01*
X114630Y276795D01*
X114653Y276772D01*
X114679Y276755D01*
X114705Y276739D01*
X114708Y276736D01*
X114718Y276732D01*
X114735Y276726D01*
X114758Y276719D01*
X114784Y276713D01*
X114813Y276706D01*
X114849Y276703D01*
X114886Y276700D01*
X114889D01*
X114902D01*
X114925Y276696D01*
X114951D01*
X114987D01*
X115027Y276693D01*
X115069D01*
X115115D01*
X116066D01*
Y277231D01*
X116499D01*
Y276096D01*
X114823D01*
X114820D01*
X114817D01*
X114797D01*
X114768Y276099D01*
X114728Y276103D01*
X114685Y276109D01*
X114636Y276119D01*
X114584Y276132D01*
X114531Y276149D01*
X114525Y276152D01*
X114508Y276158D01*
X114485Y276172D01*
X114453Y276188D01*
X114417Y276211D01*
X114377Y276237D01*
X114338Y276270D01*
X114302Y276309D01*
X114298Y276316D01*
X114285Y276329D01*
X114266Y276355D01*
X114243Y276388D01*
X114216Y276431D01*
X114187Y276477D01*
X114164Y276532D01*
X114141Y276591D01*
Y276595D01*
X114138Y276598D01*
Y276608D01*
X114134Y276621D01*
X114125Y276654D01*
X114118Y276696D01*
X114108Y276752D01*
X114098Y276815D01*
X114095Y276887D01*
X114092Y276962D01*
Y277018D01*
X114095Y277057D01*
Y277103D01*
X114098Y277156D01*
X114105Y277261D01*
Y277267D01*
X114108Y277284D01*
X114111Y277310D01*
X114115Y277343D01*
X114118Y277379D01*
X114125Y277418D01*
X114131Y277461D01*
X114138Y277500D01*
X114617D01*
Y277444D01*
D02*
G37*
G36*
X114741Y275660D02*
X114738Y275653D01*
X114728Y275637D01*
X114712Y275611D01*
X114692Y275571D01*
X114669Y275529D01*
X114643Y275476D01*
X114617Y275417D01*
X114594Y275355D01*
Y275352D01*
X114590Y275348D01*
X114587Y275339D01*
X114584Y275325D01*
X114574Y275293D01*
X114564Y275247D01*
X114554Y275198D01*
X114544Y275145D01*
X114538Y275089D01*
X114535Y275033D01*
Y275001D01*
X114538Y274978D01*
Y274948D01*
X114541Y274919D01*
X114548Y274847D01*
Y274843D01*
X114551Y274830D01*
X114554Y274810D01*
X114564Y274787D01*
X114584Y274732D01*
X114600Y274702D01*
X114617Y274676D01*
X114620Y274673D01*
X114623Y274666D01*
X114633Y274656D01*
X114643Y274643D01*
X114676Y274614D01*
X114715Y274587D01*
X114718D01*
X114725Y274581D01*
X114738Y274578D01*
X114758Y274571D01*
X114781Y274564D01*
X114810Y274561D01*
X114843Y274555D01*
X114882D01*
X114886D01*
X114899D01*
X114918Y274558D01*
X114941Y274561D01*
X114968Y274568D01*
X114994Y274574D01*
X115020Y274587D01*
X115043Y274604D01*
X115046Y274607D01*
X115053Y274614D01*
X115063Y274623D01*
X115076Y274637D01*
X115089Y274653D01*
X115105Y274673D01*
X115128Y274725D01*
Y274728D01*
X115132Y274738D01*
X115138Y274755D01*
X115145Y274778D01*
X115148Y274804D01*
X115155Y274833D01*
X115158Y274869D01*
X115161Y274909D01*
Y274948D01*
X115164Y274971D01*
Y275198D01*
X115578D01*
Y275040D01*
X115581Y275010D01*
Y274978D01*
X115584Y274909D01*
Y274905D01*
X115587Y274892D01*
Y274876D01*
X115594Y274856D01*
X115604Y274804D01*
X115624Y274755D01*
Y274751D01*
X115630Y274745D01*
X115637Y274732D01*
X115647Y274719D01*
X115670Y274682D01*
X115706Y274653D01*
X115709Y274650D01*
X115715Y274646D01*
X115728Y274640D01*
X115745Y274633D01*
X115768Y274627D01*
X115794Y274623D01*
X115824Y274617D01*
X115856D01*
X115860D01*
X115870D01*
X115879Y274620D01*
X115896D01*
X115935Y274633D01*
X115955Y274640D01*
X115971Y274653D01*
X115974D01*
X115978Y274659D01*
X115998Y274676D01*
X116021Y274702D01*
X116043Y274735D01*
Y274738D01*
X116047Y274745D01*
X116053Y274758D01*
X116060Y274771D01*
X116066Y274791D01*
X116073Y274814D01*
X116083Y274869D01*
Y274873D01*
X116086Y274883D01*
Y274896D01*
X116089Y274912D01*
X116093Y274955D01*
Y275030D01*
X116089Y275053D01*
X116086Y275079D01*
X116083Y275112D01*
X116070Y275178D01*
Y275181D01*
X116066Y275194D01*
X116063Y275211D01*
X116057Y275234D01*
X116047Y275260D01*
X116040Y275289D01*
X116017Y275352D01*
Y275355D01*
X116014Y275361D01*
X116007Y275378D01*
X116001Y275394D01*
X115991Y275414D01*
X115978Y275440D01*
X115952Y275493D01*
Y275496D01*
X115945Y275506D01*
X115938Y275516D01*
X115929Y275532D01*
X115909Y275568D01*
X115902Y275585D01*
X115893Y275598D01*
Y275647D01*
X116398D01*
X116401Y275640D01*
X116408Y275624D01*
X116417Y275598D01*
X116430Y275561D01*
X116447Y275512D01*
X116463Y275457D01*
X116480Y275391D01*
X116499Y275319D01*
Y275315D01*
X116503Y275309D01*
Y275299D01*
X116506Y275283D01*
X116512Y275263D01*
X116516Y275243D01*
X116526Y275188D01*
X116532Y275125D01*
X116542Y275053D01*
X116545Y274974D01*
X116549Y274896D01*
Y274840D01*
X116545Y274820D01*
Y274771D01*
X116539Y274712D01*
X116532Y274650D01*
X116522Y274587D01*
X116509Y274528D01*
Y274522D01*
X116503Y274502D01*
X116493Y274473D01*
X116483Y274436D01*
X116466Y274397D01*
X116450Y274351D01*
X116427Y274305D01*
X116404Y274263D01*
X116401Y274256D01*
X116391Y274243D01*
X116375Y274220D01*
X116352Y274194D01*
X116325Y274164D01*
X116293Y274135D01*
X116257Y274105D01*
X116214Y274082D01*
X116207Y274079D01*
X116194Y274072D01*
X116171Y274063D01*
X116139Y274049D01*
X116099Y274040D01*
X116057Y274030D01*
X116007Y274023D01*
X115955Y274020D01*
X115952D01*
X115945D01*
X115935D01*
X115922Y274023D01*
X115883Y274026D01*
X115833Y274033D01*
X115778Y274049D01*
X115719Y274069D01*
X115660Y274099D01*
X115601Y274138D01*
X115594Y274145D01*
X115578Y274158D01*
X115551Y274184D01*
X115519Y274220D01*
X115486Y274266D01*
X115453Y274318D01*
X115427Y274377D01*
X115404Y274446D01*
X115381D01*
Y274443D01*
X115378Y274433D01*
X115374Y274413D01*
X115371Y274394D01*
X115365Y274368D01*
X115358Y274341D01*
X115338Y274282D01*
Y274279D01*
X115332Y274269D01*
X115325Y274253D01*
X115315Y274233D01*
X115302Y274207D01*
X115286Y274181D01*
X115263Y274154D01*
X115240Y274125D01*
X115236Y274122D01*
X115230Y274112D01*
X115214Y274099D01*
X115197Y274082D01*
X115174Y274066D01*
X115145Y274043D01*
X115115Y274026D01*
X115079Y274007D01*
X115076Y274004D01*
X115063Y274000D01*
X115040Y273990D01*
X115014Y273981D01*
X114981Y273974D01*
X114938Y273964D01*
X114895Y273961D01*
X114846Y273958D01*
X114843D01*
X114840D01*
X114830D01*
X114817D01*
X114784Y273961D01*
X114741Y273964D01*
X114692Y273974D01*
X114640Y273984D01*
X114584Y274000D01*
X114528Y274023D01*
X114522Y274026D01*
X114505Y274036D01*
X114479Y274049D01*
X114443Y274072D01*
X114407Y274099D01*
X114364Y274131D01*
X114325Y274171D01*
X114285Y274214D01*
X114282Y274220D01*
X114269Y274236D01*
X114249Y274263D01*
X114230Y274295D01*
X114203Y274341D01*
X114177Y274391D01*
X114154Y274446D01*
X114131Y274509D01*
Y274512D01*
X114128Y274515D01*
Y274525D01*
X114125Y274538D01*
X114118Y274555D01*
X114115Y274574D01*
X114105Y274623D01*
X114095Y274682D01*
X114088Y274751D01*
X114082Y274830D01*
X114079Y274919D01*
Y274991D01*
X114082Y275017D01*
Y275050D01*
X114085Y275083D01*
X114088Y275158D01*
X114098Y275237D01*
X114108Y275319D01*
X114125Y275398D01*
Y275401D01*
X114128Y275407D01*
Y275417D01*
X114131Y275430D01*
X114141Y275466D01*
X114154Y275512D01*
X114171Y275561D01*
X114187Y275614D01*
X114207Y275666D01*
X114226Y275716D01*
X114741D01*
Y275660D01*
D02*
G37*
G36*
X181254Y255748D02*
X181278D01*
X181327Y255744D01*
X181382Y255738D01*
X181445Y255725D01*
X181507Y255712D01*
X181569Y255692D01*
X181573D01*
X181576Y255689D01*
X181596Y255682D01*
X181625Y255666D01*
X181665Y255649D01*
X181707Y255623D01*
X181753Y255593D01*
X181799Y255557D01*
X181845Y255515D01*
X181851Y255508D01*
X181868Y255489D01*
X181891Y255459D01*
X181920Y255420D01*
X181953Y255367D01*
X181986Y255308D01*
X182016Y255239D01*
X182045Y255164D01*
Y255161D01*
X182048Y255154D01*
X182052Y255141D01*
X182055Y255124D01*
X182061Y255105D01*
X182068Y255082D01*
X182074Y255052D01*
X182081Y255019D01*
X182088Y254983D01*
X182094Y254944D01*
X182107Y254855D01*
X182114Y254757D01*
X182117Y254649D01*
Y254646D01*
Y254636D01*
Y254619D01*
Y254596D01*
X182114Y254570D01*
Y254541D01*
X182111Y254505D01*
X182107Y254465D01*
X182101Y254380D01*
X182088Y254288D01*
X182068Y254190D01*
X182045Y254095D01*
Y254091D01*
X182042Y254085D01*
X182038Y254072D01*
X182032Y254052D01*
X182025Y254029D01*
X182016Y254006D01*
X181992Y253947D01*
X181963Y253878D01*
X181924Y253806D01*
X181881Y253731D01*
X181828Y253662D01*
X181825Y253658D01*
X181822Y253655D01*
X181812Y253645D01*
X181802Y253632D01*
X181770Y253599D01*
X181724Y253557D01*
X181668Y253511D01*
X181602Y253465D01*
X181530Y253419D01*
X181448Y253380D01*
X181445D01*
X181438Y253376D01*
X181425Y253370D01*
X181409Y253366D01*
X181386Y253357D01*
X181360Y253350D01*
X181330Y253340D01*
X181294Y253334D01*
X181254Y253324D01*
X181212Y253314D01*
X181166Y253307D01*
X181117Y253301D01*
X181009Y253288D01*
X180890Y253284D01*
X180848D01*
X180818Y253288D01*
X180786D01*
X180746Y253291D01*
X180703Y253294D01*
X180657Y253301D01*
X180651D01*
X180638Y253304D01*
X180618Y253307D01*
X180595Y253311D01*
X180543Y253317D01*
X180520Y253324D01*
X180500Y253327D01*
Y253789D01*
X180549D01*
X180553Y253786D01*
X180562Y253780D01*
X180579Y253776D01*
X180595Y253767D01*
X180618Y253760D01*
X180641Y253750D01*
X180671Y253740D01*
X180674D01*
X180687Y253737D01*
X180703Y253734D01*
X180730Y253731D01*
X180763Y253724D01*
X180802Y253721D01*
X180844Y253717D01*
X180917D01*
X180940Y253721D01*
X180969D01*
X181002Y253724D01*
X181038Y253731D01*
X181120Y253747D01*
X181123D01*
X181140Y253753D01*
X181159Y253760D01*
X181186Y253770D01*
X181212Y253783D01*
X181245Y253799D01*
X181278Y253822D01*
X181307Y253845D01*
X181310Y253849D01*
X181320Y253858D01*
X181336Y253871D01*
X181356Y253894D01*
X181376Y253918D01*
X181399Y253947D01*
X181422Y253983D01*
X181441Y254019D01*
X181445Y254026D01*
X181451Y254039D01*
X181461Y254062D01*
X181471Y254091D01*
X181484Y254131D01*
X181497Y254177D01*
X181507Y254226D01*
X181517Y254285D01*
X181510Y254281D01*
X181494Y254272D01*
X181471Y254255D01*
X181438Y254239D01*
X181402Y254219D01*
X181363Y254196D01*
X181320Y254177D01*
X181278Y254160D01*
X181274D01*
X181258Y254154D01*
X181235Y254147D01*
X181202Y254140D01*
X181166Y254134D01*
X181120Y254127D01*
X181068Y254124D01*
X181009Y254121D01*
X180989D01*
X180963Y254124D01*
X180933D01*
X180897Y254127D01*
X180858Y254134D01*
X180772Y254150D01*
X180769Y254154D01*
X180753Y254157D01*
X180733Y254164D01*
X180707Y254177D01*
X180674Y254190D01*
X180641Y254206D01*
X180605Y254229D01*
X180569Y254252D01*
X180562Y254255D01*
X180549Y254268D01*
X180526Y254291D01*
X180500Y254318D01*
X180467Y254354D01*
X180438Y254396D01*
X180405Y254446D01*
X180376Y254498D01*
Y254501D01*
X180372Y254505D01*
X180369Y254514D01*
X180366Y254524D01*
X180352Y254557D01*
X180343Y254603D01*
X180330Y254659D01*
X180316Y254728D01*
X180310Y254803D01*
X180307Y254888D01*
Y254892D01*
Y254898D01*
Y254908D01*
Y254921D01*
X180310Y254957D01*
X180313Y255000D01*
X180323Y255052D01*
X180333Y255111D01*
X180349Y255170D01*
X180369Y255229D01*
Y255233D01*
X180372Y255236D01*
X180382Y255256D01*
X180395Y255285D01*
X180415Y255325D01*
X180441Y255367D01*
X180471Y255413D01*
X180507Y255459D01*
X180546Y255505D01*
X180553Y255511D01*
X180566Y255525D01*
X180592Y255544D01*
X180625Y255571D01*
X180664Y255600D01*
X180713Y255630D01*
X180769Y255659D01*
X180828Y255685D01*
X180831D01*
X180835Y255689D01*
X180844Y255692D01*
X180858Y255695D01*
X180890Y255705D01*
X180936Y255718D01*
X180992Y255731D01*
X181058Y255741D01*
X181127Y255748D01*
X181202Y255751D01*
X181238D01*
X181254Y255748D01*
D02*
G37*
G36*
X179509Y253744D02*
X179998D01*
Y253330D01*
X178434D01*
Y253744D01*
X178932D01*
Y254997D01*
X178434D01*
Y255384D01*
X178473D01*
X178503Y255387D01*
X178535D01*
X178571Y255390D01*
X178650Y255397D01*
X178654D01*
X178670Y255400D01*
X178690Y255403D01*
X178712Y255407D01*
X178768Y255423D01*
X178798Y255433D01*
X178824Y255443D01*
X178827Y255446D01*
X178837Y255449D01*
X178850Y255459D01*
X178867Y255469D01*
X178906Y255502D01*
X178942Y255544D01*
X178945Y255548D01*
X178949Y255557D01*
X178955Y255571D01*
X178965Y255590D01*
X178972Y255613D01*
X178978Y255643D01*
X178985Y255672D01*
X178988Y255708D01*
X179509D01*
Y253744D01*
D02*
G37*
G36*
X177069Y255698D02*
X177122Y255695D01*
X177178Y255692D01*
X177236Y255685D01*
X177292Y255676D01*
X177299D01*
X177319Y255669D01*
X177345Y255662D01*
X177381Y255653D01*
X177424Y255639D01*
X177469Y255623D01*
X177519Y255600D01*
X177565Y255574D01*
X177571Y255571D01*
X177584Y255561D01*
X177610Y255541D01*
X177637Y255518D01*
X177670Y255489D01*
X177706Y255452D01*
X177738Y255413D01*
X177768Y255367D01*
X177771Y255361D01*
X177781Y255344D01*
X177791Y255318D01*
X177807Y255282D01*
X177820Y255236D01*
X177830Y255180D01*
X177840Y255118D01*
X177843Y255049D01*
Y255046D01*
Y255036D01*
Y255023D01*
X177840Y255003D01*
Y254980D01*
X177837Y254954D01*
X177827Y254892D01*
X177814Y254823D01*
X177791Y254747D01*
X177761Y254675D01*
X177719Y254606D01*
Y254603D01*
X177712Y254600D01*
X177706Y254590D01*
X177696Y254577D01*
X177670Y254547D01*
X177633Y254508D01*
X177584Y254465D01*
X177528Y254423D01*
X177463Y254377D01*
X177391Y254337D01*
X178191Y253330D01*
X177463D01*
X176804Y254200D01*
X176594D01*
Y253330D01*
X176000D01*
Y255702D01*
X177020D01*
X177069Y255698D01*
D02*
G37*
%LPC*%
G36*
X155220Y277875D02*
X155183D01*
X155180D01*
X155167D01*
X155151Y277872D01*
X155131D01*
X155082Y277859D01*
X155055Y277853D01*
X155029Y277839D01*
X155026D01*
X155019Y277833D01*
X155006Y277826D01*
X154993Y277813D01*
X154977Y277797D01*
X154960Y277777D01*
X154944Y277754D01*
X154931Y277728D01*
Y277725D01*
X154928Y277718D01*
X154921Y277708D01*
X154918Y277692D01*
X154905Y277652D01*
X154898Y277603D01*
Y277590D01*
X154895Y277577D01*
Y277531D01*
X154892Y277505D01*
Y277239D01*
X155534D01*
Y277449D01*
X155531Y277479D01*
Y277511D01*
X155528Y277547D01*
X155525Y277584D01*
X155521Y277616D01*
Y277620D01*
X155518Y277629D01*
X155515Y277646D01*
X155508Y277665D01*
X155485Y277715D01*
X155456Y277761D01*
X155452Y277764D01*
X155446Y277770D01*
X155439Y277780D01*
X155426Y277793D01*
X155390Y277823D01*
X155348Y277846D01*
X155344D01*
X155338Y277849D01*
X155321Y277856D01*
X155305Y277862D01*
X155279Y277866D01*
X155252Y277872D01*
X155220Y277875D01*
D02*
G37*
G36*
X111305Y242953D02*
X111269D01*
X111265D01*
X111252D01*
X111236Y242950D01*
X111216D01*
X111167Y242937D01*
X111141Y242930D01*
X111115Y242917D01*
X111111D01*
X111105Y242911D01*
X111091Y242904D01*
X111078Y242891D01*
X111062Y242874D01*
X111046Y242855D01*
X111029Y242832D01*
X111016Y242806D01*
Y242802D01*
X111013Y242796D01*
X111006Y242786D01*
X111003Y242770D01*
X110990Y242730D01*
X110983Y242681D01*
Y242668D01*
X110980Y242655D01*
Y242609D01*
X110977Y242583D01*
Y242317D01*
X111620D01*
Y242527D01*
X111616Y242556D01*
Y242589D01*
X111613Y242625D01*
X111610Y242661D01*
X111606Y242694D01*
Y242697D01*
X111603Y242707D01*
X111600Y242724D01*
X111593Y242743D01*
X111570Y242793D01*
X111541Y242838D01*
X111538Y242842D01*
X111531Y242848D01*
X111524Y242858D01*
X111511Y242871D01*
X111475Y242901D01*
X111433Y242924D01*
X111429D01*
X111423Y242927D01*
X111406Y242934D01*
X111390Y242940D01*
X111364Y242943D01*
X111337Y242950D01*
X111305Y242953D01*
D02*
G37*
G36*
X152677Y237853D02*
X152641D01*
X152637D01*
X152624D01*
X152608Y237850D01*
X152588D01*
X152539Y237837D01*
X152513Y237830D01*
X152487Y237817D01*
X152483D01*
X152477Y237810D01*
X152464Y237804D01*
X152451Y237791D01*
X152434Y237774D01*
X152418Y237755D01*
X152401Y237732D01*
X152388Y237706D01*
Y237702D01*
X152385Y237696D01*
X152378Y237686D01*
X152375Y237669D01*
X152362Y237630D01*
X152355Y237581D01*
Y237568D01*
X152352Y237555D01*
Y237509D01*
X152349Y237483D01*
Y237217D01*
X152992D01*
Y237427D01*
X152988Y237456D01*
Y237489D01*
X152985Y237525D01*
X152982Y237561D01*
X152979Y237594D01*
Y237597D01*
X152975Y237607D01*
X152972Y237624D01*
X152965Y237643D01*
X152943Y237692D01*
X152913Y237738D01*
X152910Y237742D01*
X152903Y237748D01*
X152896Y237758D01*
X152883Y237771D01*
X152847Y237801D01*
X152805Y237824D01*
X152801D01*
X152795Y237827D01*
X152778Y237833D01*
X152762Y237840D01*
X152736Y237843D01*
X152710Y237850D01*
X152677Y237853D01*
D02*
G37*
G36*
X128826Y330104D02*
X128616D01*
X128586Y330101D01*
X128553D01*
X128517Y330098D01*
X128481Y330095D01*
X128448Y330091D01*
X128445D01*
X128435Y330088D01*
X128419Y330085D01*
X128399Y330078D01*
X128350Y330055D01*
X128304Y330026D01*
X128301Y330022D01*
X128294Y330016D01*
X128285Y330009D01*
X128271Y329996D01*
X128242Y329960D01*
X128219Y329918D01*
Y329914D01*
X128216Y329908D01*
X128209Y329891D01*
X128202Y329875D01*
X128199Y329849D01*
X128193Y329822D01*
X128189Y329790D01*
Y329753D01*
Y329750D01*
Y329737D01*
X128193Y329721D01*
Y329701D01*
X128206Y329652D01*
X128212Y329626D01*
X128225Y329599D01*
Y329596D01*
X128232Y329590D01*
X128238Y329576D01*
X128252Y329563D01*
X128268Y329547D01*
X128288Y329530D01*
X128311Y329514D01*
X128337Y329501D01*
X128340D01*
X128347Y329498D01*
X128357Y329491D01*
X128373Y329488D01*
X128412Y329475D01*
X128462Y329468D01*
X128475D01*
X128488Y329465D01*
X128534D01*
X128560Y329462D01*
X128826D01*
Y330104D01*
D02*
G37*
G36*
X176859Y226431D02*
X176594D01*
Y225789D01*
X176804D01*
X176833Y225792D01*
X176866D01*
X176902Y225795D01*
X176938Y225799D01*
X176971Y225802D01*
X176974D01*
X176984Y225805D01*
X177000Y225808D01*
X177020Y225815D01*
X177069Y225838D01*
X177115Y225867D01*
X177118Y225871D01*
X177125Y225877D01*
X177135Y225884D01*
X177148Y225897D01*
X177178Y225933D01*
X177200Y225976D01*
Y225979D01*
X177204Y225985D01*
X177210Y226002D01*
X177217Y226018D01*
X177220Y226045D01*
X177227Y226071D01*
X177230Y226103D01*
Y226140D01*
Y226143D01*
Y226156D01*
X177227Y226172D01*
Y226192D01*
X177214Y226241D01*
X177207Y226268D01*
X177194Y226294D01*
Y226297D01*
X177187Y226304D01*
X177181Y226317D01*
X177168Y226330D01*
X177151Y226346D01*
X177131Y226363D01*
X177109Y226379D01*
X177082Y226392D01*
X177079D01*
X177073Y226395D01*
X177063Y226402D01*
X177046Y226405D01*
X177007Y226418D01*
X176958Y226425D01*
X176945D01*
X176932Y226428D01*
X176885D01*
X176859Y226431D01*
D02*
G37*
G36*
Y246988D02*
X176594D01*
Y246345D01*
X176804D01*
X176833Y246348D01*
X176866D01*
X176902Y246351D01*
X176938Y246355D01*
X176971Y246358D01*
X176974D01*
X176984Y246361D01*
X177000Y246364D01*
X177020Y246371D01*
X177069Y246394D01*
X177115Y246424D01*
X177118Y246427D01*
X177125Y246433D01*
X177135Y246440D01*
X177148Y246453D01*
X177178Y246489D01*
X177200Y246532D01*
Y246535D01*
X177204Y246542D01*
X177210Y246558D01*
X177217Y246574D01*
X177220Y246601D01*
X177227Y246627D01*
X177230Y246660D01*
Y246696D01*
Y246699D01*
Y246712D01*
X177227Y246728D01*
Y246748D01*
X177214Y246797D01*
X177207Y246824D01*
X177194Y246850D01*
Y246853D01*
X177187Y246860D01*
X177181Y246873D01*
X177168Y246886D01*
X177151Y246902D01*
X177131Y246919D01*
X177109Y246935D01*
X177082Y246948D01*
X177079D01*
X177073Y246952D01*
X177063Y246958D01*
X177046Y246961D01*
X177007Y246974D01*
X176958Y246981D01*
X176945D01*
X176932Y246984D01*
X176885D01*
X176859Y246988D01*
D02*
G37*
G36*
X181235Y247034D02*
X181228D01*
X181209Y247030D01*
X181176Y247024D01*
X181140Y247011D01*
X181100Y246991D01*
X181061Y246958D01*
X181041Y246938D01*
X181025Y246912D01*
X181005Y246886D01*
X180992Y246853D01*
Y246850D01*
X180989Y246843D01*
X180985Y246833D01*
X180982Y246817D01*
X180976Y246797D01*
X180969Y246774D01*
X180963Y246745D01*
X180956Y246709D01*
X180949Y246670D01*
X180943Y246623D01*
X180936Y246574D01*
X180930Y246519D01*
X180927Y246456D01*
X180923Y246387D01*
X180920Y246312D01*
Y246233D01*
Y246230D01*
Y246214D01*
Y246191D01*
Y246161D01*
X180923Y246128D01*
Y246086D01*
X180927Y246040D01*
X180930Y245994D01*
X180936Y245892D01*
X180949Y245790D01*
X180959Y245741D01*
X180969Y245695D01*
X180979Y245653D01*
X180992Y245617D01*
Y245613D01*
X180995Y245610D01*
X181005Y245587D01*
X181025Y245561D01*
X181051Y245528D01*
X181084Y245492D01*
X181127Y245466D01*
X181176Y245443D01*
X181205Y245440D01*
X181235Y245436D01*
X181241D01*
X181264Y245440D01*
X181294Y245446D01*
X181330Y245459D01*
X181369Y245479D01*
X181409Y245512D01*
X181428Y245535D01*
X181448Y245557D01*
X181464Y245584D01*
X181477Y245617D01*
Y245620D01*
X181481Y245626D01*
X181484Y245636D01*
X181491Y245653D01*
X181494Y245672D01*
X181500Y245695D01*
X181507Y245728D01*
X181517Y245761D01*
X181524Y245800D01*
X181530Y245846D01*
X181537Y245895D01*
X181540Y245954D01*
X181546Y246013D01*
X181550Y246082D01*
X181553Y246154D01*
Y246233D01*
Y246240D01*
Y246253D01*
Y246276D01*
Y246305D01*
X181550Y246341D01*
Y246384D01*
X181546Y246427D01*
X181543Y246476D01*
X181533Y246581D01*
X181520Y246683D01*
X181514Y246732D01*
X181504Y246774D01*
X181491Y246817D01*
X181477Y246853D01*
Y246856D01*
X181474Y246860D01*
X181464Y246883D01*
X181445Y246909D01*
X181422Y246945D01*
X181386Y246978D01*
X181346Y247004D01*
X181294Y247027D01*
X181264Y247030D01*
X181235Y247034D01*
D02*
G37*
G36*
X181199Y233942D02*
X181176D01*
X181159Y233939D01*
X181120Y233935D01*
X181071Y233926D01*
X181068D01*
X181061Y233922D01*
X181048Y233919D01*
X181032Y233916D01*
X180992Y233903D01*
X180946Y233886D01*
Y233883D01*
Y233873D01*
Y233857D01*
Y233830D01*
Y233824D01*
Y233804D01*
Y233778D01*
Y233738D01*
Y233735D01*
Y233729D01*
Y233719D01*
Y233706D01*
X180949Y233666D01*
Y233621D01*
X180953Y233568D01*
X180959Y233516D01*
X180969Y233460D01*
X180979Y233411D01*
X180982Y233404D01*
X180985Y233391D01*
X180992Y233368D01*
X181005Y233342D01*
X181032Y233283D01*
X181051Y233253D01*
X181071Y233227D01*
X181074Y233224D01*
X181077Y233217D01*
X181097Y233197D01*
X181127Y233174D01*
X181163Y233151D01*
X181166D01*
X181173Y233148D01*
X181182Y233145D01*
X181199Y233142D01*
X181235Y233135D01*
X181278Y233132D01*
X181294D01*
X181307Y233135D01*
X181340Y233142D01*
X181379Y233155D01*
X181382D01*
X181389Y233158D01*
X181399Y233165D01*
X181412Y233171D01*
X181441Y233194D01*
X181474Y233227D01*
X181477Y233230D01*
X181481Y233237D01*
X181491Y233246D01*
X181500Y233263D01*
X181524Y233302D01*
X181543Y233348D01*
Y233351D01*
X181546Y233361D01*
X181553Y233378D01*
X181556Y233401D01*
X181563Y233430D01*
X181566Y233463D01*
X181569Y233506D01*
Y233555D01*
Y233561D01*
Y233575D01*
Y233594D01*
X181566Y233621D01*
X181563Y233650D01*
X181556Y233683D01*
X181550Y233712D01*
X181540Y233742D01*
Y233745D01*
X181533Y233755D01*
X181527Y233768D01*
X181520Y233785D01*
X181494Y233824D01*
X181458Y233863D01*
X181455Y233867D01*
X181448Y233870D01*
X181438Y233876D01*
X181425Y233886D01*
X181386Y233906D01*
X181340Y233922D01*
X181336D01*
X181330Y233926D01*
X181314Y233929D01*
X181297Y233932D01*
X181278Y233935D01*
X181251Y233939D01*
X181199Y233942D01*
D02*
G37*
G36*
X176859Y234716D02*
X176594D01*
Y234073D01*
X176804D01*
X176833Y234076D01*
X176866D01*
X176902Y234080D01*
X176938Y234083D01*
X176971Y234086D01*
X176974D01*
X176984Y234089D01*
X177000Y234093D01*
X177020Y234099D01*
X177069Y234122D01*
X177115Y234152D01*
X177118Y234155D01*
X177125Y234162D01*
X177135Y234168D01*
X177148Y234181D01*
X177178Y234217D01*
X177200Y234260D01*
Y234263D01*
X177204Y234270D01*
X177210Y234286D01*
X177217Y234303D01*
X177220Y234329D01*
X177227Y234355D01*
X177230Y234388D01*
Y234424D01*
Y234427D01*
Y234440D01*
X177227Y234457D01*
Y234476D01*
X177214Y234526D01*
X177207Y234552D01*
X177194Y234578D01*
Y234581D01*
X177187Y234588D01*
X177181Y234601D01*
X177168Y234614D01*
X177151Y234631D01*
X177131Y234647D01*
X177109Y234664D01*
X177082Y234677D01*
X177079D01*
X177073Y234680D01*
X177063Y234686D01*
X177046Y234690D01*
X177007Y234703D01*
X176958Y234709D01*
X176945D01*
X176932Y234713D01*
X176885D01*
X176859Y234716D01*
D02*
G37*
G36*
X188277Y244211D02*
X188198D01*
X188195D01*
X188178D01*
X188155D01*
X188126D01*
X188093Y244208D01*
X188050D01*
X188004Y244205D01*
X187959Y244201D01*
X187857Y244195D01*
X187755Y244182D01*
X187706Y244172D01*
X187660Y244162D01*
X187617Y244152D01*
X187581Y244139D01*
X187578D01*
X187575Y244136D01*
X187552Y244126D01*
X187525Y244106D01*
X187493Y244080D01*
X187457Y244047D01*
X187430Y244005D01*
X187407Y243955D01*
X187404Y243926D01*
X187401Y243896D01*
Y243890D01*
X187404Y243867D01*
X187411Y243837D01*
X187424Y243801D01*
X187443Y243762D01*
X187476Y243722D01*
X187499Y243703D01*
X187522Y243683D01*
X187548Y243667D01*
X187581Y243653D01*
X187584D01*
X187591Y243650D01*
X187601Y243647D01*
X187617Y243640D01*
X187637Y243637D01*
X187660Y243631D01*
X187693Y243624D01*
X187726Y243614D01*
X187765Y243608D01*
X187811Y243601D01*
X187860Y243595D01*
X187919Y243591D01*
X187978Y243585D01*
X188047Y243581D01*
X188119Y243578D01*
X188198D01*
X188205D01*
X188218D01*
X188241D01*
X188270D01*
X188306Y243581D01*
X188349D01*
X188391Y243585D01*
X188441Y243588D01*
X188546Y243598D01*
X188647Y243611D01*
X188697Y243618D01*
X188739Y243627D01*
X188782Y243640D01*
X188818Y243653D01*
X188821D01*
X188824Y243657D01*
X188847Y243667D01*
X188874Y243686D01*
X188910Y243709D01*
X188943Y243745D01*
X188969Y243785D01*
X188992Y243837D01*
X188995Y243867D01*
X188998Y243896D01*
Y243903D01*
X188995Y243922D01*
X188988Y243955D01*
X188975Y243991D01*
X188956Y244031D01*
X188923Y244070D01*
X188903Y244090D01*
X188877Y244106D01*
X188851Y244126D01*
X188818Y244139D01*
X188814D01*
X188808Y244142D01*
X188798Y244146D01*
X188782Y244149D01*
X188762Y244155D01*
X188739Y244162D01*
X188710Y244168D01*
X188673Y244175D01*
X188634Y244182D01*
X188588Y244188D01*
X188539Y244195D01*
X188483Y244201D01*
X188421Y244205D01*
X188352Y244208D01*
X188277Y244211D01*
D02*
G37*
G36*
X209044Y388019D02*
X208965D01*
X208962D01*
X208946D01*
X208923D01*
X208893D01*
X208860Y388015D01*
X208818D01*
X208772Y388012D01*
X208726Y388009D01*
X208624Y388002D01*
X208523Y387989D01*
X208473Y387979D01*
X208427Y387969D01*
X208385Y387960D01*
X208349Y387947D01*
X208345D01*
X208342Y387943D01*
X208319Y387933D01*
X208293Y387914D01*
X208260Y387888D01*
X208224Y387855D01*
X208198Y387812D01*
X208175Y387763D01*
X208172Y387733D01*
X208168Y387704D01*
Y387697D01*
X208172Y387674D01*
X208178Y387645D01*
X208191Y387609D01*
X208211Y387569D01*
X208244Y387530D01*
X208267Y387510D01*
X208290Y387491D01*
X208316Y387474D01*
X208349Y387461D01*
X208352D01*
X208359Y387458D01*
X208368Y387455D01*
X208385Y387448D01*
X208404Y387445D01*
X208427Y387438D01*
X208460Y387432D01*
X208493Y387422D01*
X208532Y387415D01*
X208578Y387409D01*
X208627Y387402D01*
X208686Y387399D01*
X208746Y387392D01*
X208814Y387389D01*
X208887Y387386D01*
X208965D01*
X208972D01*
X208985D01*
X209008D01*
X209037D01*
X209073Y387389D01*
X209116D01*
X209159Y387392D01*
X209208Y387396D01*
X209313Y387405D01*
X209415Y387419D01*
X209464Y387425D01*
X209507Y387435D01*
X209549Y387448D01*
X209585Y387461D01*
X209589D01*
X209592Y387464D01*
X209615Y387474D01*
X209641Y387494D01*
X209677Y387517D01*
X209710Y387553D01*
X209736Y387592D01*
X209759Y387645D01*
X209762Y387674D01*
X209766Y387704D01*
Y387710D01*
X209762Y387730D01*
X209756Y387763D01*
X209743Y387799D01*
X209723Y387838D01*
X209690Y387878D01*
X209670Y387897D01*
X209644Y387914D01*
X209618Y387933D01*
X209585Y387947D01*
X209582D01*
X209575Y387950D01*
X209565Y387953D01*
X209549Y387956D01*
X209529Y387963D01*
X209507Y387969D01*
X209477Y387976D01*
X209441Y387983D01*
X209401Y387989D01*
X209356Y387996D01*
X209306Y388002D01*
X209251Y388009D01*
X209188Y388012D01*
X209120Y388015D01*
X209044Y388019D01*
D02*
G37*
G36*
X190308Y376871D02*
X189665D01*
Y376661D01*
X189668Y376632D01*
Y376599D01*
X189672Y376563D01*
X189675Y376527D01*
X189678Y376494D01*
Y376491D01*
X189681Y376481D01*
X189685Y376465D01*
X189691Y376445D01*
X189714Y376396D01*
X189744Y376350D01*
X189747Y376346D01*
X189753Y376340D01*
X189760Y376330D01*
X189773Y376317D01*
X189809Y376288D01*
X189852Y376265D01*
X189855D01*
X189862Y376261D01*
X189878Y376255D01*
X189895Y376248D01*
X189921Y376245D01*
X189947Y376238D01*
X189980Y376235D01*
X190016D01*
X190019D01*
X190032D01*
X190049Y376238D01*
X190068D01*
X190118Y376251D01*
X190144Y376258D01*
X190170Y376271D01*
X190173D01*
X190180Y376278D01*
X190193Y376284D01*
X190206Y376297D01*
X190223Y376314D01*
X190239Y376333D01*
X190255Y376356D01*
X190269Y376383D01*
Y376386D01*
X190272Y376392D01*
X190278Y376402D01*
X190282Y376419D01*
X190295Y376458D01*
X190301Y376507D01*
Y376520D01*
X190305Y376534D01*
Y376579D01*
X190308Y376606D01*
Y376871D01*
D02*
G37*
G36*
X181199Y255347D02*
X181179D01*
X181166Y255344D01*
X181133Y255338D01*
X181094Y255325D01*
X181090D01*
X181084Y255321D01*
X181077Y255315D01*
X181064Y255308D01*
X181032Y255282D01*
X180999Y255249D01*
X180995Y255246D01*
X180992Y255239D01*
X180985Y255229D01*
X180976Y255216D01*
X180966Y255197D01*
X180953Y255174D01*
X180943Y255147D01*
X180930Y255115D01*
Y255111D01*
X180927Y255098D01*
X180923Y255082D01*
X180917Y255056D01*
X180913Y255029D01*
X180907Y254993D01*
X180903Y254957D01*
Y254918D01*
Y254911D01*
Y254898D01*
Y254878D01*
X180907Y254852D01*
X180910Y254819D01*
X180913Y254790D01*
X180920Y254757D01*
X180930Y254728D01*
Y254724D01*
X180936Y254714D01*
X180943Y254701D01*
X180953Y254685D01*
X180976Y254649D01*
X181012Y254609D01*
X181015Y254606D01*
X181022Y254603D01*
X181032Y254596D01*
X181045Y254587D01*
X181081Y254567D01*
X181127Y254551D01*
X181130D01*
X181140Y254547D01*
X181153Y254544D01*
X181169D01*
X181192Y254541D01*
X181215Y254537D01*
X181271Y254534D01*
X181294D01*
X181314Y254537D01*
X181356Y254541D01*
X181405Y254551D01*
X181409D01*
X181419Y254554D01*
X181432Y254557D01*
X181448Y254564D01*
X181484Y254577D01*
X181520Y254590D01*
Y254593D01*
Y254603D01*
Y254616D01*
X181524Y254639D01*
Y254646D01*
X181527Y254665D01*
Y254695D01*
Y254737D01*
Y254741D01*
Y254747D01*
Y254757D01*
Y254770D01*
Y254806D01*
X181524Y254849D01*
X181520Y254902D01*
X181514Y254954D01*
X181504Y255006D01*
X181494Y255056D01*
Y255062D01*
X181487Y255075D01*
X181481Y255098D01*
X181471Y255128D01*
X181441Y255190D01*
X181422Y255220D01*
X181402Y255249D01*
X181399Y255252D01*
X181396Y255259D01*
X181376Y255279D01*
X181343Y255302D01*
X181307Y255325D01*
X181304D01*
X181297Y255328D01*
X181287Y255331D01*
X181274Y255338D01*
X181241Y255344D01*
X181199Y255347D01*
D02*
G37*
G36*
X176859Y255269D02*
X176594D01*
Y254626D01*
X176804D01*
X176833Y254629D01*
X176866D01*
X176902Y254632D01*
X176938Y254636D01*
X176971Y254639D01*
X176974D01*
X176984Y254642D01*
X177000Y254646D01*
X177020Y254652D01*
X177069Y254675D01*
X177115Y254705D01*
X177118Y254708D01*
X177125Y254714D01*
X177135Y254721D01*
X177148Y254734D01*
X177178Y254770D01*
X177200Y254813D01*
Y254816D01*
X177204Y254823D01*
X177210Y254839D01*
X177217Y254855D01*
X177220Y254882D01*
X177227Y254908D01*
X177230Y254941D01*
Y254977D01*
Y254980D01*
Y254993D01*
X177227Y255010D01*
Y255029D01*
X177214Y255079D01*
X177207Y255105D01*
X177194Y255131D01*
Y255134D01*
X177187Y255141D01*
X177181Y255154D01*
X177168Y255167D01*
X177151Y255184D01*
X177131Y255200D01*
X177109Y255216D01*
X177082Y255229D01*
X177079D01*
X177073Y255233D01*
X177063Y255239D01*
X177046Y255243D01*
X177007Y255256D01*
X176958Y255262D01*
X176945D01*
X176932Y255265D01*
X176885D01*
X176859Y255269D01*
D02*
G37*
%LPD*%
D15*
X154050Y270913D02*
X159610D01*
Y282378D01*
X154050D02*
X159610D01*
X154050Y270913D02*
Y282378D01*
X110750Y236211D02*
Y247235D01*
X115080D01*
Y236211D02*
Y247235D01*
X110750Y236211D02*
X115080D01*
X152171Y231111D02*
Y242135D01*
X156502D01*
Y231111D02*
Y242135D01*
X152171Y231111D02*
X156502D01*
X135152Y328620D02*
Y334180D01*
X123687D02*
X135152D01*
X123687Y328620D02*
Y334180D01*
Y328620D02*
X135152D01*
X183717Y222890D02*
Y234110D01*
X190213D01*
Y222890D02*
Y234110D01*
X183717Y222890D02*
X190213D01*
X170095Y222278D02*
Y226609D01*
Y222278D02*
X181905D01*
Y226609D01*
X170095D02*
X181905D01*
X170095Y247165D02*
X181905D01*
Y242835D02*
Y247165D01*
X170095Y242835D02*
X181905D01*
X170095D02*
Y247165D01*
Y234894D02*
X181905D01*
Y230563D02*
Y234894D01*
X170095Y230563D02*
X181905D01*
X170095D02*
Y234894D01*
X190213Y243465D02*
Y254686D01*
X183717Y243465D02*
X190213D01*
X183717D02*
Y254686D01*
X190213D01*
X210094Y388343D02*
Y397423D01*
X205370Y388343D02*
X210094D01*
X205370D02*
Y397423D01*
X210094D01*
X171463Y371481D02*
Y388435D01*
X181527D01*
Y371481D02*
Y388435D01*
X171463Y371481D02*
X181527D01*
X191149Y371732D02*
Y383197D01*
X185590Y371732D02*
X191149D01*
X185590D02*
Y383197D01*
X191149D01*
X106272Y301795D02*
Y326205D01*
X122571D01*
Y301795D02*
Y326205D01*
X106272Y301795D02*
X122571D01*
X105929Y289705D02*
X122228D01*
X105929Y265295D02*
Y289705D01*
Y265295D02*
X122228D01*
Y289705D01*
X170095Y255450D02*
X181905D01*
Y251119D02*
Y255450D01*
X170095Y251119D02*
X181905D01*
X170095D02*
Y255450D01*
M02*
